<svg width="190" height="190" viewBox="0 0 190 190" fill="none" xmlns="http://www.w3.org/2000/svg">
<path d="M184.164 103.578L146.683 168.497C143.754 173.571 138.34 176.696 132.481 176.696L57.519 176.696C51.66 176.696 46.246 173.571 43.3165 168.497L5.83563 103.578C2.90611 98.5038 2.90612 92.2523 5.83563 87.1783L43.3165 22.2595C46.246 17.1854 51.66 14.0597 57.519 14.0597L132.481 14.0597C138.34 14.0597 143.754 17.1854 146.683 22.2595L184.164 87.1783C187.094 92.2523 187.094 98.5038 184.164 103.578Z" fill="white" fill-opacity="0.7" stroke="white"/>
<g clip-path="url(#clip0_228_238)">
<path d="M108.3 78.083C113.132 78.083 117.05 74.1655 117.05 69.333C117.05 64.5005 113.132 60.583 108.3 60.583C103.467 60.583 99.5498 64.5005 99.5498 69.333C99.5498 74.1655 103.467 78.083 108.3 78.083Z" fill="#37474F"/>
<path d="M82.0498 78.083C86.8823 78.083 90.7998 74.1655 90.7998 69.333C90.7998 64.5005 86.8823 60.583 82.0498 60.583C77.2173 60.583 73.2998 64.5005 73.2998 69.333C73.2998 74.1655 77.2173 78.083 82.0498 78.083Z" fill="#37474F"/>
<path d="M128.279 82.4577L105.966 86.8327H84.5288L62.2163 82.4577L68.4871 70.9368C70.0913 68.166 73.008 66.416 76.2163 66.416H114.425C117.633 66.416 120.55 68.166 122.154 70.9368L128.279 82.4577Z" fill="#37474F"/>
<path d="M115.592 104.333C123.646 104.333 130.175 97.8035 130.175 89.7493C130.175 81.6952 123.646 75.166 115.592 75.166C107.537 75.166 101.008 81.6952 101.008 89.7493C101.008 97.8035 107.537 104.333 115.592 104.333Z" fill="#37474F"/>
<path d="M74.7581 104.333C82.8123 104.333 89.3415 97.8035 89.3415 89.7493C89.3415 81.6952 82.8123 75.166 74.7581 75.166C66.704 75.166 60.1748 81.6952 60.1748 89.7493C60.1748 97.8035 66.704 104.333 74.7581 104.333Z" fill="#37474F"/>
<path d="M95.175 94.1243C99.202 94.1243 102.467 90.8598 102.467 86.8327C102.467 82.8056 99.202 79.541 95.175 79.541C91.1479 79.541 87.8833 82.8056 87.8833 86.8327C87.8833 90.8598 91.1479 94.1243 95.175 94.1243Z" fill="#37474F"/>
<path d="M95.175 89.7503C96.7858 89.7503 98.0916 88.4445 98.0916 86.8337C98.0916 85.2228 96.7858 83.917 95.175 83.917C93.5641 83.917 92.2583 85.2228 92.2583 86.8337C92.2583 88.4445 93.5641 89.7503 95.175 89.7503Z" fill="#546E7A"/>
<path d="M115.592 99.9587C121.23 99.9587 125.8 95.3882 125.8 89.7503C125.8 84.1124 121.23 79.542 115.592 79.542C109.954 79.542 105.383 84.1124 105.383 89.7503C105.383 95.3882 109.954 99.9587 115.592 99.9587Z" fill="#17A6E5"/>
<path d="M74.7581 99.9587C80.396 99.9587 84.9665 95.3882 84.9665 89.7503C84.9665 84.1124 80.396 79.542 74.7581 79.542C69.1202 79.542 64.5498 84.1124 64.5498 89.7503C64.5498 95.3882 69.1202 99.9587 74.7581 99.9587Z" fill="#17A6E5"/>
<path d="M120.987 86.3962C119.529 84.792 117.633 83.917 115.591 83.917C113.55 83.917 111.508 84.792 110.195 86.3962C109.612 86.9795 109.758 87.8545 110.341 88.4378C110.925 89.0212 111.8 88.8753 112.383 88.292C114.133 86.3962 117.195 86.3962 118.945 88.292C119.237 88.5837 119.675 88.7295 119.966 88.7295C120.258 88.7295 120.695 88.5837 120.987 88.292C121.57 87.8545 121.57 86.9795 120.987 86.3962ZM74.7579 83.917C72.7162 83.917 70.6746 84.792 69.3621 86.3962C68.7787 86.9795 68.9246 87.8545 69.5079 88.4378C70.0912 89.0212 70.9662 88.8753 71.5496 88.292C73.2996 86.3962 76.3621 86.3962 78.1121 88.292C78.4037 88.5837 78.8412 88.7295 79.1329 88.7295C79.4246 88.7295 79.8621 88.5837 80.1537 88.292C80.7371 87.7087 80.7371 86.8337 80.2996 86.2503C78.8412 84.792 76.7996 83.917 74.7579 83.917Z" fill="#A6DCF3"/>
</g>
<path d="M61.7502 140V129.818H65.8269C66.5759 129.818 67.2007 129.929 67.7012 130.151C68.2016 130.373 68.5778 130.682 68.8297 131.076C69.0816 131.467 69.2076 131.918 69.2076 132.428C69.2076 132.826 69.128 133.176 68.9689 133.477C68.8098 133.776 68.5911 134.021 68.3127 134.213C68.0376 134.402 67.7227 134.536 67.3681 134.616V134.715C67.7559 134.732 68.1188 134.841 68.4569 135.043C68.7982 135.246 69.075 135.529 69.2871 135.893C69.4992 136.255 69.6053 136.686 69.6053 137.186C69.6053 137.726 69.4711 138.209 69.2026 138.633C68.9374 139.054 68.5447 139.387 68.0243 139.632C67.504 139.877 66.8626 140 66.1003 140H61.7502ZM63.9029 138.24H65.6578C66.2578 138.24 66.6953 138.126 66.9703 137.897C67.2454 137.665 67.383 137.357 67.383 136.972C67.383 136.691 67.315 136.442 67.1792 136.227C67.0433 136.011 66.8494 135.842 66.5975 135.719C66.3489 135.597 66.0523 135.536 65.7076 135.536H63.9029V138.24ZM63.9029 134.079H65.4988C65.7937 134.079 66.0556 134.027 66.2843 133.925C66.5163 133.819 66.6986 133.67 66.8311 133.477C66.967 133.285 67.035 133.055 67.035 132.786C67.035 132.418 66.9041 132.122 66.6422 131.896C66.3837 131.671 66.0158 131.558 65.5385 131.558H63.9029V134.079ZM80.3626 134.909C80.3626 136.019 80.1521 136.964 79.7312 137.743C79.3136 138.522 78.7435 139.117 78.021 139.528C77.3017 139.935 76.493 140.139 75.5948 140.139C74.69 140.139 73.878 139.934 73.1587 139.523C72.4395 139.112 71.8711 138.517 71.4535 137.738C71.0359 136.959 70.8271 136.016 70.8271 134.909C70.8271 133.799 71.0359 132.854 71.4535 132.075C71.8711 131.296 72.4395 130.703 73.1587 130.295C73.878 129.884 74.69 129.679 75.5948 129.679C76.493 129.679 77.3017 129.884 78.021 130.295C78.7435 130.703 79.3136 131.296 79.7312 132.075C80.1521 132.854 80.3626 133.799 80.3626 134.909ZM78.18 134.909C78.18 134.19 78.0723 133.583 77.8569 133.089C77.6448 132.596 77.3448 132.221 76.957 131.966C76.5692 131.711 76.1152 131.583 75.5948 131.583C75.0745 131.583 74.6204 131.711 74.2326 131.966C73.8448 132.221 73.5432 132.596 73.3278 133.089C73.1156 133.583 73.0096 134.19 73.0096 134.909C73.0096 135.628 73.1156 136.235 73.3278 136.729C73.5432 137.223 73.8448 137.597 74.2326 137.852C74.6204 138.107 75.0745 138.235 75.5948 138.235C76.1152 138.235 76.5692 138.107 76.957 137.852C77.3448 137.597 77.6448 137.223 77.8569 136.729C78.0723 136.235 78.18 135.628 78.18 134.909ZM81.9572 140V129.818H84.1099V138.225H88.475V140H81.9572ZM89.7912 140V138.722L94.8722 131.593H89.7812V129.818H97.5767V131.096L92.4908 138.225H97.5866V140H89.7912ZM99.2385 140V129.818H101.391V134.019H105.761V129.818H107.909V140H105.761V135.794H101.391V140H99.2385ZM111.439 140H109.132L112.647 129.818H115.421L118.931 140H116.624L114.074 132.145H113.994L111.439 140ZM111.295 135.998H116.743V137.678H111.295V135.998ZM126.445 129.818H128.598V136.43C128.598 137.173 128.421 137.822 128.066 138.379C127.715 138.936 127.223 139.37 126.59 139.682C125.957 139.99 125.219 140.144 124.377 140.144C123.532 140.144 122.793 139.99 122.16 139.682C121.527 139.37 121.035 138.936 120.683 138.379C120.332 137.822 120.156 137.173 120.156 136.43V129.818H122.309V136.246C122.309 136.634 122.394 136.979 122.563 137.281C122.735 137.582 122.977 137.819 123.289 137.991C123.6 138.164 123.963 138.25 124.377 138.25C124.795 138.25 125.158 138.164 125.466 137.991C125.778 137.819 126.018 137.582 126.187 137.281C126.359 136.979 126.445 136.634 126.445 136.246V129.818Z" fill="black"/>
<defs>
<clipPath id="clip0_228_238">
<rect width="70" height="70" fill="white" transform="translate(60.1748 46)"/>
</clipPath>
</defs>
</svg>
