<svg width="189" height="190" viewBox="0 0 189 190" fill="none" xmlns="http://www.w3.org/2000/svg">
<path d="M183.64 103.151L146.159 168.07C143.229 173.144 137.815 176.27 131.956 176.27L56.9945 176.27C51.1355 176.27 45.7216 173.144 42.7921 168.07L5.31121 103.151C2.38169 98.077 2.38171 91.8256 5.31121 86.7515L42.7921 21.8327C45.7216 16.7587 51.1356 13.6329 56.9946 13.6329L131.956 13.6329C137.815 13.6329 143.229 16.7587 146.159 21.8327L183.64 86.7515C186.569 91.8256 186.569 98.0771 183.64 103.151Z" fill="white" fill-opacity="0.7" stroke="white"/>
<g clip-path="url(#clip0_228_272)">
<path d="M85.3801 57.1455L82.9612 63.3741H82.1132L79.6943 57.1455H80.5738L82.5379 62.4876L84.5006 57.1455H85.3801ZM90.7722 63.3741H86.1341V57.1455H90.6282V57.885H86.9594V59.788H90.3916V60.5275H86.9594V62.6346H90.7736V63.3741H90.7722ZM96.351 57.885H94.2928V63.3741H93.4661V57.885H91.4264V57.1455H96.351V57.885ZM98.1669 63.3741H97.3402V57.1455H98.1669V63.3741ZM99.6507 57.1455H101.625C103.737 57.1455 104.793 58.1719 104.793 60.2263C104.793 62.3248 103.737 63.3755 101.625 63.3755H99.6507V57.1469V57.1455ZM100.475 62.6346H101.606C102.509 62.6346 103.124 62.4248 103.452 62.0036C103.781 61.5839 103.944 60.99 103.944 60.2263C103.944 59.4811 103.781 58.9043 103.455 58.4974C103.127 58.0891 102.513 57.885 101.608 57.885H100.476V62.6346H100.475ZM106.872 63.3741H106.001V62.5018H106.872V63.3741ZM113.421 63.3741H112.335L110.13 60.2677L109.162 61.2156V63.3741H108.338V57.1455H109.162V60.2348L112.195 57.1455H113.306L110.7 59.7038L113.42 63.3741H113.421ZM118.512 63.3741H113.595V62.6018L117.459 57.885H113.95V57.1455H118.405V57.9178L114.541 62.6346H118.512V63.3741Z" fill="#201E1E"/>
<path fill-rule="evenodd" clip-rule="evenodd" d="M101.467 90.9498C101.341 90.4187 100.909 89.1167 100.643 88.7898C100.42 87.9889 99.2986 86.43 98.8482 85.6805C98.2766 84.7297 97.668 83.3507 96.5063 83.0794C95.4915 82.8425 93.0099 83.078 91.8953 83.1822C90.0395 83.3564 90.3673 84.5142 88.302 82.9752C87.7048 82.5312 87.5066 82.3471 87.0733 81.7332C85.9102 80.0872 87.1318 80.4869 88.4274 79.1892C88.6469 78.9694 88.7838 78.7467 88.9961 78.524C89.227 78.2813 89.4579 78.1414 89.706 77.8987C90.1464 77.4661 90.4357 77.0079 90.8633 76.5867C91.3152 76.1428 91.633 75.7316 92.005 75.2619C92.3443 74.8308 92.6963 74.3368 92.98 73.7687C93.1696 73.3875 93.1738 73.2305 93.3064 72.8693C93.5045 72.3282 93.6941 72.491 93.8366 72.0684C93.4005 71.2932 91.7727 71.0405 92.5153 69.5059C92.8047 69.7871 92.8788 70.3324 94.1231 70.5637C96.1029 70.932 95.3233 71.1947 95.9575 71.3989C96.331 71.5188 99.2501 69.957 99.7618 69.927C99.8901 71.426 99.0776 71.3575 98.8382 72.274C99.2843 72.8707 100.961 73.4689 101.907 73.7787C106.207 75.1848 110.214 74.2997 114.464 74.9022C117.051 75.2691 119.449 76.0485 122.101 76.2941C123.749 76.4468 125.197 76.3755 126.544 76.2127L105.922 96.3789C105.286 96.0078 104.568 95.6965 103.901 95.234C102.404 94.1961 102.189 92.8613 101.471 90.9498H101.467Z" fill="url(#paint0_linear_228_272)"/>
<path fill-rule="evenodd" clip-rule="evenodd" d="M64.7776 64.8459C62.2405 62.3376 62.145 62.7487 62.8406 58.1005C63.2482 55.3766 63.6844 52.6499 64.1091 49.8775C64.4769 47.482 64.8303 43.9302 65.5145 41.7788C66.2528 39.4575 69.0095 39.4803 72.0612 39.0235C74.7822 38.6152 77.5074 38.1698 80.2669 37.7487C82.3778 37.426 86.8734 36.2397 88.5211 37.3075L93.2932 42.0229C96.4475 45.2121 99.5077 48.2658 102.693 51.4308C103.522 52.2545 104.193 52.9397 105.018 53.7649C105.628 54.3745 106.682 55.9291 108.018 55.5237C108.892 55.2581 109.548 54.1646 108.095 52.6571L96.1966 40.7281C94.6102 39.1192 93.0922 37.5317 91.4459 35.9827C87.6773 32.4352 82.1441 34.5766 77.1454 35.3303C64.0963 37.2976 63.3865 36.4182 61.8628 45.6633C61.0688 50.4714 60.2136 55.5736 59.6093 60.3989C59.4297 61.8251 59.4012 62.9186 60.0797 64.0007C60.56 64.7659 61.619 65.8894 62.6097 66.8902C66.8372 71.153 71.0591 75.3458 75.3494 79.5901C81.9217 86.0914 94.0871 98.3901 96.238 100.563C97.2614 101.596 98.5028 103.061 100.902 102.998C103.328 102.936 104.166 101.455 105.355 100.324C106.589 99.1496 107.806 97.9847 108.959 96.7626C113.185 92.2814 119.007 86.9508 123.278 82.421C124.309 81.3289 125.676 79.877 126.837 78.8178C128.931 76.9076 128.997 74.121 127.319 71.9425C125.821 70.4249 119.589 63.2555 118.062 63.985C117.232 64.7759 116.827 65.3984 117.729 66.4905C118.275 67.1514 119.101 67.8795 119.701 68.4663C121.977 70.6905 127.366 74.2566 124.665 77.0019L105.329 96.3515C101.45 100.159 101.198 101.401 98.5128 98.6471L77.7939 77.7513C73.3183 73.2373 69.3402 69.3571 64.7805 64.8487L64.7776 64.8459ZM72.3562 48.7312C72.0911 46.3385 75.5419 46.0159 75.7728 48.2472C75.8697 49.1909 75.2155 50.0231 74.393 50.1545C73.3497 50.3215 72.456 49.6306 72.3562 48.7312ZM72.8864 44.0415C66.9684 45.6518 69.3872 54.5415 75.3423 52.8898C77.3521 52.3316 79.2307 50.0774 78.5208 47.3207C77.9493 45.1008 75.7899 43.2521 72.8864 44.0415Z" fill="#FFCC29"/>
</g>
<path d="M42.6254 116.818V127H40.4976V118.568H36.3811V127H34.2533V116.818H42.6254ZM44.6352 129.864V119.364H46.7233V120.646H46.8177C46.9105 120.441 47.0448 120.232 47.2204 120.02C47.3994 119.804 47.6314 119.625 47.9165 119.483C48.2048 119.337 48.5628 119.264 48.9903 119.264C49.5471 119.264 50.0609 119.41 50.5315 119.702C51.0022 119.99 51.3783 120.426 51.6601 121.009C51.9418 121.589 52.0827 122.317 52.0827 123.192C52.0827 124.044 51.9451 124.763 51.67 125.349C51.3982 125.933 51.027 126.375 50.5564 126.677C50.089 126.975 49.5654 127.124 48.9854 127.124C48.5744 127.124 48.2247 127.056 47.9363 126.92C47.6513 126.785 47.4176 126.614 47.2354 126.408C47.0531 126.2 46.9139 125.989 46.8177 125.777H46.7531V129.864H44.6352ZM46.7084 123.182C46.7084 123.636 46.7713 124.032 46.8973 124.37C47.0232 124.708 47.2055 124.972 47.4442 125.161C47.6828 125.346 47.9728 125.439 48.3142 125.439C48.6589 125.439 48.9506 125.344 49.1892 125.156C49.4278 124.963 49.6085 124.698 49.7311 124.36C49.857 124.019 49.92 123.626 49.92 123.182C49.92 122.741 49.8587 122.353 49.7361 122.018C49.6134 121.684 49.4328 121.422 49.1942 121.233C48.9555 121.044 48.6622 120.95 48.3142 120.95C47.9695 120.95 47.6778 121.041 47.4392 121.223C47.2039 121.405 47.0232 121.664 46.8973 121.999C46.7713 122.333 46.7084 122.728 46.7084 123.182ZM56.9449 127.149C56.1726 127.149 55.5048 126.985 54.9413 126.657C54.3812 126.326 53.9487 125.865 53.6437 125.275C53.3388 124.682 53.1863 123.994 53.1863 123.212C53.1863 122.423 53.3388 121.733 53.6437 121.143C53.9487 120.55 54.3812 120.089 54.9413 119.761C55.5048 119.43 56.1726 119.264 56.9449 119.264C57.7171 119.264 58.3833 119.43 58.9434 119.761C59.5069 120.089 59.9411 120.55 60.246 121.143C60.5509 121.733 60.7034 122.423 60.7034 123.212C60.7034 123.994 60.5509 124.682 60.246 125.275C59.9411 125.865 59.5069 126.326 58.9434 126.657C58.3833 126.985 57.7171 127.149 56.9449 127.149ZM56.9548 125.509C57.3061 125.509 57.5995 125.409 57.8348 125.21C58.0701 125.008 58.2474 124.733 58.3667 124.385C58.4894 124.037 58.5507 123.641 58.5507 123.197C58.5507 122.753 58.4894 122.357 58.3667 122.009C58.2474 121.661 58.0701 121.385 57.8348 121.183C57.5995 120.981 57.3061 120.88 56.9548 120.88C56.6002 120.88 56.3019 120.981 56.0599 121.183C55.8213 121.385 55.6407 121.661 55.518 122.009C55.3987 122.357 55.339 122.753 55.339 123.197C55.339 123.641 55.3987 124.037 55.518 124.385C55.6407 124.733 55.8213 125.008 56.0599 125.21C56.3019 125.409 56.6002 125.509 56.9548 125.509ZM68.7574 119.364V125.538H69.9754V129.456H67.9172V127H62.0805V119.364H64.104V125.335H66.7588V119.364H68.7574ZM74.6798 127.149C73.8943 127.149 73.2181 126.99 72.6514 126.672C72.0879 126.35 71.6537 125.896 71.3488 125.31C71.0439 124.72 70.8914 124.022 70.8914 123.217C70.8914 122.431 71.0439 121.742 71.3488 121.148C71.6537 120.555 72.0829 120.093 72.6365 119.761C73.1933 119.43 73.8462 119.264 74.5953 119.264C75.099 119.264 75.568 119.345 76.0022 119.508C76.4397 119.667 76.8209 119.907 77.1457 120.229C77.4738 120.55 77.729 120.955 77.9113 121.442C78.0936 121.926 78.1847 122.492 78.1847 123.142V123.724H71.7366V122.411H76.1911C76.1911 122.106 76.1249 121.836 75.9923 121.601C75.8597 121.366 75.6758 121.182 75.4404 121.049C75.2084 120.913 74.9383 120.845 74.6301 120.845C74.3086 120.845 74.0235 120.92 73.7749 121.069C73.5297 121.215 73.3374 121.412 73.1982 121.661C73.059 121.906 72.9878 122.179 72.9845 122.481V123.729C72.9845 124.107 73.0541 124.433 73.1933 124.708C73.3358 124.983 73.5363 125.195 73.7948 125.344C74.0534 125.494 74.3599 125.568 74.7146 125.568C74.9499 125.568 75.1653 125.535 75.3609 125.469C75.5564 125.402 75.7238 125.303 75.863 125.17C76.0022 125.038 76.1083 124.875 76.1812 124.683L78.14 124.812C78.0406 125.283 77.8367 125.694 77.5285 126.045C77.2236 126.393 76.8292 126.665 76.3453 126.861C75.8647 127.053 75.3095 127.149 74.6798 127.149ZM83.0171 127.149C82.2349 127.149 81.5621 126.983 80.9987 126.652C80.4385 126.317 80.0077 125.853 79.7061 125.26C79.4078 124.667 79.2586 123.984 79.2586 123.212C79.2586 122.429 79.4094 121.743 79.711 121.153C80.016 120.56 80.4485 120.098 81.0086 119.766C81.5687 119.432 82.2349 119.264 83.0072 119.264C83.6734 119.264 84.2567 119.385 84.7572 119.627C85.2577 119.869 85.6537 120.209 85.9454 120.646C86.2371 121.084 86.3978 121.598 86.4276 122.188H84.4291C84.3727 121.806 84.2236 121.5 83.9816 121.268C83.743 121.032 83.4298 120.915 83.042 120.915C82.7139 120.915 82.4272 121.004 82.1819 121.183C81.94 121.359 81.751 121.616 81.6151 121.954C81.4793 122.292 81.4113 122.701 81.4113 123.182C81.4113 123.669 81.4776 124.083 81.6102 124.425C81.7461 124.766 81.9366 125.026 82.1819 125.205C82.4272 125.384 82.7139 125.474 83.042 125.474C83.2839 125.474 83.501 125.424 83.6933 125.325C83.8888 125.225 84.0496 125.081 84.1755 124.892C84.3048 124.7 84.3893 124.469 84.4291 124.201H86.4276C86.3945 124.784 86.2354 125.298 85.9504 125.742C85.6686 126.183 85.2792 126.528 84.782 126.776C84.2849 127.025 83.6966 127.149 83.0171 127.149ZM91.2339 127.149C90.4517 127.149 89.7789 126.983 89.2155 126.652C88.6553 126.317 88.2245 125.853 87.9229 125.26C87.6246 124.667 87.4754 123.984 87.4754 123.212C87.4754 122.429 87.6262 121.743 87.9278 121.153C88.2327 120.56 88.6653 120.098 89.2254 119.766C89.7855 119.432 90.4517 119.264 91.224 119.264C91.8902 119.264 92.4735 119.385 92.974 119.627C93.4745 119.869 93.8705 120.209 94.1622 120.646C94.4539 121.084 94.6146 121.598 94.6444 122.188H92.6459C92.5895 121.806 92.4404 121.5 92.1984 121.268C91.9598 121.032 91.6466 120.915 91.2588 120.915C90.9307 120.915 90.644 121.004 90.3987 121.183C90.1568 121.359 89.9678 121.616 89.8319 121.954C89.6961 122.292 89.6281 122.701 89.6281 123.182C89.6281 123.669 89.6944 124.083 89.827 124.425C89.9629 124.766 90.1534 125.026 90.3987 125.205C90.644 125.384 90.9307 125.474 91.2588 125.474C91.5007 125.474 91.7178 125.424 91.9101 125.325C92.1056 125.225 92.2664 125.081 92.3923 124.892C92.5216 124.7 92.6061 124.469 92.6459 124.201H94.6444C94.6113 124.784 94.4522 125.298 94.1672 125.742C93.8854 126.183 93.496 126.528 92.9988 126.776C92.5017 127.025 91.9134 127.149 91.2339 127.149ZM98.0239 124.206L100.773 119.364H102.861V127H100.843V122.143L98.1034 127H96.0004V119.364H98.0239V124.206ZM109.874 122.337V124.002H105.886V122.337H109.874ZM106.582 119.364V127H104.559V119.364H106.582ZM111.201 119.364V127H109.193V119.364H111.201ZM118.074 119.364V121.029H114.902V127H112.844V119.364H118.074ZM122.543 127.149C121.77 127.149 121.102 126.985 120.539 126.657C119.979 126.326 119.546 125.865 119.241 125.275C118.936 124.682 118.784 123.994 118.784 123.212C118.784 122.423 118.936 121.733 119.241 121.143C119.546 120.55 119.979 120.089 120.539 119.761C121.102 119.43 121.77 119.264 122.543 119.264C123.315 119.264 123.981 119.43 124.541 119.761C125.105 120.089 125.539 120.55 125.844 121.143C126.149 121.733 126.301 122.423 126.301 123.212C126.301 123.994 126.149 124.682 125.844 125.275C125.539 125.865 125.105 126.326 124.541 126.657C123.981 126.985 123.315 127.149 122.543 127.149ZM122.552 125.509C122.904 125.509 123.197 125.409 123.432 125.21C123.668 125.008 123.845 124.733 123.964 124.385C124.087 124.037 124.148 123.641 124.148 123.197C124.148 122.753 124.087 122.357 123.964 122.009C123.845 121.661 123.668 121.385 123.432 121.183C123.197 120.981 122.904 120.88 122.552 120.88C122.198 120.88 121.9 120.981 121.658 121.183C121.419 121.385 121.238 121.661 121.116 122.009C120.996 122.357 120.937 122.753 120.937 123.197C120.937 123.641 120.996 124.037 121.116 124.385C121.238 124.733 121.419 125.008 121.658 125.21C121.9 125.409 122.198 125.509 122.552 125.509ZM127.678 127V119.364H130.935C131.876 119.364 132.62 119.543 133.167 119.901C133.714 120.259 133.987 120.767 133.987 121.427C133.987 121.841 133.833 122.186 133.525 122.461C133.217 122.736 132.789 122.922 132.242 123.018C132.699 123.051 133.089 123.155 133.41 123.331C133.735 123.503 133.982 123.727 134.151 124.002C134.324 124.277 134.41 124.582 134.41 124.917C134.41 125.351 134.294 125.724 134.062 126.036C133.833 126.347 133.497 126.586 133.052 126.751C132.612 126.917 132.073 127 131.437 127H127.678ZM129.652 125.414H131.437C131.732 125.414 131.962 125.344 132.128 125.205C132.297 125.063 132.381 124.869 132.381 124.624C132.381 124.352 132.297 124.138 132.128 123.982C131.962 123.826 131.732 123.749 131.437 123.749H129.652V125.414ZM129.652 122.506H130.979C131.191 122.506 131.372 122.476 131.521 122.416C131.674 122.353 131.79 122.264 131.869 122.148C131.952 122.032 131.994 121.894 131.994 121.735C131.994 121.5 131.899 121.316 131.71 121.183C131.521 121.051 131.263 120.984 130.935 120.984H129.652V122.506ZM137.072 121.71H139.354C140.365 121.71 141.154 121.952 141.72 122.436C142.287 122.917 142.571 123.56 142.571 124.365C142.571 124.889 142.443 125.349 142.188 125.747C141.933 126.142 141.565 126.45 141.084 126.672C140.603 126.891 140.027 127 139.354 127H135.745V119.364H137.768V125.335H139.354C139.709 125.335 140 125.245 140.229 125.066C140.458 124.887 140.574 124.658 140.577 124.38C140.574 124.085 140.458 123.845 140.229 123.659C140 123.47 139.709 123.376 139.354 123.376H137.072V121.71ZM143.391 127V119.364H145.509V127H143.391ZM149.225 124.206L151.974 119.364H154.062V127H152.044V122.143L149.305 127H147.202V119.364H149.225V124.206ZM151.611 116.699H153.088C153.085 117.302 152.861 117.788 152.417 118.156C151.976 118.523 151.379 118.707 150.627 118.707C149.871 118.707 149.273 118.523 148.832 118.156C148.391 117.788 148.171 117.302 148.171 116.699H149.638C149.634 116.928 149.707 117.133 149.856 117.315C150.009 117.498 150.266 117.589 150.627 117.589C150.978 117.589 151.23 117.499 151.383 117.32C151.535 117.141 151.611 116.934 151.611 116.699ZM80.4878 140.364V146.538H81.7059V150.456H79.6476V148H73.811V140.364H75.8344V146.335H78.4893V140.364H80.4878ZM86.4102 148.149C85.6247 148.149 84.9486 147.99 84.3818 147.672C83.8184 147.35 83.3842 146.896 83.0793 146.31C82.7744 145.72 82.6219 145.022 82.6219 144.217C82.6219 143.431 82.7744 142.742 83.0793 142.148C83.3842 141.555 83.8134 141.093 84.3669 140.761C84.9237 140.43 85.5767 140.264 86.3257 140.264C86.8295 140.264 87.2985 140.345 87.7327 140.508C88.1702 140.667 88.5513 140.907 88.8762 141.229C89.2043 141.55 89.4595 141.955 89.6418 142.442C89.8241 142.926 89.9152 143.492 89.9152 144.142V144.724H83.4671V143.411H87.9216C87.9216 143.106 87.8553 142.836 87.7227 142.601C87.5902 142.366 87.4062 142.182 87.1709 142.049C86.9389 141.913 86.6688 141.845 86.3605 141.845C86.039 141.845 85.754 141.92 85.5054 142.069C85.2602 142.215 85.0679 142.412 84.9287 142.661C84.7895 142.906 84.7182 143.179 84.7149 143.481V144.729C84.7149 145.107 84.7845 145.433 84.9237 145.708C85.0663 145.983 85.2668 146.195 85.5253 146.344C85.7838 146.494 86.0904 146.568 86.445 146.568C86.6804 146.568 86.8958 146.535 87.0914 146.469C87.2869 146.402 87.4543 146.303 87.5935 146.17C87.7327 146.038 87.8387 145.875 87.9117 145.683L89.8705 145.812C89.771 146.283 89.5672 146.694 89.259 147.045C88.954 147.393 88.5596 147.665 88.0757 147.861C87.5951 148.053 87.04 148.149 86.4102 148.149ZM96.6119 143.337V145.002H92.6247V143.337H96.6119ZM93.3208 140.364V148H91.2973V140.364H93.3208ZM97.9394 140.364V148H95.9308V140.364H97.9394ZM98.8156 142.029V140.364H105.736V142.029H103.275V148H101.257V142.029H98.8156ZM107.02 150.864V140.364H109.108V141.646H109.203C109.295 141.441 109.43 141.232 109.605 141.02C109.784 140.804 110.016 140.625 110.301 140.483C110.59 140.337 110.948 140.264 111.375 140.264C111.932 140.264 112.446 140.41 112.916 140.702C113.387 140.99 113.763 141.426 114.045 142.009C114.327 142.589 114.467 143.317 114.467 144.192C114.467 145.044 114.33 145.763 114.055 146.349C113.783 146.933 113.412 147.375 112.941 147.677C112.474 147.975 111.95 148.124 111.37 148.124C110.959 148.124 110.609 148.056 110.321 147.92C110.036 147.785 109.802 147.614 109.62 147.408C109.438 147.2 109.299 146.989 109.203 146.777H109.138V150.864H107.02ZM109.093 144.182C109.093 144.636 109.156 145.032 109.282 145.37C109.408 145.708 109.59 145.972 109.829 146.161C110.068 146.346 110.358 146.439 110.699 146.439C111.044 146.439 111.335 146.344 111.574 146.156C111.813 145.963 111.993 145.698 112.116 145.36C112.242 145.019 112.305 144.626 112.305 144.182C112.305 143.741 112.243 143.353 112.121 143.018C111.998 142.684 111.818 142.422 111.579 142.233C111.34 142.044 111.047 141.95 110.699 141.95C110.354 141.95 110.063 142.041 109.824 142.223C109.589 142.405 109.408 142.664 109.282 142.999C109.156 143.333 109.093 143.728 109.093 144.182Z" fill="black"/>
<defs>
<linearGradient id="paint0_linear_228_272" x1="114.996" y1="86.6741" x2="95.9299" y2="71.4281" gradientUnits="userSpaceOnUse">
<stop stop-color="#30456F"/>
<stop offset="1" stop-color="#1F8E96"/>
</linearGradient>
<clipPath id="clip0_228_272">
<rect width="69" height="69" fill="white" transform="translate(59.5 34)"/>
</clipPath>
</defs>
</svg>
