<svg width="189" height="190" viewBox="0 0 189 190" fill="none" xmlns="http://www.w3.org/2000/svg">
<path d="M183.64 86.7515C186.57 91.8256 186.57 98.0771 183.64 103.151L146.159 168.07C143.23 173.144 137.816 176.27 131.957 176.27L56.995 176.27C51.136 176.27 45.7221 173.144 42.7926 168.07L5.3117 103.151C2.38218 98.077 2.38218 91.8256 5.3117 86.7515L42.7926 21.8327C45.7221 16.7587 51.136 13.6329 56.9951 13.6329L131.957 13.6329C137.816 13.6329 143.23 16.7587 146.159 21.8327L183.64 86.7515Z" fill="white" fill-opacity="0.7" stroke="white"/>
<g clip-path="url(#clip0_228_272)">
<path d="M84.3801 57.1455L81.9612 63.3741H81.1132L78.6943 57.1455H79.5738L81.5379 62.4876L83.5006 57.1455H84.3801ZM89.7722 63.3741H85.1341V57.1455H89.6282V57.885H85.9594V59.788H89.3916V60.5275H85.9594V62.6346H89.7736V63.3741H89.7722ZM95.351 57.885H93.2928V63.3741H92.4661V57.885H90.4264V57.1455H95.351V57.885ZM97.1669 63.3741H96.3402V57.1455H97.1669V63.3741ZM98.6507 57.1455H100.625C102.737 57.1455 103.793 58.1719 103.793 60.2263C103.793 62.3248 102.737 63.3755 100.625 63.3755H98.6507V57.1469V57.1455ZM99.4745 62.6346H100.606C101.509 62.6346 102.124 62.4248 102.452 62.0036C102.781 61.5839 102.944 60.99 102.944 60.2263C102.944 59.4811 102.781 58.9043 102.455 58.4974C102.127 58.0891 101.513 57.885 100.608 57.885H99.476V62.6346H99.4745ZM105.872 63.3741H105.001V62.5018H105.872V63.3741ZM112.421 63.3741H111.335L109.13 60.2677L108.162 61.2156V63.3741H107.338V57.1455H108.162V60.2348L111.195 57.1455H112.306L109.7 59.7038L112.42 63.3741H112.421ZM117.512 63.3741H112.595V62.6018L116.459 57.885H112.95V57.1455H117.405V57.9178L113.541 62.6346H117.512V63.3741Z" fill="#201E1E"/>
<path fill-rule="evenodd" clip-rule="evenodd" d="M100.467 90.9498C100.341 90.4187 99.9092 89.1167 99.6427 88.7898C99.4203 87.9889 98.2986 86.43 97.8482 85.6805C97.2766 84.7297 96.668 83.3507 95.5063 83.0794C94.4915 82.8425 92.0099 83.078 90.8953 83.1822C89.0395 83.3564 89.3673 84.5142 87.302 82.9752C86.7048 82.5312 86.5066 82.3471 86.0733 81.7332C84.9102 80.0872 86.1318 80.4869 87.4274 79.1892C87.6469 78.9694 87.7838 78.7467 87.9961 78.524C88.227 78.2813 88.4579 78.1414 88.706 77.8987C89.1464 77.4661 89.4357 77.0079 89.8633 76.5867C90.3152 76.1428 90.633 75.7316 91.005 75.2619C91.3443 74.8308 91.6963 74.3368 91.98 73.7687C92.1696 73.3875 92.1738 73.2305 92.3064 72.8693C92.5045 72.3282 92.6941 72.491 92.8366 72.0684C92.4005 71.2932 90.7727 71.0405 91.5153 69.5059C91.8047 69.7871 91.8788 70.3324 93.1231 70.5637C95.1029 70.932 94.3233 71.1947 94.9575 71.3989C95.331 71.5188 98.2501 69.957 98.7618 69.927C98.8901 71.426 98.0776 71.3575 97.8382 72.274C98.2843 72.8707 99.9605 73.4689 100.907 73.7787C105.207 75.1848 109.214 74.2997 113.464 74.9022C116.051 75.2691 118.449 76.0485 121.101 76.2941C122.749 76.4468 124.197 76.3755 125.544 76.2127L104.922 96.3789C104.286 96.0078 103.568 95.6965 102.901 95.234C101.404 94.1961 101.189 92.8613 100.471 90.9498H100.467Z" fill="url(#paint0_linear_228_272)"/>
<path fill-rule="evenodd" clip-rule="evenodd" d="M63.7781 64.8459C61.241 62.3376 61.1455 62.7487 61.841 58.1005C62.2487 55.3766 62.6849 52.6499 63.1096 49.8775C63.4773 47.482 63.8308 43.9302 64.515 41.7788C65.2533 39.4575 68.01 39.4803 71.0616 39.0235C73.7826 38.6152 76.5079 38.1698 79.2674 37.7487C81.3783 37.426 85.8739 36.2397 87.5216 37.3075L92.2937 42.0229C95.448 45.2121 98.5082 48.2658 101.694 51.4308C102.522 52.2545 103.193 52.9397 104.019 53.7649C104.629 54.3745 105.682 55.9291 107.019 55.5237C107.893 55.2581 108.548 54.1646 107.096 52.6571L95.1971 40.7281C93.6107 39.1192 92.0927 37.5317 90.4464 35.9827C86.6778 32.4352 81.1446 34.5766 76.1459 35.3303C63.0968 37.2976 62.387 36.4182 60.8633 45.6633C60.0693 50.4714 59.2141 55.5736 58.6098 60.3989C58.4302 61.8251 58.4017 62.9186 59.0801 64.0007C59.5605 64.7659 60.6195 65.8894 61.6101 66.8902C65.8377 71.153 70.0596 75.3458 74.3499 79.5901C80.9222 86.0914 93.0876 98.3901 95.2385 100.563C96.2619 101.596 97.5033 103.061 99.9022 102.998C102.328 102.936 103.166 101.455 104.355 100.324C105.589 99.1496 106.807 97.9847 107.96 96.7626C112.186 92.2814 118.007 86.9508 122.279 82.421C123.309 81.3289 124.676 79.877 125.838 78.8178C127.932 76.9076 127.997 74.121 126.32 71.9425C124.822 70.4249 118.59 63.2555 117.062 63.985C116.232 64.7759 115.828 65.3984 116.73 66.4905C117.276 67.1514 118.101 67.8795 118.701 68.4663C120.977 70.6905 126.367 74.2566 123.666 77.0019L104.329 96.3515C100.451 100.159 100.199 101.401 97.5133 98.6471L76.7944 77.7513C72.3188 73.2373 68.3406 69.3571 63.7809 64.8487L63.7781 64.8459ZM71.3567 48.7312C71.0916 46.3385 74.5424 46.0159 74.7733 48.2472C74.8702 49.1909 74.2159 50.0231 73.3935 50.1545C72.3502 50.3215 71.4565 49.6306 71.3567 48.7312ZM71.8869 44.0415C65.9689 45.6518 68.3877 54.5415 74.3428 52.8898C76.3525 52.3316 78.2312 50.0774 77.5213 47.3207C76.9498 45.1008 74.7904 43.2521 71.8869 44.0415Z" fill="#FFCC29"/>
</g>
<path d="M49.9106 116.818V127H47.7828V118.568H43.6663V127H41.5384V116.818H49.9106ZM51.9204 129.864V119.364H54.0084V120.646H54.1029C54.1957 120.441 54.3299 120.232 54.5056 120.02C54.6846 119.804 54.9166 119.625 55.2016 119.483C55.49 119.337 55.8479 119.264 56.2755 119.264C56.8323 119.264 57.346 119.41 57.8167 119.702C58.2873 119.99 58.6635 120.426 58.9452 121.009C59.2269 121.589 59.3678 122.317 59.3678 123.192C59.3678 124.044 59.2303 124.763 58.9552 125.349C58.6834 125.933 58.3122 126.375 57.8415 126.677C57.3742 126.975 56.8505 127.124 56.2705 127.124C55.8595 127.124 55.5099 127.056 55.2215 126.92C54.9365 126.785 54.7028 126.614 54.5205 126.408C54.3382 126.2 54.199 125.989 54.1029 125.777H54.0383V129.864H51.9204ZM53.9935 123.182C53.9935 123.636 54.0565 124.032 54.1824 124.37C54.3084 124.708 54.4907 124.972 54.7293 125.161C54.968 125.346 55.258 125.439 55.5993 125.439C55.944 125.439 56.2357 125.344 56.4743 125.156C56.713 124.963 56.8936 124.698 57.0162 124.36C57.1422 124.019 57.2052 123.626 57.2052 123.182C57.2052 122.741 57.1439 122.353 57.0212 122.018C56.8986 121.684 56.718 121.422 56.4793 121.233C56.2407 121.044 55.9474 120.95 55.5993 120.95C55.2546 120.95 54.963 121.041 54.7243 121.223C54.489 121.405 54.3084 121.664 54.1824 121.999C54.0565 122.333 53.9935 122.728 53.9935 123.182ZM64.23 127.149C63.4578 127.149 62.7899 126.985 62.2265 126.657C61.6663 126.326 61.2338 125.865 60.9289 125.275C60.624 124.682 60.4715 123.994 60.4715 123.212C60.4715 122.423 60.624 121.733 60.9289 121.143C61.2338 120.55 61.6663 120.089 62.2265 119.761C62.7899 119.43 63.4578 119.264 64.23 119.264C65.0023 119.264 65.6685 119.43 66.2286 119.761C66.7921 120.089 67.2262 120.55 67.5312 121.143C67.8361 121.733 67.9885 122.423 67.9885 123.212C67.9885 123.994 67.8361 124.682 67.5312 125.275C67.2262 125.865 66.7921 126.326 66.2286 126.657C65.6685 126.985 65.0023 127.149 64.23 127.149ZM64.24 125.509C64.5913 125.509 64.8846 125.409 65.1199 125.21C65.3553 125.008 65.5326 124.733 65.6519 124.385C65.7745 124.037 65.8358 123.641 65.8358 123.197C65.8358 122.753 65.7745 122.357 65.6519 122.009C65.5326 121.661 65.3553 121.385 65.1199 121.183C64.8846 120.981 64.5913 120.88 64.24 120.88C63.8853 120.88 63.587 120.981 63.3451 121.183C63.1064 121.385 62.9258 121.661 62.8032 122.009C62.6839 122.357 62.6242 122.753 62.6242 123.197C62.6242 123.641 62.6839 124.037 62.8032 124.385C62.9258 124.733 63.1064 125.008 63.3451 125.21C63.587 125.409 63.8853 125.509 64.24 125.509ZM76.0425 119.364V125.538H77.2606V129.456H75.2023V127H69.3657V119.364H71.3891V125.335H74.0439V119.364H76.0425ZM81.9649 127.149C81.1794 127.149 80.5033 126.99 79.9365 126.672C79.3731 126.35 78.9389 125.896 78.634 125.31C78.329 124.72 78.1766 124.022 78.1766 123.217C78.1766 122.431 78.329 121.742 78.634 121.148C78.9389 120.555 79.3681 120.093 79.9216 119.761C80.4784 119.43 81.1314 119.264 81.8804 119.264C82.3842 119.264 82.8532 119.345 83.2874 119.508C83.7249 119.667 84.106 119.907 84.4308 120.229C84.759 120.55 85.0142 120.955 85.1965 121.442C85.3788 121.926 85.4699 122.492 85.4699 123.142V123.724H79.0218V122.411H83.4763C83.4763 122.106 83.41 121.836 83.2774 121.601C83.1449 121.366 82.9609 121.182 82.7256 121.049C82.4936 120.913 82.2235 120.845 81.9152 120.845C81.5937 120.845 81.3087 120.92 81.0601 121.069C80.8148 121.215 80.6226 121.412 80.4834 121.661C80.3442 121.906 80.2729 122.179 80.2696 122.481V123.729C80.2696 124.107 80.3392 124.433 80.4784 124.708C80.6209 124.983 80.8215 125.195 81.08 125.344C81.3385 125.494 81.6451 125.568 81.9997 125.568C82.2351 125.568 82.4505 125.535 82.646 125.469C82.8416 125.402 83.009 125.303 83.1482 125.17C83.2874 125.038 83.3934 124.875 83.4664 124.683L85.4252 124.812C85.3257 125.283 85.1219 125.694 84.8137 126.045C84.5087 126.393 84.1143 126.665 83.6304 126.861C83.1498 127.053 82.5947 127.149 81.9649 127.149ZM90.3023 127.149C89.5201 127.149 88.8473 126.983 88.2838 126.652C87.7237 126.317 87.2928 125.853 86.9912 125.26C86.6929 124.667 86.5438 123.984 86.5438 123.212C86.5438 122.429 86.6946 121.743 86.9962 121.153C87.3011 120.56 87.7336 120.098 88.2938 119.766C88.8539 119.432 89.5201 119.264 90.2923 119.264C90.9585 119.264 91.5419 119.385 92.0423 119.627C92.5428 119.869 92.9389 120.209 93.2306 120.646C93.5222 121.084 93.683 121.598 93.7128 122.188H91.7142C91.6579 121.806 91.5087 121.5 91.2668 121.268C91.0281 121.032 90.7149 120.915 90.3271 120.915C89.999 120.915 89.7123 121.004 89.4671 121.183C89.2251 121.359 89.0362 121.616 88.9003 121.954C88.7644 122.292 88.6965 122.701 88.6965 123.182C88.6965 123.669 88.7628 124.083 88.8953 124.425C89.0312 124.766 89.2218 125.026 89.4671 125.205C89.7123 125.384 89.999 125.474 90.3271 125.474C90.5691 125.474 90.7862 125.424 90.9784 125.325C91.174 125.225 91.3347 125.081 91.4607 124.892C91.5899 124.7 91.6744 124.469 91.7142 124.201H93.7128C93.6797 124.784 93.5206 125.298 93.2355 125.742C92.9538 126.183 92.5644 126.528 92.0672 126.776C91.57 127.025 90.9817 127.149 90.3023 127.149ZM98.5191 127.149C97.7369 127.149 97.0641 126.983 96.5006 126.652C95.9405 126.317 95.5096 125.853 95.208 125.26C94.9097 124.667 94.7606 123.984 94.7606 123.212C94.7606 122.429 94.9114 121.743 95.213 121.153C95.5179 120.56 95.9504 120.098 96.5106 119.766C97.0707 119.432 97.7369 119.264 98.5091 119.264C99.1753 119.264 99.7587 119.385 100.259 119.627C100.76 119.869 101.156 120.209 101.447 120.646C101.739 121.084 101.9 121.598 101.93 122.188H99.931C99.8747 121.806 99.7255 121.5 99.4836 121.268C99.2449 121.032 98.9317 120.915 98.5439 120.915C98.2158 120.915 97.9291 121.004 97.6839 121.183C97.4419 121.359 97.253 121.616 97.1171 121.954C96.9812 122.292 96.9133 122.701 96.9133 123.182C96.9133 123.669 96.9796 124.083 97.1121 124.425C97.248 124.766 97.4386 125.026 97.6839 125.205C97.9291 125.384 98.2158 125.474 98.5439 125.474C98.7859 125.474 99.003 125.424 99.1952 125.325C99.3908 125.225 99.5515 125.081 99.6775 124.892C99.8067 124.7 99.8912 124.469 99.931 124.201H101.93C101.896 124.784 101.737 125.298 101.452 125.742C101.171 126.183 100.781 126.528 100.284 126.776C99.7868 127.025 99.1985 127.149 98.5191 127.149ZM105.309 124.206L108.058 119.364H110.146V127H108.128V122.143L105.389 127H103.286V119.364H105.309V124.206ZM117.159 122.337V124.002H113.172V122.337H117.159ZM113.868 119.364V127H111.844V119.364H113.868ZM118.486 119.364V127H116.478V119.364H118.486ZM125.359 119.364V121.029H122.188V127H120.129V119.364H125.359ZM126.253 121.029V119.364H133.174V121.029H130.713V127H128.694V121.029H126.253ZM134.457 127V119.364H136.575V127H134.457ZM135.521 118.379C135.207 118.379 134.936 118.275 134.711 118.066C134.489 117.854 134.378 117.6 134.378 117.305C134.378 117.014 134.489 116.763 134.711 116.555C134.936 116.343 135.207 116.237 135.521 116.237C135.836 116.237 136.105 116.343 136.327 116.555C136.552 116.763 136.665 117.014 136.665 117.305C136.665 117.6 136.552 117.854 136.327 118.066C136.105 118.275 135.836 118.379 135.521 118.379ZM138.272 127V119.364H140.39V122.327H140.986L143.065 119.364H145.55L142.851 123.152L145.58 127H143.065L141.18 124.29H140.39V127H138.272ZM66.2056 148.149C65.4334 148.149 64.7655 147.985 64.2021 147.657C63.6419 147.326 63.2094 146.865 62.9045 146.275C62.5996 145.682 62.4471 144.994 62.4471 144.212C62.4471 143.423 62.5996 142.733 62.9045 142.143C63.2094 141.55 63.6419 141.089 64.2021 140.761C64.7655 140.43 65.4334 140.264 66.2056 140.264C66.9779 140.264 67.6441 140.43 68.2042 140.761C68.7676 141.089 69.2018 141.55 69.5067 142.143C69.8117 142.733 69.9641 143.423 69.9641 144.212C69.9641 144.994 69.8117 145.682 69.5067 146.275C69.2018 146.865 68.7676 147.326 68.2042 147.657C67.6441 147.985 66.9779 148.149 66.2056 148.149ZM66.2156 146.509C66.5669 146.509 66.8602 146.409 67.0955 146.21C67.3308 146.008 67.5082 145.733 67.6275 145.385C67.7501 145.037 67.8114 144.641 67.8114 144.197C67.8114 143.753 67.7501 143.357 67.6275 143.009C67.5082 142.661 67.3308 142.385 67.0955 142.183C66.8602 141.981 66.5669 141.88 66.2156 141.88C65.8609 141.88 65.5626 141.981 65.3207 142.183C65.082 142.385 64.9014 142.661 64.7788 143.009C64.6594 143.357 64.5998 143.753 64.5998 144.197C64.5998 144.641 64.6594 145.037 64.7788 145.385C64.9014 145.733 65.082 146.008 65.3207 146.21C65.5626 146.409 65.8609 146.509 66.2156 146.509ZM71.3413 150.864V140.364H73.4293V141.646H73.5238C73.6166 141.441 73.7508 141.232 73.9265 141.02C74.1055 140.804 74.3375 140.625 74.6225 140.483C74.9109 140.337 75.2688 140.264 75.6964 140.264C76.2532 140.264 76.7669 140.41 77.2376 140.702C77.7082 140.99 78.0844 141.426 78.3661 142.009C78.6478 142.589 78.7887 143.317 78.7887 144.192C78.7887 145.044 78.6512 145.763 78.3761 146.349C78.1043 146.933 77.7331 147.375 77.2624 147.677C76.7951 147.975 76.2714 148.124 75.6914 148.124C75.2804 148.124 74.9308 148.056 74.6424 147.92C74.3574 147.785 74.1237 147.614 73.9414 147.408C73.7591 147.2 73.6199 146.989 73.5238 146.777H73.4592V150.864H71.3413ZM73.4144 144.182C73.4144 144.636 73.4774 145.032 73.6033 145.37C73.7293 145.708 73.9116 145.972 74.1502 146.161C74.3888 146.346 74.6789 146.439 75.0202 146.439C75.3649 146.439 75.6566 146.344 75.8952 146.156C76.1339 145.963 76.3145 145.698 76.4371 145.36C76.5631 145.019 76.6261 144.626 76.6261 144.182C76.6261 143.741 76.5647 143.353 76.4421 143.018C76.3195 142.684 76.1388 142.422 75.9002 142.233C75.6616 142.044 75.3683 141.95 75.0202 141.95C74.6755 141.95 74.3839 142.041 74.1452 142.223C73.9099 142.405 73.7293 142.664 73.6033 142.999C73.4774 143.333 73.4144 143.728 73.4144 144.182ZM79.4611 142.029V140.364H86.3816V142.029H83.9206V148H81.9022V142.029H79.4611ZM89.5696 148.144C89.0824 148.144 88.6482 148.06 88.267 147.891C87.8859 147.718 87.5843 147.465 87.3622 147.13C87.1435 146.792 87.0341 146.371 87.0341 145.867C87.0341 145.443 87.112 145.087 87.2678 144.798C87.4235 144.51 87.6357 144.278 87.9041 144.102C88.1726 143.927 88.4775 143.794 88.8189 143.705C89.1636 143.615 89.5249 143.552 89.9027 143.516C90.3468 143.469 90.7048 143.426 90.9766 143.386C91.2483 143.343 91.4455 143.28 91.5682 143.197C91.6908 143.115 91.7521 142.992 91.7521 142.83V142.8C91.7521 142.485 91.6527 142.241 91.4538 142.069C91.2583 141.897 90.9799 141.81 90.6186 141.81C90.2375 141.81 89.9342 141.895 89.7088 142.064C89.4834 142.23 89.3343 142.438 89.2614 142.69L87.3026 142.531C87.402 142.067 87.5975 141.666 87.8892 141.328C88.1809 140.987 88.5571 140.725 89.0178 140.543C89.4818 140.357 90.0187 140.264 90.6286 140.264C91.0528 140.264 91.4588 140.314 91.8466 140.413C92.2377 140.513 92.584 140.667 92.8857 140.876C93.1906 141.085 93.4309 141.353 93.6065 141.681C93.7822 142.006 93.87 142.395 93.87 142.849V148H91.8615V146.941H91.8018C91.6792 147.18 91.5152 147.39 91.3097 147.572C91.1042 147.751 90.8572 147.892 90.5689 147.995C90.2805 148.094 89.9474 148.144 89.5696 148.144ZM90.1761 146.683C90.4877 146.683 90.7628 146.621 91.0014 146.499C91.2401 146.373 91.4273 146.204 91.5632 145.991C91.6991 145.779 91.767 145.539 91.767 145.271V144.46C91.7008 144.503 91.6096 144.543 91.4936 144.58C91.3809 144.613 91.2533 144.644 91.1108 144.674C90.9683 144.701 90.8258 144.725 90.6832 144.749C90.5407 144.768 90.4115 144.787 90.2955 144.803C90.0469 144.84 89.8298 144.898 89.6442 144.977C89.4586 145.057 89.3144 145.165 89.2116 145.3C89.1089 145.433 89.0575 145.599 89.0575 145.798C89.0575 146.086 89.1619 146.306 89.3707 146.459C89.5829 146.608 89.8513 146.683 90.1761 146.683ZM95.0657 148L95.0558 146.32H95.3093C95.4883 146.32 95.6424 146.277 95.7717 146.19C95.9042 146.101 96.0136 145.957 96.0998 145.758C96.186 145.559 96.2539 145.295 96.3036 144.967C96.3533 144.636 96.3865 144.228 96.4031 143.744L96.5273 140.364H102.334V148H100.316V142.029H98.4315L98.3121 144.361C98.2823 145 98.2044 145.551 98.0785 146.011C97.9558 146.472 97.7852 146.85 97.5664 147.145C97.3477 147.437 97.0842 147.652 96.7759 147.791C96.4677 147.93 96.1097 148 95.7021 148H95.0657ZM105.303 142.71H107.585C108.596 142.71 109.385 142.952 109.952 143.436C110.519 143.917 110.802 144.56 110.802 145.365C110.802 145.889 110.674 146.349 110.419 146.747C110.164 147.142 109.796 147.45 109.316 147.672C108.835 147.891 108.258 148 107.585 148H103.976V140.364H105.999V146.335H107.585C107.94 146.335 108.232 146.245 108.46 146.066C108.689 145.887 108.805 145.658 108.808 145.38C108.805 145.085 108.689 144.845 108.46 144.659C108.232 144.47 107.94 144.376 107.585 144.376H105.303V142.71ZM111.622 148V140.364H113.74V148H111.622ZM115.433 148V140.364H117.551V143.327H118.148L120.226 140.364H122.711L120.012 144.152L122.741 148H120.226L118.341 145.29H117.551V148H115.433ZM123.671 146.538V150.456H121.613V146.538H123.671Z" fill="black"/>
<defs>
<linearGradient id="paint0_linear_228_272" x1="113.996" y1="86.6741" x2="94.9299" y2="71.4281" gradientUnits="userSpaceOnUse">
<stop stop-color="#30456F"/>
<stop offset="1" stop-color="#1F8E96"/>
</linearGradient>
<clipPath id="clip0_228_272">
<rect width="69" height="69" fill="white" transform="translate(58.5 34)"/>
</clipPath>
</defs>
</svg>
