<svg width="189" height="190" viewBox="0 0 189 190" fill="none" xmlns="http://www.w3.org/2000/svg">
<path d="M183.688 103.151L146.208 168.07C143.278 173.144 137.864 176.27 132.005 176.27L57.0434 176.27C51.1844 176.27 45.7704 173.144 42.8409 168.07L5.36004 103.151C2.43052 98.077 2.43054 91.8256 5.36004 86.7515L42.8409 21.8327C45.7704 16.7587 51.1844 13.6329 57.0434 13.6329L132.005 13.6329C137.864 13.6329 143.278 16.7587 146.208 21.8327L183.688 86.7515C186.618 91.8256 186.618 98.0771 183.688 103.151Z" fill="white" fill-opacity="0.7" stroke="white"/>
<g clip-path="url(#clip0_228_106)">
<path fill-rule="evenodd" clip-rule="evenodd" d="M76.0673 84.8792C76.0667 86.1328 75.9587 89.8063 76.3608 90.6903C76.5755 91.1623 76.5419 90.587 76.7134 91.8899L77.0221 91.4105C77.0923 91.9965 77.0223 91.9411 77.2764 92.3961C78.4464 91.9333 78.3957 90.8154 78.7192 89.5156C79.6594 85.7396 78.4802 78.9976 80.3313 78.1528C80.6284 78.9321 79.1182 79.3345 79.7629 82.3896C80.0324 83.6667 81.0317 85.663 80.718 86.9454C80.2252 88.9596 79.1361 88.1086 79.0581 90.9385C79.0343 91.8045 79.0441 92.7355 78.9867 93.5918C78.9232 94.5449 78.5952 95.2343 78.5933 96.1821C78.9081 96.4644 79.0673 96.3427 79.2595 96.8316C79.4319 97.2706 79.2551 97.3618 79.5522 97.7293C79.9879 98.2679 80.7289 98.1831 81.3778 97.9886C81.2066 96.2946 79.8771 97.1783 79.8771 94.6545C79.8771 92.9555 80.0358 92.0007 80.7572 90.6472C81.2678 89.6894 82.2162 88.2748 83.0626 88.058C82.9084 89.2408 82.5186 89.3575 83.0934 90.5087C84.2326 92.7901 83.7359 94.2723 84.2365 95.475C84.5602 96.2532 84.5012 95.6216 84.9699 96.2778C85.1386 96.5143 85.3505 97.1657 85.4632 97.4212C86.0889 97.4788 86.3984 97.6243 86.9567 97.3062C87.0095 96.4188 84.6934 95.4249 84.6484 92.2134C84.621 90.2585 85.3706 87.5011 86.1035 85.9117C87.3926 83.1157 87.7505 85.0756 90.7653 85.9047C92.5456 86.3941 96.9296 86.1683 97.8681 86.562C98.5195 87.5347 97.9943 91.1567 97.8857 92.5133C97.8119 93.4368 97.7164 94.3451 97.6135 95.2699C97.5287 96.0321 97.4447 96.0318 97.7271 96.6444C97.8155 96.8363 97.8636 96.892 97.9663 97.1674C98.1681 97.7088 97.8869 97.4214 98.2604 97.8236C98.6555 98.0799 99.3926 97.9677 99.8299 97.7097C99.4018 96.9318 98.744 96.793 98.681 95.4288C98.6175 94.044 98.7235 93.4169 99.141 92.2335C99.8171 93.3601 99.0915 95.6625 99.7348 96.9373C99.9374 97.3389 99.854 97.1343 100.022 97.5672C100.337 98.3768 100.096 98.1912 101.93 98.2254C101.826 96.969 100.75 97.3865 100.337 96.0461C100.038 95.0754 100.202 93.7085 100.462 92.7825C100.747 91.7651 100.839 90.7451 101.109 89.7568C101.373 88.7875 101.715 87.9046 101.994 86.8259C102.329 85.5267 102.966 85.647 103.27 84.4491C103.528 83.4294 103.522 82.154 103.654 81.0562C103.765 80.1267 104.243 79.1436 104.478 78.1598C104.702 77.2204 104.929 75.9604 105.413 75.3268C106.11 75.5874 107.211 75.8974 107.836 76.3143C108.829 76.9767 108.65 77.5528 109.352 78.2398C110.295 78.1035 110.758 78.0333 111.096 77.1272C111.353 76.4394 110.64 75.6836 110.299 75.0719C109.367 73.3958 109.481 72.1808 108.09 71.1902L108.401 69.5096C108.005 69.7463 108.156 69.4889 107.732 70.285C107.708 70.2489 107.689 70.1417 107.682 70.1655L107.52 69.4785C106.651 70.1632 107.025 70.311 105.515 70.4319C104.5 70.5133 103.874 70.6756 103.055 71.0965C101.468 71.9124 100.744 72.7396 99.7799 73.9339C98.7943 75.155 98.404 76.2329 96.5563 76.8203C91.9277 78.2918 88.9143 76.5547 85.9801 76.3294C83.8204 76.1635 82.5019 76.8007 80.4874 76.9521C78.3319 77.1138 77.3587 77.6203 76.695 79.2637C76.0718 80.8063 76.0735 83.0947 76.0673 84.8792Z" fill="url(#paint0_linear_228_106)"/>
<path fill-rule="evenodd" clip-rule="evenodd" d="M92.6873 83.5901C92.7379 83.8213 92.5759 83.8783 92.5018 84.0208C92.5437 84.1067 93.1319 84.6403 93.2937 84.8127C93.6155 85.1557 94.7966 86.4359 94.1331 86.8285C93.8203 87.0138 94.012 87.1056 93.721 87.2099C93.3407 87.3462 93.407 87.1982 93.1216 87.0857C92.7771 86.9503 92.1873 86.8512 91.7759 86.8224C91.3861 86.795 91.4278 86.8587 91.2305 87.0627C91.012 87.2886 91.007 87.2029 91.0741 87.6146C91.1611 88.1499 91.3313 88.365 91.3411 88.9516C91.3551 89.8078 91.3797 89.5979 91.0598 90.2715C90.7131 91.0015 90.2976 91.7176 89.8958 92.3495C89.3261 93.2452 88.854 92.8724 88.4038 93.2695C88.303 93.3582 88.075 93.5611 87.979 93.6725C87.8995 93.7645 87.7613 94.0505 87.693 94.1789C87.5441 94.4588 87.5483 94.4473 87.4924 94.806C87.4389 95.1483 87.329 95.9614 87.355 96.2972C87.3734 96.5362 87.5234 97.524 87.6149 97.6622C87.7792 97.9101 88.174 98.2543 88.2249 98.6673C86.7528 98.6738 87.3877 98.5439 87.0382 98.2064C86.9758 98.146 86.7567 98.0906 86.6465 98.0209C86.6537 97.8273 86.7119 97.6169 86.7377 97.4274C86.8281 96.7623 86.816 96.1262 86.6686 95.5073C86.5035 94.8147 86.4886 94.5231 86.2214 93.8516C86.1165 93.5877 86.1383 93.5547 85.8789 93.4763C85.7146 93.7396 85.8341 94.374 85.6453 94.649C85.3987 95.0083 85.2473 95.036 85.1556 95.5694C85.0786 96.0165 85.0198 96.3688 85.0033 96.8493C84.9877 97.3007 85.2784 97.4031 85.2569 98.064C84.9555 98.0805 84.6379 98.0483 84.4235 97.9171L84.4331 97.4557L84.3424 97.5922C83.8465 97.0499 84.0676 97.3026 84.5469 95.7899C84.6829 95.3612 84.625 95.0548 84.6197 94.5715C84.6149 94.154 84.9088 93.865 84.946 93.5471C84.7607 93.6344 84.5727 93.7866 84.3793 93.8658C83.8619 94.0779 82.5644 94.0967 81.9608 94.2019C81.1725 94.3393 81.2075 94.3961 80.3966 94.2551C80.2312 94.2262 79.7343 94.1658 79.6299 94.0964C79.4625 93.985 79.3335 93.7379 79.155 93.6313C78.6967 93.9139 78.8735 94.184 78.4585 93.7606C78.2204 93.9268 77.8029 94.4036 77.5354 94.6768C77.407 94.8074 77.3026 94.8558 77.1825 94.986C77.2587 95.3036 77.752 96.11 77.9174 96.4648C78.1096 96.8767 78.2573 97.6415 78.6429 97.9367C78.5472 98.1597 78.1879 98.385 77.9518 98.2593C77.0194 97.7632 77.2676 97.9728 76.9187 96.9814C76.8344 96.7419 76.7278 96.3252 76.6131 96.1279C76.572 96.5152 76.507 97.3465 76.53 97.7112C76.5487 98.0058 76.5644 98.146 76.7024 98.3701C76.7788 98.4941 76.9525 98.7784 76.9965 98.9169C76.9436 99.0308 76.8666 99.1752 76.774 99.2258C76.7368 99.2463 76.3948 99.3414 76.3436 99.3498C76.1511 99.3817 75.8598 99.0566 75.6956 98.9276C75.4157 98.7082 75.4073 98.5512 75.3922 98.1594C75.3514 97.0916 75.4927 96.0132 75.3922 94.9527C75.3441 94.4442 75.6273 94.4498 75.5705 94.0245C75.4625 93.2152 75.5554 93.6837 75.7283 93.2371L75.1829 93.1428C75.0833 92.9807 74.9305 92.2476 74.5838 91.627C74.1204 90.7973 74.1865 88.9697 74.0605 87.9431C73.9632 87.1486 75.7151 85.9155 76.1763 85.8329C77.379 85.6177 78.7484 85.341 79.9911 85.456C80.3054 85.4851 80.6803 85.5416 80.9845 85.5483C81.7445 85.5648 83.0625 85.8125 83.6781 85.7957C87.5718 85.6214 87.4462 84.8415 90.358 83.7463C90.6065 83.6528 91.0733 83.4858 91.3089 83.5151C91.601 83.5515 91.6161 83.6612 91.983 83.6427C92.3034 83.6265 92.269 83.5459 92.6881 83.5904L92.6873 83.5901Z" fill="url(#paint1_linear_228_106)"/>
<path fill-rule="evenodd" clip-rule="evenodd" d="M126.721 90.166C122.365 104.537 109.018 115 93.2243 115C77.473 115 64.1531 104.594 59.7607 90.2824H65.4996C69.6766 101.54 80.513 109.563 93.2243 109.563C105.979 109.563 116.845 101.485 120.99 90.166H126.721Z" fill="url(#paint2_linear_228_106)"/>
<path fill-rule="evenodd" clip-rule="evenodd" d="M93.2243 45C108.975 45 122.293 55.4058 126.685 69.7171H120.947C116.77 58.4595 105.936 50.4367 93.2243 50.4367C80.513 50.4367 69.6766 58.4595 65.4996 69.7171H59.7607C64.1531 55.4055 77.473 45 93.2243 45Z" fill="url(#paint3_linear_228_106)"/>
<path fill-rule="evenodd" clip-rule="evenodd" d="M116.337 70.9316H134.191V88.7855H116.337V70.9316Z" fill="#FEFEFE"/>
<path fill-rule="evenodd" clip-rule="evenodd" d="M121.226 71.9941H121.651V72.4192H121.226V71.9941ZM121.651 71.9941H122.076V72.4192H121.651V71.9941ZM122.076 71.9941H122.501V72.4192H122.076V71.9941ZM121.226 72.4192H121.651V72.8442H121.226V72.4192ZM121.651 72.4192H122.076V72.8442H121.651V72.4192Z" fill="#373435"/>
<path fill-rule="evenodd" clip-rule="evenodd" d="M123.351 71.9941H123.776V72.4192H123.351V71.9941ZM123.776 71.9941H124.201V72.4192H123.776V71.9941ZM124.201 71.9941H124.626V72.4192H124.201V71.9941ZM124.201 72.4192H124.626V72.8442H124.201V72.4192ZM124.626 72.4192H125.051V72.8442H124.626V72.4192ZM125.051 72.4192H125.476V72.8442H125.051V72.4192ZM125.051 71.9941H125.476V72.4192H125.051V71.9941ZM125.476 71.9941H125.901V72.4192H125.476V71.9941ZM125.901 71.9941H126.326V72.4192H125.901V71.9941ZM125.476 72.4192H125.901V72.8442H125.476V72.4192ZM125.051 72.8442H125.476V73.2693H125.051V72.8442Z" fill="#373435"/>
<path fill-rule="evenodd" clip-rule="evenodd" d="M122.926 72.4199H123.351V72.845H122.926V72.4199Z" fill="#373435"/>
<path fill-rule="evenodd" clip-rule="evenodd" d="M128.452 72.4199H128.877V72.845H128.452V72.4199Z" fill="#373435"/>
<path fill-rule="evenodd" clip-rule="evenodd" d="M120.801 72.8447H121.226V73.2698H120.801V72.8447ZM120.801 73.2698H121.226V73.6948H120.801V73.2698ZM121.226 73.2698H121.651V73.6948H121.226V73.2698Z" fill="#373435"/>
<path fill-rule="evenodd" clip-rule="evenodd" d="M125.901 72.8447H126.326V73.2698H125.901V72.8447Z" fill="#373435"/>
<path fill-rule="evenodd" clip-rule="evenodd" d="M123.776 73.2695H124.202V73.6946H123.776V73.2695Z" fill="#373435"/>
<path fill-rule="evenodd" clip-rule="evenodd" d="M124.626 73.2695H125.051V73.6946H124.626V73.2695Z" fill="#373435"/>
<path fill-rule="evenodd" clip-rule="evenodd" d="M125.477 73.2695H125.902V73.6946H125.477V73.2695Z" fill="#373435"/>
<path fill-rule="evenodd" clip-rule="evenodd" d="M126.326 73.2696H126.751V73.6946H126.326V73.2696ZM126.751 73.2696H127.176V73.6946H126.751V73.2696ZM126.751 71.9941H127.176V72.4192H126.751V71.9941ZM127.176 71.9941H127.601V72.4192H127.176V71.9941ZM127.601 71.9941H128.026V72.4192H127.601V71.9941ZM128.026 71.9941H128.451V72.4192H128.026V71.9941ZM126.751 72.4192H127.176V72.8442H126.751V72.4192ZM126.751 72.8442H127.176V73.2693H126.751V72.8442ZM127.176 72.8442H127.601V73.2693H127.176V72.8442ZM127.176 73.2693H127.601V73.6943H127.176V73.2693Z" fill="#373435"/>
<path fill-rule="evenodd" clip-rule="evenodd" d="M128.877 73.27H129.302V73.6951H128.877V73.27ZM129.302 73.27H129.727V73.6951H129.302V73.27ZM129.302 72.4199H129.727V72.845H129.302V72.4199ZM129.302 72.845H129.727V73.27H129.302V72.845Z" fill="#373435"/>
<path fill-rule="evenodd" clip-rule="evenodd" d="M124.201 73.6943H124.626V74.1194H124.201V73.6943ZM124.201 74.1194H124.626V74.5444H124.201V74.1194ZM124.626 74.1194H125.051V74.5444H124.626V74.1194ZM125.051 74.1194H125.476V74.5444H125.051V74.1194ZM124.201 74.5444H124.626V74.9695H124.201V74.5444ZM125.051 74.5444H125.476V74.9695H125.051V74.5444Z" fill="#373435"/>
<path fill-rule="evenodd" clip-rule="evenodd" d="M125.901 73.6943H126.326V74.1194H125.901V73.6943ZM125.901 74.1194H126.326V74.5444H125.901V74.1194ZM126.326 74.1194H126.751V74.5444H126.326V74.1194ZM125.901 74.5444H126.326V74.9695H125.901V74.5444Z" fill="#373435"/>
<path fill-rule="evenodd" clip-rule="evenodd" d="M127.177 74.1201H127.602V74.5452H127.177V74.1201Z" fill="#373435"/>
<path fill-rule="evenodd" clip-rule="evenodd" d="M120.801 74.5449H121.226V74.97H120.801V74.5449Z" fill="#373435"/>
<path fill-rule="evenodd" clip-rule="evenodd" d="M126.752 74.5449H127.177V74.97H126.752V74.5449ZM126.752 74.97H127.177V75.395H126.752V74.97ZM126.752 75.395H127.177V75.8201H126.752V75.395Z" fill="#373435"/>
<path fill-rule="evenodd" clip-rule="evenodd" d="M127.603 74.5449H128.028V74.97H127.603V74.5449Z" fill="#373435"/>
<path fill-rule="evenodd" clip-rule="evenodd" d="M124.626 74.9697H125.051V75.3948H124.626V74.9697Z" fill="#373435"/>
<path fill-rule="evenodd" clip-rule="evenodd" d="M118.675 75.3955H119.1V75.8206H118.675V75.3955ZM119.1 75.3955H119.525V75.8206H119.1V75.3955ZM119.1 75.8206H119.525V76.2456H119.1V75.8206ZM119.525 75.8206H119.95V76.2456H119.525V75.8206ZM119.1 76.2456H119.525V76.6707H119.1V76.2456ZM119.1 76.6707H119.525V77.0957H119.1V76.6707Z" fill="#373435"/>
<path fill-rule="evenodd" clip-rule="evenodd" d="M119.95 75.3955H120.375V75.8206H119.95V75.3955ZM120.375 75.3955H120.8V75.8206H120.375V75.3955Z" fill="#373435"/>
<path fill-rule="evenodd" clip-rule="evenodd" d="M123.776 75.3955H124.201V75.8206H123.776V75.3955ZM124.201 75.3955H124.626V75.8206H124.201V75.3955Z" fill="#373435"/>
<path fill-rule="evenodd" clip-rule="evenodd" d="M125.901 75.3955H126.326V75.8206H125.901V75.3955Z" fill="#373435"/>
<path fill-rule="evenodd" clip-rule="evenodd" d="M117.399 75.8203H117.824V76.2454H117.399V75.8203ZM117.399 76.2454H117.824V76.6704H117.399V76.2454Z" fill="#373435"/>
<path fill-rule="evenodd" clip-rule="evenodd" d="M118.25 75.8203H118.675V76.2454H118.25V75.8203Z" fill="#373435"/>
<path fill-rule="evenodd" clip-rule="evenodd" d="M121.226 75.8204H121.651V76.2454H121.226V75.8204ZM121.651 75.8204H122.076V76.2454H121.651V75.8204ZM121.651 76.2454H122.076V76.6705H121.651V76.2454ZM121.651 76.6705H122.076V77.0955H121.651V76.6705ZM122.076 76.6705H122.501V77.0955H122.076V76.6705ZM122.501 76.6705H122.926V77.0955H122.501V76.6705ZM121.226 74.1199H121.651V74.5449H121.226V74.1199ZM121.651 74.1199H122.076V74.5449H121.651V74.1199ZM121.651 73.6948H122.076V74.1199H121.651V73.6948ZM121.651 74.5449H122.076V74.97H121.651V74.5449ZM121.651 74.97H122.076V75.395H121.651V74.97ZM122.076 74.97H122.501V75.395H122.076V74.97ZM122.501 74.97H122.926V75.395H122.501V74.97ZM122.501 74.1199H122.926V74.5449H122.501V74.1199ZM122.926 74.1199H123.351V74.5449H122.926V74.1199ZM122.076 73.2698H122.501V73.6948H122.076V73.2698ZM122.501 73.2698H122.926V73.6948H122.501V73.2698ZM122.501 72.8447H122.926V73.2698H122.501V72.8447ZM122.926 73.2698H123.351V73.6948H122.926V73.2698ZM122.926 73.6948H123.351V74.1199H122.926V73.6948ZM123.351 74.1199H123.776V74.5449H123.351V74.1199ZM122.501 74.5449H122.926V74.97H122.501V74.5449ZM123.351 74.5449H123.776V74.97H123.351V74.5449ZM122.075 75.395H122.5V75.8201H122.075V75.395ZM122.5 75.395H122.926V75.8201H122.5V75.395ZM122.926 75.395H123.351V75.8201H122.926V75.395ZM122.5 75.8201H122.926V76.2451H122.5V75.8201ZM122.926 75.8201H123.351V76.2451H122.926V75.8201ZM122.5 76.2451H122.926V76.6702H122.5V76.2451ZM122.926 76.6702H123.351V77.0952H122.926V76.6702ZM123.351 76.6702H123.776V77.0952H123.351V76.6702ZM122.075 77.0952H122.5V77.5203H122.075V77.0952ZM122.5 77.0952H122.925V77.5203H122.5V77.0952ZM123.35 77.0952H123.775V77.5203H123.35V77.0952ZM123.775 77.0952H124.2V77.5203H123.775V77.0952ZM122.5 77.5203H122.925V77.9454H122.5V77.5203Z" fill="#373435"/>
<path fill-rule="evenodd" clip-rule="evenodd" d="M124.626 75.8203H125.051V76.2454H124.626V75.8203ZM125.051 75.8203H125.476V76.2454H125.051V75.8203ZM125.476 75.8203H125.901V76.2454H125.476V75.8203ZM125.051 76.2454H125.476V76.6704H125.051V76.2454Z" fill="#373435"/>
<path fill-rule="evenodd" clip-rule="evenodd" d="M126.326 75.8203H126.751V76.2454H126.326V75.8203Z" fill="#373435"/>
<path fill-rule="evenodd" clip-rule="evenodd" d="M119.95 76.2451H120.375V76.6702H119.95V76.2451ZM120.375 76.2451H120.8V76.6702H120.375V76.2451ZM120.8 76.2451H121.225V76.6702H120.8V76.2451ZM120.375 76.6702H120.8V77.0952H120.375V76.6702Z" fill="#373435"/>
<path fill-rule="evenodd" clip-rule="evenodd" d="M126.752 76.2454H127.177V76.6705H126.752V76.2454ZM127.177 76.2454H127.602V76.6705H127.177V76.2454ZM127.602 76.2454H128.027V76.6705H127.602V76.2454ZM127.602 75.8204H128.027V76.2454H127.602V75.8204ZM128.027 75.8204H128.452V76.2454H128.027V75.8204ZM128.027 74.9703H128.452V75.3953H128.027V74.9703ZM128.452 74.9703H128.877V75.3953H128.452V74.9703ZM127.602 73.6948H128.027V74.1199H127.602V73.6948ZM128.027 73.6948H128.452V74.1199H128.027V73.6948ZM128.027 72.8447H128.452V73.2698H128.027V72.8447ZM128.027 73.2698H128.452V73.6948H128.027V73.2698ZM128.452 73.6948H128.877V74.1199H128.452V73.6948ZM128.452 74.1199H128.877V74.5449H128.452V74.1199ZM128.452 74.5449H128.877V74.97H128.452V74.5449ZM128.877 74.97H129.302V75.395H128.877V74.97ZM129.302 74.97H129.727V75.395H129.302V74.97ZM129.302 74.5449H129.727V74.97H129.302V74.5449ZM128.027 75.395H128.452V75.8201H128.027V75.395ZM129.302 75.395H129.727V75.8201H129.302V75.395ZM128.452 75.8201H128.877V76.2451H128.452V75.8201ZM128.877 75.8201H129.302V76.2451H128.877V75.8201ZM128.027 76.2451H128.452V76.6702H128.027V76.2451ZM128.877 76.2451H129.302V76.6702H128.877V76.2451ZM129.302 76.2451H129.727V76.6702H129.302V76.2451ZM129.727 76.2451H130.152V76.6702H129.727V76.2451ZM130.152 76.2451H130.577V76.6702H130.152V76.2451ZM129.727 76.6702H130.152V77.0952H129.727V76.6702ZM130.152 76.6702H130.577V77.0952H130.152V76.6702ZM130.577 76.6702H131.002V77.0952H130.577V76.6702ZM131.002 76.6702H131.428V77.0952H131.002V76.6702ZM131.428 76.6702H131.853V77.0952H131.428V76.6702ZM131.853 76.6702H132.278V77.0952H131.853V76.6702ZM130.577 75.8201H131.002V76.2451H130.577V75.8201ZM131.002 75.8201H131.428V76.2451H131.002V75.8201ZM131.428 75.8201H131.853V76.2451H131.428V75.8201ZM131.428 75.395H131.853V75.8201H131.428V75.395ZM131.853 75.395H132.278V75.8201H131.853V75.395ZM131.853 75.8201H132.278V76.2451H131.853V75.8201ZM131.853 76.2451H132.278V76.6702H131.853V76.2451ZM132.278 76.6702H132.703V77.0952H132.278V76.6702ZM132.703 76.6702H133.128V77.0952H132.703V76.6702ZM132.703 76.2451H133.128V76.6702H132.703V76.2451ZM130.152 77.0952H130.577V77.5203H130.152V77.0952ZM130.577 77.0952H131.002V77.5203H130.577V77.0952ZM131.427 77.0952H131.852V77.5203H131.427V77.0952ZM132.702 77.0952H133.127V77.5203H132.702V77.0952Z" fill="#373435"/>
<path fill-rule="evenodd" clip-rule="evenodd" d="M125.477 76.6699H125.902V77.095H125.477V76.6699Z" fill="#373435"/>
<path fill-rule="evenodd" clip-rule="evenodd" d="M128.452 76.6699H128.877V77.095H128.452V76.6699Z" fill="#373435"/>
<path fill-rule="evenodd" clip-rule="evenodd" d="M117.4 77.0957H117.825V77.5208H117.4V77.0957ZM117.825 77.0957H118.25V77.5208H117.825V77.0957ZM118.25 77.0957H118.675V77.5208H118.25V77.0957ZM118.675 77.0957H119.1V77.5208H118.675V77.0957ZM117.399 77.5208H117.824V77.9458H117.399V77.5208ZM118.675 77.5208H119.1V77.9458H118.675V77.5208ZM117.399 77.9458H117.824V78.3709H117.399V77.9458ZM117.824 77.9458H118.25V78.3709H117.824V77.9458ZM118.25 77.9458H118.675V78.3709H118.25V77.9458ZM118.25 78.3709H118.675V78.7959H118.25V78.3709Z" fill="#373435"/>
<path fill-rule="evenodd" clip-rule="evenodd" d="M119.95 77.0957H120.375V77.521H119.95V77.0957Z" fill="#373435"/>
<path fill-rule="evenodd" clip-rule="evenodd" d="M124.626 77.0957H125.051V77.5208H124.626V77.0957ZM124.626 77.5208H125.051V77.9458H124.626V77.5208ZM125.051 77.5208H125.476V77.9458H125.051V77.5208ZM125.476 77.5208H125.901V77.9458H125.476V77.5208ZM125.476 77.9458H125.901V78.3709H125.476V77.9458Z" fill="#373435"/>
<path fill-rule="evenodd" clip-rule="evenodd" d="M125.901 77.0957H126.326V77.5208H125.901V77.0957ZM126.326 77.0957H126.751V77.5208H126.326V77.0957Z" fill="#373435"/>
<path fill-rule="evenodd" clip-rule="evenodd" d="M131.003 77.5205H131.428V77.9456H131.003V77.5205Z" fill="#373435"/>
<path fill-rule="evenodd" clip-rule="evenodd" d="M127.177 77.9456H127.602V78.3706H127.177V77.9456ZM127.602 77.9456H128.027V78.3706H127.602V77.9456ZM127.602 77.5205H128.027V77.9456H127.602V77.5205Z" fill="#373435"/>
<path fill-rule="evenodd" clip-rule="evenodd" d="M130.152 77.9453H130.578V78.3704H130.152V77.9453Z" fill="#373435"/>
<path fill-rule="evenodd" clip-rule="evenodd" d="M131.428 77.9456H131.853V78.3706H131.428V77.9456ZM131.853 77.9456H132.278V78.3706H131.853V77.9456ZM131.853 77.5205H132.278V77.9456H131.853V77.5205ZM131.428 78.3706H131.853V78.7957H131.428V78.3706ZM131.853 78.3706H132.278V78.7957H131.853V78.3706ZM131.853 78.7957H132.278V79.2207H131.853V78.7957Z" fill="#373435"/>
<path fill-rule="evenodd" clip-rule="evenodd" d="M132.703 77.9453H133.128V78.3704H132.703V77.9453ZM132.703 78.3704H133.128V78.7954H132.703V78.3704ZM132.703 78.7954H133.128V79.2205H132.703V78.7954Z" fill="#373435"/>
<path fill-rule="evenodd" clip-rule="evenodd" d="M130.152 78.7959H130.577V79.2209H130.152V78.7959ZM130.577 78.7959H131.002V79.2209H130.577V78.7959ZM130.577 79.2209H131.002V79.646H130.577V79.2209Z" fill="#373435"/>
<path fill-rule="evenodd" clip-rule="evenodd" d="M121.65 79.2205H122.075V79.6455H121.65V79.2205ZM121.65 79.6455H122.075V80.0706H121.65V79.6455ZM121.65 80.0706H122.075V80.4956H121.65V80.0706ZM122.075 80.0706H122.5V80.4956H122.075V80.0706ZM122.5 80.0706H122.926V80.4956H122.5V80.0706ZM122.5 79.2205H122.926V79.6455H122.5V79.2205ZM122.926 79.2205H123.351V79.6455H122.926V79.2205ZM123.351 79.2205H123.776V79.6455H123.351V79.2205ZM123.351 78.3704H123.776V78.7954H123.351V78.3704ZM123.776 78.3704H124.201V78.7954H123.776V78.3704ZM124.201 78.3704H124.626V78.7954H124.201V78.3704ZM124.201 77.9453H124.626V78.3704H124.201V77.9453ZM123.351 78.7954H123.776V79.2205H123.351V78.7954ZM122.5 79.6455H122.926V80.0706H122.5V79.6455ZM122.926 79.6455H123.351V80.0706H122.926V79.6455ZM122.075 80.4956H122.5V80.9207H122.075V80.4956Z" fill="#373435"/>
<path fill-rule="evenodd" clip-rule="evenodd" d="M132.278 79.2207H132.703V79.6458H132.278V79.2207Z" fill="#373435"/>
<path fill-rule="evenodd" clip-rule="evenodd" d="M119.1 79.646H119.525V80.0711H119.1V79.646ZM119.525 79.646H119.95V80.0711H119.525V79.646ZM118.675 78.7959H119.1V79.221H118.675V78.7959ZM119.1 78.7959H119.525V79.221H119.1V78.7959ZM119.525 78.7959H119.95V79.221H119.525V78.7959ZM119.1 77.9458H119.525V78.3709H119.1V77.9458ZM119.525 77.9458H119.95V78.3709H119.525V77.9458ZM119.95 77.9458H120.375V78.3709H119.95V77.9458ZM120.375 77.9458H120.8V78.3709H120.375V77.9458ZM120.8 77.9458H121.225V78.3709H120.8V77.9458ZM121.225 77.9458H121.65V78.3709H121.225V77.9458ZM121.225 77.0957H121.65V77.5208H121.225V77.0957ZM121.225 77.5208H121.65V77.9458H121.225V77.5208ZM121.65 77.5208H122.075V77.9458H121.65V77.5208ZM119.525 78.3709H119.95V78.7959H119.525V78.3709ZM120.375 78.3709H120.8V78.7959H120.375V78.3709ZM121.225 78.3709H121.65V78.7959H121.225V78.3709ZM121.65 78.3709H122.075V78.7959H121.65V78.3709ZM122.075 78.3709H122.5V78.7959H122.075V78.3709ZM119.949 78.7959H120.374V79.221H119.949V78.7959ZM119.524 79.221H119.949V79.646H119.524V79.221ZM119.949 79.646H120.374V80.0711H119.949V79.646ZM120.374 79.646H120.8V80.0711H120.374V79.646ZM120.374 79.221H120.8V79.646H120.374V79.221ZM120.8 79.221H121.225V79.646H120.8V79.221ZM120.8 78.7959H121.225V79.221H120.8V78.7959Z" fill="#373435"/>
<path fill-rule="evenodd" clip-rule="evenodd" d="M124.201 79.6455H124.626V80.0708H124.201V79.6455Z" fill="#373435"/>
<path fill-rule="evenodd" clip-rule="evenodd" d="M117.399 80.0713H117.825V80.4963H117.399V80.0713Z" fill="#373435"/>
<path fill-rule="evenodd" clip-rule="evenodd" d="M118.675 80.0713H119.1V80.4963H118.675V80.0713Z" fill="#373435"/>
<path fill-rule="evenodd" clip-rule="evenodd" d="M123.351 80.0713H123.776V80.4963H123.351V80.0713ZM123.776 80.0713H124.201V80.4963H123.776V80.0713ZM123.776 80.4963H124.201V80.9214H123.776V80.4963ZM124.201 80.4963H124.626V80.9214H124.201V80.4963Z" fill="#373435"/>
<path fill-rule="evenodd" clip-rule="evenodd" d="M132.278 80.0715H132.703V80.4966H132.278V80.0715ZM132.703 80.0715H133.128V80.4966H132.703V80.0715ZM132.703 79.6465H133.128V80.0715H132.703V79.6465Z" fill="#373435"/>
<path fill-rule="evenodd" clip-rule="evenodd" d="M117.825 80.4961H118.25V80.9211H117.825V80.4961ZM118.25 80.4961H118.675V80.9211H118.25V80.4961ZM117.825 80.9211H118.25V81.3462H117.825V80.9211ZM117.825 81.3462H118.25V81.7712H117.825V81.3462ZM117.825 81.7712H118.25V82.1963H117.825V81.7712Z" fill="#373435"/>
<path fill-rule="evenodd" clip-rule="evenodd" d="M119.95 80.4963H120.375V80.9214H119.95V80.4963ZM120.375 80.4963H120.8V80.9214H120.375V80.4963ZM120.8 80.4963H121.225V80.9214H120.8V80.4963ZM120.8 80.0713H121.225V80.4963H120.8V80.0713ZM121.225 80.4963H121.65V80.9214H121.225V80.4963ZM120.8 80.9214H121.225V81.3464H120.8V80.9214ZM121.225 80.9214H121.65V81.3464H121.225V80.9214ZM121.65 80.9214H122.075V81.3464H121.65V80.9214ZM121.225 81.3464H121.65V81.7715H121.225V81.3464ZM121.225 81.7715H121.65V82.1966H121.225V81.7715ZM121.65 81.7715H122.075V82.1966H121.65V81.7715ZM122.075 81.7715H122.501V82.1966H122.075V81.7715ZM122.075 81.3464H122.501V81.7715H122.075V81.3464ZM122.501 81.7715H122.926V82.1966H122.501V81.7715ZM121.225 82.1966H121.65V82.6216H121.225V82.1966ZM121.65 82.1966H122.075V82.6216H121.65V82.1966Z" fill="#373435"/>
<path fill-rule="evenodd" clip-rule="evenodd" d="M130.152 80.4961H130.578V80.9211H130.152V80.4961Z" fill="#373435"/>
<path fill-rule="evenodd" clip-rule="evenodd" d="M126.752 80.9209H127.177V81.346H126.752V80.9209Z" fill="#373435"/>
<path fill-rule="evenodd" clip-rule="evenodd" d="M130.578 80.9209H131.003V81.346H130.578V80.9209ZM131.003 80.9209H131.428V81.346H131.003V80.9209ZM130.578 80.0708H131.003V80.4959H130.578V80.0708ZM131.003 80.0708H131.428V80.4959H131.003V80.0708ZM131.003 79.6458H131.428V80.0708H131.003V79.6458ZM131.428 79.6458H131.853V80.0708H131.428V79.6458ZM131.428 79.2207H131.853V79.6458H131.428V79.2207ZM131.428 80.0708H131.853V80.4959H131.428V80.0708ZM131.003 80.4959H131.428V80.9209H131.003V80.4959ZM131.428 80.4959H131.853V80.9209H131.428V80.4959ZM131.003 81.346H131.428V81.771H131.003V81.346Z" fill="#373435"/>
<path fill-rule="evenodd" clip-rule="evenodd" d="M131.853 80.9209H132.278V81.346H131.853V80.9209Z" fill="#373435"/>
<path fill-rule="evenodd" clip-rule="evenodd" d="M118.675 81.3467H119.1V81.7717H118.675V81.3467Z" fill="#373435"/>
<path fill-rule="evenodd" clip-rule="evenodd" d="M125.901 81.3467H126.326V81.7717H125.901V81.3467Z" fill="#373435"/>
<path fill-rule="evenodd" clip-rule="evenodd" d="M132.703 81.3467H133.128V81.7717H132.703V81.3467Z" fill="#373435"/>
<path fill-rule="evenodd" clip-rule="evenodd" d="M119.101 81.7712H119.526V82.1963H119.101V81.7712ZM119.526 81.7712H119.951V82.1963H119.526V81.7712ZM119.101 80.4961H119.526V80.9211H119.101V80.4961ZM119.101 80.9211H119.526V81.3462H119.101V80.9211ZM119.526 80.9211H119.951V81.3462H119.526V80.9211ZM119.526 81.3462H119.951V81.7712H119.526V81.3462ZM119.951 81.3462H120.376V81.7712H119.951V81.3462ZM119.101 82.1963H119.526V82.6214H119.101V82.1963Z" fill="#373435"/>
<path fill-rule="evenodd" clip-rule="evenodd" d="M131.428 81.7715H131.853V82.1965H131.428V81.7715ZM131.853 81.7715H132.278V82.1965H131.853V81.7715Z" fill="#373435"/>
<path fill-rule="evenodd" clip-rule="evenodd" d="M117.399 82.1963H117.824V82.6213H117.399V82.1963ZM117.399 82.6213H117.824V83.0464H117.399V82.6213ZM117.399 83.0464H117.824V83.4714H117.399V83.0464ZM117.824 83.0464H118.25V83.4714H117.824V83.0464ZM118.25 83.0464H118.675V83.4714H118.25V83.0464ZM118.25 82.6213H118.675V83.0464H118.25V82.6213ZM117.399 83.4714H117.824V83.8965H117.399V83.4714ZM117.399 83.8965H117.824V84.3215H117.399V83.8965Z" fill="#373435"/>
<path fill-rule="evenodd" clip-rule="evenodd" d="M119.95 82.1965H120.375V82.6216H119.95V82.1965ZM120.375 82.1965H120.8V82.6216H120.375V82.1965ZM120.375 81.7715H120.8V82.1965H120.375V81.7715ZM120.375 82.6216H120.8V83.0466H120.375V82.6216ZM120.8 82.6216H121.225V83.0466H120.8V82.6216Z" fill="#373435"/>
<path fill-rule="evenodd" clip-rule="evenodd" d="M127.177 83.0469H127.602V83.4719H127.177V83.0469ZM127.602 83.0469H128.027V83.4719H127.602V83.0469ZM127.177 83.4719H127.602V83.897H127.177V83.4719Z" fill="#373435"/>
<path fill-rule="evenodd" clip-rule="evenodd" d="M120.375 83.4717H120.8V83.8967H120.375V83.4717Z" fill="#373435"/>
<path fill-rule="evenodd" clip-rule="evenodd" d="M129.728 83.4717H130.153V83.8967H129.728V83.4717Z" fill="#373435"/>
<path fill-rule="evenodd" clip-rule="evenodd" d="M131.428 83.4722H131.853V83.8972H131.428V83.4722ZM131.853 83.4722H132.278V83.8972H131.853V83.4722ZM131.853 82.6221H132.278V83.0471H131.853V82.6221ZM132.278 82.6221H132.703V83.0471H132.278V82.6221ZM131.853 83.0471H132.278V83.4722H131.853V83.0471ZM132.278 83.0471H132.703V83.4722H132.278V83.0471ZM132.703 83.0471H133.128V83.4722H132.703V83.0471ZM132.278 83.4722H132.703V83.8972H132.278V83.4722ZM131.428 83.8972H131.853V84.3223H131.428V83.8972ZM131.853 83.8972H132.278V84.3223H131.853V83.8972ZM132.278 83.8972H132.703V84.3223H132.278V83.8972ZM132.703 83.8972H133.128V84.3223H132.703V83.8972ZM131.428 84.3223H131.853V84.7473H131.428V84.3223ZM131.853 84.3223H132.278V84.7473H131.853V84.3223ZM131.428 84.7473H131.853V85.1724H131.428V84.7473ZM131.853 84.7473H132.278V85.1724H131.853V84.7473ZM131.428 85.1724H131.853V85.5974H131.428V85.1724Z" fill="#373435"/>
<path fill-rule="evenodd" clip-rule="evenodd" d="M118.25 83.897H118.675V84.322H118.25V83.897ZM118.675 83.897H119.1V84.322H118.675V83.897ZM118.675 83.4719H119.1V83.897H118.675V83.4719ZM119.1 83.4719H119.525V83.897H119.1V83.4719ZM119.1 83.0469H119.525V83.4719H119.1V83.0469ZM119.525 83.0469H119.95V83.4719H119.525V83.0469ZM119.95 83.0469H120.375V83.4719H119.95V83.0469Z" fill="#373435"/>
<path fill-rule="evenodd" clip-rule="evenodd" d="M119.95 83.8975H120.375V84.3225H119.95V83.8975Z" fill="#373435"/>
<path fill-rule="evenodd" clip-rule="evenodd" d="M127.603 83.8975H128.028V84.3225H127.603V83.8975ZM128.028 83.8975H128.453V84.3225H128.028V83.8975ZM128.028 84.3225H128.453V84.7476H128.028V84.3225Z" fill="#373435"/>
<path fill-rule="evenodd" clip-rule="evenodd" d="M128.877 83.8975H129.302V84.3225H128.877V83.8975Z" fill="#373435"/>
<path fill-rule="evenodd" clip-rule="evenodd" d="M123.776 85.1719H124.202V85.5969H123.776V85.1719Z" fill="#373435"/>
<path fill-rule="evenodd" clip-rule="evenodd" d="M128.027 85.1719H128.452V85.5969H128.027V85.1719Z" fill="#373435"/>
<path fill-rule="evenodd" clip-rule="evenodd" d="M132.278 85.1721H132.703V85.5972H132.278V85.1721ZM132.703 85.1721H133.128V85.5972H132.703V85.1721ZM132.703 84.7471H133.128V85.1721H132.703V84.7471ZM132.278 85.5972H132.703V86.0222H132.278V85.5972ZM132.703 85.5972H133.128V86.0222H132.703V85.5972Z" fill="#373435"/>
<path fill-rule="evenodd" clip-rule="evenodd" d="M120.801 85.5977H121.226V86.0227H120.801V85.5977ZM121.226 85.5977H121.651V86.0227H121.226V85.5977ZM120.801 86.0227H121.226V86.4478H120.801V86.0227ZM121.226 86.0227H121.651V86.4478H121.226V86.0227ZM121.226 86.4478H121.651V86.8728H121.226V86.4478Z" fill="#373435"/>
<path fill-rule="evenodd" clip-rule="evenodd" d="M128.452 85.5969H128.877V86.022H128.452V85.5969ZM128.877 85.5969H129.302V86.022H128.877V85.5969ZM128.877 85.1719H129.302V85.5969H128.877V85.1719ZM128.877 86.022H129.302V86.447H128.877V86.022Z" fill="#373435"/>
<path fill-rule="evenodd" clip-rule="evenodd" d="M122.076 86.0225H122.501V86.4475H122.076V86.0225Z" fill="#373435"/>
<path fill-rule="evenodd" clip-rule="evenodd" d="M127.603 86.0225H128.028V86.4475H127.603V86.0225ZM128.028 86.0225H128.453V86.4475H128.028V86.0225ZM128.028 86.4475H128.453V86.8726H128.028V86.4475Z" fill="#373435"/>
<path fill-rule="evenodd" clip-rule="evenodd" d="M130.152 86.0225H130.578V86.4475H130.152V86.0225Z" fill="#373435"/>
<path fill-rule="evenodd" clip-rule="evenodd" d="M131.428 86.0225H131.853V86.4475H131.428V86.0225ZM131.853 86.0225H132.278V86.4475H131.853V86.0225Z" fill="#373435"/>
<path fill-rule="evenodd" clip-rule="evenodd" d="M129.303 86.4473H129.728V86.8723H129.303V86.4473Z" fill="#373435"/>
<path fill-rule="evenodd" clip-rule="evenodd" d="M130.578 86.4473H131.003V86.8723H130.578V86.4473ZM131.003 86.4473H131.428V86.8723H131.003V86.4473Z" fill="#373435"/>
<path fill-rule="evenodd" clip-rule="evenodd" d="M122.075 86.8725H122.5V87.2976H122.075V86.8725ZM122.5 86.8725H122.925V87.2976H122.5V86.8725ZM122.5 86.4474H122.925V86.8725H122.5V86.4474ZM122.925 86.4474H123.351V86.8725H122.925V86.4474ZM126.326 85.5973H126.751V86.0224H126.326V85.5973ZM126.751 85.5973H127.176V86.0224H126.751V85.5973ZM122.5 85.5973H122.925V86.0224H122.5V85.5973ZM122.925 85.5973H123.351V86.0224H122.925V85.5973ZM125.476 84.7472H125.901V85.1723H125.476V84.7472ZM125.901 84.7472H126.326V85.1723H125.901V84.7472ZM120.8 84.3222H121.225V84.7472H120.8V84.3222ZM121.225 84.3222H121.65V84.7472H121.225V84.3222ZM121.225 83.4721H121.65V83.8971H121.225V83.4721ZM121.65 83.4721H122.075V83.8971H121.65V83.4721ZM122.075 83.4721H122.5V83.8971H122.075V83.4721ZM121.225 83.8971H121.65V84.3222H121.225V83.8971ZM122.075 83.8971H122.5V84.3222H122.075V83.8971ZM122.5 83.8971H122.925V84.3222H122.5V83.8971ZM122.925 83.8971H123.35V84.3222H122.925V83.8971ZM122.925 83.047H123.35V83.4721H122.925V83.047ZM122.925 83.4721H123.35V83.8971H122.925V83.4721ZM123.35 83.4721H123.775V83.8971H123.35V83.4721ZM123.775 83.4721H124.2V83.8971H123.775V83.4721ZM130.152 83.047H130.577V83.4721H130.152V83.047ZM130.577 83.047H131.002V83.4721H130.577V83.047ZM122.5 80.9215H122.925V81.3465H122.5V80.9215ZM122.925 80.9215H123.35V81.3465H122.925V80.9215ZM122.925 80.4964H123.35V80.9215H122.925V80.4964ZM123.35 80.9215H123.775V81.3465H123.35V80.9215ZM122.925 81.3465H123.35V81.7716H122.925V81.3465ZM123.35 81.3465H123.775V81.7716H123.35V81.3465ZM123.35 81.7716H123.775V82.1966H123.35V81.7716ZM123.775 81.7716H124.2V82.1966H123.775V81.7716ZM124.2 81.7716H124.625V82.1966H124.2V81.7716ZM124.625 81.7716H125.05V82.1966H124.625V81.7716ZM125.05 81.7716H125.475V82.1966H125.05V81.7716ZM124.625 80.9215H125.05V81.3465H124.625V80.9215ZM125.05 80.9215H125.475V81.3465H125.05V80.9215ZM124.625 78.7959H125.05V79.221H124.625V78.7959ZM124.625 79.221H125.05V79.646H124.625V79.221ZM125.05 79.221H125.475V79.646H125.05V79.221ZM125.475 79.221H125.9V79.646H125.475V79.221ZM125.9 79.221H126.325V79.646H125.9V79.221ZM125.9 78.3709H126.325V78.7959H125.9V78.3709ZM126.325 78.3709H126.75V78.7959H126.325V78.3709ZM126.325 77.9458H126.75V78.3709H126.325V77.9458ZM126.75 78.3709H127.175V78.7959H126.75V78.3709ZM125.9 78.7959H126.325V79.221H125.9V78.7959ZM125.05 79.646H125.475V80.0711H125.05V79.646ZM125.9 79.646H126.325V80.0711H125.9V79.646ZM126.325 79.646H126.75V80.0711H126.325V79.646ZM125.05 80.0711H125.475V80.4962H125.05V80.0711ZM126.325 80.0711H126.75V80.4962H126.325V80.0711ZM125.05 80.4962H125.475V80.9212H125.05V80.4962ZM125.475 80.4962H125.9V80.9212H125.475V80.4962ZM125.9 80.4962H126.325V80.9212H125.9V80.4962ZM126.325 80.4962H126.75V80.9212H126.325V80.4962ZM125.475 80.9212H125.9V81.3463H125.475V80.9212ZM125.05 81.3463H125.475V81.7713H125.05V81.3463ZM125.475 81.7713H125.9V82.1964H125.475V81.7713ZM123.349 82.1964H123.774V82.6214H123.349V82.1964ZM124.2 82.1964H124.625V82.6214H124.2V82.1964ZM124.625 82.1964H125.05V82.6214H124.625V82.1964ZM125.05 82.1964H125.475V82.6214H125.05V82.1964ZM125.475 82.1964H125.9V82.6214H125.475V82.1964ZM125.9 82.1964H126.325V82.6214H125.9V82.1964ZM126.325 82.1964H126.75V82.6214H126.325V82.1964ZM126.325 81.7713H126.75V82.1964H126.325V81.7713ZM126.75 81.7713H127.175V82.1964H126.75V81.7713ZM127.175 81.7713H127.6V82.1964H127.175V81.7713ZM127.6 81.7713H128.025V82.1964H127.6V81.7713ZM128.025 81.7713H128.45V82.1964H128.025V81.7713ZM128.025 80.9212H128.45V81.3463H128.025V80.9212ZM128.45 80.9212H128.875V81.3463H128.45V80.9212ZM128.875 80.9212H129.3V81.3463H128.875V80.9212ZM129.3 80.9212H129.725V81.3463H129.3V80.9212ZM127.6 79.6458H128.025V80.0708H127.6V79.6458ZM128.025 79.6458H128.45V80.0708H128.025V79.6458ZM126.749 79.2207H127.174V79.6458H126.749V79.2207ZM127.174 79.2207H127.599V79.6458H127.174V79.2207ZM127.174 78.7957H127.599V79.2207H127.174V78.7957ZM127.599 78.7957H128.024V79.2207H127.599V78.7957ZM128.024 78.7957H128.449V79.2207H128.024V78.7957ZM128.449 78.7957H128.875V79.2207H128.449V78.7957ZM128.449 78.3706H128.875V78.7957H128.449V78.3706ZM128.875 78.3706H129.3V78.7957H128.875V78.3706ZM128.875 77.5205H129.3V77.9456H128.875V77.5205ZM129.3 77.5205H129.725V77.9456H129.3V77.5205ZM129.725 77.5205H130.15V77.9456H129.725V77.5205ZM128.875 77.9456H129.3V78.3706H128.875V77.9456ZM129.3 78.3706H129.725V78.7957H129.3V78.3706ZM129.725 78.3706H130.15V78.7957H129.725V78.3706ZM128.875 78.7957H129.3V79.2207H128.875V78.7957ZM128.024 79.2207H128.449V79.6458H128.024V79.2207ZM128.875 79.2207H129.3V79.6458H128.875V79.2207ZM128.875 79.6458H129.3V80.0708H128.875V79.6458ZM129.3 79.6458H129.725V80.0708H129.3V79.6458ZM129.725 79.6458H130.15V80.0708H129.725V79.6458ZM130.15 79.6458H130.575V80.0708H130.15V79.6458ZM127.599 80.0708H128.024V80.4959H127.599V80.0708ZM128.024 80.0708H128.449V80.4959H128.024V80.0708ZM128.874 80.0708H129.299V80.4959H128.874V80.0708ZM129.299 80.0708H129.724V80.4959H129.299V80.0708ZM129.724 80.0708H130.149V80.4959H129.724V80.0708ZM127.599 80.4959H128.024V80.9209H127.599V80.4959ZM129.299 80.4959H129.724V80.9209H129.299V80.4959ZM128.024 81.346H128.449V81.771H128.024V81.346ZM128.874 81.346H129.299V81.771H128.874V81.346ZM128.874 81.771H129.299V82.1961H128.874V81.771ZM129.299 81.771H129.724V82.1961H129.299V81.771ZM129.724 81.771H130.149V82.1961H129.724V81.771ZM129.724 81.346H130.149V81.771H129.724V81.346ZM130.149 81.771H130.574V82.1961H130.149V81.771ZM130.574 81.771H131V82.1961H130.574V81.771ZM126.749 82.1961H127.174V82.6211H126.749V82.1961ZM127.174 82.1961H127.599V82.6211H127.174V82.1961ZM127.599 82.1961H128.024V82.6211H127.599V82.1961ZM128.024 82.1961H128.449V82.6211H128.024V82.1961ZM129.299 82.1961H129.724V82.6211H129.299V82.1961ZM130.149 82.1961H130.574V82.6211H130.149V82.1961ZM130.574 82.1961H130.999V82.6211H130.574V82.1961ZM123.348 82.6211H123.773V83.0462H123.348V82.6211ZM123.773 82.6211H124.198V83.0462H123.773V82.6211ZM125.898 82.6211H126.323V83.0462H125.898V82.6211ZM126.323 82.6211H126.748V83.0462H126.323V82.6211ZM126.748 82.6211H127.173V83.0462H126.748V82.6211ZM128.024 82.6211H128.449V83.0462H128.024V82.6211ZM128.449 82.6211H128.874V83.0462H128.449V82.6211ZM128.874 82.6211H129.299V83.0462H128.874V82.6211ZM129.299 82.6211H129.724V83.0462H129.299V82.6211ZM129.724 82.6211H130.149V83.0462H129.724V82.6211ZM130.574 82.6211H130.999V83.0462H130.574V82.6211ZM130.999 82.6211H131.424V83.0462H130.999V82.6211ZM123.773 83.0462H124.198V83.4712H123.773V83.0462ZM124.198 83.0462H124.623V83.4712H124.198V83.0462ZM124.623 83.0462H125.048V83.4712H124.623V83.0462ZM125.048 83.0462H125.473V83.4712H125.048V83.0462ZM125.473 83.0462H125.898V83.4712H125.473V83.0462ZM125.898 83.0462H126.323V83.4712H125.898V83.0462ZM128.449 83.0462H128.874V83.4712H128.449V83.0462ZM128.874 83.0462H129.299V83.4712H128.874V83.0462ZM129.299 83.0462H129.724V83.4712H129.299V83.0462ZM130.999 83.0462H131.424V83.4712H130.999V83.0462ZM128.449 83.4712H128.874V83.8963H128.449V83.4712ZM130.574 83.4712H130.999V83.8963H130.574V83.4712ZM123.348 83.8963H123.773V84.3213H123.348V83.8963ZM123.773 83.8963H124.198V84.3213H123.773V83.8963ZM124.198 83.8963H124.623V84.3213H124.198V83.8963ZM121.647 84.3213H122.072V84.7464H121.647V84.3213ZM122.923 84.3213H123.348V84.7464H122.923V84.3213ZM123.773 84.3213H124.198V84.7464H123.773V84.3213ZM124.198 84.3213H124.623V84.7464H124.198V84.3213ZM124.623 84.3213H125.048V84.7464H124.623V84.3213ZM125.048 84.3213H125.473V84.7464H125.048V84.3213ZM125.048 83.8963H125.473V84.3213H125.048V83.8963ZM125.473 83.8963H125.898V84.3213H125.473V83.8963ZM125.898 83.8963H126.323V84.3213H125.898V83.8963ZM126.323 83.8963H126.748V84.3213H126.323V83.8963ZM126.323 83.4712H126.748V83.8963H126.323V83.4712ZM125.898 84.3213H126.323V84.7464H125.898V84.3213ZM126.323 84.3213H126.748V84.7464H126.323V84.3213ZM126.748 84.3213H127.173V84.7464H126.748V84.3213ZM120.797 84.7464H121.222V85.1714H120.797V84.7464ZM121.647 84.7464H122.072V85.1714H121.647V84.7464ZM122.072 84.7464H122.497V85.1714H122.072V84.7464ZM122.922 84.7464H123.347V85.1714H122.922V84.7464ZM126.748 84.7464H127.173V85.1714H126.748V84.7464ZM127.173 84.7464H127.598V85.1714H127.173V84.7464ZM127.598 84.7464H128.023V85.1714H127.598V84.7464ZM121.647 85.1714H122.072V85.5965H121.647V85.1714ZM122.072 85.1714H122.497V85.5965H122.072V85.1714ZM122.922 85.1714H123.347V85.5965H122.922V85.1714ZM126.748 85.1714H127.173V85.5965H126.748V85.1714ZM127.173 85.5965H127.598V86.0216H127.173V85.5965ZM122.922 86.0216H123.347V86.4466H122.922V86.0216ZM122.497 87.2967H122.922V87.7218H122.497V87.2967Z" fill="#373435"/>
<path fill-rule="evenodd" clip-rule="evenodd" d="M123.351 86.873H123.776V87.2981H123.351V86.873Z" fill="#373435"/>
<path fill-rule="evenodd" clip-rule="evenodd" d="M126.326 86.8723H126.751V87.2974H126.326V86.8723ZM126.751 86.8723H127.176V87.2974H126.751V86.8723ZM127.176 86.8723H127.601V87.2974H127.176V86.8723ZM127.176 86.4473H127.601V86.8723H127.176V86.4473ZM127.601 86.8723H128.026V87.2974H127.601V86.8723ZM126.326 87.2974H126.751V87.7224H126.326V87.2974ZM126.751 87.2974H127.176V87.7224H126.751V87.2974ZM127.176 87.2974H127.601V87.7224H127.176V87.2974ZM127.601 87.2974H128.026V87.7224H127.601V87.2974Z" fill="#373435"/>
<path fill-rule="evenodd" clip-rule="evenodd" d="M128.452 86.873H128.877V87.2981H128.452V86.873Z" fill="#373435"/>
<path fill-rule="evenodd" clip-rule="evenodd" d="M130.152 86.873H130.577V87.2981H130.152V86.873ZM130.152 87.2981H130.577V87.7232H130.152V87.2981Z" fill="#373435"/>
<path fill-rule="evenodd" clip-rule="evenodd" d="M121.226 87.2979H121.651V87.7229H121.226V87.2979ZM121.651 87.2979H122.076V87.7229H121.651V87.2979Z" fill="#373435"/>
<path fill-rule="evenodd" clip-rule="evenodd" d="M123.776 87.2981H124.201V87.7232H123.776V87.2981ZM124.201 87.2981H124.626V87.7232H124.201V87.2981ZM124.626 87.2981H125.052V87.7232H124.626V87.2981ZM123.776 86.448H124.201V86.8731H123.776V86.448ZM124.201 86.448H124.626V86.8731H124.201V86.448ZM124.201 86.023H124.626V86.448H124.201V86.023ZM124.626 86.023H125.052V86.448H124.626V86.023ZM124.626 85.1729H125.052V85.5979H124.626V85.1729ZM125.052 85.1729H125.477V85.5979H125.052V85.1729ZM124.626 85.5979H125.052V86.023H124.626V85.5979ZM125.052 85.5979H125.477V86.023H125.052V85.5979ZM125.477 85.5979H125.902V86.023H125.477V85.5979ZM125.052 86.023H125.477V86.448H125.052V86.023ZM124.626 86.448H125.052V86.8731H124.626V86.448ZM124.626 86.8731H125.052V87.2981H124.626V86.8731ZM125.052 87.2981H125.477V87.7232H125.052V87.2981Z" fill="#373435"/>
<path fill-rule="evenodd" clip-rule="evenodd" d="M128.877 87.2979H129.302V87.7229H128.877V87.2979ZM129.302 87.2979H129.727V87.7229H129.302V87.2979Z" fill="#373435"/>
<path fill-rule="evenodd" clip-rule="evenodd" d="M131.003 87.2974H131.428V87.7224H131.003V87.2974ZM131.428 87.2974H131.853V87.7224H131.428V87.2974ZM131.428 86.8723H131.853V87.2974H131.428V86.8723ZM131.853 86.8723H132.278V87.2974H131.853V86.8723ZM132.278 86.8723H132.703V87.2974H132.278V86.8723ZM132.278 86.4473H132.703V86.8723H132.278V86.4473ZM132.703 86.4473H133.128V86.8723H132.703V86.4473ZM132.703 86.8723H133.128V87.2974H132.703V86.8723ZM132.703 87.2974H133.128V87.7224H132.703V87.2974Z" fill="#373435"/>
<path fill-rule="evenodd" clip-rule="evenodd" d="M117.4 71.9941H120.375V74.9698H117.4V71.9941ZM118.25 72.4192H117.825V74.5445H119.95V72.4192H118.25ZM130.152 71.9941H133.128V74.9698H130.152V71.9941ZM131.002 72.4192H130.577V74.5445H132.703V72.4192H131.002ZM129.302 83.8967H131.428V86.0223H129.302V83.8967ZM130.152 84.3218H129.727V85.5972H131.002V84.3218H130.152H130.152ZM117.399 84.7468H120.375V87.7225H117.399V84.7468ZM118.25 85.1719H117.824V87.2971H119.95V85.1719H118.25Z" fill="#373435"/>
<path fill-rule="evenodd" clip-rule="evenodd" d="M118.25 72.8447H119.525V74.1199H118.25V72.8447ZM131.003 72.8447H132.278V74.1199H131.003V72.8447ZM130.153 84.7473H130.578V85.1724H130.153V84.7473ZM118.25 85.5974H119.525V86.8726H118.25V85.5974Z" fill="#373435"/>
<path fill-rule="evenodd" clip-rule="evenodd" d="M62.6847 80.3922C62.7084 80.6802 62.6192 80.7252 62.5238 81.0767C62.341 81.7491 62.4723 81.9318 63.1637 81.7373C63.5118 81.6394 63.6265 81.5291 63.8812 81.5885L69.1617 76.3079L67.9652 75.0918H67.9442C67.8902 75.1948 67.0135 76.0418 66.8823 76.1739C66.8482 76.2083 66.835 76.2237 66.7989 76.2556C66.5208 76.5007 66.267 76.7691 66.0171 77.0413L65.8945 77.1664C65.8671 77.1916 65.8864 77.17 65.8511 77.2053L64.9848 78.0716C64.799 78.2574 64.6482 78.4307 64.4836 78.5602L64.0418 79.0057C64.0387 79.0085 64.0342 79.0127 64.0309 79.0155L63.6565 79.4042C63.6534 79.4072 63.6492 79.4114 63.6461 79.4145C63.6431 79.4176 63.6389 79.4218 63.6358 79.4249L63.1718 79.8891C63.1688 79.8922 63.1646 79.8964 63.1615 79.8994L62.8316 80.2294C62.8285 80.2324 62.8243 80.2366 62.8212 80.2397L62.7185 80.3433C62.7 80.3656 62.6967 80.3746 62.6849 80.3922H62.6847Z" fill="#FFBF24"/>
<path fill-rule="evenodd" clip-rule="evenodd" d="M67.0509 74.2872L66.5839 74.759L65.0575 76.2832C64.9601 76.4136 64.807 76.5387 64.6864 76.6593C64.5826 76.7631 64.4214 76.945 64.3159 77.0211C64.2941 77.0561 64.3089 77.0343 64.286 77.0617C64.2821 77.0664 64.2698 77.0801 64.2653 77.0846C64.2471 77.1042 64.2339 77.1151 64.2135 77.1353C63.9664 77.3779 62.914 78.4552 62.8007 78.5411L62.0631 79.2807C62.0026 79.3691 61.9108 79.4301 61.8434 79.5093C61.7883 79.5739 61.7555 79.7472 61.7273 79.8462C61.6607 80.0813 61.5865 80.3006 61.5283 80.5371C61.861 80.7486 62.3387 80.3124 62.6854 80.3927C62.6971 80.3751 62.7005 80.3661 62.719 80.3437L62.8217 80.2402C62.8247 80.2371 62.8289 80.2329 62.832 80.2298L63.1619 79.8999C63.165 79.8969 63.1692 79.8927 63.1723 79.8896L63.6362 79.4254C63.6393 79.4223 63.6435 79.4181 63.6466 79.415C63.6497 79.4119 63.6539 79.4077 63.6569 79.4046L64.0313 79.016C64.0344 79.0132 64.0392 79.009 64.0423 79.0062L64.4841 78.5607C64.6486 78.4311 64.7995 78.2576 64.9853 78.0721L65.8516 77.2058C65.8869 77.1705 65.8678 77.1921 65.895 77.1669L66.0175 77.0418C66.2674 76.7695 66.5212 76.5012 66.7994 76.2561C66.8355 76.2242 66.8486 76.2088 66.8827 76.1744C67.014 76.0423 67.8904 75.195 67.9447 75.0923L67.1192 74.2461C67.0943 74.2612 67.0758 74.2713 67.0512 74.2872H67.0509Z" fill="#FFCF5F"/>
<path fill-rule="evenodd" clip-rule="evenodd" d="M63.8811 81.5892L63.8724 81.7128C63.8719 81.7791 63.887 81.8415 63.7994 81.8978C63.73 81.9426 63.7857 81.8765 63.751 81.9191C63.7767 81.9728 63.758 82.0567 63.7443 82.1144L63.7213 82.2325C63.688 82.3822 63.6449 82.4493 63.6575 82.5372C63.6975 82.8167 63.6486 82.6083 63.6584 82.7471C63.873 82.707 64.3266 82.5576 64.591 82.4829C64.7463 82.439 64.7452 82.4239 64.8336 82.3346C64.9593 82.2078 65.5432 81.6079 65.635 81.5461L66.3774 80.8054C66.3981 80.7578 68.618 78.5298 68.6879 78.4949C68.747 78.4039 69.0008 78.1661 69.0911 78.0832L69.8604 77.2953C69.9194 77.2496 69.8565 77.2734 69.9233 77.2659C69.9575 77.2012 69.9689 77.2079 70.0143 77.1478L69.1762 76.3086H69.1622L63.8817 81.5892H63.8811Z" fill="#EBA81B"/>
<path fill-rule="evenodd" clip-rule="evenodd" d="M68.6876 78.4942C68.7094 81.4326 68.6879 84.4167 68.6879 87.3638C68.6879 87.7516 68.8034 88.3947 68.274 88.4366C67.8411 88.4711 67.2594 88.4386 66.81 88.4386H57.9407C56.9728 88.4386 55.9626 88.4666 55 88.4369C55.0386 88.7184 55.2152 88.8147 55.4852 88.8357L56.3731 88.8418C56.9487 88.811 57.5674 88.8466 58.1469 88.8438C58.7449 88.841 59.3431 88.8275 59.9414 88.8432L60.8285 88.832C60.9852 88.8236 61.1276 88.8474 61.2823 88.8432C61.441 88.839 61.551 88.8267 61.7155 88.8387L63.51 88.8334C63.8128 88.8533 64.5112 88.8236 64.8506 88.8418C65.0009 88.8497 65.1349 88.8281 65.2838 88.8303C65.8742 88.839 66.4675 88.8463 67.0576 88.8306C67.2135 88.8264 67.3551 88.8502 67.5115 88.8418C67.8699 88.8228 68.4956 88.8779 68.811 88.8119C68.9344 88.6364 69.0788 88.7968 69.0788 88.245L69.0841 84.8473C69.0847 84.1536 69.0578 78.3269 69.0908 78.082C69.0001 78.1649 68.7466 78.403 68.6876 78.4937V78.4942Z" fill="#B0BEC4"/>
<path fill-rule="evenodd" clip-rule="evenodd" d="M66.5834 74.7591L67.0504 74.2873C66.9592 74.1018 66.9038 74.0195 66.6251 74.0184L56.8682 74.019C56.6292 74.019 56.4538 73.9851 56.3018 74.1334C56.1664 74.2655 56.1546 74.4807 56.2845 74.6239C56.4378 74.7932 56.5808 74.7599 56.8477 74.7596H61.0143C62.8651 74.7596 64.7354 74.7862 66.5837 74.7588L66.5834 74.7591Z" fill="#616161"/>
<path fill-rule="evenodd" clip-rule="evenodd" d="M68.9775 74.1014C69.1138 74.276 70.0742 75.1701 70.155 75.2957C70.2513 75.357 70.4827 75.6122 70.5829 75.7121C70.706 75.8352 70.8943 76.0479 71.0175 76.1419C71.1269 76.0593 71.8427 75.3228 72.0119 75.1569C72.1552 75.0164 72.1908 75.0044 72.2918 74.7789C72.3606 74.4319 72.2758 74.2475 72.0995 74.0715C71.942 73.9142 71.8158 73.79 71.6138 73.5879C71.4772 73.4511 70.7021 72.7132 70.6674 72.6209L70.5283 72.5059C70.4942 72.6072 70.4114 72.6556 70.3425 72.7241C70.1517 72.915 69.0304 74.0155 68.9778 74.1009L68.9775 74.1014Z" fill="#DC4947"/>
<path fill-rule="evenodd" clip-rule="evenodd" d="M64.3156 77.021C64.4211 76.9449 64.5826 76.763 64.6861 76.6592C64.8067 76.5386 64.9598 76.4135 65.0572 76.2831C64.7479 76.2487 64.2706 76.2769 63.9435 76.2769C61.7228 76.2769 59.5018 76.2769 57.2811 76.2769C56.9865 76.2769 56.4724 76.2117 56.2945 76.3945C56.0745 76.6203 56.2265 77.0104 56.5623 77.0196C56.9255 77.0297 57.3077 77.0185 57.6732 77.0185H62.1078C62.8272 77.0185 63.6035 76.9905 64.3156 77.021Z" fill="#616161"/>
<path fill-rule="evenodd" clip-rule="evenodd" d="M62.0628 79.2811L62.8004 78.5416C62.2732 78.5687 61.6738 78.5435 61.1379 78.5435H57.0128C56.7595 78.5435 56.4531 78.4979 56.3015 78.6499C56.1213 78.8298 56.1884 79.0881 56.3549 79.2145C56.508 79.331 56.8981 79.2845 57.116 79.2845C57.6662 79.2845 58.2157 79.2845 58.7662 79.2845C59.1358 79.2845 61.7706 79.3052 62.063 79.2809L62.0628 79.2811Z" fill="#616161"/>
<path fill-rule="evenodd" clip-rule="evenodd" d="M61.5284 80.5369L61.448 80.805C61.3873 80.9947 61.2636 81.3655 61.2371 81.5468L60.9346 82.5883C61.009 82.6918 61.1464 82.5785 61.2734 82.6129C61.2782 82.7324 61.1853 82.8178 61.2004 83.0324C61.405 83.1446 61.584 82.8967 61.6851 83.0377C61.6576 83.0646 61.6702 83.0447 61.6518 83.0914C61.6509 83.0937 61.6361 83.1569 61.6358 83.1589C61.6266 83.2341 61.6422 83.2862 61.6616 83.338C61.9951 83.2246 62.3384 83.1474 62.6754 83.0427C62.8346 82.9935 63.0025 82.9507 63.1704 82.8984C63.2949 82.8597 63.5778 82.7957 63.6587 82.7467C63.6489 82.6079 63.6981 82.8161 63.6578 82.5368C63.6452 82.4487 63.6883 82.3818 63.7216 82.2321L63.7446 82.114C63.7586 82.0564 63.7773 81.9727 63.7516 81.9187C63.7863 81.8762 63.7306 81.9419 63.8 81.8974C63.8876 81.8409 63.8724 81.7788 63.873 81.7125L63.8817 81.5888C63.6273 81.5295 63.5126 81.6397 63.1642 81.7376C62.4728 81.9324 62.3415 81.7494 62.5242 81.0773C62.6199 80.7258 62.7092 80.6808 62.6851 80.3928C62.3382 80.3125 61.8608 80.7487 61.5281 80.5372L61.5284 80.5369Z" fill="#F29355"/>
<path fill-rule="evenodd" clip-rule="evenodd" d="M61.2364 81.5463C61.2632 81.365 61.3866 80.9945 61.4476 80.8045C60.0656 80.8045 58.6835 80.8045 57.3015 80.8045C56.91 80.8045 56.2947 80.6892 56.2037 81.0893C56.1573 81.2939 56.2902 81.4671 56.4396 81.5208C56.5712 81.5678 58.2624 81.5443 58.4773 81.5443C59.3806 81.5443 60.3404 81.513 61.2364 81.5463Z" fill="#616161"/>
<path fill-rule="evenodd" clip-rule="evenodd" d="M61.2631 83.4653C61.0219 83.4847 60.8146 83.6741 60.7066 83.4846L60.699 83.3523C60.7228 83.2493 60.7642 83.1922 60.7667 83.0683C60.4584 83.0375 57.3378 83.0655 56.7241 83.063C56.4832 83.0618 56.3234 83.0977 56.2367 83.2661C56.1474 83.4393 56.2224 83.6489 56.336 83.7295C56.5302 83.8677 57.2955 83.8042 57.5905 83.8042C58.4842 83.8042 59.3783 83.8042 60.2717 83.8042C60.7228 83.8042 61.1901 83.9206 61.2634 83.4653H61.2631Z" fill="#616161"/>
<path fill-rule="evenodd" clip-rule="evenodd" d="M69.4349 71.983C69.265 72.051 69.206 72.1456 69.0999 72.2404C69.0182 72.3462 68.7896 72.586 68.6774 72.6518C68.6466 72.722 68.4586 72.8893 68.4004 72.9478C68.31 73.0382 68.2039 73.158 68.1113 73.2313C68.2235 73.3919 68.8669 73.951 68.957 74.1015H68.9782C69.0308 74.0159 70.1521 72.9156 70.3429 72.7248C70.4115 72.6562 70.4946 72.6078 70.5287 72.5065C70.4974 72.4366 70.2584 72.2147 70.1991 72.157C70.0947 72.0557 69.9484 71.9474 69.7351 71.9365L69.4346 71.983H69.4349Z" fill="#E95F5D"/>
<path fill-rule="evenodd" clip-rule="evenodd" d="M67.9658 75.0924L69.1623 76.3085H69.1763C69.2133 76.2106 69.5673 75.8916 69.6618 75.7973C69.828 75.6311 69.9996 75.4749 70.156 75.2959C70.0754 75.1702 69.1148 74.2762 68.9785 74.1016H68.9572C68.906 74.171 68.0971 75.0048 67.9661 75.0924H67.9658Z" fill="#C8C6C5"/>
<path fill-rule="evenodd" clip-rule="evenodd" d="M69.1761 76.3083L70.0141 77.1475L71.0179 76.1421C70.8947 76.0481 70.7064 75.8354 70.5833 75.7123C70.4831 75.6121 70.2517 75.3572 70.1554 75.2959C69.9993 75.475 69.8275 75.6311 69.6613 75.7973C69.5667 75.8919 69.2127 76.2106 69.1758 76.3086L69.1761 76.3083Z" fill="#DFDFDF"/>
<path fill-rule="evenodd" clip-rule="evenodd" d="M65.6348 81.5452C65.944 81.5343 66.7792 81.6204 66.9519 81.4408C67.0843 81.3028 67.1005 81.0703 66.9667 80.9164C66.8461 80.7776 66.601 80.805 66.3771 80.8048L65.6348 81.5455V81.5452Z" fill="#616161"/>
<path fill-rule="evenodd" clip-rule="evenodd" d="M68.6768 72.6514C68.7887 72.5853 69.0176 72.3458 69.0993 72.24C69.0864 72.2081 69.0923 71.6283 69.0923 71.5385C69.0926 71.2506 69.1276 71.0894 68.8133 70.9288L68.6787 70.9053C68.7019 70.9811 68.7025 72.5252 68.6768 72.6514Z" fill="#B0BEC4"/>
<path fill-rule="evenodd" clip-rule="evenodd" d="M60.7669 83.069C60.7644 83.193 60.7233 83.2501 60.6992 83.3531L60.7068 83.4854C60.8148 83.6749 61.0224 83.4854 61.2633 83.4661C61.3241 83.4127 61.5765 83.3503 61.661 83.3388C61.6417 83.2873 61.626 83.2353 61.6352 83.1597C61.6355 83.1575 61.6506 83.0945 61.6515 83.0923C61.6699 83.0455 61.6571 83.0654 61.6848 83.0385C61.5837 82.8972 61.4049 83.1452 61.2001 83.0329C61.185 82.818 61.2776 82.733 61.2731 82.6135C61.1461 82.5791 61.0087 82.6924 60.9343 82.5889C60.8873 82.6913 60.8489 83.003 60.7669 83.0693V83.069Z" fill="#414142"/>
<path fill-rule="evenodd" clip-rule="evenodd" d="M71.0178 76.1423C70.9696 76.2047 70.9677 76.2179 70.9772 76.3292H71.2867L71.2914 76.0245L71.5959 76.02L71.6009 75.715L71.9054 75.7106L71.9098 75.4061L72.2149 75.4011L72.2193 75.0966L72.5243 75.0916V74.7821L72.2924 74.7793C72.1913 75.0046 72.1558 75.0169 72.0125 75.1573C71.8432 75.3233 71.1277 76.0598 71.018 76.1423H71.0178Z" fill="white"/>
</g>
<path d="M76.2365 139V128.818H83.0973V130.593H78.3892V133.019H82.7443V134.794H78.3892V137.225H83.1172V139H76.2365ZM86.5637 139H84.2569L87.7718 128.818H90.546L94.0559 139H91.7491L89.1987 131.145H89.1191L86.5637 139ZM86.4196 134.998H91.8684V136.678H86.4196V134.998ZM103.787 132.383H101.609C101.569 132.101 101.488 131.851 101.365 131.632C101.243 131.41 101.085 131.221 100.893 131.065C100.701 130.91 100.479 130.79 100.227 130.707C99.9783 130.625 99.7082 130.583 99.4165 130.583C98.8896 130.583 98.4305 130.714 98.0394 130.976C97.6483 131.234 97.3451 131.612 97.1296 132.109C96.9142 132.603 96.8065 133.203 96.8065 133.909C96.8065 134.635 96.9142 135.245 97.1296 135.739C97.3484 136.232 97.6533 136.605 98.0444 136.857C98.4355 137.109 98.8879 137.235 99.4016 137.235C99.69 137.235 99.9568 137.197 100.202 137.121C100.451 137.045 100.671 136.933 100.863 136.788C101.056 136.638 101.215 136.458 101.341 136.246C101.47 136.034 101.559 135.792 101.609 135.52L103.787 135.53C103.73 135.997 103.589 136.448 103.364 136.882C103.142 137.313 102.842 137.699 102.464 138.04C102.09 138.379 101.642 138.647 101.122 138.846C100.605 139.041 100.02 139.139 99.3668 139.139C98.4587 139.139 97.6467 138.934 96.9308 138.523C96.2182 138.112 95.6547 137.517 95.2404 136.738C94.8294 135.959 94.6239 135.016 94.6239 133.909C94.6239 132.799 94.8327 131.854 95.2504 131.075C95.668 130.296 96.2347 129.703 96.9506 129.295C97.6665 128.884 98.4719 128.679 99.3668 128.679C99.9568 128.679 100.504 128.762 101.007 128.928C101.515 129.093 101.964 129.335 102.355 129.653C102.746 129.968 103.064 130.354 103.309 130.812C103.558 131.269 103.717 131.793 103.787 132.383ZM106.429 139.139V137.389H106.981C107.256 137.389 107.478 137.356 107.647 137.29C107.816 137.22 107.95 137.119 108.05 136.987C108.152 136.851 108.239 136.682 108.308 136.479L108.433 136.146L104.734 128.818H106.961L109.357 133.83L111.361 128.818H113.558L110.048 137.001C109.879 137.379 109.679 137.731 109.447 138.055C109.218 138.38 108.925 138.642 108.567 138.841C108.209 139.04 107.751 139.139 107.195 139.139H106.429Z" fill="black"/>
<defs>
<linearGradient id="paint0_linear_228_106" x1="109.722" y1="76.9428" x2="76.6952" y2="79.2637" gradientUnits="userSpaceOnUse">
<stop stop-color="#0F889D"/>
<stop offset="1" stop-color="#1EC8D4"/>
</linearGradient>
<linearGradient id="paint1_linear_228_106" x1="74.8108" y1="89.2135" x2="99.2436" y2="86.3072" gradientUnits="userSpaceOnUse">
<stop stop-color="#F5874F"/>
<stop offset="1" stop-color="#F2D673"/>
</linearGradient>
<linearGradient id="paint2_linear_228_106" x1="60.4681" y1="92.3528" x2="126.301" y2="89.2384" gradientUnits="userSpaceOnUse">
<stop stop-color="#00A859"/>
<stop offset="1" stop-color="#23ED81"/>
</linearGradient>
<linearGradient id="paint3_linear_228_106" x1="123.961" y1="51.418" x2="62.1737" y2="61.0471" gradientUnits="userSpaceOnUse">
<stop stop-color="#0F889D"/>
<stop offset="1" stop-color="#1EC8D4"/>
</linearGradient>
<clipPath id="clip0_228_106">
<rect width="79.1904" height="70" fill="white" transform="translate(55 45)"/>
</clipPath>
</defs>
</svg>
