<svg width="313" height="296" viewBox="0 0 313 296" fill="none" xmlns="http://www.w3.org/2000/svg">
<g filter="url(#filter0_d_225_121)">
<path d="M308.664 147.86L232.479 275.566L80.1626 275.412L4.03194 147.551L80.2172 19.8451L232.533 19.9995L308.664 147.86Z" fill="#F2F2E6"/>
</g>
<g clip-path="url(#clip0_225_121)">
<path fill-rule="evenodd" clip-rule="evenodd" d="M191.726 182.345C190.815 182.253 186.963 180.578 185.717 180.116C181.507 179.089 177.114 180.545 172.746 180.12C173.134 180.178 169.537 183.991 166.801 186.003C166.653 186.111 166.294 186.315 165.848 186.546C164.773 187.102 163.192 187.81 162.889 187.686C162.249 187.426 163.071 187.047 164.313 186.714C164.604 186.18 164.869 185.624 165.11 185.048C169.325 174.997 166.415 159.009 169.648 153.89C172.801 152.629 165.355 151.49 172.859 152.326C175.113 152.576 175.268 153.535 178.66 153.282C181.506 153.069 181.251 152.411 184.654 152.925C184.897 154.663 183.921 155.133 183.088 156.484C186.606 161.339 196.929 166.724 198.488 174.331C199.24 177.999 197.054 181.051 191.726 182.345Z" fill="#176BB3"/>
<path fill-rule="evenodd" clip-rule="evenodd" d="M157.786 101.116L159.43 104.86C146.979 114.967 138.049 131.404 141.962 146.346C140.669 147.525 142.56 146.864 140.411 146.675C131.389 133.237 115.676 137.003 111.409 149.853C101.506 151.894 82.5881 141.446 91.067 131.655L114.412 116.081C118.168 112.486 128.384 101.912 131.808 99.4233L134.719 96.9649C134.014 95.6973 131.559 91.8102 132.927 84.3433C134.018 84.948 133.352 84.4517 134.211 85.3813C134.349 85.5304 135.078 86.586 135.298 86.898L139.204 92.6972C140.414 94.6389 140.078 94.6222 142.707 94.4871C142.188 91.0833 142.083 85.9499 143.423 77.0117C144.856 81.1988 147.855 84.9258 150.238 89.0832C151.64 91.5277 156.256 99.7798 157.785 101.117L157.786 101.116Z" fill="url(#paint0_linear_225_121)"/>
<path fill-rule="evenodd" clip-rule="evenodd" d="M155.275 103.995L153.631 107.739C164.16 115.906 171.627 135.348 171.099 149.225C172.392 150.403 169.438 149.996 171.587 149.807C178.99 140.067 192.58 150.862 201.652 152.73C211.556 154.771 228.212 147.014 219.732 137.223L198.65 118.958C194.893 115.364 184.676 104.79 181.253 102.301L178.342 99.8422C178.797 99.0237 181.613 95.8625 182.132 92.5245C182.638 89.2735 181.092 85.0373 177.762 89.7754L173.857 95.5746C172.647 97.5163 172.982 97.4996 170.354 97.3644C170.626 95.5792 175.155 91.3217 173.567 86.5207C172.801 83.679 166.948 86.5661 165.674 89.2337C165.583 89.4254 156.17 103.211 155.275 103.994V103.995Z" fill="url(#paint1_linear_225_121)"/>
<path fill-rule="evenodd" clip-rule="evenodd" d="M167.229 175.546C167.137 174.948 169.816 161.288 171.548 153.817C172.489 149.75 171.314 145.079 170.382 139.687C168.28 127.522 161.898 114.152 153.63 107.738L137.485 129.997C134.656 133.932 132.266 137.097 129.535 140.969C127.565 143.764 122.49 150.016 121.557 152.764C125.983 151.654 128.723 148.687 137.484 148.97C145.871 149.24 152.157 153.132 154.823 159.976C155.938 162.839 157.359 162.424 159.447 164.694C162.104 167.584 160.525 169.06 162.309 170.964L167.229 175.545V175.546Z" fill="url(#paint2_linear_225_121)"/>
<path fill-rule="evenodd" clip-rule="evenodd" d="M154.895 205.191L154.958 205.187C156.22 202.12 162.426 188.642 164.313 186.715C158.602 188.24 152.506 183.664 148.358 181.734C140.82 178.225 138.192 179.757 131.23 182.066C130.582 177.564 132.754 172.192 136.401 169.458L140.192 167.432C140.29 167.377 140.465 167.265 140.544 167.22C140.623 167.174 140.782 167.082 140.891 167.002C140.776 166.917 140.587 166.671 140.527 166.772L137.683 165.296C133.568 162.896 136.159 160.769 143.837 161.458C141.655 154.934 128.496 154.433 121.748 156.625C117.369 158.047 116.27 159.396 114.008 162.847C112.43 165.256 109.448 168.946 108.647 171.736L143.5 196.54C145.002 197.579 154.086 203.502 154.896 205.192L154.895 205.191Z" fill="url(#paint3_linear_225_121)"/>
<path fill-rule="evenodd" clip-rule="evenodd" d="M155.848 104.821C155.915 104.654 156.327 103.838 156.333 103.819C156.736 102.563 156.621 103.295 156.097 103.005C147.815 104.354 141.565 103.269 133.685 102.312C133.581 107.397 145.367 114.143 153.775 106.959C154.458 106.376 155.446 105.073 155.848 104.821Z" fill="#FEFEFE"/>
<path fill-rule="evenodd" clip-rule="evenodd" d="M185.586 104.821C185.519 104.654 185.107 103.838 185.101 103.819C184.697 102.563 184.812 103.295 185.337 103.005C193.618 104.354 199.87 103.269 207.749 102.312C207.853 107.397 196.068 114.143 187.66 106.959C186.976 106.376 185.988 105.073 185.586 104.821Z" fill="url(#paint4_linear_225_121)"/>
<path fill-rule="evenodd" clip-rule="evenodd" d="M225.56 76.272C247.305 93.7501 260.308 117.314 260.985 148.268C261.84 187.295 220.89 236.977 169.671 243.439L162.464 232.333C161.742 231.294 161.034 230.296 160.337 229.332C196.381 227.893 226.995 207.327 240.341 178.457C244.846 169.466 247.479 159.412 247.479 148.177L247.476 147.882C247.492 147.258 247.503 146.632 247.503 146.005C247.503 115.056 229.073 88.0454 201.702 73.6479C211.448 69.7312 217.805 70.0376 225.561 76.2711L225.56 76.272Z" fill="url(#paint5_linear_225_121)"/>
<path fill-rule="evenodd" clip-rule="evenodd" d="M155.168 52.001C168.984 52.001 182.176 54.4399 194.261 58.8706C181.769 63.3614 172.696 64.629 159.674 63.8994C158.182 63.816 156.68 63.7595 155.168 63.7595C104.187 63.7595 62.857 101.555 62.857 148.178C62.857 170.699 72.5022 191.158 88.2196 206.293C103.088 220.611 112.11 209.053 107.917 198.645C104.282 193.083 93.2872 195.092 89.6786 199.831C87.5371 187.161 99.8302 179.499 116.1 189.939C121.776 193.581 131.201 210.363 117.468 220.538C137.297 227.027 143.453 234.656 148.955 243.92C146.611 244.126 144.572 243.894 142.241 243.632C90.2568 237.805 50 197.291 50 148.177C50 95.0601 97.0852 52.001 155.168 52.001Z" fill="url(#paint6_linear_225_121)"/>
</g>
<defs>
<filter id="filter0_d_225_121" x="0.0322266" y="19.8447" width="312.632" height="263.722" filterUnits="userSpaceOnUse" color-interpolation-filters="sRGB">
<feFlood flood-opacity="0" result="BackgroundImageFix"/>
<feColorMatrix in="SourceAlpha" type="matrix" values="0 0 0 0 0 0 0 0 0 0 0 0 0 0 0 0 0 0 127 0" result="hardAlpha"/>
<feOffset dy="4"/>
<feGaussianBlur stdDeviation="2"/>
<feComposite in2="hardAlpha" operator="out"/>
<feColorMatrix type="matrix" values="0 0 0 0 0 0 0 0 0 0 0 0 0 0 0 0 0 0 0.25 0"/>
<feBlend mode="normal" in2="BackgroundImageFix" result="effect1_dropShadow_225_121"/>
<feBlend mode="normal" in="SourceGraphic" in2="effect1_dropShadow_225_121" result="shape"/>
</filter>
<linearGradient id="paint0_linear_225_121" x1="132.927" y1="84.3424" x2="97.5437" y2="176.466" gradientUnits="userSpaceOnUse">
<stop stop-color="#E8B087"/>
<stop offset="1" stop-color="#EA7F17"/>
</linearGradient>
<linearGradient id="paint1_linear_225_121" x1="192.73" y1="88.3531" x2="182.596" y2="170.113" gradientUnits="userSpaceOnUse">
<stop stop-color="#14ABA2"/>
<stop offset="1" stop-color="#006ABC"/>
</linearGradient>
<linearGradient id="paint2_linear_225_121" x1="137.484" y1="148.97" x2="154.344" y2="117.598" gradientUnits="userSpaceOnUse">
<stop stop-color="#7CAB4C"/>
<stop offset="1" stop-color="#CDE3A7"/>
</linearGradient>
<linearGradient id="paint3_linear_225_121" x1="124.989" y1="175.051" x2="143.981" y2="140.148" gradientUnits="userSpaceOnUse">
<stop stop-color="#7CAA30"/>
<stop offset="1" stop-color="#E1EDC4"/>
</linearGradient>
<linearGradient id="paint4_linear_225_121" x1="192.731" y1="88.353" x2="182.597" y2="170.112" gradientUnits="userSpaceOnUse">
<stop stop-color="#14ABA2"/>
<stop offset="1" stop-color="#313363"/>
</linearGradient>
<linearGradient id="paint5_linear_225_121" x1="168.968" y1="236.862" x2="220.765" y2="88.5596" gradientUnits="userSpaceOnUse">
<stop stop-color="#83AF51"/>
<stop offset="1" stop-color="#ABD7A9"/>
</linearGradient>
<linearGradient id="paint6_linear_225_121" x1="175.076" y1="53.7232" x2="118.425" y2="224.217" gradientUnits="userSpaceOnUse">
<stop stop-color="#14ADA3"/>
<stop offset="1" stop-color="#006ABC"/>
</linearGradient>
<clipPath id="clip0_225_121">
<rect width="211" height="192" fill="white" transform="translate(50 52)"/>
</clipPath>
</defs>
</svg>
