<svg width="313" height="296" viewBox="0 0 313 296" fill="none" xmlns="http://www.w3.org/2000/svg">
<g filter="url(#filter0_d_224_92)">
<path d="M308.664 147.86L232.479 275.566L80.1626 275.412L4.03194 147.551L80.2172 19.8451L232.533 19.9995L308.664 147.86Z" fill="#F2F2E6"/>
</g>
<path d="M250.776 96.5498C245.281 106.602 230.482 104.265 236.07 124.656C241.501 116.03 255.618 116.293 250.776 96.5498Z" fill="url(#paint0_radial_224_92)"/>
<path d="M233.345 85.666C232.397 94.5802 220.653 96.7498 231.184 110.416C232.53 102.578 243.117 99.0476 233.345 85.666Z" fill="url(#paint1_radial_224_92)"/>
<path d="M257.466 113.644C250.345 122.8 236.123 118.393 238.205 139.339C245.023 131.583 258.921 133.842 257.466 113.644Z" fill="url(#paint2_radial_224_92)"/>
<path d="M257.648 132.597C249.671 141.139 235.935 135.59 235.982 156.627C243.521 149.455 257.142 152.84 257.648 132.597Z" fill="url(#paint3_radial_224_92)"/>
<path d="M255.145 152.602C245.804 159.904 233.185 152.467 229.633 173.253C238.307 167.242 251.183 172.524 255.145 152.602Z" fill="url(#paint4_radial_224_92)"/>
<path d="M210.546 109.033C218.359 117.632 232.099 112.177 231.756 133.216C224.358 125.991 210.764 129.282 210.546 109.033Z" fill="url(#paint5_radial_224_92)"/>
<path d="M218.344 101.855C222.234 107.563 230.854 105.31 228.833 117.851C225.07 112.995 216.724 113.965 218.344 101.855Z" fill="url(#paint6_radial_224_92)"/>
<path d="M60.2235 96.5498C65.7184 106.602 80.5177 104.265 74.9298 124.656C69.4983 116.03 55.3815 116.293 60.2235 96.5498Z" fill="url(#paint7_radial_224_92)"/>
<path d="M77.6561 85.666C78.6041 94.5802 90.3473 96.7498 79.8174 110.416C78.471 102.578 67.8838 99.0476 77.6561 85.666Z" fill="url(#paint8_radial_224_92)"/>
<path d="M53.5337 113.644C60.6546 122.8 74.8772 118.393 72.7945 139.339C65.9764 131.583 52.0784 133.842 53.5337 113.644Z" fill="url(#paint9_radial_224_92)"/>
<path d="M53.3516 132.597C61.3288 141.139 75.0649 135.59 75.0185 156.627C67.4783 149.455 53.8576 152.84 53.3516 132.597Z" fill="url(#paint10_radial_224_92)"/>
<path d="M55.8545 152.602C65.1953 159.904 77.8142 152.467 81.3666 173.253C72.692 167.242 59.8167 172.524 55.8545 152.602Z" fill="url(#paint11_radial_224_92)"/>
<path d="M100.453 109.033C92.6401 117.632 78.9008 112.177 79.2436 133.216C86.6415 125.991 100.236 129.282 100.453 109.033Z" fill="url(#paint12_radial_224_92)"/>
<path d="M92.6559 101.855C88.7652 107.563 80.146 105.31 82.1669 117.851C85.9299 112.995 94.2759 113.965 92.6559 101.855Z" fill="url(#paint13_radial_224_92)"/>
<path d="M121.663 113.883C122.689 110.002 120.016 109.109 117.501 107.156C116.862 110.695 120.233 113.001 121.663 113.883Z" fill="#EF9E1C"/>
<path fill-rule="evenodd" clip-rule="evenodd" d="M117.132 106.238L116.98 107.079C116.631 109.015 117.386 110.607 118.386 111.806C119.381 112.999 120.639 113.831 121.367 114.28L121.998 114.669L122.177 113.995C122.446 112.975 122.482 112.119 122.317 111.374C122.152 110.625 121.792 110.019 121.32 109.493C120.853 108.974 120.277 108.531 119.683 108.108C119.494 107.973 119.305 107.841 119.115 107.71C118.694 107.417 118.27 107.122 117.844 106.791L117.132 106.238ZM121.301 113.059C120.654 112.615 119.873 112.001 119.227 111.226C118.51 110.366 117.972 109.325 117.95 108.106C118.136 108.238 118.32 108.366 118.499 108.49C118.683 108.618 118.862 108.742 119.031 108.863C119.614 109.278 120.113 109.667 120.501 110.1C120.884 110.526 121.156 110.993 121.283 111.564C121.375 111.981 121.392 112.47 121.301 113.059Z" fill="#EF9E1C"/>
<path d="M125.263 114.29C125.11 110.258 127.929 109.899 130.825 108.463C130.674 112.081 126.859 113.699 125.263 114.29Z" fill="#EF9E1C"/>
<path fill-rule="evenodd" clip-rule="evenodd" d="M131.388 107.637L131.353 108.482C131.27 110.459 130.181 111.883 128.934 112.873C127.695 113.856 126.277 114.433 125.464 114.734L124.761 114.994L124.735 114.305C124.695 113.247 124.848 112.396 125.172 111.694C125.499 110.988 125.986 110.459 126.566 110.031C127.138 109.609 127.802 109.284 128.478 108.982C128.693 108.886 128.908 108.793 129.123 108.7C129.6 108.493 130.08 108.285 130.571 108.042L131.388 107.637ZM125.799 113.555C126.531 113.244 127.433 112.79 128.237 112.151C129.133 111.439 129.893 110.512 130.179 109.303C129.966 109.398 129.755 109.49 129.55 109.578C129.342 109.668 129.14 109.756 128.947 109.842C128.284 110.138 127.71 110.424 127.234 110.775C126.767 111.12 126.397 111.527 126.147 112.067C125.964 112.464 125.838 112.949 125.799 113.555Z" fill="#EF9E1C"/>
<path d="M124.077 110.325C125.791 109.067 127.563 105.941 125.95 103.221C122.87 105.398 123.668 108.907 124.077 110.325Z" fill="#EF9E1C"/>
<path fill-rule="evenodd" clip-rule="evenodd" d="M124.382 109.388C124.246 108.741 124.146 107.939 124.231 107.103C124.339 106.036 124.746 104.928 125.764 104.008C126.191 105.062 126.118 106.165 125.759 107.172C125.45 108.039 124.936 108.812 124.382 109.388ZM126.764 107.47C127.252 106.099 127.306 104.497 126.415 102.994L126.118 102.493L125.625 102.842C123.943 104.03 123.323 105.588 123.179 107.012C123.036 108.423 123.357 109.72 123.566 110.445L123.773 111.165L124.41 110.698C125.35 110.008 126.278 108.833 126.764 107.47Z" fill="#EF9E1C"/>
<path d="M142.795 111.003C143.821 107.122 141.147 106.229 138.632 104.276C137.993 107.815 141.365 110.122 142.795 111.003Z" fill="#EF9E1C"/>
<path fill-rule="evenodd" clip-rule="evenodd" d="M138.264 103.359L138.112 104.2C137.762 106.136 138.517 107.727 139.518 108.927C140.513 110.119 141.771 110.951 142.499 111.401L143.13 111.79L143.309 111.115C143.578 110.096 143.613 109.24 143.449 108.495C143.284 107.746 142.923 107.14 142.451 106.614C141.985 106.094 141.408 105.651 140.814 105.228C140.626 105.094 140.436 104.962 140.247 104.83C139.826 104.537 139.402 104.243 138.976 103.912L138.264 103.359ZM142.433 110.179C141.786 109.735 141.005 109.121 140.359 108.347C139.642 107.486 139.103 106.446 139.082 105.226C139.268 105.358 139.452 105.486 139.631 105.611C139.815 105.739 139.993 105.863 140.163 105.984C140.746 106.398 141.245 106.788 141.633 107.22C142.015 107.647 142.288 108.113 142.414 108.685C142.506 109.102 142.523 109.591 142.433 110.179Z" fill="#EF9E1C"/>
<path d="M146.394 111.41C146.24 107.378 149.059 107.019 151.956 105.583C151.805 109.201 147.99 110.819 146.394 111.41Z" fill="#EF9E1C"/>
<path fill-rule="evenodd" clip-rule="evenodd" d="M152.519 104.757L152.484 105.602C152.401 107.579 151.312 109.003 150.065 109.993C148.826 110.976 147.408 111.553 146.595 111.854L145.892 112.114L145.866 111.425C145.826 110.367 145.979 109.517 146.304 108.815C146.63 108.108 147.117 107.579 147.697 107.151C148.269 106.729 148.933 106.404 149.609 106.102C149.824 106.006 150.039 105.913 150.254 105.82C150.731 105.613 151.211 105.405 151.701 105.162L152.519 104.757ZM146.93 110.675C147.663 110.364 148.563 109.91 149.368 109.271C150.264 108.56 151.024 107.633 151.311 106.423C151.097 106.518 150.886 106.61 150.681 106.698C150.473 106.789 150.271 106.876 150.078 106.963C149.415 107.258 148.841 107.544 148.366 107.895C147.898 108.24 147.528 108.647 147.278 109.187C147.094 109.584 146.97 110.069 146.93 110.675Z" fill="#EF9E1C"/>
<path d="M145.208 107.446C146.923 106.187 148.695 103.061 147.081 100.341C144.001 102.518 144.799 106.027 145.208 107.446Z" fill="#EF9E1C"/>
<path fill-rule="evenodd" clip-rule="evenodd" d="M145.513 106.508C145.378 105.861 145.277 105.059 145.362 104.223C145.47 103.156 145.877 102.048 146.895 101.128C147.321 102.182 147.249 103.285 146.89 104.292C146.581 105.159 146.068 105.932 145.513 106.508ZM147.895 104.59C148.383 103.219 148.437 101.617 147.546 100.114L147.249 99.6133L146.756 99.962C145.074 101.15 144.454 102.708 144.31 104.132C144.167 105.543 144.488 106.84 144.697 107.565L144.905 108.286L145.541 107.819C146.481 107.128 147.41 105.953 147.895 104.59Z" fill="#EF9E1C"/>
<path d="M163.927 111.003C164.953 107.122 162.279 106.229 159.764 104.276C159.125 107.815 162.497 110.122 163.927 111.003Z" fill="#EF9E1C"/>
<path fill-rule="evenodd" clip-rule="evenodd" d="M159.395 103.358L159.243 104.199C158.894 106.135 159.648 107.727 160.649 108.926C161.643 110.119 162.901 110.951 163.63 111.4L164.261 111.79L164.439 111.115C164.709 110.095 164.744 109.239 164.58 108.494C164.415 107.746 164.055 107.139 163.582 106.613C163.116 106.094 162.54 105.651 161.945 105.228C161.756 105.093 161.567 104.962 161.378 104.83C160.956 104.537 160.533 104.242 160.107 103.911L159.395 103.358ZM163.564 110.179C162.916 109.735 162.136 109.121 161.49 108.346C160.772 107.486 160.234 106.445 160.213 105.226C160.399 105.358 160.583 105.486 160.762 105.61C160.946 105.738 161.124 105.862 161.294 105.983C161.876 106.398 162.375 106.787 162.764 107.22C163.146 107.646 163.419 108.113 163.545 108.684C163.637 109.102 163.655 109.59 163.564 110.179Z" fill="#EF9E1C"/>
<path d="M167.526 111.41C167.372 107.378 170.192 107.019 173.088 105.583C172.936 109.201 169.122 110.819 167.526 111.41Z" fill="#EF9E1C"/>
<path fill-rule="evenodd" clip-rule="evenodd" d="M173.651 104.757L173.616 105.602C173.533 107.579 172.444 109.003 171.197 109.993C169.958 110.976 168.54 111.553 167.726 111.854L167.024 112.114L166.998 111.425C166.957 110.367 167.111 109.517 167.435 108.815C167.762 108.108 168.249 107.579 168.829 107.151C169.401 106.729 170.065 106.404 170.741 106.102C170.956 106.006 171.171 105.913 171.386 105.82C171.863 105.613 172.343 105.405 172.833 105.162L173.651 104.757ZM168.061 110.675C168.794 110.364 169.695 109.91 170.5 109.271C171.396 108.56 172.156 107.633 172.442 106.423C172.229 106.518 172.018 106.61 171.813 106.698C171.605 106.789 171.402 106.876 171.21 106.963C170.547 107.258 169.973 107.544 169.497 107.895C169.03 108.24 168.659 108.647 168.41 109.187C168.226 109.584 168.101 110.069 168.061 110.675Z" fill="#EF9E1C"/>
<path d="M166.34 107.446C168.054 106.187 169.826 103.061 168.213 100.341C165.133 102.518 165.931 106.027 166.34 107.446Z" fill="#EF9E1C"/>
<path fill-rule="evenodd" clip-rule="evenodd" d="M166.645 106.508C166.509 105.861 166.409 105.059 166.493 104.223C166.602 103.156 167.008 102.048 168.027 101.128C168.453 102.182 168.38 103.285 168.022 104.292C167.713 105.159 167.199 105.932 166.645 106.508ZM169.027 104.59C169.515 103.219 169.569 101.617 168.678 100.114L168.381 99.6133L167.887 99.962C166.206 101.15 165.586 102.708 165.442 104.132C165.299 105.543 165.619 106.84 165.828 107.565L166.036 108.286L166.672 107.819C167.613 107.128 168.541 105.953 169.027 104.59Z" fill="#EF9E1C"/>
<path d="M186.113 113.883C187.139 110.002 184.465 109.109 181.951 107.156C181.312 110.695 184.684 113.001 186.113 113.883Z" fill="#EF9E1C"/>
<path fill-rule="evenodd" clip-rule="evenodd" d="M181.581 106.238L181.43 107.079C181.08 109.015 181.835 110.607 182.835 111.806C183.83 112.999 185.088 113.831 185.816 114.28L186.448 114.669L186.626 113.995C186.896 112.975 186.931 112.119 186.767 111.374C186.601 110.625 186.241 110.019 185.769 109.493C185.303 108.974 184.726 108.531 184.132 108.108C183.943 107.973 183.754 107.841 183.564 107.71C183.143 107.417 182.72 107.122 182.293 106.791L181.581 106.238ZM185.75 113.059C185.103 112.615 184.323 112.001 183.677 111.226C182.959 110.366 182.42 109.325 182.399 108.106C182.585 108.238 182.769 108.366 182.948 108.49C183.132 108.618 183.31 108.742 183.48 108.863C184.062 109.278 184.562 109.667 184.95 110.1C185.333 110.526 185.605 110.993 185.731 111.564C185.823 111.981 185.841 112.47 185.75 113.059Z" fill="#EF9E1C"/>
<path d="M189.712 114.29C189.558 110.258 192.378 109.899 195.274 108.463C195.123 112.081 191.308 113.699 189.712 114.29Z" fill="#EF9E1C"/>
<path fill-rule="evenodd" clip-rule="evenodd" d="M195.838 107.637L195.802 108.482C195.72 110.459 194.631 111.883 193.384 112.873C192.145 113.856 190.726 114.433 189.913 114.734L189.21 114.994L189.184 114.305C189.144 113.247 189.298 112.396 189.622 111.694C189.948 110.988 190.436 110.459 191.015 110.031C191.588 109.609 192.252 109.284 192.928 108.982C193.142 108.886 193.357 108.793 193.572 108.7C194.05 108.493 194.529 108.285 195.02 108.042L195.838 107.637ZM190.248 113.555C190.981 113.244 191.882 112.79 192.687 112.151C193.582 111.439 194.343 110.512 194.629 109.303C194.415 109.398 194.205 109.49 194 109.578C193.791 109.668 193.589 109.756 193.396 109.842C192.734 110.138 192.159 110.424 191.684 110.775C191.216 111.12 190.846 111.527 190.596 112.067C190.413 112.464 190.288 112.949 190.248 113.555Z" fill="#EF9E1C"/>
<path d="M188.526 110.325C190.241 109.067 192.013 105.941 190.399 103.221C187.32 105.398 188.117 108.907 188.526 110.325Z" fill="#EF9E1C"/>
<path fill-rule="evenodd" clip-rule="evenodd" d="M188.831 109.388C188.696 108.741 188.596 107.939 188.68 107.103C188.788 106.036 189.195 104.928 190.213 104.008C190.64 105.062 190.567 106.165 190.208 107.172C189.899 108.039 189.386 108.812 188.831 109.388ZM191.213 107.47C191.701 106.099 191.755 104.497 190.864 102.994L190.567 102.493L190.074 102.842C188.392 104.03 187.773 105.588 187.628 107.012C187.485 108.423 187.806 109.72 188.015 110.445L188.223 111.165L188.859 110.698C189.8 110.008 190.728 108.833 191.213 107.47Z" fill="#EF9E1C"/>
<path fill-rule="evenodd" clip-rule="evenodd" d="M123.876 111.743C123.528 111.708 123.217 111.936 123.179 112.252C122.926 114.384 122.806 117.514 122.764 120.251C122.722 122.979 122.757 125.373 122.823 126.023C122.855 126.34 123.163 126.574 123.512 126.545C123.86 126.516 124.116 126.236 124.084 125.92C124.025 125.343 123.988 123.012 124.03 120.27C124.071 117.538 124.191 114.453 124.437 112.379C124.475 112.063 124.223 111.778 123.876 111.743Z" fill="#EF9E1C"/>
<path fill-rule="evenodd" clip-rule="evenodd" d="M145.007 108.862C144.659 108.827 144.347 109.055 144.31 109.372C144.056 111.503 143.937 114.633 143.895 117.371C143.853 120.098 143.888 122.492 143.954 123.142C143.986 123.459 144.294 123.693 144.642 123.664C144.99 123.636 145.246 123.356 145.214 123.039C145.156 122.462 145.119 120.132 145.16 117.389C145.202 114.657 145.322 111.573 145.568 109.498C145.606 109.182 145.354 108.897 145.007 108.862Z" fill="#EF9E1C"/>
<path fill-rule="evenodd" clip-rule="evenodd" d="M166.139 108.862C165.791 108.827 165.479 109.055 165.442 109.372C165.189 111.503 165.069 114.633 165.027 117.371C164.985 120.098 165.02 122.492 165.086 123.142C165.118 123.459 165.426 123.693 165.774 123.664C166.122 123.636 166.378 123.356 166.346 123.039C166.288 122.462 166.25 120.132 166.292 117.389C166.334 114.657 166.454 111.573 166.7 109.498C166.737 109.182 166.486 108.897 166.139 108.862Z" fill="#EF9E1C"/>
<path fill-rule="evenodd" clip-rule="evenodd" d="M188.324 111.743C187.977 111.708 187.665 111.936 187.627 112.252C187.374 114.384 187.254 117.514 187.212 120.251C187.171 122.979 187.206 125.373 187.272 126.023C187.304 126.34 187.612 126.574 187.96 126.545C188.308 126.516 188.564 126.236 188.532 125.92C188.473 125.343 188.436 123.012 188.478 120.27C188.519 117.538 188.639 114.453 188.885 112.379C188.923 112.063 188.672 111.778 188.324 111.743Z" fill="#EF9E1C"/>
<path d="M229.1 138.461C184.178 110.794 111.381 124.308 81.6523 134.644C129.879 126.296 200.692 148.598 220.511 170.064C226.325 162.909 230.421 149.194 229.1 138.461Z" fill="url(#paint14_radial_224_92)"/>
<path d="M192.584 197.47C170.123 185.545 129.878 153.551 81.6523 147.588C81.6522 150.569 86.4023 182.585 117.451 197.492C148.5 212.399 179.858 206.404 192.584 197.47Z" fill="url(#paint15_radial_224_92)"/>
<path d="M217.002 175.493C193.83 152.168 127.471 131.352 81.6523 140.397C127.997 146.109 179.61 180.254 196.99 194.534C203.119 191.584 211.613 184.021 217.002 175.493Z" fill="url(#paint16_radial_224_92)"/>
<path fill-rule="evenodd" clip-rule="evenodd" d="M79.1182 112.726C79.5513 112.779 79.8552 113.142 79.7969 113.536L79.0128 113.44C79.7969 113.536 79.7969 113.536 79.7969 113.536L79.7675 113.737C79.7482 113.869 79.72 114.064 79.684 114.315C79.612 114.817 79.5092 115.543 79.3857 116.439C79.1388 118.23 78.8096 120.698 78.4804 123.407C77.8205 128.839 77.1665 135.192 77.1665 139.005C77.1665 178.571 112.241 210.64 155.5 210.64C198.759 210.64 233.834 178.571 233.834 139.005C233.834 135.192 233.18 128.839 232.52 123.408C232.191 120.698 231.862 118.23 231.615 116.439C231.491 115.543 231.389 114.817 231.316 114.315C231.28 114.064 231.252 113.869 231.233 113.737L231.204 113.539C231.204 113.539 231.204 113.536 231.988 113.44C232.772 113.344 232.772 113.344 232.772 113.344L232.779 113.396L232.802 113.548C232.821 113.68 232.849 113.877 232.886 114.129C232.958 114.633 233.061 115.361 233.185 116.259C233.433 118.056 233.763 120.531 234.093 123.249C234.752 128.671 235.416 135.1 235.416 139.005C235.416 179.36 199.641 212.08 155.5 212.08C111.36 212.08 75.584 179.36 75.584 139.005C75.584 135.1 76.2488 128.671 76.9075 123.249C77.2378 120.531 77.5679 118.056 77.8155 116.259C77.9393 115.361 78.0425 114.633 78.1148 114.129C78.1509 113.877 78.1793 113.68 78.1987 113.548L78.2284 113.345C78.2284 113.344 78.2286 113.344 79.0128 113.44L78.2284 113.345C78.2866 112.95 78.6851 112.673 79.1182 112.726ZM231.882 112.726C232.315 112.673 232.714 112.95 232.772 113.344L231.988 113.44L231.204 113.539C231.146 113.145 231.449 112.779 231.882 112.726Z" fill="url(#paint17_radial_224_92)"/>
<defs>
<filter id="filter0_d_224_92" x="0.0322266" y="19.8447" width="312.632" height="263.722" filterUnits="userSpaceOnUse" color-interpolation-filters="sRGB">
<feFlood flood-opacity="0" result="BackgroundImageFix"/>
<feColorMatrix in="SourceAlpha" type="matrix" values="0 0 0 0 0 0 0 0 0 0 0 0 0 0 0 0 0 0 127 0" result="hardAlpha"/>
<feOffset dy="4"/>
<feGaussianBlur stdDeviation="2"/>
<feComposite in2="hardAlpha" operator="out"/>
<feColorMatrix type="matrix" values="0 0 0 0 0 0 0 0 0 0 0 0 0 0 0 0 0 0 0.25 0"/>
<feBlend mode="normal" in2="BackgroundImageFix" result="effect1_dropShadow_224_92"/>
<feBlend mode="normal" in="SourceGraphic" in2="effect1_dropShadow_224_92" result="shape"/>
</filter>
<radialGradient id="paint0_radial_224_92" cx="0" cy="0" r="1" gradientUnits="userSpaceOnUse" gradientTransform="translate(248.435 103.914) rotate(103.688) scale(23.015 17.2901)">
<stop stop-color="#14833A"/>
<stop offset="1" stop-color="#6BBE2C"/>
</radialGradient>
<radialGradient id="paint1_radial_224_92" cx="0" cy="0" r="1" gradientUnits="userSpaceOnUse" gradientTransform="translate(233.904 91.752) rotate(80.7615) scale(18.2778 13.8247)">
<stop stop-color="#14833A"/>
<stop offset="1" stop-color="#6BBE2C"/>
</radialGradient>
<radialGradient id="paint2_radial_224_92" cx="0" cy="0" r="1" gradientUnits="userSpaceOnUse" gradientTransform="translate(253.913 120.59) rotate(113.213) scale(23.2075 17.1466)">
<stop stop-color="#14833A"/>
<stop offset="1" stop-color="#6BBE2C"/>
</radialGradient>
<radialGradient id="paint3_radial_224_92" cx="0" cy="0" r="1" gradientUnits="userSpaceOnUse" gradientTransform="translate(253.438 139.228) rotate(118.586) scale(23.3513 17.0411)">
<stop stop-color="#14833A"/>
<stop offset="1" stop-color="#6BBE2C"/>
</radialGradient>
<radialGradient id="paint4_radial_224_92" cx="0" cy="0" r="1" gradientUnits="userSpaceOnUse" gradientTransform="translate(249.852 158.552) rotate(127.929) scale(23.6604 16.8185)">
<stop stop-color="#14833A"/>
<stop offset="1" stop-color="#6BBE2C"/>
</radialGradient>
<radialGradient id="paint5_radial_224_92" cx="0" cy="0" r="1" gradientUnits="userSpaceOnUse" gradientTransform="translate(214.64 115.694) rotate(62.2645) scale(23.2558 17.0209)">
<stop stop-color="#14833A"/>
<stop offset="1" stop-color="#6BBE2C"/>
</radialGradient>
<radialGradient id="paint6_radial_224_92" cx="0" cy="0" r="1" gradientUnits="userSpaceOnUse" gradientTransform="translate(220.196 106.134) rotate(70.4756) scale(13.8843 10.2781)">
<stop stop-color="#14833A"/>
<stop offset="1" stop-color="#6BBE2C"/>
</radialGradient>
<radialGradient id="paint7_radial_224_92" cx="0" cy="0" r="1" gradientUnits="userSpaceOnUse" gradientTransform="translate(62.5646 103.914) rotate(76.3117) scale(23.015 17.2901)">
<stop stop-color="#14833A"/>
<stop offset="1" stop-color="#6BBE2C"/>
</radialGradient>
<radialGradient id="paint8_radial_224_92" cx="0" cy="0" r="1" gradientUnits="userSpaceOnUse" gradientTransform="translate(77.0971 91.752) rotate(99.2385) scale(18.2778 13.8247)">
<stop stop-color="#14833A"/>
<stop offset="1" stop-color="#6BBE2C"/>
</radialGradient>
<radialGradient id="paint9_radial_224_92" cx="0" cy="0" r="1" gradientUnits="userSpaceOnUse" gradientTransform="translate(57.0868 120.59) rotate(66.7875) scale(23.2075 17.1467)">
<stop stop-color="#14833A"/>
<stop offset="1" stop-color="#6BBE2C"/>
</radialGradient>
<radialGradient id="paint10_radial_224_92" cx="0" cy="0" r="1" gradientUnits="userSpaceOnUse" gradientTransform="translate(57.5621 139.228) rotate(61.4139) scale(23.3513 17.0411)">
<stop stop-color="#14833A"/>
<stop offset="1" stop-color="#6BBE2C"/>
</radialGradient>
<radialGradient id="paint11_radial_224_92" cx="0" cy="0" r="1" gradientUnits="userSpaceOnUse" gradientTransform="translate(61.1478 158.552) rotate(52.0711) scale(23.6604 16.8185)">
<stop stop-color="#14833A"/>
<stop offset="1" stop-color="#6BBE2C"/>
</radialGradient>
<radialGradient id="paint12_radial_224_92" cx="0" cy="0" r="1" gradientUnits="userSpaceOnUse" gradientTransform="translate(96.3592 115.694) rotate(117.735) scale(23.2558 17.0208)">
<stop stop-color="#14833A"/>
<stop offset="1" stop-color="#6BBE2C"/>
</radialGradient>
<radialGradient id="paint13_radial_224_92" cx="0" cy="0" r="1" gradientUnits="userSpaceOnUse" gradientTransform="translate(90.8034 106.134) rotate(109.524) scale(13.8843 10.2781)">
<stop stop-color="#14833A"/>
<stop offset="1" stop-color="#6BBE2C"/>
</radialGradient>
<radialGradient id="paint14_radial_224_92" cx="0" cy="0" r="1" gradientUnits="userSpaceOnUse" gradientTransform="translate(201.798 134.997) rotate(149.231) scale(77.4101 73.2202)">
<stop stop-color="#14833A"/>
<stop offset="1" stop-color="#6BBE2C"/>
</radialGradient>
<radialGradient id="paint15_radial_224_92" cx="0" cy="0" r="1" gradientUnits="userSpaceOnUse" gradientTransform="translate(171.892 163.463) rotate(135.749) scale(69.7466 75.0142)">
<stop stop-color="#14833A"/>
<stop offset="1" stop-color="#6BBE2C"/>
</radialGradient>
<radialGradient id="paint16_radial_224_92" cx="0" cy="0" r="1" gradientUnits="userSpaceOnUse" gradientTransform="translate(191.754 153.391) rotate(142.682) scale(76.6425 79.5158)">
<stop stop-color="#14833A"/>
<stop offset="1" stop-color="#6BBE2C"/>
</radialGradient>
<radialGradient id="paint17_radial_224_92" cx="0" cy="0" r="1" gradientUnits="userSpaceOnUse" gradientTransform="translate(205.601 139.467) rotate(131.275) scale(109.111 116.405)">
<stop stop-color="#14833A"/>
<stop offset="1" stop-color="#6BBE2C"/>
</radialGradient>
</defs>
</svg>
