<svg width="286" height="32" viewBox="0 0 286 32" fill="none" xmlns="http://www.w3.org/2000/svg">
<path fill-rule="evenodd" clip-rule="evenodd" d="M8.39338 4.92607C8.50731 4.92607 8.61621 4.88397 8.70269 4.81031C9.90469 3.78904 11.4595 3.17179 13.157 3.17179C14.6482 3.17179 16.0648 3.63896 17.2567 4.52388C17.8872 4.9915 18.7717 4.98784 19.34 4.44609C20.0703 3.75015 19.9792 2.60305 19.2087 2.02286C17.453 0.699606 15.3606 0 13.157 0C9.8054 0 6.8331 1.64767 5.00333 4.17476C4.77684 4.48773 5.00562 4.92653 5.39225 4.92653H8.39338V4.92607Z" fill="#82AD3A"/>
<path fill-rule="evenodd" clip-rule="evenodd" d="M26.984 6.67554C26.3502 6.07065 25.3464 6.09353 24.7415 6.72725C24.4239 7.05943 23.8245 7.80937 22.7923 9.10563C21.183 11.1258 18.4899 14.5067 17.437 15.354C16.4066 16.1836 15.1744 16.9518 13.1575 16.9518C11.1506 16.9518 9.34327 16.0884 8.0827 14.7144C7.71573 14.3346 7.32818 14.115 7.27419 13.0205C7.10581 9.5879 11.5771 9.3971 11.6915 11.7352C11.7198 12.3159 11.2929 12.6238 10.8372 12.5323C10.7342 11.7988 9.83972 11.5394 9.39863 12.1283C8.75576 12.9871 10.2154 14.4074 11.6969 13.9342C12.4409 13.6968 12.8166 13.1596 13.0179 12.6028C13.7779 10.4994 12.0241 8.13149 9.78435 7.96174C9.63611 7.95076 9.51485 7.94527 9.35791 7.9471C9.2664 7.94847 8.97859 7.98279 8.9246 7.97089C8.88525 7.74074 8.8697 7.56092 8.78871 7.31201C8.42083 6.18413 7.33825 5.38431 6.1939 5.36647C5.85713 5.36098 5.16668 5.44242 4.90587 5.63917C5.05092 5.71833 5.34192 5.97456 5.48056 6.1132C6.08912 6.72313 6.46386 7.4415 6.62171 8.25595C6.69767 8.64945 6.72421 9.22872 6.65283 9.62313C6.61027 9.85923 6.57275 10.0386 6.50046 10.2724C6.46797 10.3776 6.43228 10.4824 6.38836 10.5835C6.34626 10.6801 6.279 10.8027 6.25201 10.8814L5.96283 10.0551C5.58717 9.15414 5.05961 8.4376 4.21404 8.002C3.56111 7.6657 2.67711 7.51425 1.97796 7.66478C1.0935 7.85559 0.279959 8.56206 0.0772604 9.32252C-0.390364 11.2983 1.37352 11.9205 2.44558 12.0134C-0.172109 9.6547 3.45084 8.85123 3.93219 10.8485C3.97794 11.0832 3.99487 11.3047 4.00128 11.5183C4.00494 11.6428 3.99533 11.7288 3.99304 11.851C3.98389 12.4033 4.00448 12.9336 4.09645 13.5078C4.74984 17.5961 9.26548 20.1232 13.1579 20.1232C16.1828 20.1232 18.0973 18.8951 19.4265 17.8249C20.6527 16.8379 22.8001 14.1873 25.2736 11.0814C26.0249 10.1383 26.8019 9.16283 27.0366 8.91712C27.6415 8.28386 27.6181 7.27998 26.9849 6.67463L26.984 6.67554Z" fill="#0771BD"/>
<path fill-rule="evenodd" clip-rule="evenodd" d="M33.6466 15.1977C33.5326 15.1977 33.4237 15.2398 33.3373 15.3135C32.1353 16.3348 30.5805 16.9525 28.8834 16.9525C27.3922 16.9525 25.9756 16.4853 24.7837 15.6008C24.1532 15.1328 23.2687 15.1369 22.7004 15.6782C21.9702 16.3741 22.0612 17.5212 22.8317 18.1014C24.5874 19.4246 26.6798 20.1243 28.8834 20.1243C32.235 20.1243 35.2073 18.4766 37.0366 15.949C37.2631 15.6361 37.0343 15.1973 36.6482 15.1973H33.647L33.6466 15.1977Z" fill="#82AD3A"/>
<path fill-rule="evenodd" clip-rule="evenodd" d="M15.0563 13.4481C15.69 14.053 16.6939 14.0301 17.2988 13.3968C17.6159 13.0642 18.2157 12.3147 19.248 11.018C20.8572 8.99788 23.5504 5.61653 24.6032 4.76959C25.6337 3.94003 26.8659 3.17225 28.8828 3.17225C30.8896 3.17225 32.697 4.03566 33.9576 5.40971C35.0337 6.58335 36.2637 6.88671 35.7091 9.36621C35.4355 10.5902 34.459 11.6714 33.3714 12.0411C32.3964 12.3724 31.0498 12.058 30.455 10.743C30.2692 10.3326 30.1841 9.64715 30.3548 9.17541C30.584 8.54261 31.3541 8.3422 31.8244 8.68583C31.2086 9.6348 32.233 10.8263 33.2808 10.3124C34.0637 9.92901 34.3437 8.56778 33.9406 7.65586C33.1312 5.82471 30.2751 5.53691 28.8631 7.21752C28.0601 8.17336 28.007 9.21797 28.1786 10.0105C28.3799 10.9407 29.0201 11.9052 29.8258 12.5366C30.7336 13.2481 31.7897 13.5391 32.6622 13.5346C33.5412 13.53 34.341 13.358 35.2891 12.759C35.3124 12.8125 35.3243 12.8784 35.343 12.9407C35.8939 14.7878 39.2401 14.8052 40.5478 14.484C40.5565 14.4904 37.0754 13.9793 37.7082 11.4399C38.0637 10.0137 37.8015 9.08573 37.8235 8.89767C38.5418 9.40236 39.4327 9.50485 40.1858 9.24222C40.3382 9.18914 40.8031 8.99147 40.917 8.84002C40.4581 8.6149 40.1195 8.43234 39.7068 8.05989C37.8047 6.34359 37.785 4.55636 35.8194 2.78241C34.0134 1.0597 31.57 0 28.8828 0C25.8579 0 23.9434 1.22809 22.6142 2.29831C21.3875 3.28527 19.2402 5.9359 16.7671 9.04181C16.0158 9.98483 15.2389 10.9603 15.0041 11.2061C14.3997 11.8398 14.4226 12.8437 15.0558 13.4481H15.0563Z" fill="url(#paint0_linear_228_10)"/>
<path d="M0.649901 26.4377L2.13427 30.7188H2.19287L3.67724 26.4377H4.312L2.47607 31.5234H1.85107L0.0151367 26.4377H0.649901Z" fill="#0771BD"/>
<path d="M5.09081 31.5234V26.4377H8.10838V26.984H5.69628V28.7024H7.95213V29.2487H5.69628V30.9771H8.14744V31.5234H5.09081Z" fill="#0771BD"/>
<path d="M8.92625 26.984V26.4377H12.6762V26.984H11.104V31.5234H10.4985V26.984H8.92625Z" fill="#0771BD"/>
<path d="M15.219 29.9341H15.883L16.4397 30.6791L16.5861 30.8777L17.4162 32.0002H16.7522L16.2053 31.2552L16.0686 31.0665L15.219 29.9341ZM17.6213 28.9805C17.6213 29.5169 17.5261 29.9805 17.3357 30.3712C17.1452 30.7619 16.884 31.0632 16.552 31.2751C16.2199 31.487 15.8407 31.5929 15.4143 31.5929C14.9878 31.5929 14.6086 31.487 14.2766 31.2751C13.9446 31.0632 13.6833 30.7619 13.4929 30.3712C13.3025 29.9805 13.2072 29.5169 13.2072 28.9805C13.2072 28.4442 13.3025 27.9806 13.4929 27.5899C13.6833 27.1992 13.9446 26.8979 14.2766 26.686C14.6086 26.4741 14.9878 26.3682 15.4143 26.3682C15.8407 26.3682 16.2199 26.4741 16.552 26.686C16.884 26.8979 17.1452 27.1992 17.3357 27.5899C17.5261 27.9806 17.6213 28.4442 17.6213 28.9805ZM17.0354 28.9805C17.0354 28.5402 16.9629 28.1685 16.8181 27.8656C16.6749 27.5626 16.4804 27.3333 16.2346 27.1777C15.9904 27.0221 15.717 26.9443 15.4143 26.9443C15.1115 26.9443 14.8373 27.0221 14.5915 27.1777C14.3474 27.3333 14.1529 27.5626 14.008 27.8656C13.8648 28.1685 13.7932 28.5402 13.7932 28.9805C13.7932 29.4209 13.8648 29.7926 14.008 30.0955C14.1529 30.3985 14.3474 30.6278 14.5915 30.7834C14.8373 30.939 15.1115 31.0168 15.4143 31.0168C15.717 31.0168 15.9904 30.939 16.2346 30.7834C16.4804 30.6278 16.6749 30.3985 16.8181 30.0955C16.9629 29.7926 17.0354 29.4209 17.0354 28.9805Z" fill="#0771BD"/>
<path d="M17.9747 26.4377H18.6681L20.0548 28.8117H20.1134L21.5001 26.4377H22.1934L20.3868 29.4275V31.5234H19.7813V29.4275L17.9747 26.4377Z" fill="#0771BD"/>
<path d="M22.8105 31.5234V31.0764L25.5058 26.984H22.7812V26.4377H26.2285V26.8847L23.5332 30.9771H26.2578V31.5234H22.8105Z" fill="#0771BD"/>
<path d="M27.2734 26.4377H27.996L29.6953 30.6592H29.7538L31.4531 26.4377H32.1757V31.5234H31.6093V27.6595H31.5605L29.998 31.5234H29.4511L27.8886 27.6595H27.8398V31.5234H27.2734V26.4377Z" fill="#0771BD"/>
<path d="M33.3897 31.5234V26.4377H36.4073V26.984H33.9952V28.7024H36.251V29.2487H33.9952V30.9771H36.4463V31.5234H33.3897Z" fill="#0771BD"/>
<path d="M37.2251 26.984V26.4377H40.9751V26.984H39.4029V31.5234H38.7974V26.984H37.2251Z" fill="#0771BD"/>
<path d="M57.8359 13V4.27273H61.1768C61.8075 4.27273 62.3316 4.37216 62.7492 4.57102C63.1697 4.76705 63.4836 5.03551 63.691 5.37642C63.9012 5.71733 64.0063 6.10369 64.0063 6.53551C64.0063 6.89062 63.9382 7.1946 63.8018 7.44744C63.6654 7.69744 63.4822 7.90057 63.2521 8.05682C63.022 8.21307 62.7649 8.32528 62.4808 8.39347V8.47869C62.7904 8.49574 63.0873 8.59091 63.3714 8.7642C63.6583 8.93466 63.8927 9.17614 64.0745 9.48864C64.2563 9.80114 64.3473 10.179 64.3473 10.6222C64.3473 11.0739 64.2379 11.4801 64.0191 11.8409C63.8004 12.1989 63.4708 12.4815 63.0305 12.6889C62.5902 12.8963 62.0362 13 61.3686 13H57.8359ZM59.4169 11.679H61.1171C61.691 11.679 62.1044 11.5696 62.3572 11.3509C62.6129 11.1293 62.7407 10.8452 62.7407 10.4986C62.7407 10.2401 62.6768 10.0071 62.549 9.79972C62.4211 9.58949 62.2393 9.42472 62.0035 9.3054C61.7677 9.18324 61.4865 9.12216 61.1598 9.12216H59.4169V11.679ZM59.4169 7.98438H60.9808C61.2535 7.98438 61.4992 7.93466 61.718 7.83523C61.9367 7.73295 62.1086 7.58949 62.2336 7.40483C62.3615 7.21733 62.4254 6.99574 62.4254 6.74006C62.4254 6.40199 62.3061 6.12358 62.0674 5.90483C61.8316 5.68608 61.4808 5.5767 61.0149 5.5767H59.4169V7.98438ZM68.5522 13.1278C67.8959 13.1278 67.3291 12.9915 66.8519 12.7188C66.3774 12.4432 66.0124 12.054 65.7567 11.5511C65.501 11.0455 65.3732 10.4503 65.3732 9.76562C65.3732 9.09233 65.501 8.50142 65.7567 7.9929C66.0152 7.48153 66.376 7.08381 66.8391 6.79972C67.3022 6.51278 67.8462 6.36932 68.4712 6.36932C68.8746 6.36932 69.2553 6.43466 69.6132 6.56534C69.974 6.69318 70.2922 6.89205 70.5678 7.16193C70.8462 7.43182 71.0649 7.77557 71.224 8.19318C71.3831 8.60795 71.4627 9.10227 71.4627 9.67614V10.1491H66.0976V9.10938H69.984C69.9811 8.81392 69.9172 8.55114 69.7922 8.32102C69.6672 8.08807 69.4925 7.90483 69.2681 7.77131C69.0465 7.63778 68.788 7.57102 68.4925 7.57102C68.1772 7.57102 67.9002 7.64773 67.6615 7.80114C67.4229 7.9517 67.2368 8.15057 67.1033 8.39773C66.9726 8.64205 66.9059 8.91051 66.903 9.20312V10.1108C66.903 10.4915 66.9726 10.8182 67.1118 11.0909C67.251 11.3608 67.4456 11.5682 67.6956 11.7131C67.9456 11.8551 68.2382 11.9261 68.5735 11.9261C68.7979 11.9261 69.001 11.8949 69.1828 11.8324C69.3647 11.767 69.5223 11.6719 69.6559 11.5469C69.7894 11.4219 69.8902 11.267 69.9584 11.0824L71.3987 11.2443C71.3078 11.625 71.1345 11.9574 70.8789 12.2415C70.626 12.5227 70.3022 12.7415 69.9073 12.8977C69.5124 13.0511 69.0607 13.1278 68.5522 13.1278ZM72.2223 7.72017V6.45455H77.9495V7.72017H75.8316V13H74.3402V7.72017H72.2223ZM81.8061 13.1278C81.1498 13.1278 80.5831 12.9915 80.1058 12.7188C79.6313 12.4432 79.2663 12.054 79.0106 11.5511C78.7549 11.0455 78.6271 10.4503 78.6271 9.76562C78.6271 9.09233 78.7549 8.50142 79.0106 7.9929C79.2691 7.48153 79.6299 7.08381 80.093 6.79972C80.5561 6.51278 81.1001 6.36932 81.7251 6.36932C82.1285 6.36932 82.5092 6.43466 82.8671 6.56534C83.2279 6.69318 83.5461 6.89205 83.8217 7.16193C84.1001 7.43182 84.3188 7.77557 84.4779 8.19318C84.637 8.60795 84.7166 9.10227 84.7166 9.67614V10.1491H79.3515V9.10938H83.2379C83.235 8.81392 83.1711 8.55114 83.0461 8.32102C82.9211 8.08807 82.7464 7.90483 82.522 7.77131C82.3004 7.63778 82.0419 7.57102 81.7464 7.57102C81.4311 7.57102 81.1541 7.64773 80.9154 7.80114C80.6768 7.9517 80.4907 8.15057 80.3572 8.39773C80.2265 8.64205 80.1598 8.91051 80.1569 9.20312V10.1108C80.1569 10.4915 80.2265 10.8182 80.3657 11.0909C80.5049 11.3608 80.6995 11.5682 80.9495 11.7131C81.1995 11.8551 81.4921 11.9261 81.8274 11.9261C82.0518 11.9261 82.2549 11.8949 82.4367 11.8324C82.6186 11.767 82.7762 11.6719 82.9098 11.5469C83.0433 11.4219 83.1441 11.267 83.2123 11.0824L84.6527 11.2443C84.5617 11.625 84.3885 11.9574 84.1328 12.2415C83.8799 12.5227 83.5561 12.7415 83.1612 12.8977C82.7663 13.0511 82.3146 13.1278 81.8061 13.1278ZM86.0216 15.4545V6.45455H87.5387V7.53693H87.6282C87.7077 7.37784 87.8199 7.20881 87.9648 7.02983C88.1097 6.84801 88.3057 6.69318 88.5529 6.56534C88.8 6.43466 89.1154 6.36932 89.4989 6.36932C90.0046 6.36932 90.4605 6.49858 90.8668 6.7571C91.2759 7.01278 91.5997 7.39205 91.8384 7.89489C92.0799 8.39489 92.2006 9.00852 92.2006 9.7358C92.2006 10.4545 92.0827 11.0653 91.8469 11.5682C91.6111 12.071 91.2901 12.4545 90.8838 12.7188C90.4776 12.983 90.0174 13.1151 89.5032 13.1151C89.1282 13.1151 88.8171 13.0526 88.5699 12.9276C88.3228 12.8026 88.1239 12.652 87.9733 12.4759C87.8256 12.2969 87.7105 12.1278 87.6282 11.9688H87.5642V15.4545H86.0216ZM87.5344 9.72727C87.5344 10.1506 87.5941 10.5213 87.7134 10.8395C87.8355 11.1577 88.0103 11.4062 88.2375 11.5852C88.4676 11.7614 88.746 11.8494 89.0728 11.8494C89.4137 11.8494 89.6992 11.7585 89.9293 11.5767C90.1594 11.392 90.3327 11.1406 90.4492 10.8224C90.5685 10.5014 90.6282 10.1364 90.6282 9.72727C90.6282 9.32102 90.5699 8.96023 90.4534 8.64489C90.337 8.32955 90.1637 8.08239 89.9335 7.90341C89.7034 7.72443 89.4165 7.63494 89.0728 7.63494C88.7432 7.63494 88.4634 7.72159 88.2333 7.89489C88.0032 8.06818 87.8284 8.31108 87.7091 8.62358C87.5926 8.93608 87.5344 9.30398 87.5344 9.72727ZM95.0088 10.9119L97.6296 6.45455H99.2148V13H97.7233V8.53835L95.1111 13H93.5216V6.45455H95.0088V10.9119ZM105.295 9.08807V10.3537H101.809V9.08807H105.295ZM102.286 6.45455V13H100.799V6.45455H102.286ZM106.305 6.45455V13H104.822V6.45455H106.305ZM109.749 13.1321C109.334 13.1321 108.961 13.0582 108.628 12.9105C108.299 12.7599 108.037 12.5384 107.844 12.2457C107.654 11.9531 107.559 11.5923 107.559 11.1634C107.559 10.794 107.627 10.4886 107.763 10.2472C107.899 10.0057 108.086 9.8125 108.321 9.66761C108.557 9.52273 108.823 9.41335 109.118 9.33949C109.417 9.26278 109.725 9.20739 110.043 9.1733C110.426 9.13352 110.738 9.09801 110.976 9.06676C111.215 9.03267 111.388 8.98153 111.496 8.91335C111.607 8.84233 111.662 8.73295 111.662 8.58523V8.55966C111.662 8.23864 111.567 7.99006 111.377 7.81392C111.186 7.63778 110.912 7.54972 110.554 7.54972C110.176 7.54972 109.877 7.6321 109.655 7.79688C109.436 7.96165 109.289 8.15625 109.212 8.38068L107.772 8.17614C107.885 7.77841 108.073 7.44602 108.334 7.17898C108.595 6.90909 108.915 6.70739 109.293 6.57386C109.671 6.4375 110.088 6.36932 110.546 6.36932C110.861 6.36932 111.175 6.40625 111.488 6.48011C111.8 6.55398 112.086 6.67614 112.344 6.84659C112.603 7.0142 112.81 7.2429 112.966 7.53267C113.125 7.82244 113.205 8.18466 113.205 8.61932V13H111.722V12.1009H111.671C111.577 12.2827 111.445 12.4531 111.274 12.6122C111.107 12.7685 110.895 12.8949 110.64 12.9915C110.387 13.0852 110.09 13.1321 109.749 13.1321ZM110.149 11.9986C110.459 11.9986 110.728 11.9375 110.955 11.8153C111.182 11.6903 111.357 11.5256 111.479 11.321C111.604 11.1165 111.667 10.8935 111.667 10.652V9.88068C111.618 9.92045 111.536 9.95739 111.419 9.99148C111.306 10.0256 111.178 10.0554 111.036 10.081C110.894 10.1065 110.753 10.1293 110.614 10.1491C110.475 10.169 110.354 10.1861 110.252 10.2003C110.022 10.2315 109.816 10.2827 109.634 10.3537C109.452 10.4247 109.309 10.5241 109.203 10.652C109.098 10.777 109.046 10.9389 109.046 11.1378C109.046 11.4219 109.149 11.6364 109.357 11.7812C109.564 11.9261 109.828 11.9986 110.149 11.9986ZM114.756 15.4545V6.45455H116.273V7.53693H116.363C116.442 7.37784 116.554 7.20881 116.699 7.02983C116.844 6.84801 117.04 6.69318 117.287 6.56534C117.534 6.43466 117.85 6.36932 118.233 6.36932C118.739 6.36932 119.195 6.49858 119.601 6.7571C120.01 7.01278 120.334 7.39205 120.573 7.89489C120.814 8.39489 120.935 9.00852 120.935 9.7358C120.935 10.4545 120.817 11.0653 120.581 11.5682C120.345 12.071 120.024 12.4545 119.618 12.7188C119.212 12.983 118.752 13.1151 118.238 13.1151C117.863 13.1151 117.551 13.0526 117.304 12.9276C117.057 12.8026 116.858 12.652 116.708 12.4759C116.56 12.2969 116.445 12.1278 116.363 11.9688H116.299V15.4545H114.756ZM116.269 9.72727C116.269 10.1506 116.328 10.5213 116.448 10.8395C116.57 11.1577 116.745 11.4062 116.972 11.5852C117.202 11.7614 117.48 11.8494 117.807 11.8494C118.148 11.8494 118.434 11.7585 118.664 11.5767C118.894 11.392 119.067 11.1406 119.184 10.8224C119.303 10.5014 119.363 10.1364 119.363 9.72727C119.363 9.32102 119.304 8.96023 119.188 8.64489C119.071 8.32955 118.898 8.08239 118.668 7.90341C118.438 7.72443 118.151 7.63494 117.807 7.63494C117.478 7.63494 117.198 7.72159 116.968 7.89489C116.738 8.06818 116.563 8.31108 116.443 8.62358C116.327 8.93608 116.269 9.30398 116.269 9.72727ZM123.743 10.9119L126.364 6.45455H127.949V13H126.458V8.53835L123.845 13H122.256V6.45455H123.743V10.9119ZM133.403 13V7.70739H132.005C131.65 7.70739 131.377 7.78977 131.187 7.95455C130.996 8.11932 130.903 8.32386 130.905 8.56818C130.903 8.8125 130.992 9.0142 131.174 9.1733C131.356 9.33239 131.616 9.41193 131.954 9.41193H133.888V10.5369H131.954C131.431 10.5369 130.979 10.4545 130.599 10.2898C130.218 10.125 129.925 9.89205 129.721 9.59091C129.516 9.28977 129.414 8.9375 129.414 8.53409C129.414 8.11364 129.518 7.74858 129.725 7.43892C129.935 7.12642 130.234 6.88494 130.62 6.71449C131.009 6.54119 131.471 6.45455 132.005 6.45455H134.847V13H133.403ZM129.175 13L131.004 9.64205H132.525L130.692 13H129.175ZM135.949 13L135.94 11.7301H136.166C136.337 11.7301 136.48 11.6918 136.597 11.6151C136.713 11.5384 136.81 11.4105 136.886 11.2315C136.963 11.0497 137.023 10.8054 137.065 10.4986C137.108 10.1918 137.138 9.80966 137.155 9.35227L137.27 6.45455H142.043V13H140.551V7.72017H138.672L138.57 9.82955C138.544 10.375 138.483 10.848 138.386 11.2486C138.293 11.6463 138.159 11.9744 137.986 12.233C137.815 12.4915 137.601 12.6847 137.342 12.8125C137.084 12.9375 136.778 13 136.426 13H135.949ZM144.64 8.58523H146.57C147.405 8.58523 148.052 8.78835 148.509 9.1946C148.967 9.60085 149.197 10.1335 149.2 10.7926C149.197 11.2216 149.092 11.6023 148.884 11.9347C148.68 12.267 148.381 12.5284 147.989 12.7188C147.6 12.9062 147.127 13 146.57 13H143.596V6.45455H145.083V11.7344H146.57C146.905 11.7344 147.181 11.6491 147.397 11.4787C147.613 11.3054 147.721 11.0838 147.721 10.8139C147.721 10.5298 147.613 10.2983 147.397 10.1193C147.181 9.94034 146.905 9.85085 146.57 9.85085H144.64V8.58523ZM150.013 13V6.45455H151.556V13H150.013ZM153.147 13V6.45455H154.689V9.09659H155.252L157.22 6.45455H159.078L156.654 9.66761L159.104 13H157.238L155.443 10.5327H154.689V13H153.147ZM159.705 11.8494V15.1051H158.196V11.8494H159.705ZM163.904 13V6.45455H165.447V9.09659H166.01L167.978 6.45455H169.836L167.412 9.66761L169.862 13H167.995L166.201 10.5327H165.447V13H163.904ZM170.463 11.8494V15.1051H168.954V11.8494H170.463ZM172.73 8.58523H174.66C175.495 8.58523 176.142 8.78835 176.599 9.1946C177.056 9.60085 177.287 10.1335 177.289 10.7926C177.287 11.2216 177.181 11.6023 176.974 11.9347C176.769 12.267 176.471 12.5284 176.079 12.7188C175.69 12.9062 175.217 13 174.66 13H171.686V6.45455H173.173V11.7344H174.66C174.995 11.7344 175.271 11.6491 175.487 11.4787C175.703 11.3054 175.811 11.0838 175.811 10.8139C175.811 10.5298 175.703 10.2983 175.487 10.1193C175.271 9.94034 174.995 9.85085 174.66 9.85085H172.73V8.58523ZM178.103 13V6.45455H179.646V13H178.103ZM180.874 11.206H182.404C182.418 11.4503 182.528 11.6392 182.732 11.7727C182.937 11.9062 183.202 11.973 183.529 11.973C183.861 11.973 184.141 11.9006 184.369 11.7557C184.599 11.608 184.714 11.3849 184.714 11.0866C184.714 10.9105 184.67 10.7557 184.582 10.6222C184.494 10.4858 184.37 10.3807 184.211 10.3068C184.052 10.233 183.864 10.196 183.648 10.196H182.647V9.10085H183.648C183.969 9.10085 184.212 9.02699 184.377 8.87926C184.545 8.73153 184.629 8.54545 184.629 8.32102C184.629 8.07955 184.54 7.88352 184.364 7.73295C184.191 7.58239 183.951 7.5071 183.644 7.5071C183.337 7.5071 183.082 7.5767 182.877 7.71591C182.675 7.85511 182.57 8.03409 182.562 8.25284H181.04C181.046 7.87216 181.16 7.54119 181.381 7.25994C181.606 6.97869 181.907 6.75994 182.285 6.60369C182.665 6.44744 183.094 6.36932 183.572 6.36932C184.083 6.36932 184.525 6.44602 184.897 6.59943C185.269 6.75284 185.556 6.96733 185.758 7.2429C185.959 7.51562 186.06 7.83665 186.06 8.20597C186.06 8.56108 185.95 8.85511 185.728 9.08807C185.506 9.31818 185.208 9.48295 184.833 9.58239V9.65057C185.092 9.66477 185.325 9.73864 185.532 9.87216C185.739 10.0028 185.904 10.1804 186.026 10.4048C186.148 10.6293 186.209 10.8892 186.209 11.1847C186.209 11.5852 186.094 11.9318 185.864 12.2244C185.634 12.5142 185.317 12.7372 184.914 12.8935C184.513 13.0497 184.055 13.1278 183.538 13.1278C183.035 13.1278 182.584 13.0526 182.187 12.902C181.792 12.7486 181.478 12.5284 181.245 12.2415C181.012 11.9545 180.888 11.6094 180.874 11.206ZM191.191 11.206L193.134 6.45455H194.379L191.732 13H190.654L188.067 6.45455H189.299L191.191 11.206ZM188.911 6.45455V13H187.424V6.45455H188.911ZM193.535 13V6.45455H195.009V13H193.535ZM199.462 13.1278C198.806 13.1278 198.239 12.9915 197.762 12.7188C197.288 12.4432 196.923 12.054 196.667 11.5511C196.411 11.0455 196.283 10.4503 196.283 9.76562C196.283 9.09233 196.411 8.50142 196.667 7.9929C196.925 7.48153 197.286 7.08381 197.749 6.79972C198.212 6.51278 198.756 6.36932 199.381 6.36932C199.785 6.36932 200.165 6.43466 200.523 6.56534C200.884 6.69318 201.202 6.89205 201.478 7.16193C201.756 7.43182 201.975 7.77557 202.134 8.19318C202.293 8.60795 202.373 9.10227 202.373 9.67614V10.1491H197.008V9.10938H200.894C200.891 8.81392 200.827 8.55114 200.702 8.32102C200.577 8.08807 200.403 7.90483 200.178 7.77131C199.957 7.63778 199.698 7.57102 199.403 7.57102C199.087 7.57102 198.81 7.64773 198.572 7.80114C198.333 7.9517 198.147 8.15057 198.013 8.39773C197.883 8.64205 197.816 8.91051 197.813 9.20312V10.1108C197.813 10.4915 197.883 10.8182 198.022 11.0909C198.161 11.3608 198.356 11.5682 198.606 11.7131C198.856 11.8551 199.148 11.9261 199.484 11.9261C199.708 11.9261 199.911 11.8949 200.093 11.8324C200.275 11.767 200.432 11.6719 200.566 11.5469C200.7 11.4219 200.8 11.267 200.869 11.0824L202.309 11.2443C202.218 11.625 202.045 11.9574 201.789 12.2415C201.536 12.5227 201.212 12.7415 200.817 12.8977C200.423 13.0511 199.971 13.1278 199.462 13.1278ZM203.132 7.72017V6.45455H208.86V7.72017H206.742V13H205.25V7.72017H203.132ZM209.73 7.72017V6.45455H215.457V7.72017H213.339V13H211.848V7.72017H209.73ZM219.314 13.1278C218.658 13.1278 218.091 12.9915 217.614 12.7188C217.139 12.4432 216.774 12.054 216.518 11.5511C216.263 11.0455 216.135 10.4503 216.135 9.76562C216.135 9.09233 216.263 8.50142 216.518 7.9929C216.777 7.48153 217.138 7.08381 217.601 6.79972C218.064 6.51278 218.608 6.36932 219.233 6.36932C219.636 6.36932 220.017 6.43466 220.375 6.56534C220.736 6.69318 221.054 6.89205 221.33 7.16193C221.608 7.43182 221.827 7.77557 221.986 8.19318C222.145 8.60795 222.224 9.10227 222.224 9.67614V10.1491H216.859V9.10938H220.746C220.743 8.81392 220.679 8.55114 220.554 8.32102C220.429 8.08807 220.254 7.90483 220.03 7.77131C219.808 7.63778 219.55 7.57102 219.254 7.57102C218.939 7.57102 218.662 7.64773 218.423 7.80114C218.185 7.9517 217.999 8.15057 217.865 8.39773C217.734 8.64205 217.668 8.91051 217.665 9.20312V10.1108C217.665 10.4915 217.734 10.8182 217.874 11.0909C218.013 11.3608 218.207 11.5682 218.457 11.7131C218.707 11.8551 219 11.9261 219.335 11.9261C219.56 11.9261 219.763 11.8949 219.945 11.8324C220.126 11.767 220.284 11.6719 220.418 11.5469C220.551 11.4219 220.652 11.267 220.72 11.0824L222.16 11.2443C222.07 11.625 221.896 11.9574 221.641 12.2415C221.388 12.5227 221.064 12.7415 220.669 12.8977C220.274 13.0511 219.822 13.1278 219.314 13.1278ZM223.529 15.4545V6.45455H225.046V7.53693H225.136C225.216 7.37784 225.328 7.20881 225.473 7.02983C225.617 6.84801 225.814 6.69318 226.061 6.56534C226.308 6.43466 226.623 6.36932 227.007 6.36932C227.512 6.36932 227.968 6.49858 228.375 6.7571C228.784 7.01278 229.108 7.39205 229.346 7.89489C229.588 8.39489 229.708 9.00852 229.708 9.7358C229.708 10.4545 229.591 11.0653 229.355 11.5682C229.119 12.071 228.798 12.4545 228.392 12.7188C227.985 12.983 227.525 13.1151 227.011 13.1151C226.636 13.1151 226.325 13.0526 226.078 12.9276C225.831 12.8026 225.632 12.652 225.481 12.4759C225.333 12.2969 225.218 12.1278 225.136 11.9688H225.072V15.4545H223.529ZM225.042 9.72727C225.042 10.1506 225.102 10.5213 225.221 10.8395C225.343 11.1577 225.518 11.4062 225.745 11.5852C225.975 11.7614 226.254 11.8494 226.581 11.8494C226.921 11.8494 227.207 11.7585 227.437 11.5767C227.667 11.392 227.841 11.1406 227.957 10.8224C228.076 10.5014 228.136 10.1364 228.136 9.72727C228.136 9.32102 228.078 8.96023 227.961 8.64489C227.845 8.32955 227.671 8.08239 227.441 7.90341C227.211 7.72443 226.924 7.63494 226.581 7.63494C226.251 7.63494 225.971 7.72159 225.741 7.89489C225.511 8.06818 225.336 8.31108 225.217 8.62358C225.1 8.93608 225.042 9.30398 225.042 9.72727ZM57.7677 27V20.4545H59.3103V23.0966H59.8728L61.8416 20.4545H63.6995L61.2748 23.6676L63.7251 27H61.8586L60.0646 24.5327H59.3103V27H57.7677ZM69.3629 23.2244V24.2301H65.0078V23.2244H69.3629ZM67.1853 27.1278C66.5461 27.1278 65.9921 26.9872 65.5234 26.706C65.0546 26.4247 64.691 26.0312 64.4325 25.5256C64.1768 25.0199 64.049 24.429 64.049 23.7528C64.049 23.0767 64.1768 22.4844 64.4325 21.9759C64.691 21.4673 65.0546 21.0724 65.5234 20.7912C65.9921 20.5099 66.5461 20.3693 67.1853 20.3693C67.8245 20.3693 68.3785 20.5099 68.8473 20.7912C69.316 21.0724 69.6782 21.4673 69.9339 21.9759C70.1924 22.4844 70.3217 23.0767 70.3217 23.7528C70.3217 24.429 70.1924 25.0199 69.9339 25.5256C69.6782 26.0312 69.316 26.4247 68.8473 26.706C68.3785 26.9872 67.8245 27.1278 67.1853 27.1278ZM67.1938 25.892C67.5404 25.892 67.8302 25.7969 68.0632 25.6065C68.2961 25.4134 68.4694 25.1548 68.5831 24.831C68.6995 24.5071 68.7578 24.1463 68.7578 23.7486C68.7578 23.348 68.6995 22.9858 68.5831 22.6619C68.4694 22.3352 68.2961 22.0753 68.0632 21.8821C67.8302 21.6889 67.5404 21.5923 67.1938 21.5923C66.8387 21.5923 66.5433 21.6889 66.3075 21.8821C66.0745 22.0753 65.8998 22.3352 65.7833 22.6619C65.6697 22.9858 65.6129 23.348 65.6129 23.7486C65.6129 24.1463 65.6697 24.5071 65.7833 24.831C65.8998 25.1548 66.0745 25.4134 66.3075 25.6065C66.5433 25.7969 66.8387 25.892 67.1938 25.892ZM71.631 29.4545V20.4545H73.148V21.5369H73.2375C73.3171 21.3778 73.4293 21.2088 73.5742 21.0298C73.7191 20.848 73.9151 20.6932 74.1622 20.5653C74.4094 20.4347 74.7247 20.3693 75.1083 20.3693C75.6139 20.3693 76.0699 20.4986 76.4762 20.7571C76.8853 21.0128 77.2091 21.392 77.4478 21.8949C77.6892 22.3949 77.81 23.0085 77.81 23.7358C77.81 24.4545 77.6921 25.0653 77.4563 25.5682C77.2205 26.071 76.8995 26.4545 76.4932 26.7188C76.087 26.983 75.6267 27.1151 75.1125 27.1151C74.7375 27.1151 74.4264 27.0526 74.1793 26.9276C73.9321 26.8026 73.7333 26.652 73.5827 26.4759C73.435 26.2969 73.3199 26.1278 73.2375 25.9688H73.1736V29.4545H71.631ZM73.1438 23.7273C73.1438 24.1506 73.2034 24.5213 73.3228 24.8395C73.4449 25.1577 73.6196 25.4062 73.8469 25.5852C74.077 25.7614 74.3554 25.8494 74.6821 25.8494C75.023 25.8494 75.3085 25.7585 75.5387 25.5767C75.7688 25.392 75.9421 25.1406 76.0585 24.8224C76.1779 24.5014 76.2375 24.1364 76.2375 23.7273C76.2375 23.321 76.1793 22.9602 76.0628 22.6449C75.9463 22.3295 75.773 22.0824 75.5429 21.9034C75.3128 21.7244 75.0259 21.6349 74.6821 21.6349C74.3526 21.6349 74.0728 21.7216 73.8426 21.8949C73.6125 22.0682 73.4378 22.3111 73.3185 22.6236C73.202 22.9361 73.1438 23.304 73.1438 23.7273ZM81.9861 27.1278C81.3327 27.1278 80.7716 26.9844 80.3029 26.6974C79.837 26.4105 79.4776 26.0142 79.2247 25.5085C78.9747 25 78.8497 24.4148 78.8497 23.7528C78.8497 23.0881 78.9776 22.5014 79.2333 21.9929C79.4889 21.4815 79.8497 21.0838 80.3157 20.7997C80.7844 20.5128 81.3384 20.3693 81.9776 20.3693C82.5088 20.3693 82.979 20.4673 83.3881 20.6634C83.8 20.8565 84.1282 21.1307 84.3725 21.4858C84.6168 21.8381 84.756 22.25 84.7901 22.7216H83.3157C83.256 22.4062 83.1139 22.1435 82.8895 21.9332C82.6679 21.7202 82.371 21.6136 81.9989 21.6136C81.6835 21.6136 81.4066 21.6989 81.1679 21.8693C80.9293 22.0369 80.7432 22.2784 80.6097 22.5938C80.479 22.9091 80.4137 23.2869 80.4137 23.7273C80.4137 24.1733 80.479 24.5568 80.6097 24.8778C80.7404 25.196 80.9236 25.4418 81.1594 25.6151C81.398 25.7855 81.6779 25.8707 81.9989 25.8707C82.2262 25.8707 82.4293 25.8281 82.6083 25.7429C82.7901 25.6548 82.9421 25.5284 83.0642 25.3636C83.1864 25.1989 83.2702 24.9986 83.3157 24.7628H84.7901C84.7532 25.2259 84.6168 25.6364 84.381 25.9943C84.1452 26.3494 83.8242 26.6278 83.4179 26.8295C83.0117 27.0284 82.5344 27.1278 81.9861 27.1278ZM88.9545 27.1278C88.2983 27.1278 87.7315 26.9915 87.2542 26.7188C86.7798 26.4432 86.4147 26.054 86.159 25.5511C85.9034 25.0455 85.7755 24.4503 85.7755 23.7656C85.7755 23.0923 85.9034 22.5014 86.159 21.9929C86.4176 21.4815 86.7784 21.0838 87.2414 20.7997C87.7045 20.5128 88.2485 20.3693 88.8735 20.3693C89.2769 20.3693 89.6576 20.4347 90.0156 20.5653C90.3764 20.6932 90.6946 20.892 90.9701 21.1619C91.2485 21.4318 91.4673 21.7756 91.6264 22.1932C91.7855 22.608 91.865 23.1023 91.865 23.6761V24.1491H86.5V23.1094H90.3863C90.3835 22.8139 90.3196 22.5511 90.1946 22.321C90.0696 22.0881 89.8948 21.9048 89.6704 21.7713C89.4488 21.6378 89.1903 21.571 88.8948 21.571C88.5795 21.571 88.3025 21.6477 88.0639 21.8011C87.8252 21.9517 87.6392 22.1506 87.5056 22.3977C87.375 22.642 87.3082 22.9105 87.3054 23.2031V24.1108C87.3054 24.4915 87.375 24.8182 87.5142 25.0909C87.6534 25.3608 87.848 25.5682 88.098 25.7131C88.348 25.8551 88.6406 25.9261 88.9758 25.9261C89.2002 25.9261 89.4034 25.8949 89.5852 25.8324C89.767 25.767 89.9247 25.6719 90.0582 25.5469C90.1917 25.4219 90.2926 25.267 90.3608 25.0824L91.8011 25.2443C91.7102 25.625 91.5369 25.9574 91.2812 26.2415C91.0284 26.5227 90.7045 26.7415 90.3096 26.8977C89.9147 27.0511 89.463 27.1278 88.9545 27.1278ZM92.6246 21.7202V20.4545H98.3519V21.7202H96.234V27H94.7425V21.7202H92.6246ZM100.539 29.4545C100.329 29.4545 100.134 29.4375 99.9552 29.4034C99.7791 29.3722 99.6384 29.3352 99.5333 29.2926L99.8913 28.0909C100.116 28.1563 100.316 28.1875 100.492 28.1847C100.668 28.1818 100.823 28.1264 100.957 28.0185C101.093 27.9134 101.208 27.7372 101.302 27.4901L101.434 27.1364L99.0603 20.4545H100.697L102.205 25.3977H102.273L103.786 20.4545H105.427L102.806 27.7926C102.684 28.1392 102.522 28.4361 102.32 28.6832C102.119 28.9332 101.871 29.1236 101.579 29.2543C101.289 29.3878 100.942 29.4545 100.539 29.4545ZM110.824 20.4545V21.7202H108.003V27H106.494V20.4545H110.824ZM114.689 27.1278C114.033 27.1278 113.466 26.9915 112.989 26.7188C112.514 26.4432 112.149 26.054 111.893 25.5511C111.638 25.0455 111.51 24.4503 111.51 23.7656C111.51 23.0923 111.638 22.5014 111.893 21.9929C112.152 21.4815 112.513 21.0838 112.976 20.7997C113.439 20.5128 113.983 20.3693 114.608 20.3693C115.011 20.3693 115.392 20.4347 115.75 20.5653C116.111 20.6932 116.429 20.892 116.705 21.1619C116.983 21.4318 117.202 21.7756 117.361 22.1932C117.52 22.608 117.599 23.1023 117.599 23.6761V24.1491H112.234V23.1094H116.121C116.118 22.8139 116.054 22.5511 115.929 22.321C115.804 22.0881 115.629 21.9048 115.405 21.7713C115.183 21.6378 114.925 21.571 114.629 21.571C114.314 21.571 114.037 21.6477 113.798 21.8011C113.56 21.9517 113.374 22.1506 113.24 22.3977C113.109 22.642 113.043 22.9105 113.04 23.2031V24.1108C113.04 24.4915 113.109 24.8182 113.249 25.0909C113.388 25.3608 113.582 25.5682 113.832 25.7131C114.082 25.8551 114.375 25.9261 114.71 25.9261C114.935 25.9261 115.138 25.8949 115.32 25.8324C115.501 25.767 115.659 25.6719 115.793 25.5469C115.926 25.4219 116.027 25.267 116.095 25.0824L117.535 25.2443C117.445 25.625 117.271 25.9574 117.016 26.2415C116.763 26.5227 116.439 26.7415 116.044 26.8977C115.649 27.0511 115.197 27.1278 114.689 27.1278ZM123.765 27.1321C123.35 27.1321 122.976 27.0582 122.644 26.9105C122.314 26.7599 122.053 26.5384 121.86 26.2457C121.669 25.9531 121.574 25.5923 121.574 25.1634C121.574 24.794 121.642 24.4886 121.779 24.2472C121.915 24.0057 122.101 23.8125 122.337 23.6676C122.573 23.5227 122.838 23.4134 123.134 23.3395C123.432 23.2628 123.74 23.2074 124.059 23.1733C124.442 23.1335 124.753 23.098 124.992 23.0668C125.23 23.0327 125.404 22.9815 125.512 22.9134C125.622 22.8423 125.678 22.733 125.678 22.5852V22.5597C125.678 22.2386 125.583 21.9901 125.392 21.8139C125.202 21.6378 124.928 21.5497 124.57 21.5497C124.192 21.5497 123.892 21.6321 123.671 21.7969C123.452 21.9616 123.304 22.1562 123.228 22.3807L121.787 22.1761C121.901 21.7784 122.088 21.446 122.35 21.179C122.611 20.9091 122.931 20.7074 123.309 20.5739C123.686 20.4375 124.104 20.3693 124.561 20.3693C124.877 20.3693 125.191 20.4062 125.503 20.4801C125.816 20.554 126.101 20.6761 126.36 20.8466C126.618 21.0142 126.826 21.2429 126.982 21.5327C127.141 21.8224 127.22 22.1847 127.22 22.6193V27H125.738V26.1009H125.686C125.593 26.2827 125.461 26.4531 125.29 26.6122C125.122 26.7685 124.911 26.8949 124.655 26.9915C124.402 27.0852 124.105 27.1321 123.765 27.1321ZM124.165 25.9986C124.475 25.9986 124.743 25.9375 124.97 25.8153C125.198 25.6903 125.372 25.5256 125.495 25.321C125.62 25.1165 125.682 24.8935 125.682 24.652V23.8807C125.634 23.9205 125.551 23.9574 125.435 23.9915C125.321 24.0256 125.193 24.0554 125.051 24.081C124.909 24.1065 124.769 24.1293 124.63 24.1491C124.49 24.169 124.37 24.1861 124.267 24.2003C124.037 24.2315 123.831 24.2827 123.649 24.3537C123.468 24.4247 123.324 24.5241 123.219 24.652C123.114 24.777 123.061 24.9389 123.061 25.1378C123.061 25.4219 123.165 25.6364 123.372 25.7812C123.58 25.9261 123.844 25.9986 124.165 25.9986ZM128.772 29.4545V20.4545H130.289V21.5369H130.378C130.458 21.3778 130.57 21.2088 130.715 21.0298C130.86 20.848 131.056 20.6932 131.303 20.5653C131.55 20.4347 131.865 20.3693 132.249 20.3693C132.755 20.3693 133.211 20.4986 133.617 20.7571C134.026 21.0128 134.35 21.392 134.588 21.8949C134.83 22.3949 134.951 23.0085 134.951 23.7358C134.951 24.4545 134.833 25.0653 134.597 25.5682C134.361 26.071 134.04 26.4545 133.634 26.7188C133.228 26.983 132.767 27.1151 132.253 27.1151C131.878 27.1151 131.567 27.0526 131.32 26.9276C131.073 26.8026 130.874 26.652 130.723 26.4759C130.576 26.2969 130.461 26.1278 130.378 25.9688H130.314V29.4545H128.772ZM130.284 23.7273C130.284 24.1506 130.344 24.5213 130.463 24.8395C130.586 25.1577 130.76 25.4062 130.988 25.5852C131.218 25.7614 131.496 25.8494 131.823 25.8494C132.164 25.8494 132.449 25.7585 132.679 25.5767C132.909 25.392 133.083 25.1406 133.199 24.8224C133.318 24.5014 133.378 24.1364 133.378 23.7273C133.378 23.321 133.32 22.9602 133.203 22.6449C133.087 22.3295 132.914 22.0824 132.684 21.9034C132.453 21.7244 132.167 21.6349 131.823 21.6349C131.493 21.6349 131.213 21.7216 130.983 21.8949C130.753 22.0682 130.578 22.3111 130.459 22.6236C130.343 22.9361 130.284 23.304 130.284 23.7273ZM140.767 23.0881V24.3537H137.282V23.0881H140.767ZM137.759 20.4545V27H136.272V20.4545H137.759ZM141.777 20.4545V27H140.294V20.4545H141.777ZM145.222 27.1321C144.807 27.1321 144.433 27.0582 144.101 26.9105C143.771 26.7599 143.51 26.5384 143.317 26.2457C143.126 25.9531 143.031 25.5923 143.031 25.1634C143.031 24.794 143.099 24.4886 143.236 24.2472C143.372 24.0057 143.558 23.8125 143.794 23.6676C144.03 23.5227 144.295 23.4134 144.591 23.3395C144.889 23.2628 145.197 23.2074 145.516 23.1733C145.899 23.1335 146.21 23.098 146.449 23.0668C146.687 23.0327 146.861 22.9815 146.969 22.9134C147.08 22.8423 147.135 22.733 147.135 22.5852V22.5597C147.135 22.2386 147.04 21.9901 146.849 21.8139C146.659 21.6378 146.385 21.5497 146.027 21.5497C145.649 21.5497 145.349 21.6321 145.128 21.7969C144.909 21.9616 144.761 22.1562 144.685 22.3807L143.244 22.1761C143.358 21.7784 143.545 21.446 143.807 21.179C144.068 20.9091 144.388 20.7074 144.766 20.5739C145.143 20.4375 145.561 20.3693 146.018 20.3693C146.334 20.3693 146.648 20.4062 146.96 20.4801C147.273 20.554 147.558 20.6761 147.817 20.8466C148.075 21.0142 148.283 21.2429 148.439 21.5327C148.598 21.8224 148.678 22.1847 148.678 22.6193V27H147.195V26.1009H147.143C147.05 26.2827 146.918 26.4531 146.747 26.6122C146.58 26.7685 146.368 26.8949 146.112 26.9915C145.859 27.0852 145.562 27.1321 145.222 27.1321ZM145.622 25.9986C145.932 25.9986 146.2 25.9375 146.428 25.8153C146.655 25.6903 146.83 25.5256 146.952 25.321C147.077 25.1165 147.139 24.8935 147.139 24.652V23.8807C147.091 23.9205 147.008 23.9574 146.892 23.9915C146.778 24.0256 146.651 24.0554 146.508 24.081C146.366 24.1065 146.226 24.1293 146.087 24.1491C145.947 24.169 145.827 24.1861 145.724 24.2003C145.494 24.2315 145.288 24.2827 145.106 24.3537C144.925 24.4247 144.781 24.5241 144.676 24.652C144.571 24.777 144.518 24.9389 144.518 25.1378C144.518 25.4219 144.622 25.6364 144.83 25.7812C145.037 25.9261 145.301 25.9986 145.622 25.9986ZM149.777 27L149.768 25.7301H149.994C150.165 25.7301 150.308 25.6918 150.425 25.6151C150.541 25.5384 150.638 25.4105 150.714 25.2315C150.791 25.0497 150.851 24.8054 150.893 24.4986C150.936 24.1918 150.966 23.8097 150.983 23.3523L151.098 20.4545H155.871V27H154.379V21.7202H152.5L152.398 23.8295C152.372 24.375 152.311 24.848 152.214 25.2486C152.121 25.6463 151.987 25.9744 151.814 26.233C151.643 26.4915 151.429 26.6847 151.17 26.8125C150.912 26.9375 150.606 27 150.254 27H149.777ZM161.754 20.4545V21.7202H158.932V27H157.424V20.4545H161.754ZM156.141 24.0426V23.0668H160.224V24.0426H156.141ZM164.604 27.1321C164.19 27.1321 163.816 27.0582 163.484 26.9105C163.154 26.7599 162.893 26.5384 162.7 26.2457C162.509 25.9531 162.414 25.5923 162.414 25.1634C162.414 24.794 162.482 24.4886 162.619 24.2472C162.755 24.0057 162.941 23.8125 163.177 23.6676C163.413 23.5227 163.678 23.4134 163.974 23.3395C164.272 23.2628 164.58 23.2074 164.898 23.1733C165.282 23.1335 165.593 23.098 165.832 23.0668C166.07 23.0327 166.244 22.9815 166.352 22.9134C166.462 22.8423 166.518 22.733 166.518 22.5852V22.5597C166.518 22.2386 166.423 21.9901 166.232 21.8139C166.042 21.6378 165.768 21.5497 165.41 21.5497C165.032 21.5497 164.732 21.6321 164.511 21.7969C164.292 21.9616 164.144 22.1562 164.067 22.3807L162.627 22.1761C162.741 21.7784 162.928 21.446 163.19 21.179C163.451 20.9091 163.771 20.7074 164.148 20.5739C164.526 20.4375 164.944 20.3693 165.401 20.3693C165.717 20.3693 166.03 20.4062 166.343 20.4801C166.655 20.554 166.941 20.6761 167.2 20.8466C167.458 21.0142 167.665 21.2429 167.822 21.5327C167.981 21.8224 168.06 22.1847 168.06 22.6193V27H166.577V26.1009H166.526C166.432 26.2827 166.3 26.4531 166.13 26.6122C165.962 26.7685 165.751 26.8949 165.495 26.9915C165.242 27.0852 164.945 27.1321 164.604 27.1321ZM165.005 25.9986C165.315 25.9986 165.583 25.9375 165.81 25.8153C166.038 25.6903 166.212 25.5256 166.334 25.321C166.459 25.1165 166.522 24.8935 166.522 24.652V23.8807C166.474 23.9205 166.391 23.9574 166.275 23.9915C166.161 24.0256 166.033 24.0554 165.891 24.081C165.749 24.1065 165.609 24.1293 165.469 24.1491C165.33 24.169 165.209 24.1861 165.107 24.2003C164.877 24.2315 164.671 24.2827 164.489 24.3537C164.307 24.4247 164.164 24.5241 164.059 24.652C163.954 24.777 163.901 24.9389 163.901 25.1378C163.901 25.4219 164.005 25.6364 164.212 25.7812C164.42 25.9261 164.684 25.9986 165.005 25.9986ZM174.107 23.0881V24.3537H170.621V23.0881H174.107ZM171.099 20.4545V27H169.611V20.4545H171.099ZM175.117 20.4545V27H173.634V20.4545H175.117ZM184.9 18.0341L185.437 19.0312C185.247 19.196 185.034 19.3153 184.798 19.3892C184.562 19.4631 184.285 19.5114 183.967 19.5341C183.652 19.554 183.277 19.5682 182.842 19.5767C182.353 19.5881 181.954 19.6804 181.644 19.8537C181.335 20.027 181.098 20.2898 180.933 20.642C180.768 20.9915 180.66 21.4375 180.609 21.9801H180.681C180.886 21.5795 181.173 21.2741 181.542 21.0639C181.912 20.8537 182.345 20.7486 182.842 20.7486C183.385 20.7486 183.863 20.8707 184.278 21.1151C184.696 21.3565 185.021 21.7074 185.254 22.1676C185.49 22.6278 185.608 23.1847 185.608 23.8381C185.608 24.5114 185.481 25.0952 185.228 25.5895C184.975 26.081 184.616 26.4602 184.15 26.7273C183.687 26.9943 183.137 27.1278 182.501 27.1278C181.867 27.1278 181.316 26.9901 180.848 26.7145C180.382 26.4361 180.021 26.0256 179.765 25.483C179.512 24.9375 179.386 24.2656 179.386 23.4673V22.8793C179.386 21.3395 179.673 20.1903 180.247 19.4318C180.821 18.6733 181.671 18.2869 182.799 18.2727C183.135 18.267 183.434 18.2656 183.698 18.2685C183.966 18.2713 184.198 18.2585 184.397 18.2301C184.596 18.2017 184.764 18.1364 184.9 18.0341ZM182.51 25.892C182.825 25.892 183.098 25.8111 183.328 25.6491C183.558 25.4844 183.734 25.2514 183.856 24.9503C183.981 24.6491 184.044 24.2926 184.044 23.8807C184.044 23.4744 183.981 23.1293 183.856 22.8452C183.731 22.5582 183.554 22.3395 183.323 22.1889C183.093 22.0384 182.819 21.9631 182.501 21.9631C182.262 21.9631 182.048 22.0057 181.858 22.0909C181.667 22.1761 181.505 22.3011 181.372 22.4659C181.238 22.6307 181.136 22.831 181.065 23.0668C180.994 23.3026 180.956 23.5739 180.95 23.8807C180.95 24.4972 181.089 24.9872 181.367 25.3509C181.646 25.7116 182.027 25.892 182.51 25.892ZM186.92 27V20.4545H188.463V27H186.92ZM187.696 19.5256C187.451 19.5256 187.241 19.4446 187.065 19.2827C186.889 19.1179 186.801 18.9205 186.801 18.6903C186.801 18.4574 186.889 18.2599 187.065 18.098C187.241 17.9332 187.451 17.8509 187.696 17.8509C187.943 17.8509 188.153 17.9332 188.326 18.098C188.502 18.2599 188.591 18.4574 188.591 18.6903C188.591 18.9205 188.502 19.1179 188.326 19.2827C188.153 19.4446 187.943 19.5256 187.696 19.5256ZM190.049 29.4545V20.4545H191.566V21.5369H191.655C191.735 21.3778 191.847 21.2088 191.992 21.0298C192.137 20.848 192.333 20.6932 192.58 20.5653C192.827 20.4347 193.143 20.3693 193.526 20.3693C194.032 20.3693 194.488 20.4986 194.894 20.7571C195.303 21.0128 195.627 21.392 195.866 21.8949C196.107 22.3949 196.228 23.0085 196.228 23.7358C196.228 24.4545 196.11 25.0653 195.874 25.5682C195.638 26.071 195.317 26.4545 194.911 26.7188C194.505 26.983 194.045 27.1151 193.53 27.1151C193.155 27.1151 192.844 27.0526 192.597 26.9276C192.35 26.8026 192.151 26.652 192.001 26.4759C191.853 26.2969 191.738 26.1278 191.655 25.9688H191.592V29.4545H190.049ZM191.562 23.7273C191.562 24.1506 191.621 24.5213 191.741 24.8395C191.863 25.1577 192.038 25.4062 192.265 25.5852C192.495 25.7614 192.773 25.8494 193.1 25.8494C193.441 25.8494 193.727 25.7585 193.957 25.5767C194.187 25.392 194.36 25.1406 194.477 24.8224C194.596 24.5014 194.655 24.1364 194.655 23.7273C194.655 23.321 194.597 22.9602 194.481 22.6449C194.364 22.3295 194.191 22.0824 193.961 21.9034C193.731 21.7244 193.444 21.6349 193.1 21.6349C192.771 21.6349 192.491 21.7216 192.261 21.8949C192.03 22.0682 191.856 22.3111 191.736 22.6236C191.62 22.9361 191.562 23.304 191.562 23.7273ZM198.593 22.5852H200.523C201.359 22.5852 202.005 22.7884 202.462 23.1946C202.92 23.6009 203.15 24.1335 203.153 24.7926C203.15 25.2216 203.045 25.6023 202.837 25.9347C202.633 26.267 202.334 26.5284 201.942 26.7188C201.553 26.9062 201.08 27 200.523 27H197.549V20.4545H199.036V25.7344H200.523C200.859 25.7344 201.134 25.6491 201.35 25.4787C201.566 25.3054 201.674 25.0838 201.674 24.8139C201.674 24.5298 201.566 24.2983 201.35 24.1193C201.134 23.9403 200.859 23.8509 200.523 23.8509H198.593V22.5852ZM203.967 27V20.4545H205.509V27H203.967ZM211.595 23.0881V24.3537H208.11V23.0881H211.595ZM208.587 20.4545V27H207.1V20.4545H208.587ZM212.605 20.4545V27H211.122V20.4545H212.605ZM214.101 25.8494V29.1051H212.593V25.8494H214.101ZM219.644 20.4545V21.7202H216.823V27H215.315V20.4545H219.644ZM214.032 24.0426V23.0668H218.114V24.0426H214.032ZM222.495 27.1321C222.08 27.1321 221.707 27.0582 221.374 26.9105C221.045 26.7599 220.783 26.5384 220.59 26.2457C220.4 25.9531 220.305 25.5923 220.305 25.1634C220.305 24.794 220.373 24.4886 220.509 24.2472C220.646 24.0057 220.832 23.8125 221.067 23.6676C221.303 23.5227 221.569 23.4134 221.864 23.3395C222.163 23.2628 222.471 23.2074 222.789 23.1733C223.173 23.1335 223.484 23.098 223.722 23.0668C223.961 23.0327 224.134 22.9815 224.242 22.9134C224.353 22.8423 224.408 22.733 224.408 22.5852V22.5597C224.408 22.2386 224.313 21.9901 224.123 21.8139C223.932 21.6378 223.658 21.5497 223.3 21.5497C222.923 21.5497 222.623 21.6321 222.401 21.7969C222.182 21.9616 222.035 22.1562 221.958 22.3807L220.518 22.1761C220.631 21.7784 220.819 21.446 221.08 21.179C221.342 20.9091 221.661 20.7074 222.039 20.5739C222.417 20.4375 222.834 20.3693 223.292 20.3693C223.607 20.3693 223.921 20.4062 224.234 20.4801C224.546 20.554 224.832 20.6761 225.09 20.8466C225.349 21.0142 225.556 21.2429 225.712 21.5327C225.871 21.8224 225.951 22.1847 225.951 22.6193V27H224.468V26.1009H224.417C224.323 26.2827 224.191 26.4531 224.021 26.6122C223.853 26.7685 223.641 26.8949 223.386 26.9915C223.133 27.0852 222.836 27.1321 222.495 27.1321ZM222.896 25.9986C223.205 25.9986 223.474 25.9375 223.701 25.8153C223.928 25.6903 224.103 25.5256 224.225 25.321C224.35 25.1165 224.413 24.8935 224.413 24.652V23.8807C224.364 23.9205 224.282 23.9574 224.165 23.9915C224.052 24.0256 223.924 24.0554 223.782 24.081C223.64 24.1065 223.499 24.1293 223.36 24.1491C223.221 24.169 223.1 24.1861 222.998 24.2003C222.768 24.2315 222.562 24.2827 222.38 24.3537C222.198 24.4247 222.055 24.5241 221.95 24.652C221.844 24.777 221.792 24.9389 221.792 25.1378C221.792 25.4219 221.896 25.6364 222.103 25.7812C222.31 25.9261 222.575 25.9986 222.896 25.9986ZM228.989 24.9119L231.61 20.4545H233.195V27H231.704V22.5384L229.092 27H227.502V20.4545H228.989V24.9119ZM231.188 18.2045H232.343C232.343 18.7017 232.163 19.1051 231.802 19.4148C231.444 19.7216 230.958 19.875 230.344 19.875C229.736 19.875 229.252 19.7216 228.891 19.4148C228.533 19.1051 228.356 18.7017 228.359 18.2045H229.505C229.505 18.4091 229.567 18.5923 229.692 18.7543C229.82 18.9134 230.038 18.9929 230.344 18.9929C230.646 18.9929 230.86 18.9134 230.988 18.7543C231.119 18.5952 231.185 18.4119 231.188 18.2045ZM237.756 27V20.4545H243.283V27H241.796V21.7202H239.23V27H237.756ZM247.724 27.1278C247.085 27.1278 246.531 26.9872 246.062 26.706C245.594 26.4247 245.23 26.0312 244.972 25.5256C244.716 25.0199 244.588 24.429 244.588 23.7528C244.588 23.0767 244.716 22.4844 244.972 21.9759C245.23 21.4673 245.594 21.0724 246.062 20.7912C246.531 20.5099 247.085 20.3693 247.724 20.3693C248.364 20.3693 248.918 20.5099 249.386 20.7912C249.855 21.0724 250.217 21.4673 250.473 21.9759C250.731 22.4844 250.861 23.0767 250.861 23.7528C250.861 24.429 250.731 25.0199 250.473 25.5256C250.217 26.0312 249.855 26.4247 249.386 26.706C248.918 26.9872 248.364 27.1278 247.724 27.1278ZM247.733 25.892C248.08 25.892 248.369 25.7969 248.602 25.6065C248.835 25.4134 249.008 25.1548 249.122 24.831C249.239 24.5071 249.297 24.1463 249.297 23.7486C249.297 23.348 249.239 22.9858 249.122 22.6619C249.008 22.3352 248.835 22.0753 248.602 21.8821C248.369 21.6889 248.08 21.5923 247.733 21.5923C247.378 21.5923 247.082 21.6889 246.847 21.8821C246.614 22.0753 246.439 22.3352 246.322 22.6619C246.209 22.9858 246.152 23.348 246.152 23.7486C246.152 24.1463 246.209 24.5071 246.322 24.831C246.439 25.1548 246.614 25.4134 246.847 25.6065C247.082 25.7969 247.378 25.892 247.733 25.892ZM252.17 29.4545V20.4545H253.687V21.5369H253.777C253.856 21.3778 253.968 21.2088 254.113 21.0298C254.258 20.848 254.454 20.6932 254.701 20.5653C254.948 20.4347 255.264 20.3693 255.647 20.3693C256.153 20.3693 256.609 20.4986 257.015 20.7571C257.424 21.0128 257.748 21.392 257.987 21.8949C258.228 22.3949 258.349 23.0085 258.349 23.7358C258.349 24.4545 258.231 25.0653 257.995 25.5682C257.76 26.071 257.439 26.4545 257.032 26.7188C256.626 26.983 256.166 27.1151 255.652 27.1151C255.277 27.1151 254.966 27.0526 254.718 26.9276C254.471 26.8026 254.272 26.652 254.122 26.4759C253.974 26.2969 253.859 26.1278 253.777 25.9688H253.713V29.4545H252.17ZM253.683 23.7273C253.683 24.1506 253.742 24.5213 253.862 24.8395C253.984 25.1577 254.159 25.4062 254.386 25.5852C254.616 25.7614 254.894 25.8494 255.221 25.8494C255.562 25.8494 255.848 25.7585 256.078 25.5767C256.308 25.392 256.481 25.1406 256.598 24.8224C256.717 24.5014 256.777 24.1364 256.777 23.7273C256.777 23.321 256.718 22.9602 256.602 22.6449C256.485 22.3295 256.312 22.0824 256.082 21.9034C255.852 21.7244 255.565 21.6349 255.221 21.6349C254.892 21.6349 254.612 21.7216 254.382 21.8949C254.152 22.0682 253.977 22.3111 253.858 22.6236C253.741 22.9361 253.683 23.304 253.683 23.7273ZM258.949 21.7202V20.4545H264.676V21.7202H262.558V27H261.067V21.7202H258.949ZM267.518 27.1321C267.104 27.1321 266.73 27.0582 266.398 26.9105C266.068 26.7599 265.807 26.5384 265.614 26.2457C265.423 25.9531 265.328 25.5923 265.328 25.1634C265.328 24.794 265.396 24.4886 265.533 24.2472C265.669 24.0057 265.855 23.8125 266.091 23.6676C266.327 23.5227 266.592 23.4134 266.888 23.3395C267.186 23.2628 267.494 23.2074 267.812 23.1733C268.196 23.1335 268.507 23.098 268.746 23.0668C268.984 23.0327 269.158 22.9815 269.266 22.9134C269.376 22.8423 269.432 22.733 269.432 22.5852V22.5597C269.432 22.2386 269.337 21.9901 269.146 21.8139C268.956 21.6378 268.682 21.5497 268.324 21.5497C267.946 21.5497 267.646 21.6321 267.425 21.7969C267.206 21.9616 267.058 22.1562 266.981 22.3807L265.541 22.1761C265.655 21.7784 265.842 21.446 266.104 21.179C266.365 20.9091 266.685 20.7074 267.062 20.5739C267.44 20.4375 267.858 20.3693 268.315 20.3693C268.631 20.3693 268.945 20.4062 269.257 20.4801C269.57 20.554 269.855 20.6761 270.114 20.8466C270.372 21.0142 270.58 21.2429 270.736 21.5327C270.895 21.8224 270.974 22.1847 270.974 22.6193V27H269.491V26.1009H269.44C269.347 26.2827 269.214 26.4531 269.044 26.6122C268.876 26.7685 268.665 26.8949 268.409 26.9915C268.156 27.0852 267.859 27.1321 267.518 27.1321ZM267.919 25.9986C268.229 25.9986 268.497 25.9375 268.724 25.8153C268.952 25.6903 269.126 25.5256 269.249 25.321C269.374 25.1165 269.436 24.8935 269.436 24.652V23.8807C269.388 23.9205 269.305 23.9574 269.189 23.9915C269.075 24.0256 268.947 24.0554 268.805 24.081C268.663 24.1065 268.523 24.1293 268.383 24.1491C268.244 24.169 268.124 24.1861 268.021 24.2003C267.791 24.2315 267.585 24.2827 267.403 24.3537C267.222 24.4247 267.078 24.5241 266.973 24.652C266.868 24.777 266.815 24.9389 266.815 25.1378C266.815 25.4219 266.919 25.6364 267.126 25.7812C267.334 25.9261 267.598 25.9986 267.919 25.9986ZM272.074 27L272.065 25.7301H272.291C272.462 25.7301 272.605 25.6918 272.722 25.6151C272.838 25.5384 272.935 25.4105 273.011 25.2315C273.088 25.0497 273.148 24.8054 273.19 24.4986C273.233 24.1918 273.263 23.8097 273.28 23.3523L273.395 20.4545H278.168V27H276.676V21.7202H274.797L274.695 23.8295C274.669 24.375 274.608 24.848 274.511 25.2486C274.418 25.6463 274.284 25.9744 274.111 26.233C273.94 26.4915 273.726 26.6847 273.467 26.8125C273.209 26.9375 272.903 27 272.551 27H272.074Z" fill="#222222"/>
<defs>
<linearGradient id="paint0_linear_228_10" x1="14.7296" y1="7.10816" x2="37.4304" y2="7.10816" gradientUnits="userSpaceOnUse">
<stop stop-color="#F4AB62"/>
<stop offset="1" stop-color="#B88151"/>
</linearGradient>
</defs>
</svg>
