<svg width="239" height="32" viewBox="0 0 239 32" fill="none" xmlns="http://www.w3.org/2000/svg">
<path fill-rule="evenodd" clip-rule="evenodd" d="M8.39338 4.92607C8.50731 4.92607 8.61621 4.88397 8.70269 4.81031C9.90469 3.78904 11.4595 3.17179 13.157 3.17179C14.6482 3.17179 16.0648 3.63896 17.2567 4.52388C17.8873 4.9915 18.7717 4.98784 19.34 4.44609C20.0703 3.75015 19.9792 2.60305 19.2087 2.02286C17.453 0.699606 15.3606 0 13.157 0C9.8054 0 6.8331 1.64767 5.00333 4.17476C4.77684 4.48773 5.00562 4.92653 5.39225 4.92653H8.39338V4.92607Z" fill="#82AD3A"/>
<path fill-rule="evenodd" clip-rule="evenodd" d="M26.984 6.67554C26.3502 6.07065 25.3464 6.09353 24.7415 6.72725C24.4239 7.05943 23.8245 7.80937 22.7923 9.10563C21.183 11.1258 18.4899 14.5067 17.437 15.354C16.4066 16.1836 15.1744 16.9518 13.1575 16.9518C11.1506 16.9518 9.34327 16.0884 8.0827 14.7144C7.71573 14.3346 7.32818 14.115 7.27419 13.0205C7.10581 9.5879 11.5771 9.3971 11.6915 11.7352C11.7198 12.3159 11.2929 12.6238 10.8372 12.5323C10.7342 11.7988 9.83972 11.5394 9.39863 12.1283C8.75576 12.9871 10.2154 14.4074 11.6969 13.9342C12.4409 13.6968 12.8166 13.1596 13.0179 12.6028C13.7779 10.4994 12.0241 8.13149 9.78435 7.96174C9.63611 7.95076 9.51485 7.94527 9.35791 7.9471C9.2664 7.94847 8.9786 7.98279 8.9246 7.97089C8.88525 7.74074 8.8697 7.56092 8.78871 7.31201C8.42083 6.18413 7.33825 5.38431 6.1939 5.36647C5.85713 5.36098 5.16668 5.44242 4.90587 5.63917C5.05092 5.71833 5.34192 5.97456 5.48056 6.1132C6.08912 6.72313 6.46386 7.4415 6.62171 8.25595C6.69767 8.64945 6.72421 9.22872 6.65283 9.62313C6.61027 9.85923 6.57275 10.0386 6.50046 10.2724C6.46797 10.3776 6.43228 10.4824 6.38836 10.5835C6.34626 10.6801 6.279 10.8027 6.25201 10.8814L5.96283 10.0551C5.58717 9.15414 5.05961 8.4376 4.21404 8.002C3.56111 7.6657 2.67711 7.51425 1.97796 7.66478C1.0935 7.85559 0.279959 8.56206 0.0772604 9.32252C-0.390364 11.2983 1.37352 11.9205 2.44558 12.0134C-0.172109 9.6547 3.45084 8.85123 3.93219 10.8485C3.97794 11.0832 3.99487 11.3047 4.00128 11.5183C4.00494 11.6428 3.99533 11.7288 3.99304 11.851C3.98389 12.4033 4.00448 12.9336 4.09645 13.5078C4.74984 17.5961 9.26548 20.1232 13.1579 20.1232C16.1828 20.1232 18.0973 18.8951 19.4265 17.8249C20.6527 16.8379 22.8001 14.1873 25.2736 11.0814C26.0249 10.1383 26.8019 9.16283 27.0366 8.91712C27.6415 8.28386 27.6181 7.27998 26.9849 6.67463L26.984 6.67554Z" fill="#0771BD"/>
<path fill-rule="evenodd" clip-rule="evenodd" d="M33.6466 15.1977C33.5326 15.1977 33.4237 15.2398 33.3373 15.3135C32.1353 16.3348 30.5805 16.9525 28.8834 16.9525C27.3922 16.9525 25.9756 16.4853 24.7837 15.6008C24.1532 15.1328 23.2687 15.1369 22.7004 15.6782C21.9702 16.3741 22.0612 17.5212 22.8317 18.1014C24.5874 19.4246 26.6798 20.1243 28.8834 20.1243C32.235 20.1243 35.2073 18.4766 37.0366 15.949C37.2631 15.6361 37.0343 15.1973 36.6482 15.1973H33.647L33.6466 15.1977Z" fill="#82AD3A"/>
<path fill-rule="evenodd" clip-rule="evenodd" d="M15.0563 13.4481C15.69 14.053 16.6939 14.0301 17.2988 13.3968C17.6159 13.0642 18.2157 12.3147 19.248 11.018C20.8572 8.99788 23.5504 5.61653 24.6032 4.76959C25.6337 3.94003 26.8659 3.17225 28.8828 3.17225C30.8896 3.17225 32.697 4.03566 33.9576 5.40971C35.0337 6.58335 36.2637 6.88671 35.7091 9.36621C35.4355 10.5902 34.459 11.6714 33.3714 12.0411C32.3964 12.3724 31.0498 12.058 30.455 10.743C30.2692 10.3326 30.1841 9.64715 30.3548 9.17541C30.584 8.54261 31.3541 8.3422 31.8244 8.68582C31.2086 9.6348 32.233 10.8263 33.2808 10.3124C34.0637 9.92901 34.3437 8.56778 33.9406 7.65586C33.1312 5.82471 30.2751 5.53691 28.8631 7.21752C28.0601 8.17336 28.007 9.21796 28.1786 10.0105C28.3799 10.9407 29.0201 11.9052 29.8258 12.5366C30.7336 13.2481 31.7897 13.5391 32.6622 13.5346C33.5412 13.53 34.341 13.358 35.2891 12.759C35.3124 12.8125 35.3243 12.8784 35.343 12.9407C35.8939 14.7878 39.2401 14.8052 40.5478 14.484C40.5565 14.4904 37.0754 13.9793 37.7082 11.4399C38.0637 10.0137 37.8015 9.08573 37.8235 8.89767C38.5418 9.40236 39.4327 9.50485 40.1858 9.24222C40.3382 9.18914 40.8031 8.99147 40.917 8.84002C40.4581 8.6149 40.1195 8.43234 39.7068 8.05989C37.8047 6.34358 37.785 4.55636 35.8194 2.78241C34.0134 1.0597 31.57 0 28.8828 0C25.8579 0 23.9434 1.22809 22.6142 2.29831C21.3875 3.28527 19.2402 5.9359 16.7671 9.04181C16.0158 9.98483 15.2389 10.9603 15.0041 11.2061C14.3997 11.8398 14.4226 12.8437 15.0558 13.4481H15.0563Z" fill="url(#paint0_linear_228_10)"/>
<path d="M0.649901 26.4377L2.13427 30.7188H2.19287L3.67724 26.4377H4.312L2.47607 31.5234H1.85107L0.0151367 26.4377H0.649901Z" fill="#0771BD"/>
<path d="M5.09081 31.5234V26.4377H8.10838V26.984H5.69628V28.7024H7.95213V29.2487H5.69628V30.9771H8.14744V31.5234H5.09081Z" fill="#0771BD"/>
<path d="M8.92625 26.984V26.4377H12.6762V26.984H11.104V31.5234H10.4985V26.984H8.92625Z" fill="#0771BD"/>
<path d="M15.219 29.9341H15.883L16.4397 30.6791L16.5861 30.8777L17.4162 32.0002H16.7522L16.2053 31.2552L16.0686 31.0665L15.219 29.9341ZM17.6213 28.9805C17.6213 29.5169 17.5261 29.9805 17.3357 30.3712C17.1452 30.7619 16.884 31.0632 16.552 31.2751C16.2199 31.487 15.8407 31.5929 15.4143 31.5929C14.9878 31.5929 14.6086 31.487 14.2766 31.2751C13.9446 31.0632 13.6833 30.7619 13.4929 30.3712C13.3025 29.9805 13.2072 29.5169 13.2072 28.9805C13.2072 28.4442 13.3025 27.9806 13.4929 27.5899C13.6833 27.1992 13.9446 26.8979 14.2766 26.686C14.6086 26.4741 14.9878 26.3682 15.4143 26.3682C15.8407 26.3682 16.2199 26.4741 16.552 26.686C16.884 26.8979 17.1452 27.1992 17.3357 27.5899C17.5261 27.9806 17.6213 28.4442 17.6213 28.9805ZM17.0354 28.9805C17.0354 28.5402 16.9629 28.1685 16.8181 27.8656C16.6749 27.5626 16.4804 27.3333 16.2346 27.1777C15.9904 27.0221 15.717 26.9443 15.4143 26.9443C15.1115 26.9443 14.8373 27.0221 14.5915 27.1777C14.3474 27.3333 14.1529 27.5626 14.008 27.8656C13.8648 28.1685 13.7932 28.5402 13.7932 28.9805C13.7932 29.4209 13.8648 29.7926 14.008 30.0955C14.1529 30.3985 14.3474 30.6278 14.5915 30.7834C14.8373 30.939 15.1115 31.0168 15.4143 31.0168C15.717 31.0168 15.9904 30.939 16.2346 30.7834C16.4804 30.6278 16.6749 30.3985 16.8181 30.0955C16.9629 29.7926 17.0354 29.4209 17.0354 28.9805Z" fill="#0771BD"/>
<path d="M17.9747 26.4377H18.6681L20.0548 28.8117H20.1134L21.5001 26.4377H22.1934L20.3868 29.4275V31.5234H19.7813V29.4275L17.9747 26.4377Z" fill="#0771BD"/>
<path d="M22.8105 31.5234V31.0764L25.5058 26.984H22.7812V26.4377H26.2285V26.8847L23.5332 30.9771H26.2578V31.5234H22.8105Z" fill="#0771BD"/>
<path d="M27.2734 26.4377H27.996L29.6953 30.6592H29.7538L31.4531 26.4377H32.1757V31.5234H31.6093V27.6595H31.5605L29.998 31.5234H29.4511L27.8886 27.6595H27.8398V31.5234H27.2734V26.4377Z" fill="#0771BD"/>
<path d="M33.3897 31.5234V26.4377H36.4073V26.984H33.9952V28.7024H36.251V29.2487H33.9952V30.9771H36.4463V31.5234H33.3897Z" fill="#0771BD"/>
<path d="M37.2251 26.984V26.4377H40.9751V26.984H39.4029V31.5234H38.7974V26.984H37.2251Z" fill="#0771BD"/>
<path d="M57.8359 13V4.27273H63.512V5.59801H59.4169V7.96733H63.218V9.29261H59.4169V11.6747H63.5461V13H57.8359ZM64.4772 14.9006V11.7301H64.9971C65.1363 11.6222 65.2528 11.4759 65.3465 11.2912C65.4403 11.1037 65.517 10.8835 65.5767 10.6307C65.6392 10.375 65.6903 10.0895 65.7301 9.77415C65.7698 9.45597 65.8054 9.11364 65.8366 8.74716L66.0241 6.45455H70.7542V11.7301H71.7684V14.9006H70.2769V13H65.9943V14.9006H64.4772ZM66.5823 11.7301H69.2798V7.69886H67.3622L67.2599 8.74716C67.2031 9.44034 67.1278 10.0341 67.034 10.5284C66.9403 11.0227 66.7897 11.4233 66.5823 11.7301ZM74.4073 10.9119L77.028 6.45455H78.6132V13H77.1218V8.53835L74.5095 13H72.9201V6.45455H74.4073V10.9119ZM84.6931 9.08807V10.3537H81.2073V9.08807H84.6931ZM81.6846 6.45455V13H80.1974V6.45455H81.6846ZM85.7031 6.45455V13H84.2201V6.45455H85.7031ZM88.3078 8.58523H90.2382C91.0735 8.58523 91.7198 8.78835 92.1772 9.1946C92.6345 9.60085 92.8647 10.1335 92.8675 10.7926C92.8647 11.2216 92.7595 11.6023 92.5522 11.9347C92.3476 12.267 92.0493 12.5284 91.6573 12.7188C91.2681 12.9062 90.7951 13 90.2382 13H87.2638V6.45455H88.751V11.7344H90.2382C90.5735 11.7344 90.849 11.6491 91.0649 11.4787C91.2809 11.3054 91.3888 11.0838 91.3888 10.8139C91.3888 10.5298 91.2809 10.2983 91.0649 10.1193C90.849 9.94034 90.5735 9.85085 90.2382 9.85085H88.3078V8.58523ZM93.6814 13V6.45455H95.224V13H93.6814ZM98.3018 10.9119L100.923 6.45455H102.508V13H101.016V8.53835L98.4041 13H96.8146V6.45455H98.3018V10.9119ZM100.501 4.20455H101.655C101.655 4.7017 101.475 5.10511 101.114 5.41477C100.756 5.72159 100.271 5.875 99.6569 5.875C99.049 5.875 98.5646 5.72159 98.2038 5.41477C97.8458 5.10511 97.6683 4.7017 97.6711 4.20455H98.8174C98.8174 4.40909 98.8799 4.59233 99.0049 4.75426C99.1328 4.91335 99.3501 4.9929 99.6569 4.9929C99.9581 4.9929 100.173 4.91335 100.3 4.75426C100.431 4.59517 100.498 4.41193 100.501 4.20455ZM107.068 13V6.45455H112.595V13H111.108V7.72017H108.543V13H107.068ZM117.037 13.1278C116.398 13.1278 115.844 12.9872 115.375 12.706C114.906 12.4247 114.543 12.0312 114.284 11.5256C114.028 11.0199 113.901 10.429 113.901 9.75284C113.901 9.0767 114.028 8.48437 114.284 7.97585C114.543 7.46733 114.906 7.07244 115.375 6.79119C115.844 6.50994 116.398 6.36932 117.037 6.36932C117.676 6.36932 118.23 6.50994 118.699 6.79119C119.168 7.07244 119.53 7.46733 119.785 7.97585C120.044 8.48437 120.173 9.0767 120.173 9.75284C120.173 10.429 120.044 11.0199 119.785 11.5256C119.53 12.0312 119.168 12.4247 118.699 12.706C118.23 12.9872 117.676 13.1278 117.037 13.1278ZM117.045 11.892C117.392 11.892 117.682 11.7969 117.915 11.6065C118.148 11.4134 118.321 11.1548 118.435 10.831C118.551 10.5071 118.609 10.1463 118.609 9.74858C118.609 9.34801 118.551 8.9858 118.435 8.66193C118.321 8.33523 118.148 8.07528 117.915 7.8821C117.682 7.68892 117.392 7.59233 117.045 7.59233C116.69 7.59233 116.395 7.68892 116.159 7.8821C115.926 8.07528 115.751 8.33523 115.635 8.66193C115.521 8.9858 115.464 9.34801 115.464 9.74858C115.464 10.1463 115.521 10.5071 115.635 10.831C115.751 11.1548 115.926 11.4134 116.159 11.6065C116.395 11.7969 116.69 11.892 117.045 11.892ZM121.483 15.4545V6.45455H123V7.53693H123.089C123.169 7.37784 123.281 7.20881 123.426 7.02983C123.571 6.84801 123.767 6.69318 124.014 6.56534C124.261 6.43466 124.576 6.36932 124.96 6.36932C125.466 6.36932 125.921 6.49858 126.328 6.7571C126.737 7.01278 127.061 7.39205 127.299 7.89489C127.541 8.39489 127.662 9.00852 127.662 9.7358C127.662 10.4545 127.544 11.0653 127.308 11.5682C127.072 12.071 126.751 12.4545 126.345 12.7188C125.939 12.983 125.478 13.1151 124.964 13.1151C124.589 13.1151 124.278 13.0526 124.031 12.9276C123.784 12.8026 123.585 12.652 123.434 12.4759C123.287 12.2969 123.171 12.1278 123.089 11.9688H123.025V15.4545H121.483ZM122.995 9.72727C122.995 10.1506 123.055 10.5213 123.174 10.8395C123.296 11.1577 123.471 11.4062 123.698 11.5852C123.929 11.7614 124.207 11.8494 124.534 11.8494C124.875 11.8494 125.16 11.7585 125.39 11.5767C125.62 11.392 125.794 11.1406 125.91 10.8224C126.029 10.5014 126.089 10.1364 126.089 9.72727C126.089 9.32102 126.031 8.96023 125.914 8.64489C125.798 8.32955 125.625 8.08239 125.394 7.90341C125.164 7.72443 124.877 7.63494 124.534 7.63494C124.204 7.63494 123.924 7.72159 123.694 7.89489C123.464 8.06818 123.289 8.31108 123.17 8.62358C123.054 8.93608 122.995 9.30398 122.995 9.72727ZM128.261 7.72017V6.45455H133.989V7.72017H131.871V13H130.379V7.72017H128.261ZM136.831 13.1321C136.416 13.1321 136.043 13.0582 135.71 12.9105C135.381 12.7599 135.119 12.5384 134.926 12.2457C134.736 11.9531 134.641 11.5923 134.641 11.1634C134.641 10.794 134.709 10.4886 134.845 10.2472C134.981 10.0057 135.168 9.8125 135.403 9.66761C135.639 9.52273 135.905 9.41335 136.2 9.33949C136.499 9.26278 136.807 9.20739 137.125 9.1733C137.508 9.13352 137.82 9.09801 138.058 9.06676C138.297 9.03267 138.47 8.98153 138.578 8.91335C138.689 8.84233 138.744 8.73295 138.744 8.58523V8.55966C138.744 8.23864 138.649 7.99006 138.459 7.81392C138.268 7.63778 137.994 7.54972 137.636 7.54972C137.258 7.54972 136.959 7.6321 136.737 7.79688C136.518 7.96165 136.371 8.15625 136.294 8.38068L134.854 8.17614C134.967 7.77841 135.155 7.44602 135.416 7.17898C135.678 6.90909 135.997 6.70739 136.375 6.57386C136.753 6.4375 137.17 6.36932 137.628 6.36932C137.943 6.36932 138.257 6.40625 138.57 6.48011C138.882 6.55398 139.168 6.67614 139.426 6.84659C139.685 7.0142 139.892 7.2429 140.048 7.53267C140.207 7.82244 140.287 8.18466 140.287 8.61932V13H138.804V12.1009H138.753C138.659 12.2827 138.527 12.4531 138.356 12.6122C138.189 12.7685 137.977 12.8949 137.722 12.9915C137.469 13.0852 137.172 13.1321 136.831 13.1321ZM137.231 11.9986C137.541 11.9986 137.81 11.9375 138.037 11.8153C138.264 11.6903 138.439 11.5256 138.561 11.321C138.686 11.1165 138.749 10.8935 138.749 10.652V9.88068C138.7 9.92045 138.618 9.95739 138.501 9.99148C138.388 10.0256 138.26 10.0554 138.118 10.081C137.976 10.1065 137.835 10.1293 137.696 10.1491C137.557 10.169 137.436 10.1861 137.334 10.2003C137.104 10.2315 136.898 10.2827 136.716 10.3537C136.534 10.4247 136.391 10.5241 136.285 10.652C136.18 10.777 136.128 10.9389 136.128 11.1378C136.128 11.4219 136.231 11.6364 136.439 11.7812C136.646 11.9261 136.91 11.9986 137.231 11.9986ZM141.386 13L141.378 11.7301H141.604C141.774 11.7301 141.918 11.6918 142.034 11.6151C142.151 11.5384 142.247 11.4105 142.324 11.2315C142.401 11.0497 142.46 10.8054 142.503 10.4986C142.545 10.1918 142.575 9.80966 142.592 9.35227L142.707 6.45455H147.48V13H145.989V7.72017H144.109L144.007 9.82955C143.981 10.375 143.92 10.848 143.824 11.2486C143.73 11.6463 143.597 11.9744 143.423 12.233C143.253 12.4915 143.038 12.6847 142.78 12.8125C142.521 12.9375 142.216 13 141.864 13H141.386ZM151.43 14.9006V11.7301H151.95C152.089 11.6222 152.206 11.4759 152.3 11.2912C152.393 11.1037 152.47 10.8835 152.53 10.6307C152.592 10.375 152.643 10.0895 152.683 9.77415C152.723 9.45597 152.758 9.11364 152.79 8.74716L152.977 6.45455H157.707V11.7301H158.722V14.9006H157.23V13H152.947V14.9006H151.43ZM153.535 11.7301H156.233V7.69886H154.315L154.213 8.74716C154.156 9.44034 154.081 10.0341 153.987 10.5284C153.893 11.0227 153.743 11.4233 153.535 11.7301ZM159.421 13L159.413 11.7301H159.639C159.809 11.7301 159.953 11.6918 160.069 11.6151C160.186 11.5384 160.282 11.4105 160.359 11.2315C160.436 11.0497 160.495 10.8054 160.538 10.4986C160.581 10.1918 160.61 9.80966 160.627 9.35227L160.742 6.45455H165.515V13H164.024V7.72017H162.144L162.042 9.82955C162.017 10.375 161.956 10.848 161.859 11.2486C161.765 11.6463 161.632 11.9744 161.458 12.233C161.288 12.4915 161.073 12.6847 160.815 12.8125C160.556 12.9375 160.251 13 159.899 13H159.421ZM170.938 13V7.70739H169.54C169.185 7.70739 168.912 7.78977 168.722 7.95455C168.532 8.11932 168.438 8.32386 168.441 8.56818C168.438 8.8125 168.527 9.0142 168.709 9.1733C168.891 9.33239 169.151 9.41193 169.489 9.41193H171.424V10.5369H169.489C168.966 10.5369 168.515 10.4545 168.134 10.2898C167.753 10.125 167.461 9.89205 167.256 9.59091C167.051 9.28977 166.949 8.9375 166.949 8.53409C166.949 8.11364 167.053 7.74858 167.26 7.43892C167.47 7.12642 167.769 6.88494 168.155 6.71449C168.544 6.54119 169.006 6.45455 169.54 6.45455H172.382V13H170.938ZM166.711 13L168.539 9.64205H170.06L168.228 13H166.711ZM179.767 13.1278C179.128 13.1278 178.574 12.9872 178.105 12.706C177.637 12.4247 177.273 12.0312 177.015 11.5256C176.759 11.0199 176.631 10.429 176.631 9.75284C176.631 9.0767 176.759 8.48437 177.015 7.97585C177.273 7.46733 177.637 7.07244 178.105 6.79119C178.574 6.50994 179.128 6.36932 179.767 6.36932C180.407 6.36932 180.961 6.50994 181.429 6.79119C181.898 7.07244 182.26 7.46733 182.516 7.97585C182.774 8.48437 182.904 9.0767 182.904 9.75284C182.904 10.429 182.774 11.0199 182.516 11.5256C182.26 12.0312 181.898 12.4247 181.429 12.706C180.961 12.9872 180.407 13.1278 179.767 13.1278ZM179.776 11.892C180.122 11.892 180.412 11.7969 180.645 11.6065C180.878 11.4134 181.051 11.1548 181.165 10.831C181.282 10.5071 181.34 10.1463 181.34 9.74858C181.34 9.34801 181.282 8.9858 181.165 8.66193C181.051 8.33523 180.878 8.07528 180.645 7.8821C180.412 7.68892 180.122 7.59233 179.776 7.59233C179.421 7.59233 179.125 7.68892 178.89 7.8821C178.657 8.07528 178.482 8.33523 178.365 8.66193C178.252 8.9858 178.195 9.34801 178.195 9.74858C178.195 10.1463 178.252 10.5071 178.365 10.831C178.482 11.1548 178.657 11.4134 178.89 11.6065C179.125 11.7969 179.421 11.892 179.776 11.892ZM184.213 13V6.45455H185.756V9.09659H186.318L188.287 6.45455H190.145L187.72 9.66761L190.17 13H188.304L186.51 10.5327H185.756V13H184.213ZM192.929 13.1321C192.514 13.1321 192.14 13.0582 191.808 12.9105C191.478 12.7599 191.217 12.5384 191.024 12.2457C190.833 11.9531 190.738 11.5923 190.738 11.1634C190.738 10.794 190.806 10.4886 190.943 10.2472C191.079 10.0057 191.265 9.8125 191.501 9.66761C191.737 9.52273 192.002 9.41335 192.298 9.33949C192.596 9.26278 192.904 9.20739 193.223 9.1733C193.606 9.13352 193.917 9.09801 194.156 9.06676C194.394 9.03267 194.568 8.98153 194.676 8.91335C194.787 8.84233 194.842 8.73295 194.842 8.58523V8.55966C194.842 8.23864 194.747 7.99006 194.556 7.81392C194.366 7.63778 194.092 7.54972 193.734 7.54972C193.356 7.54972 193.056 7.6321 192.835 7.79688C192.616 7.96165 192.468 8.15625 192.392 8.38068L190.951 8.17614C191.065 7.77841 191.252 7.44602 191.514 7.17898C191.775 6.90909 192.095 6.70739 192.473 6.57386C192.85 6.4375 193.268 6.36932 193.725 6.36932C194.041 6.36932 194.355 6.40625 194.667 6.48011C194.98 6.55398 195.265 6.67614 195.524 6.84659C195.782 7.0142 195.99 7.2429 196.146 7.53267C196.305 7.82244 196.385 8.18466 196.385 8.61932V13H194.902V12.1009H194.85C194.757 12.2827 194.625 12.4531 194.454 12.6122C194.287 12.7685 194.075 12.8949 193.819 12.9915C193.566 13.0852 193.269 13.1321 192.929 13.1321ZM193.329 11.9986C193.639 11.9986 193.907 11.9375 194.135 11.8153C194.362 11.6903 194.537 11.5256 194.659 11.321C194.784 11.1165 194.846 10.8935 194.846 10.652V9.88068C194.798 9.92045 194.716 9.95739 194.599 9.99148C194.485 10.0256 194.358 10.0554 194.216 10.081C194.073 10.1065 193.933 10.1293 193.794 10.1491C193.654 10.169 193.534 10.1861 193.431 10.2003C193.201 10.2315 192.995 10.2827 192.814 10.3537C192.632 10.4247 192.488 10.5241 192.383 10.652C192.278 10.777 192.225 10.9389 192.225 11.1378C192.225 11.4219 192.329 11.6364 192.537 11.7812C192.744 11.9261 193.008 11.9986 193.329 11.9986ZM197.573 11.206H199.103C199.117 11.4503 199.227 11.6392 199.431 11.7727C199.636 11.9062 199.902 11.973 200.228 11.973C200.561 11.973 200.841 11.9006 201.068 11.7557C201.298 11.608 201.413 11.3849 201.413 11.0866C201.413 10.9105 201.369 10.7557 201.281 10.6222C201.193 10.4858 201.069 10.3807 200.91 10.3068C200.751 10.233 200.564 10.196 200.348 10.196H199.346V9.10085H200.348C200.669 9.10085 200.912 9.02699 201.076 8.87926C201.244 8.73153 201.328 8.54545 201.328 8.32102C201.328 8.07955 201.24 7.88352 201.064 7.73295C200.89 7.58239 200.65 7.5071 200.343 7.5071C200.037 7.5071 199.781 7.5767 199.576 7.71591C199.375 7.85511 199.269 8.03409 199.261 8.25284H197.74C197.745 7.87216 197.859 7.54119 198.081 7.25994C198.305 6.97869 198.606 6.75994 198.984 6.60369C199.365 6.44744 199.794 6.36932 200.271 6.36932C200.782 6.36932 201.224 6.44602 201.596 6.59943C201.968 6.75284 202.255 6.96733 202.457 7.2429C202.659 7.51562 202.76 7.83665 202.76 8.20597C202.76 8.56108 202.649 8.85511 202.427 9.08807C202.206 9.31818 201.907 9.48295 201.532 9.58239V9.65057C201.791 9.66477 202.024 9.73864 202.231 9.87216C202.439 10.0028 202.603 10.1804 202.725 10.4048C202.848 10.6293 202.909 10.8892 202.909 11.1847C202.909 11.5852 202.794 11.9318 202.564 12.2244C202.333 12.5142 202.017 12.7372 201.613 12.8935C201.213 13.0497 200.754 13.1278 200.237 13.1278C199.734 13.1278 199.284 13.0526 198.886 12.902C198.491 12.7486 198.177 12.5284 197.944 12.2415C197.711 11.9545 197.588 11.6094 197.573 11.206ZM206.007 13.1321C205.592 13.1321 205.218 13.0582 204.886 12.9105C204.556 12.7599 204.295 12.5384 204.102 12.2457C203.912 11.9531 203.816 11.5923 203.816 11.1634C203.816 10.794 203.885 10.4886 204.021 10.2472C204.157 10.0057 204.343 9.8125 204.579 9.66761C204.815 9.52273 205.081 9.41335 205.376 9.33949C205.674 9.26278 205.983 9.20739 206.301 9.1733C206.684 9.13352 206.995 9.09801 207.234 9.06676C207.473 9.03267 207.646 8.98153 207.754 8.91335C207.865 8.84233 207.92 8.73295 207.92 8.58523V8.55966C207.92 8.23864 207.825 7.99006 207.635 7.81392C207.444 7.63778 207.17 7.54972 206.812 7.54972C206.434 7.54972 206.135 7.6321 205.913 7.79688C205.694 7.96165 205.546 8.15625 205.47 8.38068L204.029 8.17614C204.143 7.77841 204.331 7.44602 204.592 7.17898C204.853 6.90909 205.173 6.70739 205.551 6.57386C205.929 6.4375 206.346 6.36932 206.804 6.36932C207.119 6.36932 207.433 6.40625 207.745 6.48011C208.058 6.55398 208.343 6.67614 208.602 6.84659C208.86 7.0142 209.068 7.2429 209.224 7.53267C209.383 7.82244 209.463 8.18466 209.463 8.61932V13H207.98V12.1009H207.929C207.835 12.2827 207.703 12.4531 207.532 12.6122C207.365 12.7685 207.153 12.8949 206.897 12.9915C206.644 13.0852 206.348 13.1321 206.007 13.1321ZM206.407 11.9986C206.717 11.9986 206.985 11.9375 207.213 11.8153C207.44 11.6903 207.615 11.5256 207.737 11.321C207.862 11.1165 207.924 10.8935 207.924 10.652V9.88068C207.876 9.92045 207.794 9.95739 207.677 9.99148C207.564 10.0256 207.436 10.0554 207.294 10.081C207.152 10.1065 207.011 10.1293 206.872 10.1491C206.733 10.169 206.612 10.1861 206.51 10.2003C206.279 10.2315 206.073 10.2827 205.892 10.3537C205.71 10.4247 205.566 10.5241 205.461 10.652C205.356 10.777 205.304 10.9389 205.304 11.1378C205.304 11.4219 205.407 11.6364 205.615 11.7812C205.822 11.9261 206.086 11.9986 206.407 11.9986ZM215.51 9.08807V10.3537H212.024V9.08807H215.51ZM212.501 6.45455V13H211.014V6.45455H212.501ZM216.519 6.45455V13H215.037V6.45455H216.519ZM219.567 10.9119L222.188 6.45455H223.773V13H222.282V8.53835L219.67 13H218.08V6.45455H219.567V10.9119ZM229.227 13V7.70739H227.829C227.474 7.70739 227.201 7.78977 227.011 7.95455C226.821 8.11932 226.727 8.32386 226.73 8.56818C226.727 8.8125 226.816 9.0142 226.998 9.1733C227.18 9.33239 227.44 9.41193 227.778 9.41193H229.713V10.5369H227.778C227.255 10.5369 226.804 10.4545 226.423 10.2898C226.042 10.125 225.75 9.89205 225.545 9.59091C225.341 9.28977 225.238 8.9375 225.238 8.53409C225.238 8.11364 225.342 7.74858 225.549 7.43892C225.76 7.12642 226.058 6.88494 226.444 6.71449C226.833 6.54119 227.295 6.45455 227.829 6.45455H230.671V13H229.227ZM225 13L226.828 9.64205H228.349L226.517 13H225ZM57.7677 27V20.4545H60.5163C61.2919 20.4545 61.9041 20.6094 62.3529 20.919C62.8046 21.2287 63.0305 21.6605 63.0305 22.2145C63.0305 22.581 62.9027 22.8807 62.647 23.1136C62.3941 23.3437 62.049 23.4986 61.6115 23.5781C61.9552 23.6065 62.2563 23.6932 62.5149 23.8381C62.7762 23.983 62.9808 24.1733 63.1285 24.4091C63.2762 24.6449 63.3501 24.9162 63.3501 25.223C63.3501 25.5838 63.2549 25.8977 63.0646 26.1648C62.8771 26.429 62.6029 26.6349 62.2421 26.7827C61.8842 26.9276 61.4495 27 60.9382 27H57.7677ZM59.2123 25.7855H60.9382C61.2223 25.7855 61.4453 25.7187 61.6072 25.5852C61.7691 25.4489 61.8501 25.2642 61.8501 25.0312C61.8501 24.7614 61.7691 24.5497 61.6072 24.3963C61.4453 24.2401 61.2223 24.1619 60.9382 24.1619H59.2123V25.7855ZM59.2123 23.1648H60.5461C60.7563 23.1648 60.9367 23.1349 61.0873 23.0753C61.2379 23.0128 61.3529 22.9261 61.4325 22.8153C61.512 22.7017 61.5518 22.5668 61.5518 22.4105C61.5518 22.1861 61.4595 22.0099 61.2748 21.8821C61.093 21.7543 60.8402 21.6903 60.5163 21.6903H59.2123V23.1648ZM67.5209 27.1278C66.8647 27.1278 66.2979 26.9915 65.8206 26.7188C65.3462 26.4432 64.9811 26.054 64.7255 25.5511C64.4698 25.0455 64.3419 24.4503 64.3419 23.7656C64.3419 23.0923 64.4698 22.5014 64.7255 21.9929C64.984 21.4815 65.3448 21.0838 65.8078 20.7997C66.2709 20.5128 66.8149 20.3693 67.4399 20.3693C67.8434 20.3693 68.224 20.4347 68.582 20.5653C68.9428 20.6932 69.261 20.892 69.5365 21.1619C69.8149 21.4318 70.0337 21.7756 70.1928 22.1932C70.3519 22.608 70.4314 23.1023 70.4314 23.6761V24.1491H65.0664V23.1094H68.9527C68.9499 22.8139 68.886 22.5511 68.761 22.321C68.636 22.0881 68.4612 21.9048 68.2368 21.7713C68.0152 21.6378 67.7567 21.571 67.4612 21.571C67.1459 21.571 66.8689 21.6477 66.6303 21.8011C66.3916 21.9517 66.2056 22.1506 66.072 22.3977C65.9414 22.642 65.8746 22.9105 65.8718 23.2031V24.1108C65.8718 24.4915 65.9414 24.8182 66.0806 25.0909C66.2198 25.3608 66.4144 25.5682 66.6644 25.7131C66.9144 25.8551 67.207 25.9261 67.5422 25.9261C67.7666 25.9261 67.9698 25.8949 68.1516 25.8324C68.3334 25.767 68.4911 25.6719 68.6246 25.5469C68.7581 25.4219 68.859 25.267 68.9272 25.0824L70.3675 25.2443C70.2766 25.625 70.1033 25.9574 69.8476 26.2415C69.5948 26.5227 69.2709 26.7415 68.876 26.8977C68.4811 27.0511 68.0294 27.1278 67.5209 27.1278ZM71.191 21.7202V20.4545H76.9183V21.7202H74.8004V27H73.3089V21.7202H71.191ZM80.7748 27.1278C80.1186 27.1278 79.5518 26.9915 79.0745 26.7188C78.6001 26.4432 78.235 26.054 77.9794 25.5511C77.7237 25.0455 77.5958 24.4503 77.5958 23.7656C77.5958 23.0923 77.7237 22.5014 77.9794 21.9929C78.2379 21.4815 78.5987 21.0838 79.0617 20.7997C79.5248 20.5128 80.0688 20.3693 80.6938 20.3693C81.0973 20.3693 81.4779 20.4347 81.8359 20.5653C82.1967 20.6932 82.5149 20.892 82.7904 21.1619C83.0688 21.4318 83.2876 21.7756 83.4467 22.1932C83.6058 22.608 83.6853 23.1023 83.6853 23.6761V24.1491H78.3203V23.1094H82.2066C82.2038 22.8139 82.1399 22.5511 82.0149 22.321C81.8899 22.0881 81.7152 21.9048 81.4907 21.7713C81.2691 21.6378 81.0106 21.571 80.7152 21.571C80.3998 21.571 80.1228 21.6477 79.8842 21.8011C79.6456 21.9517 79.4595 22.1506 79.326 22.3977C79.1953 22.642 79.1285 22.9105 79.1257 23.2031V24.1108C79.1257 24.4915 79.1953 24.8182 79.3345 25.0909C79.4737 25.3608 79.6683 25.5682 79.9183 25.7131C80.1683 25.8551 80.4609 25.9261 80.7961 25.9261C81.0206 25.9261 81.2237 25.8949 81.4055 25.8324C81.5873 25.767 81.745 25.6719 81.8785 25.5469C82.012 25.4219 82.1129 25.267 82.1811 25.0824L83.6214 25.2443C83.5305 25.625 83.3572 25.9574 83.1015 26.2415C82.8487 26.5227 82.5248 26.7415 82.1299 26.8977C81.735 27.0511 81.2833 27.1278 80.7748 27.1278ZM84.9904 29.4545V20.4545H86.5074V21.5369H86.5969C86.6764 21.3778 86.7887 21.2088 86.9335 21.0298C87.0784 20.848 87.2745 20.6932 87.5216 20.5653C87.7688 20.4347 88.0841 20.3693 88.4676 20.3693C88.9733 20.3693 89.4293 20.4986 89.8355 20.7571C90.2446 21.0128 90.5685 21.392 90.8071 21.8949C91.0486 22.3949 91.1693 23.0085 91.1693 23.7358C91.1693 24.4545 91.0514 25.0653 90.8157 25.5682C90.5799 26.071 90.2588 26.4545 89.8526 26.7188C89.4463 26.983 88.9861 27.1151 88.4719 27.1151C88.0969 27.1151 87.7858 27.0526 87.5387 26.9276C87.2915 26.8026 87.0926 26.652 86.9421 26.4759C86.7943 26.2969 86.6793 26.1278 86.5969 25.9688H86.533V29.4545H84.9904ZM86.5032 23.7273C86.5032 24.1506 86.5628 24.5213 86.6821 24.8395C86.8043 25.1577 86.979 25.4062 87.2063 25.5852C87.4364 25.7614 87.7148 25.8494 88.0415 25.8494C88.3824 25.8494 88.6679 25.7585 88.898 25.5767C89.1282 25.392 89.3014 25.1406 89.4179 24.8224C89.5372 24.5014 89.5969 24.1364 89.5969 23.7273C89.5969 23.321 89.5387 22.9602 89.4222 22.6449C89.3057 22.3295 89.1324 22.0824 88.9023 21.9034C88.6722 21.7244 88.3853 21.6349 88.0415 21.6349C87.712 21.6349 87.4321 21.7216 87.202 21.8949C86.9719 22.0682 86.7972 22.3111 86.6779 22.6236C86.5614 22.9361 86.5032 23.304 86.5032 23.7273ZM93.9776 24.9119L96.5983 20.4545H98.1835V27H96.6921V22.5384L94.0799 27H92.4904V20.4545H93.9776V24.9119ZM104.263 23.0881V24.3537H100.778V23.0881H104.263ZM101.255 20.4545V27H99.7677V20.4545H101.255ZM105.273 20.4545V27H103.79V20.4545H105.273ZM108.718 27.1321C108.303 27.1321 107.929 27.0582 107.597 26.9105C107.267 26.7599 107.006 26.5384 106.813 26.2457C106.622 25.9531 106.527 25.5923 106.527 25.1634C106.527 24.794 106.595 24.4886 106.732 24.2472C106.868 24.0057 107.054 23.8125 107.29 23.6676C107.526 23.5227 107.792 23.4134 108.087 23.3395C108.385 23.2628 108.693 23.2074 109.012 23.1733C109.395 23.1335 109.706 23.098 109.945 23.0668C110.184 23.0327 110.357 22.9815 110.465 22.9134C110.576 22.8423 110.631 22.733 110.631 22.5852V22.5597C110.631 22.2386 110.536 21.9901 110.345 21.8139C110.155 21.6378 109.881 21.5497 109.523 21.5497C109.145 21.5497 108.845 21.6321 108.624 21.7969C108.405 21.9616 108.257 22.1562 108.181 22.3807L106.74 22.1761C106.854 21.7784 107.042 21.446 107.303 21.179C107.564 20.9091 107.884 20.7074 108.262 20.5739C108.64 20.4375 109.057 20.3693 109.515 20.3693C109.83 20.3693 110.144 20.4062 110.456 20.4801C110.769 20.554 111.054 20.6761 111.313 20.8466C111.571 21.0142 111.779 21.2429 111.935 21.5327C112.094 21.8224 112.174 22.1847 112.174 22.6193V27H110.691V26.1009H110.64C110.546 26.2827 110.414 26.4531 110.243 26.6122C110.076 26.7685 109.864 26.8949 109.608 26.9915C109.355 27.0852 109.059 27.1321 108.718 27.1321ZM109.118 25.9986C109.428 25.9986 109.696 25.9375 109.924 25.8153C110.151 25.6903 110.326 25.5256 110.448 25.321C110.573 25.1165 110.635 24.8935 110.635 24.652V23.8807C110.587 23.9205 110.505 23.9574 110.388 23.9915C110.274 24.0256 110.147 24.0554 110.005 24.081C109.863 24.1065 109.722 24.1293 109.583 24.1491C109.443 24.169 109.323 24.1861 109.22 24.2003C108.99 24.2315 108.784 24.2827 108.603 24.3537C108.421 24.4247 108.277 24.5241 108.172 24.652C108.067 24.777 108.015 24.9389 108.015 25.1378C108.015 25.4219 108.118 25.6364 108.326 25.7812C108.533 25.9261 108.797 25.9986 109.118 25.9986ZM113.725 29.4545V20.4545H115.242V21.5369H115.331C115.411 21.3778 115.523 21.2088 115.668 21.0298C115.813 20.848 116.009 20.6932 116.256 20.5653C116.503 20.4347 116.818 20.3693 117.202 20.3693C117.708 20.3693 118.164 20.4986 118.57 20.7571C118.979 21.0128 119.303 21.392 119.542 21.8949C119.783 22.3949 119.904 23.0085 119.904 23.7358C119.904 24.4545 119.786 25.0653 119.55 25.5682C119.314 26.071 118.993 26.4545 118.587 26.7188C118.181 26.983 117.72 27.1151 117.206 27.1151C116.831 27.1151 116.52 27.0526 116.273 26.9276C116.026 26.8026 115.827 26.652 115.676 26.4759C115.529 26.2969 115.414 26.1278 115.331 25.9688H115.267V29.4545H113.725ZM115.238 23.7273C115.238 24.1506 115.297 24.5213 115.417 24.8395C115.539 25.1577 115.713 25.4062 115.941 25.5852C116.171 25.7614 116.449 25.8494 116.776 25.8494C117.117 25.8494 117.402 25.7585 117.632 25.5767C117.863 25.392 118.036 25.1406 118.152 24.8224C118.272 24.5014 118.331 24.1364 118.331 23.7273C118.331 23.321 118.273 22.9602 118.157 22.6449C118.04 22.3295 117.867 22.0824 117.637 21.9034C117.407 21.7244 117.12 21.6349 116.776 21.6349C116.446 21.6349 116.167 21.7216 115.936 21.8949C115.706 22.0682 115.532 22.3111 115.412 22.6236C115.296 22.9361 115.238 23.304 115.238 23.7273ZM125.72 23.0881V24.3537H122.235V23.0881H125.72ZM122.712 20.4545V27H121.225V20.4545H122.712ZM126.73 20.4545V27H125.247V20.4545H126.73ZM129.335 22.5852H131.266C132.101 22.5852 132.747 22.7884 133.205 23.1946C133.662 23.6009 133.892 24.1335 133.895 24.7926C133.892 25.2216 133.787 25.6023 133.58 25.9347C133.375 26.267 133.077 26.5284 132.685 26.7188C132.295 26.9062 131.822 27 131.266 27H128.291V20.4545H129.778V25.7344H131.266C131.601 25.7344 131.876 25.6491 132.092 25.4787C132.308 25.3054 132.416 25.0838 132.416 24.8139C132.416 24.5298 132.308 24.2983 132.092 24.1193C131.876 23.9403 131.601 23.8509 131.266 23.8509H129.335V22.5852ZM134.709 27V20.4545H136.251V27H134.709ZM139.103 20.4545L140.424 22.8707L141.767 20.4545H143.399L141.426 23.7273L143.433 27H141.809L140.424 24.6435L139.052 27H137.416L139.41 23.7273L137.467 20.4545H139.103ZM148.527 29.4545C148.317 29.4545 148.122 29.4375 147.943 29.4034C147.767 29.3722 147.627 29.3352 147.522 29.2926L147.88 28.0909C148.104 28.1563 148.304 28.1875 148.48 28.1847C148.657 28.1818 148.811 28.1264 148.945 28.0185C149.081 27.9134 149.196 27.7372 149.29 27.4901L149.422 27.1364L147.049 20.4545H148.685L150.193 25.3977H150.262L151.774 20.4545H153.415L150.794 27.7926C150.672 28.1392 150.51 28.4361 150.309 28.6832C150.107 28.9332 149.86 29.1236 149.567 29.2543C149.277 29.3878 148.931 29.4545 148.527 29.4545ZM157.115 27.1278C156.462 27.1278 155.901 26.9844 155.432 26.6974C154.966 26.4105 154.606 26.0142 154.354 25.5085C154.104 25 153.979 24.4148 153.979 23.7528C153.979 23.0881 154.106 22.5014 154.362 21.9929C154.618 21.4815 154.979 21.0838 155.445 20.7997C155.913 20.5128 156.467 20.3693 157.106 20.3693C157.638 20.3693 158.108 20.4673 158.517 20.6634C158.929 20.8565 159.257 21.1307 159.501 21.4858C159.746 21.8381 159.885 22.25 159.919 22.7216H158.445C158.385 22.4062 158.243 22.1435 158.018 21.9332C157.797 21.7202 157.5 21.6136 157.128 21.6136C156.812 21.6136 156.535 21.6989 156.297 21.8693C156.058 22.0369 155.872 22.2784 155.739 22.5938C155.608 22.9091 155.543 23.2869 155.543 23.7273C155.543 24.1733 155.608 24.5568 155.739 24.8778C155.869 25.196 156.053 25.4418 156.288 25.6151C156.527 25.7855 156.807 25.8707 157.128 25.8707C157.355 25.8707 157.558 25.8281 157.737 25.7429C157.919 25.6548 158.071 25.5284 158.193 25.3636C158.315 25.1989 158.399 24.9986 158.445 24.7628H159.919C159.882 25.2259 159.746 25.6364 159.51 25.9943C159.274 26.3494 158.953 26.6278 158.547 26.8295C158.141 27.0284 157.663 27.1278 157.115 27.1278ZM160.734 27L160.725 25.7301H160.951C161.122 25.7301 161.265 25.6918 161.382 25.6151C161.498 25.5384 161.595 25.4105 161.671 25.2315C161.748 25.0497 161.808 24.8054 161.85 24.4986C161.893 24.1918 161.923 23.8097 161.94 23.3523L162.055 20.4545H166.828V27H165.336V21.7202H163.457L163.355 23.8295C163.329 24.375 163.268 24.848 163.171 25.2486C163.078 25.6463 162.944 25.9744 162.771 26.233C162.6 26.4915 162.386 26.6847 162.127 26.8125C161.869 26.9375 161.564 27 161.211 27H160.734ZM169.105 29.4545C168.895 29.4545 168.701 29.4375 168.522 29.4034C168.345 29.3722 168.205 29.3352 168.1 29.2926L168.458 28.0909C168.682 28.1563 168.882 28.1875 169.059 28.1847C169.235 28.1818 169.39 28.1264 169.523 28.0185C169.659 27.9134 169.774 27.7372 169.868 27.4901L170 27.1364L167.627 20.4545H169.263L170.772 25.3977H170.84L172.353 20.4545H173.993L171.372 27.7926C171.25 28.1392 171.088 28.4361 170.887 28.6832C170.685 28.9332 170.438 29.1236 170.145 29.2543C169.855 29.3878 169.509 29.4545 169.105 29.4545ZM179.39 20.4545V21.7202H176.569V27H175.061V20.4545H179.39Z" fill="#222222"/>
<defs>
<linearGradient id="paint0_linear_228_10" x1="14.7296" y1="7.10816" x2="37.4304" y2="7.10816" gradientUnits="userSpaceOnUse">
<stop stop-color="#F4AB62"/>
<stop offset="1" stop-color="#B88151"/>
</linearGradient>
</defs>
</svg>
