<svg width="100" height="102" viewBox="0 0 100 102" fill="none" xmlns="http://www.w3.org/2000/svg">
<g clip-path="url(#clip0_218_3)">
<path fill-rule="evenodd" clip-rule="evenodd" d="M66.8998 68.7612C65.9342 68.4234 64.9878 68.0305 64.0652 67.5844C62.0967 67.0412 60.0002 67.8157 57.9431 67.5844C57.1733 68.7643 56.2267 69.8131 55.138 70.6925C54.993 70.796 54.8418 70.8901 54.6853 70.9742C54.2641 71.2698 53.7887 71.4751 53.2876 71.5777C52.9825 71.4469 53.3762 71.2457 53.9569 71.0647C54.0947 70.783 54.2227 70.4913 54.3408 70.1896C56.3093 64.8887 54.951 56.4494 56.4766 53.7537C57.9628 53.0898 54.4491 52.4863 57.9924 52.9289C59.0554 53.0596 59.1341 53.5626 60.7286 53.4318C62.077 53.3212 61.9589 52.9691 63.5632 53.2407C63.6814 54.156 63.2188 54.4075 62.8251 55.1217C64.4786 57.6766 69.3605 60.5232 70.0888 64.5366C70.4432 66.4679 69.4195 68.0772 66.8998 68.7612Z" fill="#0064B0"/>
<mask id="mask0_218_3" style="mask-type:luminance" maskUnits="userSpaceOnUse" x="18" y="13" width="34" height="39">
<path d="M50.8757 25.9113L51.6532 27.923C45.7477 33.2541 41.5647 41.9347 43.4052 49.8107C42.795 50.4343 43.6907 50.0823 42.6769 49.9817C38.4151 42.9406 31.0036 44.8819 28.9859 51.6615C24.3107 52.7378 15.3835 47.2256 19.3796 42.0655L30.4032 33.8476C32.1749 31.9465 36.9977 26.374 38.6119 25.0563L39.9899 23.7587C38.9356 21.7146 38.6352 19.3514 39.1434 17.0998C39.6552 17.4217 39.3403 17.1602 39.7536 17.6531C39.8127 17.7335 40.1572 18.2868 40.2654 18.4477L42.106 21.5156C42.6769 22.5215 42.5194 22.5215 43.7595 22.4511C43.4625 19.3781 43.5784 16.2781 44.104 13.2373C44.7733 15.4502 46.1906 17.4116 47.3127 19.6044C47.982 20.892 50.1572 25.2474 50.8757 25.9515" fill="white"/>
</mask>
<g mask="url(#mask0_218_3)">
<path d="M51.6535 13.1973H15.3838V52.6977H51.6535V13.1973Z" fill="url(#paint0_linear_218_3)"/>
</g>
<mask id="mask1_218_3" style="mask-type:luminance" maskUnits="userSpaceOnUse" x="48" y="17" width="34" height="37">
<path d="M49.6946 27.4299L48.917 29.4416C53.8383 33.7568 57.4111 44.0066 57.165 51.3293C57.7753 51.953 56.3776 51.7417 57.3914 51.6412C60.8855 46.5012 67.3028 52.1944 71.5843 53.1801C76.2595 54.2564 84.1237 50.1625 80.1178 45.0024L70.167 35.3662C68.3953 33.4651 63.5725 27.8926 61.9583 26.5749L60.5804 25.2773C61.4225 24.1279 62.0315 22.8181 62.3717 21.4248C62.6079 19.7048 61.8796 17.4718 60.3048 19.9664L58.4642 23.0342C57.8934 24.0401 58.0508 24.0401 56.8107 23.9697C56.9386 23.0342 59.0745 20.7811 58.3264 18.2564C57.9623 16.7576 55.2064 18.2564 54.606 19.6847C54.5568 19.7853 50.1178 27.0577 49.6847 27.4701" fill="white"/>
</mask>
<g mask="url(#mask1_218_3)">
<path d="M84.1237 16.7075H48.917V54.2063H84.1237V16.7075Z" fill="url(#paint1_linear_218_3)"/>
</g>
<mask id="mask2_218_3" style="mask-type:luminance" maskUnits="userSpaceOnUse" x="33" y="29" width="25" height="37">
<path d="M55.3342 65.1801C55.3342 64.8582 56.5547 57.6562 57.3716 53.7132C57.8243 51.5707 57.2633 49.1063 56.8204 46.2597C55.8362 39.8423 52.8243 32.7911 48.9464 29.4014L41.3283 41.1499C39.9897 43.222 38.8578 44.8917 37.5684 46.9337C36.6432 48.4123 34.2515 51.7115 33.8086 53.16C35.8952 52.5766 37.1944 51.0074 41.3283 51.1483C45.2653 51.2891 48.2181 53.341 49.5074 56.9521C50.0389 58.4609 50.7082 58.2396 51.6925 59.4366C52.9425 60.9655 52.2043 61.7401 53.0409 62.7459L55.3342 65.1801Z" fill="white"/>
</mask>
<g mask="url(#mask2_218_3)">
<path d="M57.8246 29.4014H33.7793V65.1701H57.8246V29.4014Z" fill="url(#paint2_linear_218_3)"/>
</g>
<mask id="mask3_218_3" style="mask-type:luminance" maskUnits="userSpaceOnUse" x="27" y="54" width="27" height="27">
<path d="M49.518 80.8116C50.1086 79.1921 53.0417 72.0806 53.9275 71.0647C51.2306 71.8694 48.3566 69.4553 46.398 68.4394C42.8448 66.5886 41.6047 67.4335 38.3173 68.6104C38.1839 67.3841 38.3354 66.1429 38.7595 64.9876C39.1837 63.8324 39.8684 62.7956 40.7582 61.9616L42.5397 60.8954L42.707 60.7847C42.7657 60.7489 42.8217 60.7086 42.8744 60.664C42.8153 60.664 42.7267 60.493 42.6972 60.5433L41.3586 59.7688C39.3901 58.5014 40.6401 57.3849 44.3114 57.7571C43.3271 54.317 37.0673 54.0454 33.8881 55.2022C31.8212 55.9566 31.2995 56.6607 30.2366 58.4914C29.4885 59.7587 28.081 61.7001 27.707 63.1787L44.1539 76.255C44.8625 76.8082 49.1539 79.9365 49.5377 80.8217" fill="white"/>
</mask>
<g mask="url(#mask3_218_3)">
<path d="M53.967 54.0352H27.6875V80.8114H53.967V54.0352Z" fill="url(#paint3_linear_218_3)"/>
</g>
<path fill-rule="evenodd" clip-rule="evenodd" d="M49.961 27.8626C49.961 27.7821 50.1873 27.3496 50.1972 27.3395C50.3842 26.6757 50.3251 27.0579 50.0791 26.907C46.1421 27.6212 43.1893 27.0479 39.4984 26.5449C39.4492 29.2205 45.02 32.7813 48.9866 28.9992C49.3114 28.6874 49.774 27.9934 49.9708 27.8626" fill="white"/>
<mask id="mask4_218_3" style="mask-type:luminance" maskUnits="userSpaceOnUse" x="63" y="26" width="12" height="5">
<path d="M64.0161 27.8626C64.0161 27.7821 63.7898 27.3496 63.7799 27.3395C63.5929 26.6757 63.6421 27.0579 63.898 26.907C67.835 27.6212 70.7878 27.0479 74.4787 26.5449C74.528 29.2205 68.9571 32.7813 64.9905 28.9992C64.6657 28.6874 64.2031 27.9934 64.0063 27.8626" fill="white"/>
</mask>
<g mask="url(#mask4_218_3)">
<path d="M74.518 26.5449H63.583V32.7813H74.518V26.5449Z" fill="url(#paint4_linear_218_3)"/>
</g>
<mask id="mask5_218_3" style="mask-type:luminance" maskUnits="userSpaceOnUse" x="52" y="10" width="48" height="91">
<path d="M82.8741 12.8045C93.1398 22.0284 99.2717 34.4609 99.6064 50.7861C100.01 71.3763 80.6792 97.5792 56.4961 100.989L53.1005 95.1349L52.1162 93.5456C60.2494 93.1773 68.114 90.4608 74.7981 85.711C81.4823 80.9612 86.7123 74.3726 89.8819 66.7091C92.1273 61.6982 93.2761 56.2471 93.2481 50.7359V50.585C93.2481 50.253 93.2481 49.9211 93.2481 49.5791C93.2466 41.8328 91.2433 34.2243 87.4411 27.5231C83.6388 20.8219 78.1723 15.2657 71.5946 11.4164C76.191 9.34435 79.193 9.50528 82.8544 12.7945" fill="white"/>
</mask>
<g mask="url(#mask5_218_3)">
<path d="M100 9.35449H52.0869V100.989H100V9.35449Z" fill="url(#paint5_linear_218_3)"/>
</g>
<mask id="mask6_218_3" style="mask-type:luminance" maskUnits="userSpaceOnUse" x="-1" y="0" width="70" height="102">
<path d="M49.6461 3.52186e-05C55.9684 -0.00759627 62.2333 1.22509 68.1009 3.63121C62.9513 5.86355 57.3448 6.77187 51.7721 6.27665C51.0635 6.27665 50.3548 6.20626 49.6461 6.20626C41.1243 6.20549 32.7893 8.75854 25.6727 13.5494C18.5562 18.3403 12.9705 25.1586 9.60697 33.1606C6.24347 41.1625 5.24984 49.9968 6.74905 58.57C8.24826 67.1432 12.1745 75.0789 18.0418 81.395C25.0595 88.949 29.3213 82.8535 27.343 77.3715C25.6205 74.4343 20.4532 75.5006 18.7308 77.9951C17.7465 71.3161 23.5241 67.2725 31.2013 72.7747C33.8784 74.6959 38.3272 83.5475 31.8509 88.9188C41.2111 92.3388 44.1146 96.3622 46.7131 101.251C45.6545 101.326 44.5909 101.276 43.5438 101.1C30.9979 99.5172 19.5153 93.103 11.4378 83.1657C3.36034 73.2284 -0.703629 60.5163 0.0747415 47.6221C0.853112 34.7278 6.4152 22.6227 15.6266 13.7754C24.8381 4.92802 37.005 0.00492316 49.6461 0.0101037" fill="white"/>
</mask>
<g mask="url(#mask6_218_3)">
<path d="M68.1004 0H0V101.351H68.1004V0Z" fill="url(#paint6_linear_218_3)"/>
</g>
</g>
<defs>
<linearGradient id="paint0_linear_218_3" x1="39.9114" y1="17.3817" x2="19.7025" y2="64.4748" gradientUnits="userSpaceOnUse">
<stop stop-color="#E8AD81"/>
<stop offset="1" stop-color="#E87D24"/>
</linearGradient>
<linearGradient id="paint1_linear_218_3" x1="68.6512" y1="19.353" x2="62.7041" y2="62.3195" gradientUnits="userSpaceOnUse">
<stop stop-color="#00A9A0"/>
<stop offset="1" stop-color="#0065B0"/>
</linearGradient>
<linearGradient id="paint2_linear_218_3" x1="42.9919" y1="52.1742" x2="52.4036" y2="36.5004" gradientUnits="userSpaceOnUse">
<stop stop-color="#77A841"/>
<stop offset="1" stop-color="#CBE2A5"/>
</linearGradient>
<linearGradient id="paint3_linear_218_3" x1="40.4828" y1="68.0067" x2="51.0812" y2="50.5863" gradientUnits="userSpaceOnUse">
<stop stop-color="#7CA930"/>
<stop offset="1" stop-color="#E0ECC3"/>
</linearGradient>
<linearGradient id="paint4_linear_218_3" x1="70.3842" y1="19.5944" x2="64.4371" y2="62.5609" gradientUnits="userSpaceOnUse">
<stop stop-color="#00A89F"/>
<stop offset="1" stop-color="#191D5B"/>
</linearGradient>
<linearGradient id="paint5_linear_218_3" x1="59.705" y1="98.897" x2="89.4301" y2="22.7305" gradientUnits="userSpaceOnUse">
<stop stop-color="#7FAB47"/>
<stop offset="1" stop-color="#A9D6A6"/>
</linearGradient>
<linearGradient id="paint6_linear_218_3" x1="52.5984" y1="-1.47863" x2="20.0062" y2="86.2815" gradientUnits="userSpaceOnUse">
<stop stop-color="#00AAA0"/>
<stop offset="1" stop-color="#0065B0"/>
</linearGradient>
<clipPath id="clip0_218_3">
<rect width="100" height="101.351" fill="white"/>
</clipPath>
</defs>
</svg>
