<svg width="18" height="17" viewBox="0 0 18 17" fill="none" xmlns="http://www.w3.org/2000/svg">
<path d="M9.0002 5.1665C9.88425 5.1665 10.7321 5.51769 11.3572 6.14281C11.9823 6.76794 12.3335 7.61578 12.3335 8.49984C12.3335 9.38389 11.9823 10.2317 11.3572 10.8569C10.7321 11.482 9.88425 11.8332 9.0002 11.8332C8.11614 11.8332 7.26829 11.482 6.64317 10.8569C6.01805 10.2317 5.66686 9.38389 5.66686 8.49984C5.66686 7.61578 6.01805 6.76794 6.64317 6.14281C7.26829 5.51769 8.11614 5.1665 9.0002 5.1665ZM9.0002 6.83317C8.55817 6.83317 8.13424 7.00877 7.82168 7.32133C7.50912 7.63389 7.33353 8.05781 7.33353 8.49984C7.33353 8.94186 7.50912 9.36579 7.82168 9.67835C8.13424 9.99091 8.55817 10.1665 9.0002 10.1665C9.44222 10.1665 9.86615 9.99091 10.1787 9.67835C10.4913 9.36579 10.6669 8.94186 10.6669 8.49984C10.6669 8.05781 10.4913 7.63389 10.1787 7.32133C9.86615 7.00877 9.44222 6.83317 9.0002 6.83317ZM7.33353 16.8332C7.1252 16.8332 6.9502 16.6832 6.91686 16.4832L6.60853 14.2748C6.08353 14.0665 5.63353 13.7832 5.2002 13.4498L3.1252 14.2915C2.94186 14.3582 2.71686 14.2915 2.61686 14.1082L0.950195 11.2248C0.899192 11.139 0.881211 11.0375 0.899616 10.9393C0.918021 10.8412 0.971551 10.7531 1.0502 10.6915L2.80853 9.30817L2.7502 8.49984L2.80853 7.6665L1.0502 6.30817C0.971551 6.24662 0.918021 6.15852 0.899616 6.06036C0.881211 5.9622 0.899192 5.8607 0.950195 5.77484L2.61686 2.8915C2.71686 2.70817 2.94186 2.63317 3.1252 2.70817L5.2002 3.5415C5.63353 3.2165 6.08353 2.93317 6.60853 2.72484L6.91686 0.516504C6.9502 0.316504 7.1252 0.166504 7.33353 0.166504H10.6669C10.8752 0.166504 11.0502 0.316504 11.0835 0.516504L11.3919 2.72484C11.9169 2.93317 12.3669 3.2165 12.8002 3.5415L14.8752 2.70817C15.0585 2.63317 15.2835 2.70817 15.3835 2.8915L17.0502 5.77484C17.1585 5.95817 17.1085 6.18317 16.9502 6.30817L15.1919 7.6665L15.2502 8.49984L15.1919 9.33317L16.9502 10.6915C17.1085 10.8165 17.1585 11.0415 17.0502 11.2248L15.3835 14.1082C15.2835 14.2915 15.0585 14.3665 14.8752 14.2915L12.8002 13.4582C12.3669 13.7832 11.9169 14.0665 11.3919 14.2748L11.0835 16.4832C11.0502 16.6832 10.8752 16.8332 10.6669 16.8332H7.33353ZM8.3752 1.83317L8.06686 4.00817C7.06686 4.2165 6.18353 4.74984 5.54186 5.4915L3.53353 4.62484L2.90853 5.70817L4.66686 6.99984C4.33353 7.97206 4.33353 9.02761 4.66686 9.99984L2.9002 11.2998L3.5252 12.3832L5.5502 11.5165C6.19186 12.2498 7.06686 12.7832 8.05853 12.9832L8.36686 15.1665H9.63353L9.94186 12.9915C10.9335 12.7832 11.8085 12.2498 12.4502 11.5165L14.4752 12.3832L15.1002 11.2998L13.3335 10.0082C13.6669 9.03317 13.6669 7.97484 13.3335 6.99984L15.0919 5.70817L14.4669 4.62484L12.4585 5.4915C11.8037 4.73344 10.9155 4.21457 9.93353 4.0165L9.6252 1.83317H8.3752Z" fill="#17B9DA"/>
</svg>
