<svg width="189" height="189" viewBox="0 0 189 189" fill="none" xmlns="http://www.w3.org/2000/svg">
<path d="M183.64 102.676L146.159 167.594C143.229 172.668 137.815 175.794 131.956 175.794L56.9945 175.794C51.1355 175.794 45.7216 172.668 42.7921 167.594L5.31121 102.676C2.38169 97.6015 2.38171 91.35 5.31121 86.2759L42.7921 21.3571C45.7216 16.2831 51.1356 13.1573 56.9946 13.1573L131.956 13.1573C137.815 13.1573 143.229 16.2831 146.159 21.3571L183.64 86.2759C186.569 91.35 186.569 97.6015 183.64 102.676Z" fill="white" fill-opacity="0.7" stroke="white"/>
<g clip-path="url(#clip0_248_315)">
<path fill-rule="evenodd" clip-rule="evenodd" d="M106.253 92.0925C105.95 92.059 104.665 91.4484 104.25 91.2799C102.846 90.9055 101.382 91.4362 99.9253 91.2816C100.055 91.3025 98.8552 92.6927 97.9431 93.4263C97.8938 93.4658 97.7739 93.54 97.6254 93.6241C97.2669 93.827 96.7399 94.0852 96.6386 94.04C96.4253 93.9451 96.6994 93.8071 97.1136 93.6855C97.2105 93.4907 97.2989 93.2882 97.3793 93.0782C98.7847 89.4137 97.8144 83.5847 98.8923 81.7185C99.9436 81.2587 97.461 80.8435 99.9628 81.1483C100.714 81.2395 100.766 81.5889 101.897 81.4967C102.846 81.4191 102.761 81.1791 103.895 81.3664C103.976 82.0001 103.651 82.1716 103.373 82.6641C104.546 84.434 107.988 86.3974 108.508 89.1707C108.759 90.5082 108.03 91.6209 106.253 92.0925Z" fill="#176BB3"/>
<path fill-rule="evenodd" clip-rule="evenodd" d="M94.9371 62.4784L95.4854 63.8436C91.3341 67.5283 88.3566 73.5211 89.6614 78.9687C89.2303 79.3984 89.8606 79.1574 89.1442 79.0885C86.136 74.1892 80.8974 75.5621 79.4748 80.2471C76.1729 80.9912 69.8655 77.1822 72.6924 73.6126L80.4757 67.9344C81.7282 66.6236 85.1344 62.7687 86.2758 61.8613L87.2463 60.965C87.0114 60.5029 86.1927 59.0857 86.6488 56.3634C87.0127 56.5839 86.7906 56.4029 87.0772 56.7418C87.1231 56.7962 87.3662 57.181 87.4394 57.2948L88.7418 59.4091C89.1452 60.117 89.0331 60.1109 89.9098 60.0616C89.7367 58.8207 89.7016 56.9491 90.1485 53.6904C90.6262 55.217 91.6261 56.5758 92.4205 58.0915C92.888 58.9827 94.4271 61.9913 94.9368 62.4787L94.9371 62.4784Z" fill="url(#paint0_linear_248_315)"/>
<path fill-rule="evenodd" clip-rule="evenodd" d="M94.1 63.5277L93.5518 64.8925C97.0623 67.87 99.552 74.9583 99.3758 80.0176C99.8068 80.4474 98.8221 80.2988 99.5385 80.23C102.007 76.6789 106.538 80.6145 109.562 81.2957C112.865 82.0398 118.418 79.2115 115.591 75.6419L108.561 68.983C107.309 67.6725 103.902 63.8177 102.761 62.9099L101.791 62.0136C101.942 61.7152 102.881 60.5627 103.054 59.3457C103.223 58.1604 102.708 56.616 101.597 58.3434L100.295 60.4577C99.8919 61.1656 100.004 61.1595 99.1273 61.1102C99.2181 60.4594 100.728 58.9072 100.199 57.1568C99.9432 56.1208 97.9917 57.1733 97.567 58.1459C97.5366 58.2158 94.3984 63.2418 94.1 63.5273V63.5277Z" fill="url(#paint1_linear_248_315)"/>
<path fill-rule="evenodd" clip-rule="evenodd" d="M98.0861 89.6142C98.0554 89.3961 98.9486 84.416 99.5259 81.6921C99.8399 80.2094 99.4479 78.5063 99.1374 76.5406C98.4365 72.1054 96.3087 67.231 93.552 64.8926L88.1689 73.0077C87.2257 74.4425 86.429 75.5963 85.5186 77.0078C84.8616 78.0269 83.1697 80.3063 82.8584 81.3083C84.3343 80.9035 85.2478 79.8219 88.1686 79.9248C90.9651 80.0234 93.0609 81.4423 93.9497 83.9377C94.3214 84.9815 94.7954 84.8299 95.4915 85.6577C96.3773 86.7113 95.851 87.2494 96.4455 87.9438L98.0861 89.6138V89.6142Z" fill="url(#paint2_linear_248_315)"/>
<path fill-rule="evenodd" clip-rule="evenodd" d="M93.9732 100.422L93.9941 100.421C94.4147 99.3028 96.4841 94.3889 97.113 93.6861C95.2091 94.2424 93.1765 92.5741 91.7937 91.8702C89.2804 90.5908 88.4041 91.1495 86.0828 91.9914C85.8668 90.3501 86.5909 88.3914 87.8069 87.3946L89.0708 86.6559C89.1035 86.636 89.1619 86.5952 89.1883 86.5786C89.2146 86.5621 89.2676 86.5283 89.3041 86.4993C89.2656 86.4682 89.2028 86.3784 89.1825 86.4152L88.2346 85.8771C86.8623 85.0024 87.7262 84.2267 90.2861 84.4778C89.5586 82.0996 85.1714 81.9169 82.9217 82.716C81.4617 83.2345 81.095 83.726 80.3409 84.9845C79.8149 85.8626 78.8207 87.2079 78.5537 88.2253L90.174 97.2682C90.6747 97.647 93.7035 99.8065 93.9735 100.423L93.9732 100.422Z" fill="url(#paint3_linear_248_315)"/>
<path fill-rule="evenodd" clip-rule="evenodd" d="M94.291 63.8296C94.3132 63.7688 94.4506 63.471 94.4527 63.4643C94.587 63.0062 94.5485 63.2732 94.374 63.1676C91.6126 63.6594 89.5287 63.2638 86.9016 62.915C86.8668 64.7687 90.7963 67.2283 93.5996 64.609C93.8275 64.3964 94.1569 63.9214 94.291 63.8296Z" fill="#FEFEFE"/>
<path fill-rule="evenodd" clip-rule="evenodd" d="M104.205 63.8296C104.183 63.7688 104.046 63.471 104.044 63.4643C103.909 63.0062 103.948 63.2732 104.122 63.1676C106.884 63.6594 108.968 63.2638 111.595 62.915C111.63 64.7687 107.7 67.2283 104.897 64.609C104.669 64.3964 104.339 63.9214 104.205 63.8296Z" fill="url(#paint4_linear_248_315)"/>
<path fill-rule="evenodd" clip-rule="evenodd" d="M117.533 53.4208C124.783 59.793 129.118 68.3842 129.344 79.6693C129.629 93.8977 115.976 112.011 98.8993 114.367L96.4964 110.318C96.2557 109.939 96.0194 109.575 95.7871 109.224C107.804 108.699 118.012 101.201 122.461 90.6758C123.963 87.3979 124.841 83.7321 124.841 79.6362L124.84 79.5285C124.845 79.3009 124.849 79.0727 124.849 78.8442C124.849 67.5608 118.704 57.7132 109.579 52.4641C112.828 51.0361 114.947 51.1478 117.534 53.4204L117.533 53.4208Z" fill="url(#paint5_linear_248_315)"/>
<path fill-rule="evenodd" clip-rule="evenodd" d="M94.0641 44.5723C98.6705 44.5723 103.069 45.4615 107.098 47.0768C102.933 48.7141 99.9081 49.1762 95.5664 48.9102C95.0688 48.8798 94.5682 48.8592 94.0641 48.8592C77.0665 48.8592 63.2866 62.6387 63.2866 79.6367C63.2866 87.8474 66.5025 95.3067 71.7428 100.824C76.7002 106.045 79.7081 101.831 78.3101 98.0361C77.0982 96.0085 73.4324 96.7407 72.2292 98.4685C71.5152 93.8493 75.6138 91.0558 81.0385 94.8621C82.9306 96.1898 86.0732 102.309 81.4945 106.018C88.1058 108.384 90.158 111.165 91.9924 114.543C91.2109 114.618 90.5313 114.533 89.7539 114.438C72.422 112.313 59 97.5425 59 79.6364C59 60.2709 74.6987 44.5723 94.0641 44.5723Z" fill="url(#paint6_linear_248_315)"/>
</g>
<path d="M62.0987 130.165V128.39H70.4609V130.165H67.3438V138.572H65.2159V130.165H62.0987ZM74.5376 138.721C73.7654 138.721 73.0975 138.557 72.5341 138.229C71.974 137.898 71.5414 137.437 71.2365 136.847C70.9316 136.254 70.7791 135.566 70.7791 134.784C70.7791 133.995 70.9316 133.306 71.2365 132.716C71.5414 132.122 71.974 131.662 72.5341 131.334C73.0975 131.002 73.7654 130.836 74.5376 130.836C75.3099 130.836 75.9761 131.002 76.5362 131.334C77.0997 131.662 77.5339 132.122 77.8388 132.716C78.1437 133.306 78.2962 133.995 78.2962 134.784C78.2962 135.566 78.1437 136.254 77.8388 136.847C77.5339 137.437 77.0997 137.898 76.5362 138.229C75.9761 138.557 75.3099 138.721 74.5376 138.721ZM74.5476 137.081C74.8989 137.081 75.1922 136.981 75.4276 136.782C75.6629 136.58 75.8402 136.305 75.9595 135.957C76.0821 135.609 76.1435 135.213 76.1435 134.769C76.1435 134.325 76.0821 133.929 75.9595 133.581C75.8402 133.233 75.6629 132.958 75.4276 132.756C75.1922 132.553 74.8989 132.452 74.5476 132.452C74.1929 132.452 73.8946 132.553 73.6527 132.756C73.4141 132.958 73.2334 133.233 73.1108 133.581C72.9915 133.929 72.9318 134.325 72.9318 134.769C72.9318 135.213 72.9915 135.609 73.1108 135.957C73.2334 136.305 73.4141 136.58 73.6527 136.782C73.8946 136.981 74.1929 137.081 74.5476 137.081ZM73.0213 129.892C72.7363 129.892 72.491 129.792 72.2855 129.594C72.08 129.391 71.9773 129.153 71.9773 128.878C71.9773 128.596 72.08 128.357 72.2855 128.162C72.491 127.966 72.7363 127.868 73.0213 127.868C73.3097 127.868 73.5533 127.966 73.7521 128.162C73.9543 128.357 74.0554 128.596 74.0554 128.878C74.0554 129.153 73.9543 129.391 73.7521 129.594C73.5533 129.792 73.3097 129.892 73.0213 129.892ZM76.0639 129.892C75.7789 129.892 75.5336 129.792 75.3281 129.594C75.1226 129.391 75.0199 129.153 75.0199 128.878C75.0199 128.596 75.1226 128.357 75.3281 128.162C75.5336 127.966 75.7789 127.868 76.0639 127.868C76.3523 127.868 76.5959 127.966 76.7947 128.162C76.9969 128.357 77.098 128.596 77.098 128.878C77.098 129.153 76.9969 129.391 76.7947 129.594C76.5959 129.792 76.3523 129.892 76.0639 129.892ZM79.6733 138.572V130.936H81.7266V132.268H81.8061C81.9453 131.794 82.179 131.436 82.5071 131.194C82.8352 130.949 83.2131 130.827 83.6406 130.827C83.7467 130.827 83.861 130.833 83.9837 130.846C84.1063 130.86 84.214 130.878 84.3068 130.901V132.78C84.2074 132.751 84.0698 132.724 83.8942 132.701C83.7185 132.678 83.5578 132.666 83.4119 132.666C83.1004 132.666 82.822 132.734 82.5767 132.87C82.3348 133.002 82.1425 133.188 82 133.427C81.8608 133.665 81.7912 133.94 81.7912 134.252V138.572H79.6733ZM89.8464 130.936V132.527H85.2477V130.936H89.8464ZM86.2917 129.106H88.4096V136.226C88.4096 136.421 88.4395 136.574 88.4991 136.683C88.5588 136.789 88.6416 136.864 88.7477 136.907C88.8571 136.95 88.983 136.971 89.1255 136.971C89.225 136.971 89.3244 136.963 89.4238 136.947C89.5233 136.927 89.5995 136.912 89.6525 136.902L89.9856 138.478C89.8796 138.511 89.7304 138.549 89.5382 138.592C89.3459 138.639 89.1123 138.667 88.8372 138.677C88.3268 138.697 87.8793 138.629 87.4949 138.473C87.1137 138.317 86.8171 138.075 86.6049 137.747C86.3928 137.419 86.2884 137.005 86.2917 136.504V129.106ZM94.1183 130.165V128.39H102.48V130.165H99.3633V138.572H97.2354V130.165H94.1183ZM108.004 135.321V130.936H110.122V138.572H108.088V137.185H108.009C107.837 137.633 107.55 137.992 107.149 138.264C106.751 138.536 106.266 138.672 105.692 138.672C105.182 138.672 104.733 138.556 104.345 138.324C103.957 138.092 103.654 137.762 103.435 137.334C103.22 136.907 103.11 136.395 103.107 135.798V130.936H105.225V135.42C105.228 135.871 105.349 136.227 105.588 136.489C105.826 136.751 106.146 136.882 106.547 136.882C106.802 136.882 107.041 136.824 107.263 136.708C107.485 136.589 107.664 136.413 107.8 136.181C107.939 135.949 108.007 135.662 108.004 135.321ZM105.11 129.892C104.825 129.892 104.58 129.792 104.375 129.594C104.169 129.391 104.066 129.153 104.066 128.878C104.066 128.596 104.169 128.357 104.375 128.162C104.58 127.966 104.825 127.868 105.11 127.868C105.399 127.868 105.642 127.966 105.841 128.162C106.043 128.357 106.145 128.596 106.145 128.878C106.145 129.153 106.043 129.391 105.841 129.594C105.642 129.792 105.399 129.892 105.11 129.892ZM108.153 129.892C107.868 129.892 107.623 129.792 107.417 129.594C107.212 129.391 107.109 129.153 107.109 128.878C107.109 128.596 107.212 128.357 107.417 128.162C107.623 127.966 107.868 127.868 108.153 127.868C108.441 127.868 108.685 127.966 108.884 128.162C109.086 128.357 109.187 128.596 109.187 128.878C109.187 129.153 109.086 129.391 108.884 129.594C108.685 129.792 108.441 129.892 108.153 129.892ZM113.934 128.39V138.572H111.816V128.39H113.934ZM115.63 138.572V130.936H117.748V138.572H115.63ZM121.364 136.375L121.369 133.834H121.677L124.123 130.936H126.554L123.268 134.774H122.766L121.364 136.375ZM119.445 138.572V128.39H121.563V138.572H119.445ZM124.218 138.572L121.97 135.246L123.382 133.75L126.698 138.572H124.218Z" fill="black"/>
<defs>
<linearGradient id="paint0_linear_248_315" x1="86.6488" y1="56.3631" x2="72.8889" y2="89.1256" gradientUnits="userSpaceOnUse">
<stop stop-color="#E8B087"/>
<stop offset="1" stop-color="#EA7F17"/>
</linearGradient>
<linearGradient id="paint1_linear_248_315" x1="106.588" y1="57.8249" x2="102.56" y2="87.5451" gradientUnits="userSpaceOnUse">
<stop stop-color="#14ABA2"/>
<stop offset="1" stop-color="#006ABC"/>
</linearGradient>
<linearGradient id="paint2_linear_248_315" x1="88.1686" y1="79.9248" x2="94.608" y2="68.9679" gradientUnits="userSpaceOnUse">
<stop stop-color="#7CAB4C"/>
<stop offset="1" stop-color="#CDE3A7"/>
</linearGradient>
<linearGradient id="paint3_linear_248_315" x1="84.002" y1="89.4339" x2="91.2496" y2="77.2532" gradientUnits="userSpaceOnUse">
<stop stop-color="#7CAA30"/>
<stop offset="1" stop-color="#E1EDC4"/>
</linearGradient>
<linearGradient id="paint4_linear_248_315" x1="106.588" y1="57.8256" x2="102.559" y2="87.5455" gradientUnits="userSpaceOnUse">
<stop stop-color="#14ABA2"/>
<stop offset="1" stop-color="#313363"/>
</linearGradient>
<linearGradient id="paint5_linear_248_315" x1="98.6647" y1="111.969" x2="118.885" y2="59.0274" gradientUnits="userSpaceOnUse">
<stop stop-color="#83AF51"/>
<stop offset="1" stop-color="#ABD7A9"/>
</linearGradient>
<linearGradient id="paint6_linear_248_315" x1="100.701" y1="45.2002" x2="78.5474" y2="106.173" gradientUnits="userSpaceOnUse">
<stop stop-color="#14ADA3"/>
<stop offset="1" stop-color="#006ABC"/>
</linearGradient>
<clipPath id="clip0_248_315">
<rect width="70.3494" height="70" fill="white" transform="translate(59 44.5723)"/>
</clipPath>
</defs>
</svg>
