<svg width="189" height="190" viewBox="0 0 189 190" fill="none" xmlns="http://www.w3.org/2000/svg">
<path d="M183.689 103.151L146.208 168.07C143.279 173.144 137.865 176.27 132.006 176.27L57.0439 176.27C51.1849 176.27 45.7709 173.144 42.8414 168.07L5.36053 103.151C2.43101 98.077 2.43103 91.8256 5.36053 86.7515L42.8414 21.8327C45.7709 16.7587 51.1849 13.6329 57.0439 13.6329L132.006 13.6329C137.865 13.6329 143.279 16.7587 146.208 21.8327L183.689 86.7515C186.618 91.8256 186.618 98.0771 183.689 103.151Z" fill="white" fill-opacity="0.7" stroke="white"/>
<g clip-path="url(#clip0_267_26)">
<path d="M76.8867 54.6318C76.9275 61.3109 76.9469 67.8377 76.9451 74.2124C76.9451 74.3518 76.959 74.4728 76.9868 74.5754C77.046 74.7936 77.1109 74.899 77.1813 74.8917" stroke="#89C8DC" stroke-width="2"/>
<path d="M112.163 54.5078C112.115 54.5426 112.084 54.5885 112.071 54.6453C112.056 54.7223 112.014 54.781 111.943 54.8213L105.222 58.5889" stroke="#0F7CB0" stroke-width="2"/>
<path d="M83.9837 58.6222L76.8867 54.6318" stroke="#159BCF" stroke-width="2"/>
<path d="M84.103 70.8105L77.1812 74.8917" stroke="#0E84A8" stroke-width="2"/>
<path d="M94.5571 76.7617C94.4496 77.0716 94.4663 77.2155 94.6071 77.1935" stroke="#0A75A5" stroke-width="2"/>
<path d="M94.6069 77.1934C94.4495 79.4759 94.4402 81.7447 94.5791 83.9998" stroke="#108FBE" stroke-width="2"/>
<path d="M94.579 84C94.5086 84.3227 94.554 84.5601 94.7151 84.7123" stroke="#0A75A5" stroke-width="2"/>
<path d="M94.5791 83.9998L94.6069 77.1934" stroke="#118CCD" stroke-width="2"/>
<path d="M99.3334 61.9111L94.9707 64.4935" stroke="#0F7CB0" stroke-width="2"/>
<path d="M94.9709 64.4932C94.9338 64.5518 94.8328 64.6087 94.668 64.6637" stroke="#118CCD" stroke-width="2"/>
<path d="M94.6681 64.6635C94.4514 64.603 94.2096 64.6167 94.0123 64.4875C91.9912 63.1912 89.8794 61.9858 87.6768 60.8711" stroke="#159BCF" stroke-width="2"/>
<path d="M101.551 68.3763L95.0707 64.6994C95.0263 64.6756 95.0013 64.638 94.9957 64.5867C94.992 64.561 94.9837 64.5298 94.9707 64.4932" stroke="#086298" stroke-width="2"/>
<path d="M94.6679 64.6641L94.5596 72.0425" stroke="#0E81B7" stroke-width="2"/>
<path d="M94.5598 72.0427L94.5043 65.3353C94.5035 65.2901 94.4911 65.2458 94.4681 65.2068C94.4451 65.1678 94.4124 65.1353 94.3732 65.1126C94.334 65.0899 94.2897 65.0777 94.2444 65.0772C94.1992 65.0767 94.1547 65.0879 94.1152 65.1098L87.8047 68.6106" stroke="#0E84A8" stroke-width="2"/>
<path d="M94.5679 72.46C94.6531 72.2088 94.6503 72.0695 94.5596 72.042" stroke="#0A75A5" stroke-width="2"/>
<path d="M112.163 54.5077C112.115 54.5425 112.084 54.5884 112.071 54.6452C112.057 54.7222 112.014 54.7809 111.944 54.8212L105.222 58.5888C100.053 50.5338 89.0938 50.5091 83.9837 58.6218L76.8867 54.6315L94.4679 44.5332C94.5059 44.5114 94.5491 44.5 94.593 44.5C94.6369 44.5 94.68 44.5114 94.718 44.5332L112.163 54.5077Z" fill="#17A6E5"/>
<path d="M112.163 54.5078L112.257 54.6893C112.278 54.7272 112.288 54.7688 112.288 54.8103V72.0038C112.288 72.0237 112.283 72.0432 112.272 72.0604C112.262 72.0775 112.248 72.0917 112.23 72.1014C112.213 72.1112 112.193 72.1162 112.173 72.116C112.153 72.1158 112.133 72.1103 112.116 72.1001L106.3 68.7752C106.211 68.7257 106.181 68.6533 106.211 68.558C107.248 65.0049 106.919 61.6819 105.222 58.5889L111.943 54.8213C112.014 54.781 112.056 54.7223 112.071 54.6453C112.084 54.5885 112.115 54.5426 112.163 54.5078Z" fill="#06527B"/>
<path d="M83.9837 58.6222C81.857 62.6813 81.8968 66.7441 84.1032 70.8106L77.1813 74.8917C77.1109 74.899 77.046 74.7936 76.9868 74.5754C76.959 74.4728 76.9451 74.3518 76.9451 74.2124C76.9469 67.8377 76.9275 61.3109 76.8867 54.6318L83.9837 58.6222Z" fill="#1290B9"/>
<path d="M99.3336 61.9113L94.971 64.4936C94.9339 64.5523 94.833 64.6091 94.6681 64.6641C94.4514 64.6036 94.2096 64.6173 94.0123 64.4881C91.9912 63.1919 89.8794 61.9864 87.6768 60.8717C89.7238 57.5331 92.7471 56.2589 96.7466 57.0491C96.7725 57.0543 96.7969 57.0652 96.818 57.0809C96.8391 57.0967 96.8564 57.1169 96.8687 57.14C96.8809 57.1632 96.8878 57.1888 96.8888 57.2149C96.8898 57.2411 96.8849 57.2671 96.8744 57.2911C95.9269 59.4774 97.1829 61.1192 99.3336 61.9113Z" fill="#17A6E5"/>
<path d="M87.6768 60.8711C89.8795 61.9858 91.9913 63.1912 94.0124 64.4875C94.2097 64.6167 94.4514 64.603 94.6682 64.6635L94.5598 72.0419L94.5042 65.3345C94.5035 65.2893 94.491 65.2451 94.4681 65.206C94.4451 65.167 94.4124 65.1345 94.3732 65.1118C94.334 65.0891 94.2896 65.0769 94.2444 65.0764C94.1992 65.0759 94.1547 65.0871 94.1152 65.109L87.8047 68.6098C86.3486 66.0247 86.306 63.4452 87.6768 60.8711Z" fill="#1290B9"/>
<path d="M101.551 68.3767L95.0707 64.6998C95.0263 64.676 95.0013 64.6384 94.9957 64.587C94.992 64.5614 94.9837 64.5302 94.9707 64.4935L99.3334 61.9112C100.115 61.8342 100.876 61.6115 101.615 61.2429C101.687 61.2063 101.739 61.2246 101.77 61.2979C102.841 63.7144 102.768 66.0739 101.551 68.3767Z" fill="#06527B"/>
<path d="M94.9708 64.4932C94.9838 64.5298 94.9921 64.561 94.9958 64.5867C95.0014 64.638 95.0264 64.6756 95.0709 64.6994L101.551 68.3763C99.9744 71.02 97.6468 72.3813 94.5679 72.4602C94.6531 72.209 94.6503 72.0696 94.5596 72.0421L94.6679 64.6637C94.8328 64.6087 94.9338 64.5518 94.9708 64.4932Z" fill="#0A71B4"/>
<path d="M94.5598 72.0427C94.6506 72.0702 94.6534 72.2095 94.5682 72.4607C91.5579 72.3562 89.3034 71.0728 87.8047 68.6106L94.1152 65.1098C94.1547 65.0879 94.1992 65.0767 94.2444 65.0772C94.2897 65.0777 94.334 65.0899 94.3732 65.1126C94.4124 65.1353 94.4451 65.1678 94.4681 65.2068C94.4911 65.2458 94.5035 65.2901 94.5043 65.3353L94.5598 72.0427Z" fill="#097896"/>
<path d="M84.103 70.8105C86.5595 74.5507 90.044 76.5344 94.5567 76.7617C94.4493 77.0716 94.4659 77.2155 94.6067 77.1935C94.4493 79.4761 94.44 81.7449 94.579 83.9999C94.5086 84.3226 94.5539 84.56 94.7151 84.7122C94.6688 84.7526 94.6225 84.7782 94.5762 84.7892C94.5373 84.7984 94.491 84.7874 94.4372 84.7562C88.8167 81.5166 83.0647 78.2284 77.1812 74.8917L84.103 70.8105Z" fill="#097896"/>
<path d="M94.7155 84.7123C94.5543 84.5602 94.5089 84.3227 94.5793 84.0001L94.6071 77.1936C94.4663 77.2156 94.4496 77.0717 94.5571 76.7619C98.2324 76.6922 101.303 75.3309 103.769 72.678C103.837 72.6046 103.915 72.5927 104.002 72.6422L109.824 75.9726C109.922 76.0276 109.922 76.0826 109.824 76.1376L94.7155 84.7123Z" fill="#0A71B4"/>
<path d="M94.5791 83.9998C94.4402 81.7447 94.4495 79.4759 94.6069 77.1934L94.5791 83.9998Z" fill="#17A6E5"/>
<path d="M102.939 101.015C103.59 101.015 104.118 100.493 104.118 99.8487C104.118 99.2047 103.59 98.6826 102.939 98.6826C102.289 98.6826 101.761 99.2047 101.761 99.8487C101.761 100.493 102.289 101.015 102.939 101.015Z" fill="#06527B"/>
<path d="M129.057 101.014C129.709 101.014 130.238 100.491 130.238 99.8455C130.238 99.2 129.709 98.6768 129.057 98.6768C128.405 98.6768 127.876 99.2 127.876 99.8455C127.876 100.491 128.405 101.014 129.057 101.014Z" fill="#06527B"/>
<path d="M44.8996 108.423L48.2147 98.952C48.2217 98.9312 48.2351 98.9131 48.253 98.9002C48.271 98.8874 48.2926 98.8805 48.3147 98.8805L50.4071 98.9107C50.4239 98.911 50.4404 98.9153 50.4552 98.9232C50.47 98.9311 50.4827 98.9423 50.4922 98.9561C50.5017 98.9698 50.5078 98.9856 50.5099 99.0021C50.512 99.0186 50.5101 99.0353 50.5044 99.051L45.7305 111.825C45.7232 111.845 45.71 111.862 45.6926 111.874C45.6753 111.887 45.6545 111.893 45.6332 111.894L43.9882 111.899C43.9664 111.9 43.9451 111.893 43.9271 111.881C43.9092 111.868 43.8956 111.851 43.8882 111.831L39.1031 99.062C39.0968 99.0462 39.0945 99.0291 39.0963 99.0122C39.0982 98.9954 39.1041 98.9792 39.1137 98.9651C39.1233 98.951 39.1362 98.9395 39.1513 98.9314C39.1664 98.9234 39.1832 98.9191 39.2004 98.919L41.2984 98.8585C41.3206 98.8577 41.3426 98.864 41.361 98.8763C41.3795 98.8887 41.3936 98.9065 41.4012 98.9272L44.6996 108.423C44.7066 108.444 44.7201 108.462 44.738 108.475C44.756 108.487 44.7775 108.494 44.7996 108.494C44.8217 108.494 44.8432 108.487 44.8611 108.475C44.8791 108.462 44.8926 108.444 44.8996 108.423Z" fill="#06527B"/>
<path d="M68.6359 103.437L68.7387 111.811C68.7387 111.834 68.7296 111.855 68.7135 111.871C68.6973 111.887 68.6754 111.896 68.6525 111.896H66.6657C66.6429 111.896 66.621 111.887 66.6048 111.871C66.5887 111.855 66.5796 111.834 66.5796 111.811L66.5851 99.0011C66.5851 98.979 66.5938 98.9577 66.6094 98.9418C66.6249 98.9259 66.6461 98.9166 66.6685 98.9159L69.0443 98.8691C69.0618 98.8691 69.0789 98.8744 69.0933 98.8842C69.1077 98.894 69.1187 98.908 69.1249 98.9241L73.0096 108.492C73.0158 108.508 73.0268 108.522 73.0412 108.532C73.0556 108.542 73.0727 108.547 73.0902 108.547C73.1077 108.547 73.1248 108.542 73.1392 108.532C73.1536 108.522 73.1646 108.508 73.1708 108.492L77.0222 98.9544C77.0288 98.9387 77.04 98.9254 77.0544 98.9161C77.0687 98.9068 77.0856 98.9019 77.1027 98.9021H79.5036C79.5264 98.9021 79.5483 98.9111 79.5645 98.9271C79.5807 98.9431 79.5897 98.9648 79.5897 98.9874L79.5786 111.811C79.5786 111.834 79.5695 111.855 79.5534 111.871C79.5372 111.887 79.5153 111.896 79.4925 111.896H77.5473C77.5245 111.896 77.5026 111.887 77.4864 111.871C77.4703 111.855 77.4612 111.834 77.4612 111.811L77.5529 103.327C77.5521 103.308 77.5449 103.29 77.5324 103.275C77.5199 103.261 77.5029 103.251 77.484 103.247C77.4651 103.243 77.4455 103.246 77.4283 103.254C77.411 103.263 77.3972 103.277 77.389 103.294L73.8961 111.847C73.8894 111.862 73.8782 111.876 73.8638 111.885C73.8495 111.894 73.8326 111.899 73.8155 111.899L72.3594 111.894C72.3422 111.894 72.3254 111.889 72.311 111.88C72.2967 111.87 72.2855 111.857 72.2788 111.841L68.8026 103.404C68.7954 103.385 68.7816 103.369 68.7638 103.359C68.7459 103.35 68.7251 103.346 68.7051 103.35C68.685 103.354 68.6671 103.365 68.6544 103.381C68.6417 103.397 68.6351 103.417 68.6359 103.437Z" fill="#06527B"/>
<path d="M60.8886 103.852H59.502C59.4659 103.852 59.4313 103.838 59.4057 103.813C59.3802 103.788 59.3658 103.753 59.3658 103.718L59.3492 102.304C59.3473 102.192 59.4038 102.135 59.5187 102.134L60.8469 102.131C60.8948 102.131 60.9408 102.112 60.9746 102.078C61.0085 102.045 61.0275 101.999 61.0275 101.952V100.055C61.0275 99.9079 61.1016 99.8327 61.2498 99.829L62.9838 99.7823C63.0931 99.7804 63.1468 99.8345 63.1449 99.9445L63.0977 101.848C63.097 101.885 63.1037 101.922 63.1175 101.957C63.1312 101.991 63.1518 102.023 63.1779 102.05C63.2041 102.076 63.2352 102.097 63.2697 102.112C63.3041 102.126 63.341 102.134 63.3784 102.134H64.7455C64.8604 102.134 64.9178 102.191 64.9178 102.307V103.627C64.9178 103.753 64.8539 103.817 64.7261 103.817H63.3561C63.2598 103.817 63.2089 103.863 63.2033 103.957C63.1033 105.711 63.094 107.472 63.1755 109.237C63.2255 110.307 63.6146 110.277 64.5454 110.131C64.7937 110.092 64.9178 110.198 64.9178 110.447V111.701C64.9178 111.811 64.8641 111.876 64.7566 111.896C62.7559 112.265 61.0637 111.756 61.0414 109.435C61.0248 107.626 61.0211 105.812 61.0303 103.995C61.0303 103.9 60.9831 103.852 60.8886 103.852Z" fill="#06527B"/>
<path d="M108.908 102.114L110.392 102.145C110.437 102.145 110.479 102.163 110.51 102.195C110.541 102.226 110.559 102.268 110.559 102.312V103.627C110.559 103.741 110.502 103.797 110.387 103.795L109.036 103.778C108.966 103.778 108.898 103.804 108.848 103.853C108.797 103.901 108.768 103.967 108.767 104.037C108.731 105.777 108.738 107.526 108.786 109.284C108.817 110.398 109.428 110.189 110.256 110.161C110.458 110.154 110.559 110.25 110.559 110.45V111.687C110.559 111.728 110.545 111.767 110.519 111.798C110.494 111.83 110.458 111.852 110.417 111.861C108.667 112.243 106.833 111.916 106.744 109.76C106.666 107.846 106.644 105.925 106.677 103.998C106.679 103.903 106.632 103.854 106.535 103.853L105.215 103.85C105.162 103.85 105.111 103.829 105.073 103.793C105.035 103.757 105.012 103.707 105.01 103.654L104.954 102.299C104.953 102.277 104.957 102.256 104.965 102.236C104.973 102.216 104.984 102.198 104.999 102.182C105.014 102.167 105.032 102.155 105.052 102.146C105.072 102.138 105.094 102.134 105.115 102.134H106.357C106.407 102.134 106.456 102.124 106.502 102.105C106.547 102.085 106.589 102.057 106.623 102.022C106.657 101.986 106.684 101.944 106.701 101.898C106.719 101.852 106.727 101.803 106.724 101.754L106.649 100.035C106.644 99.9016 106.709 99.8328 106.844 99.8291L108.58 99.7824C108.708 99.7787 108.771 99.8401 108.769 99.9666L108.744 101.947C108.744 102.057 108.799 102.113 108.908 102.114Z" fill="#06527B"/>
<path d="M52.7719 107.848C53.0331 110.513 56.0203 110.978 57.6069 109.028C57.6212 109.01 57.6387 108.995 57.6586 108.984C57.6785 108.974 57.7003 108.967 57.7228 108.964C57.7453 108.961 57.768 108.963 57.7896 108.97C57.8112 108.976 57.8313 108.986 57.8487 109L58.9185 109.853C59.0056 109.923 59.0167 110.003 58.9519 110.095C57.7625 111.728 56.1601 112.333 54.1446 111.907C48.412 110.697 50.1432 100.775 55.8202 101.985C58.5962 102.579 59.1964 105.09 59.0352 107.557C59.0297 107.635 58.9871 107.675 58.9074 107.675L52.8914 107.713C52.8025 107.715 52.7626 107.76 52.7719 107.848ZM52.9747 105.863L56.865 105.83C56.882 105.83 56.8982 105.823 56.9102 105.811C56.9222 105.799 56.9289 105.783 56.9289 105.766V105.728C56.9245 105.198 56.7091 104.691 56.3303 104.319C55.9514 103.947 55.4401 103.741 54.9088 103.745H54.8976C54.6345 103.747 54.3744 103.801 54.1322 103.903C53.8899 104.006 53.6703 104.155 53.4858 104.342C53.3013 104.529 53.1556 104.751 53.0569 104.994C52.9583 105.238 52.9086 105.498 52.9108 105.761V105.799C52.9108 105.816 52.9176 105.832 52.9296 105.844C52.9415 105.856 52.9578 105.863 52.9747 105.863Z" fill="#06527B"/>
<path d="M85.8974 112.081C84.6858 112.081 83.5238 111.543 82.6671 110.585C81.8104 109.627 81.3291 108.329 81.3291 106.974C81.3291 105.62 81.8104 104.321 82.6671 103.363C83.5238 102.405 84.6858 101.867 85.8974 101.867C87.109 101.867 88.2709 102.405 89.1276 103.363C89.9844 104.321 90.4657 105.62 90.4657 106.974C90.4657 108.329 89.9844 109.627 89.1276 110.585C88.2709 111.543 87.109 112.081 85.8974 112.081ZM85.886 110.258C86.2064 110.258 86.5238 110.174 86.8201 110.01C87.1164 109.845 87.3858 109.604 87.6129 109.3C87.84 108.995 88.0203 108.634 88.1436 108.236C88.267 107.838 88.3308 107.412 88.3316 106.981C88.3323 106.55 88.27 106.123 88.1481 105.725C88.0262 105.327 87.8471 104.965 87.6211 104.66C87.3951 104.355 87.1265 104.113 86.8308 103.947C86.5351 103.782 86.218 103.697 85.8976 103.696C85.5772 103.695 85.2598 103.78 84.9635 103.944C84.6672 104.108 84.3978 104.35 84.1707 104.654C83.9437 104.958 83.7633 105.32 83.64 105.717C83.5167 106.115 83.4528 106.542 83.4521 106.973C83.4513 107.403 83.5137 107.83 83.6356 108.228C83.7575 108.627 83.9366 108.989 84.1626 109.294C84.3886 109.599 84.6571 109.841 84.9528 110.006C85.2485 110.172 85.5656 110.257 85.886 110.258Z" fill="#06527B"/>
<path d="M94.2699 102.706C96.4234 101.147 99.6579 101.853 99.7357 104.906C99.7894 107.095 99.8089 109.356 99.794 111.688C99.794 111.827 99.7236 111.897 99.5828 111.897H97.8489C97.7544 111.897 97.7072 111.849 97.7072 111.754C97.7109 109.621 97.7072 107.493 97.6961 105.368C97.6822 102.92 94.3199 103.605 94.0781 105.186C93.7725 107.175 94.0364 109.705 94.017 111.754C94.0151 111.849 93.967 111.897 93.8725 111.897H92.1469C92.0079 111.897 91.9385 111.827 91.9385 111.688L91.944 102.285C91.944 102.203 91.9857 102.159 92.0691 102.156L93.7252 102.073C93.7708 102.071 93.8156 102.085 93.8521 102.111C93.8886 102.138 93.9144 102.176 93.9253 102.219L94.0309 102.621C94.0679 102.765 94.1476 102.794 94.2699 102.706Z" fill="#06527B"/>
<path d="M115.863 112.075C114.651 112.082 113.487 111.55 112.625 110.597C111.763 109.644 111.275 108.349 111.268 106.995C111.26 105.641 111.735 104.341 112.587 103.379C113.438 102.417 114.597 101.874 115.809 101.867C117.02 101.861 118.185 102.393 119.047 103.345C119.909 104.298 120.397 105.594 120.404 106.948C120.411 108.301 119.937 109.602 119.085 110.564C118.234 111.525 117.074 112.069 115.863 112.075ZM115.83 110.266C116.15 110.266 116.467 110.182 116.763 110.018C117.059 109.853 117.328 109.612 117.555 109.308C117.782 109.004 117.962 108.642 118.085 108.244C118.208 107.847 118.272 107.42 118.273 106.989C118.274 106.558 118.211 106.132 118.09 105.733C117.968 105.335 117.789 104.973 117.563 104.668C117.337 104.363 117.069 104.121 116.774 103.956C116.478 103.79 116.162 103.705 115.842 103.704C115.522 103.704 115.205 103.788 114.909 103.952C114.613 104.117 114.344 104.358 114.117 104.662C113.89 104.966 113.71 105.328 113.587 105.726C113.463 106.123 113.4 106.55 113.399 106.981C113.398 107.412 113.46 107.838 113.582 108.237C113.704 108.635 113.883 108.997 114.109 109.302C114.334 109.607 114.603 109.849 114.898 110.015C115.193 110.18 115.51 110.265 115.83 110.266Z" fill="#06527B"/>
<path d="M123.983 105.45C123.965 107.523 123.96 109.608 123.969 111.704C123.971 111.832 123.906 111.896 123.775 111.896H122.021C121.929 111.896 121.882 111.85 121.882 111.759V102.265C121.882 102.17 121.93 102.122 122.027 102.122H123.555C123.666 102.122 123.761 102.161 123.839 102.238L124.069 102.466C124.092 102.488 124.122 102.502 124.154 102.505C124.186 102.507 124.218 102.498 124.244 102.48C124.976 101.963 125.786 101.805 126.673 102.007C126.733 102.021 126.786 102.055 126.825 102.103C126.863 102.15 126.884 102.21 126.884 102.271V103.852C126.884 103.953 126.834 104.001 126.734 103.998C125.573 103.954 123.997 104.003 123.983 105.45Z" fill="#06527B"/>
<path d="M134.45 102.7C136.665 101.119 139.983 101.916 140.005 105.024C140.02 107.156 140.026 109.374 140.022 111.676C140.022 111.735 139.998 111.791 139.956 111.832C139.914 111.873 139.857 111.896 139.797 111.896H138.074C138.038 111.896 138.003 111.882 137.978 111.857C137.952 111.832 137.938 111.797 137.938 111.762C137.921 109.576 137.92 107.399 137.935 105.23C137.946 103.377 135.479 103.429 134.609 104.57C133.895 105.508 134.25 110.334 134.245 111.709C134.245 111.834 134.181 111.896 134.053 111.896H132.336C132.221 111.896 132.164 111.84 132.164 111.726V102.285C132.164 102.202 132.205 102.158 132.289 102.153L133.753 102.081C133.838 102.076 133.921 102.1 133.991 102.148C134.06 102.196 134.112 102.265 134.136 102.345L134.225 102.626C134.266 102.752 134.341 102.777 134.45 102.7Z" fill="#06527B"/>
<path d="M147.814 111.437C141.061 114.592 139.714 103.66 144.407 102.09C145.548 101.707 146.679 101.876 147.8 102.599C147.922 102.677 148.01 102.649 148.064 102.513L148.153 102.28C148.168 102.241 148.194 102.208 148.228 102.184C148.262 102.16 148.302 102.146 148.344 102.145L149.962 102.106C150.038 102.105 150.077 102.142 150.078 102.219C150.095 104.852 150.1 107.482 150.092 110.109C150.09 111.644 150.056 113.043 149.186 114.105C147.525 116.132 143.718 115.882 142.156 113.802C142.129 113.765 142.114 113.719 142.116 113.673C142.117 113.626 142.134 113.582 142.165 113.547L143.02 112.535C143.046 112.504 143.079 112.479 143.116 112.463C143.153 112.446 143.193 112.438 143.233 112.439C143.274 112.439 143.313 112.449 143.349 112.467C143.385 112.485 143.416 112.511 143.44 112.543C144.743 114.245 147.961 114.24 147.975 111.539C147.975 111.422 147.921 111.388 147.814 111.437ZM145.257 103.921C142.956 104.947 143.123 110.623 146.469 110.142C148.536 109.842 147.928 106.806 147.933 105.379C147.936 104.045 146.241 103.481 145.257 103.921Z" fill="#06527B"/>
<path d="M103.873 102.125H101.962C101.914 102.125 101.875 102.163 101.875 102.21V111.808C101.875 111.855 101.914 111.893 101.962 111.893H103.873C103.921 111.893 103.96 111.855 103.96 111.808V102.21C103.96 102.163 103.921 102.125 103.873 102.125Z" fill="#06527B"/>
<path d="M129.994 102.125H128.082C128.034 102.125 127.996 102.163 127.996 102.21V111.808C127.996 111.855 128.034 111.893 128.082 111.893H129.994C130.041 111.893 130.08 111.855 130.08 111.808V102.21C130.08 102.163 130.041 102.125 129.994 102.125Z" fill="#06527B"/>
</g>
<path d="M39.2209 139.5V129.318H43.2976C44.0466 129.318 44.6714 129.429 45.1719 129.651C45.6723 129.873 46.0485 130.182 46.3004 130.576C46.5523 130.967 46.6783 131.418 46.6783 131.928C46.6783 132.326 46.5987 132.676 46.4396 132.977C46.2805 133.276 46.0618 133.521 45.7834 133.713C45.5083 133.902 45.1934 134.036 44.8388 134.116V134.215C45.2266 134.232 45.5895 134.341 45.9276 134.543C46.2689 134.746 46.5457 135.029 46.7578 135.393C46.9699 135.755 47.076 136.186 47.076 136.686C47.076 137.226 46.9418 137.709 46.6733 138.133C46.4081 138.554 46.0154 138.887 45.495 139.132C44.9747 139.377 44.3333 139.5 43.571 139.5H39.2209ZM41.3736 137.74H43.1286C43.7285 137.74 44.166 137.626 44.4411 137.397C44.7161 137.165 44.8537 136.857 44.8537 136.472C44.8537 136.191 44.7857 135.942 44.6499 135.727C44.514 135.511 44.3201 135.342 44.0682 135.219C43.8196 135.097 43.523 135.036 43.1783 135.036H41.3736V137.74ZM41.3736 133.579H42.9695C43.2644 133.579 43.5263 133.527 43.755 133.425C43.987 133.319 44.1693 133.17 44.3018 132.977C44.4377 132.785 44.5057 132.555 44.5057 132.286C44.5057 131.918 44.3748 131.622 44.1129 131.396C43.8544 131.171 43.4865 131.058 43.0092 131.058H41.3736V133.579ZM51.9171 139.649C51.1316 139.649 50.4554 139.49 49.8887 139.172C49.3252 138.85 48.891 138.396 48.5861 137.81C48.2812 137.22 48.1287 136.522 48.1287 135.717C48.1287 134.931 48.2812 134.242 48.5861 133.648C48.891 133.055 49.3203 132.593 49.8738 132.261C50.4306 131.93 51.0835 131.764 51.8326 131.764C52.3364 131.764 52.8053 131.845 53.2395 132.008C53.677 132.167 54.0582 132.407 54.383 132.729C54.7111 133.05 54.9663 133.455 55.1486 133.942C55.3309 134.426 55.4221 134.992 55.4221 135.642V136.224H48.9739V134.911H53.4284C53.4284 134.606 53.3622 134.336 53.2296 134.101C53.097 133.866 52.9131 133.682 52.6777 133.549C52.4457 133.413 52.1756 133.345 51.8674 133.345C51.5459 133.345 51.2608 133.42 51.0123 133.569C50.767 133.715 50.5748 133.912 50.4355 134.161C50.2963 134.406 50.2251 134.679 50.2218 134.981V136.229C50.2218 136.607 50.2914 136.933 50.4306 137.208C50.5731 137.483 50.7736 137.695 51.0321 137.844C51.2907 137.994 51.5972 138.068 51.9519 138.068C52.1872 138.068 52.4026 138.035 52.5982 137.969C52.7937 137.902 52.9611 137.803 53.1003 137.67C53.2395 137.538 53.3456 137.375 53.4185 137.183L55.3773 137.312C55.2779 137.783 55.074 138.194 54.7658 138.545C54.4609 138.893 54.0665 139.165 53.5826 139.361C53.102 139.553 52.5468 139.649 51.9171 139.649ZM56.215 133.529V131.864H63.1355V133.529H60.6745V139.5H58.6561V133.529H56.215ZM64.6183 139.629C64.2901 139.629 64.0084 139.513 63.7731 139.281C63.5411 139.046 63.4251 138.764 63.4251 138.436C63.4251 138.111 63.5411 137.833 63.7731 137.601C64.0084 137.369 64.2901 137.253 64.6183 137.253C64.9364 137.253 65.2148 137.369 65.4535 137.601C65.6921 137.833 65.8114 138.111 65.8114 138.436C65.8114 138.655 65.7551 138.855 65.6424 139.038C65.533 139.217 65.3888 139.361 65.2099 139.47C65.0309 139.576 64.8337 139.629 64.6183 139.629ZM72.0645 137.158L74.1326 131.864H75.7434L72.7654 139.5H71.3585L68.4501 131.864H70.0559L72.0645 137.158ZM69.5737 131.864V139.5H67.5502V131.864H69.5737ZM74.6596 139.5V131.864H76.6582V139.5H74.6596ZM81.7466 139.649C80.9744 139.649 80.3065 139.485 79.7431 139.157C79.1829 138.826 78.7504 138.365 78.4455 137.775C78.1406 137.182 77.9881 136.494 77.9881 135.712C77.9881 134.923 78.1406 134.233 78.4455 133.643C78.7504 133.05 79.1829 132.589 79.7431 132.261C80.3065 131.93 80.9744 131.764 81.7466 131.764C82.5189 131.764 83.1851 131.93 83.7452 132.261C84.3087 132.589 84.7428 133.05 85.0478 133.643C85.3527 134.233 85.5051 134.923 85.5051 135.712C85.5051 136.494 85.3527 137.182 85.0478 137.775C84.7428 138.365 84.3087 138.826 83.7452 139.157C83.1851 139.485 82.5189 139.649 81.7466 139.649ZM81.7566 138.009C82.1079 138.009 82.4012 137.909 82.6365 137.71C82.8719 137.508 83.0492 137.233 83.1685 136.885C83.2911 136.537 83.3525 136.141 83.3525 135.697C83.3525 135.253 83.2911 134.857 83.1685 134.509C83.0492 134.161 82.8719 133.885 82.6365 133.683C82.4012 133.481 82.1079 133.38 81.7566 133.38C81.4019 133.38 81.1036 133.481 80.8617 133.683C80.623 133.885 80.4424 134.161 80.3198 134.509C80.2005 134.857 80.1408 135.253 80.1408 135.697C80.1408 136.141 80.2005 136.537 80.3198 136.885C80.4424 137.233 80.623 137.508 80.8617 137.71C81.1036 137.909 81.4019 138.009 81.7566 138.009ZM92.1969 134.837V136.502H88.2097V134.837H92.1969ZM88.9057 131.864V139.5H86.8823V131.864H88.9057ZM93.5243 131.864V139.5H91.5158V131.864H93.5243ZM97.1909 136.706L99.9402 131.864H102.028V139.5H100.01V134.643L97.2704 139.5H95.1674V131.864H97.1909V136.706ZM102.959 133.529V131.864H109.88V133.529H107.419V139.5H105.4V133.529H102.959ZM114.34 139.649C113.568 139.649 112.9 139.485 112.337 139.157C111.777 138.826 111.344 138.365 111.039 137.775C110.734 137.182 110.582 136.494 110.582 135.712C110.582 134.923 110.734 134.233 111.039 133.643C111.344 133.05 111.777 132.589 112.337 132.261C112.9 131.93 113.568 131.764 114.34 131.764C115.113 131.764 115.779 131.93 116.339 132.261C116.902 132.589 117.337 133.05 117.642 133.643C117.946 134.233 118.099 134.923 118.099 135.712C118.099 136.494 117.946 137.182 117.642 137.775C117.337 138.365 116.902 138.826 116.339 139.157C115.779 139.485 115.113 139.649 114.34 139.649ZM114.35 138.009C114.702 138.009 114.995 137.909 115.23 137.71C115.466 137.508 115.643 137.233 115.762 136.885C115.885 136.537 115.946 136.141 115.946 135.697C115.946 135.253 115.885 134.857 115.762 134.509C115.643 134.161 115.466 133.885 115.23 133.683C114.995 133.481 114.702 133.38 114.35 133.38C113.996 133.38 113.697 133.481 113.455 133.683C113.217 133.885 113.036 134.161 112.914 134.509C112.794 134.857 112.735 135.253 112.735 135.697C112.735 136.141 112.794 136.537 112.914 136.885C113.036 137.233 113.217 137.508 113.455 137.71C113.697 137.909 113.996 138.009 114.35 138.009ZM119.476 142.364V131.864H121.564V133.146H121.659C121.751 132.941 121.886 132.732 122.061 132.52C122.24 132.304 122.472 132.125 122.757 131.983C123.046 131.837 123.404 131.764 123.831 131.764C124.388 131.764 124.902 131.91 125.372 132.202C125.843 132.49 126.219 132.926 126.501 133.509C126.783 134.089 126.923 134.817 126.923 135.692C126.923 136.544 126.786 137.263 126.511 137.849C126.239 138.433 125.868 138.875 125.397 139.177C124.93 139.475 124.406 139.624 123.826 139.624C123.415 139.624 123.066 139.556 122.777 139.42C122.492 139.285 122.258 139.114 122.076 138.908C121.894 138.7 121.755 138.489 121.659 138.277H121.594V142.364H119.476ZM121.549 135.682C121.549 136.136 121.612 136.532 121.738 136.87C121.864 137.208 122.046 137.472 122.285 137.661C122.524 137.846 122.814 137.939 123.155 137.939C123.5 137.939 123.791 137.844 124.03 137.656C124.269 137.463 124.449 137.198 124.572 136.86C124.698 136.519 124.761 136.126 124.761 135.682C124.761 135.241 124.7 134.853 124.577 134.518C124.454 134.184 124.274 133.922 124.035 133.733C123.796 133.544 123.503 133.45 123.155 133.45C122.81 133.45 122.519 133.541 122.28 133.723C122.045 133.905 121.864 134.164 121.738 134.499C121.612 134.833 121.549 135.228 121.549 135.682ZM130.359 136.706L133.108 131.864H135.196V139.5H133.178V134.643L130.438 139.5H128.335V131.864H130.359V136.706ZM142.209 134.837V136.502H138.221V134.837H142.209ZM138.917 131.864V139.5H136.894V131.864H138.917ZM143.536 131.864V139.5H141.528V131.864H143.536ZM150.409 131.864V133.529H147.237V139.5H145.179V131.864H150.409Z" fill="black"/>
<defs>
<clipPath id="clip0_267_26">
<rect width="111" height="71" fill="white" transform="translate(39.0957 44.5)"/>
</clipPath>
</defs>
</svg>
