<svg width="189" height="190" viewBox="0 0 189 190" fill="none" xmlns="http://www.w3.org/2000/svg">
<path d="M183.689 103.151L146.208 168.07C143.279 173.144 137.865 176.27 132.006 176.27L57.0439 176.27C51.1849 176.27 45.7709 173.144 42.8414 168.07L5.36053 103.151C2.43101 98.077 2.43103 91.8256 5.36053 86.7515L42.8414 21.8327C45.7709 16.7587 51.1849 13.6329 57.0439 13.6329L132.006 13.6329C137.865 13.6329 143.279 16.7587 146.208 21.8327L183.689 86.7515C186.618 91.8256 186.618 98.0771 183.689 103.151Z" fill="white" fill-opacity="0.7" stroke="white"/>
<g clip-path="url(#clip0_267_26)">
<path d="M76.8867 69.1318C76.9275 75.8109 76.9469 82.3377 76.9451 88.7124C76.9451 88.8518 76.959 88.9728 76.9868 89.0754C77.046 89.2936 77.1109 89.399 77.1813 89.3917" stroke="#89C8DC" stroke-width="2"/>
<path d="M112.163 69.0078C112.115 69.0426 112.084 69.0885 112.071 69.1453C112.056 69.2223 112.014 69.281 111.943 69.3213L105.222 73.0889" stroke="#0F7CB0" stroke-width="2"/>
<path d="M83.9837 73.1222L76.8867 69.1318" stroke="#159BCF" stroke-width="2"/>
<path d="M84.103 85.3105L77.1812 89.3917" stroke="#0E84A8" stroke-width="2"/>
<path d="M94.5571 91.2617C94.4496 91.5716 94.4663 91.7155 94.6071 91.6935" stroke="#0A75A5" stroke-width="2"/>
<path d="M94.6069 91.6934C94.4495 93.9759 94.4402 96.2447 94.5791 98.4998" stroke="#108FBE" stroke-width="2"/>
<path d="M94.579 98.5C94.5086 98.8227 94.554 99.0601 94.7151 99.2123" stroke="#0A75A5" stroke-width="2"/>
<path d="M94.5791 98.4998L94.6069 91.6934" stroke="#118CCD" stroke-width="2"/>
<path d="M99.3334 76.4111L94.9707 78.9935" stroke="#0F7CB0" stroke-width="2"/>
<path d="M94.9709 78.9932C94.9338 79.0518 94.8328 79.1087 94.668 79.1637" stroke="#118CCD" stroke-width="2"/>
<path d="M94.6681 79.1635C94.4514 79.103 94.2096 79.1167 94.0123 78.9875C91.9912 77.6912 89.8794 76.4858 87.6768 75.3711" stroke="#159BCF" stroke-width="2"/>
<path d="M101.551 82.8763L95.0707 79.1994C95.0263 79.1756 95.0013 79.138 94.9957 79.0867C94.992 79.061 94.9837 79.0298 94.9707 78.9932" stroke="#086298" stroke-width="2"/>
<path d="M94.6679 79.1641L94.5596 86.5425" stroke="#0E81B7" stroke-width="2"/>
<path d="M94.5598 86.5427L94.5043 79.8353C94.5035 79.7901 94.4911 79.7458 94.4681 79.7068C94.4451 79.6678 94.4124 79.6353 94.3732 79.6126C94.334 79.5899 94.2897 79.5777 94.2444 79.5772C94.1992 79.5767 94.1547 79.5879 94.1152 79.6098L87.8047 83.1106" stroke="#0E84A8" stroke-width="2"/>
<path d="M94.5679 86.96C94.6531 86.7088 94.6503 86.5695 94.5596 86.542" stroke="#0A75A5" stroke-width="2"/>
<path d="M112.163 69.0077C112.115 69.0425 112.084 69.0884 112.071 69.1452C112.057 69.2222 112.014 69.2809 111.944 69.3212L105.222 73.0888C100.053 65.0338 89.0938 65.0091 83.9837 73.1218L76.8867 69.1315L94.4679 59.0332C94.5059 59.0114 94.5491 59 94.593 59C94.6369 59 94.68 59.0114 94.718 59.0332L112.163 69.0077Z" fill="#17A6E5"/>
<path d="M112.163 69.0078L112.257 69.1893C112.278 69.2272 112.288 69.2688 112.288 69.3103V86.5038C112.288 86.5237 112.283 86.5432 112.272 86.5604C112.262 86.5775 112.248 86.5917 112.23 86.6014C112.213 86.6112 112.193 86.6162 112.173 86.616C112.153 86.6158 112.133 86.6103 112.116 86.6001L106.3 83.2752C106.211 83.2257 106.181 83.1533 106.211 83.058C107.248 79.5049 106.919 76.1819 105.222 73.0889L111.943 69.3213C112.014 69.281 112.056 69.2223 112.071 69.1453C112.084 69.0885 112.115 69.0426 112.163 69.0078Z" fill="#06527B"/>
<path d="M83.9837 73.1222C81.857 77.1813 81.8968 81.2441 84.1032 85.3106L77.1813 89.3917C77.1109 89.399 77.046 89.2936 76.9868 89.0754C76.959 88.9728 76.9451 88.8518 76.9451 88.7124C76.9469 82.3377 76.9275 75.8109 76.8867 69.1318L83.9837 73.1222Z" fill="#1290B9"/>
<path d="M99.3336 76.4113L94.971 78.9936C94.9339 79.0523 94.833 79.1091 94.6681 79.1641C94.4514 79.1036 94.2096 79.1173 94.0123 78.9881C91.9912 77.6919 89.8794 76.4864 87.6768 75.3717C89.7238 72.0331 92.7471 70.7589 96.7466 71.5491C96.7725 71.5543 96.7969 71.5652 96.818 71.5809C96.8391 71.5967 96.8564 71.6169 96.8687 71.64C96.8809 71.6632 96.8878 71.6888 96.8888 71.7149C96.8898 71.7411 96.8849 71.7671 96.8744 71.7911C95.9269 73.9774 97.1829 75.6192 99.3336 76.4113Z" fill="#17A6E5"/>
<path d="M87.6768 75.3711C89.8795 76.4858 91.9913 77.6912 94.0124 78.9875C94.2097 79.1167 94.4514 79.103 94.6682 79.1635L94.5598 86.5419L94.5042 79.8345C94.5035 79.7893 94.491 79.7451 94.4681 79.706C94.4451 79.667 94.4124 79.6345 94.3732 79.6118C94.334 79.5891 94.2896 79.5769 94.2444 79.5764C94.1992 79.5759 94.1547 79.5871 94.1152 79.609L87.8047 83.1098C86.3486 80.5247 86.306 77.9452 87.6768 75.3711Z" fill="#1290B9"/>
<path d="M101.551 82.8767L95.0707 79.1998C95.0263 79.176 95.0013 79.1384 94.9957 79.087C94.992 79.0614 94.9837 79.0302 94.9707 78.9935L99.3334 76.4112C100.115 76.3342 100.876 76.1115 101.615 75.7429C101.687 75.7063 101.739 75.7246 101.77 75.7979C102.841 78.2144 102.768 80.5739 101.551 82.8767Z" fill="#06527B"/>
<path d="M94.9708 78.9932C94.9838 79.0298 94.9921 79.061 94.9958 79.0867C95.0014 79.138 95.0264 79.1756 95.0709 79.1994L101.551 82.8763C99.9744 85.52 97.6468 86.8813 94.5679 86.9602C94.6531 86.709 94.6503 86.5696 94.5596 86.5421L94.6679 79.1637C94.8328 79.1087 94.9338 79.0518 94.9708 78.9932Z" fill="#0A71B4"/>
<path d="M94.5598 86.5427C94.6506 86.5702 94.6534 86.7095 94.5682 86.9607C91.5579 86.8562 89.3034 85.5728 87.8047 83.1106L94.1152 79.6098C94.1547 79.5879 94.1992 79.5767 94.2444 79.5772C94.2897 79.5777 94.334 79.5899 94.3732 79.6126C94.4124 79.6353 94.4451 79.6678 94.4681 79.7068C94.4911 79.7458 94.5035 79.7901 94.5043 79.8353L94.5598 86.5427Z" fill="#097896"/>
<path d="M84.103 85.3105C86.5595 89.0507 90.044 91.0344 94.5567 91.2617C94.4493 91.5716 94.4659 91.7155 94.6067 91.6935C94.4493 93.9761 94.44 96.2449 94.579 98.4999C94.5086 98.8226 94.5539 99.06 94.7151 99.2122C94.6688 99.2526 94.6225 99.2782 94.5762 99.2892C94.5373 99.2984 94.491 99.2874 94.4372 99.2562C88.8167 96.0166 83.0647 92.7284 77.1812 89.3917L84.103 85.3105Z" fill="#097896"/>
<path d="M94.7155 99.2123C94.5543 99.0602 94.5089 98.8227 94.5793 98.5001L94.6071 91.6936C94.4663 91.7156 94.4496 91.5717 94.5571 91.2619C98.2324 91.1922 101.303 89.8309 103.769 87.178C103.837 87.1046 103.915 87.0927 104.002 87.1422L109.824 90.4726C109.922 90.5276 109.922 90.5826 109.824 90.6376L94.7155 99.2123Z" fill="#0A71B4"/>
<path d="M94.5791 98.4998C94.4402 96.2447 94.4495 93.9759 94.6069 91.6934L94.5791 98.4998Z" fill="#17A6E5"/>
<path d="M102.939 115.515C103.59 115.515 104.118 114.993 104.118 114.349C104.118 113.705 103.59 113.183 102.939 113.183C102.289 113.183 101.761 113.705 101.761 114.349C101.761 114.993 102.289 115.515 102.939 115.515Z" fill="#06527B"/>
<path d="M129.057 115.514C129.709 115.514 130.238 114.991 130.238 114.346C130.238 113.7 129.709 113.177 129.057 113.177C128.405 113.177 127.876 113.7 127.876 114.346C127.876 114.991 128.405 115.514 129.057 115.514Z" fill="#06527B"/>
<path d="M44.8996 122.923L48.2147 113.452C48.2217 113.431 48.2351 113.413 48.253 113.4C48.271 113.387 48.2926 113.38 48.3147 113.38L50.4071 113.411C50.4239 113.411 50.4404 113.415 50.4552 113.423C50.47 113.431 50.4827 113.442 50.4922 113.456C50.5017 113.47 50.5078 113.486 50.5099 113.502C50.512 113.519 50.5101 113.535 50.5044 113.551L45.7305 126.325C45.7232 126.345 45.71 126.362 45.6926 126.374C45.6753 126.387 45.6545 126.393 45.6332 126.394L43.9882 126.399C43.9664 126.4 43.9451 126.393 43.9271 126.381C43.9092 126.368 43.8956 126.351 43.8882 126.331L39.1031 113.562C39.0968 113.546 39.0945 113.529 39.0963 113.512C39.0982 113.495 39.1041 113.479 39.1137 113.465C39.1233 113.451 39.1362 113.439 39.1513 113.431C39.1664 113.423 39.1832 113.419 39.2004 113.419L41.2984 113.358C41.3206 113.358 41.3426 113.364 41.361 113.376C41.3795 113.389 41.3936 113.406 41.4012 113.427L44.6996 122.923C44.7066 122.944 44.7201 122.962 44.738 122.975C44.756 122.987 44.7775 122.994 44.7996 122.994C44.8217 122.994 44.8432 122.987 44.8611 122.975C44.8791 122.962 44.8926 122.944 44.8996 122.923Z" fill="#06527B"/>
<path d="M68.6359 117.937L68.7387 126.311C68.7387 126.334 68.7296 126.355 68.7135 126.371C68.6973 126.387 68.6754 126.396 68.6525 126.396H66.6657C66.6429 126.396 66.621 126.387 66.6048 126.371C66.5887 126.355 66.5796 126.334 66.5796 126.311L66.5851 113.501C66.5851 113.479 66.5938 113.458 66.6094 113.442C66.6249 113.426 66.6461 113.417 66.6685 113.416L69.0443 113.369C69.0618 113.369 69.0789 113.374 69.0933 113.384C69.1077 113.394 69.1187 113.408 69.1249 113.424L73.0096 122.992C73.0158 123.008 73.0268 123.022 73.0412 123.032C73.0556 123.042 73.0727 123.047 73.0902 123.047C73.1077 123.047 73.1248 123.042 73.1392 123.032C73.1536 123.022 73.1646 123.008 73.1708 122.992L77.0222 113.454C77.0288 113.439 77.04 113.425 77.0544 113.416C77.0687 113.407 77.0856 113.402 77.1027 113.402H79.5036C79.5264 113.402 79.5483 113.411 79.5645 113.427C79.5807 113.443 79.5897 113.465 79.5897 113.487L79.5786 126.311C79.5786 126.334 79.5695 126.355 79.5534 126.371C79.5372 126.387 79.5153 126.396 79.4925 126.396H77.5473C77.5245 126.396 77.5026 126.387 77.4864 126.371C77.4703 126.355 77.4612 126.334 77.4612 126.311L77.5529 117.827C77.5521 117.808 77.5449 117.79 77.5324 117.775C77.5199 117.761 77.5029 117.751 77.484 117.747C77.4651 117.743 77.4455 117.746 77.4283 117.754C77.411 117.763 77.3972 117.777 77.389 117.794L73.8961 126.347C73.8894 126.362 73.8782 126.376 73.8638 126.385C73.8495 126.394 73.8326 126.399 73.8155 126.399L72.3594 126.394C72.3422 126.394 72.3254 126.389 72.311 126.38C72.2967 126.37 72.2855 126.357 72.2788 126.341L68.8026 117.904C68.7954 117.885 68.7816 117.869 68.7638 117.859C68.7459 117.85 68.7251 117.846 68.7051 117.85C68.685 117.854 68.6671 117.865 68.6544 117.881C68.6417 117.897 68.6351 117.917 68.6359 117.937Z" fill="#06527B"/>
<path d="M60.8886 118.352H59.502C59.4659 118.352 59.4313 118.338 59.4057 118.313C59.3802 118.288 59.3658 118.253 59.3658 118.218L59.3492 116.804C59.3473 116.692 59.4038 116.635 59.5187 116.634L60.8469 116.631C60.8948 116.631 60.9408 116.612 60.9746 116.578C61.0085 116.545 61.0275 116.499 61.0275 116.452V114.555C61.0275 114.408 61.1016 114.333 61.2498 114.329L62.9838 114.282C63.0931 114.28 63.1468 114.335 63.1449 114.445L63.0977 116.348C63.097 116.385 63.1037 116.422 63.1175 116.457C63.1312 116.491 63.1518 116.523 63.1779 116.55C63.2041 116.576 63.2352 116.597 63.2697 116.612C63.3041 116.626 63.341 116.634 63.3784 116.634H64.7455C64.8604 116.634 64.9178 116.691 64.9178 116.807V118.127C64.9178 118.253 64.8539 118.317 64.7261 118.317H63.3561C63.2598 118.317 63.2089 118.363 63.2033 118.457C63.1033 120.211 63.094 121.972 63.1755 123.737C63.2255 124.807 63.6146 124.777 64.5454 124.631C64.7937 124.592 64.9178 124.698 64.9178 124.947V126.201C64.9178 126.311 64.8641 126.376 64.7566 126.396C62.7559 126.765 61.0637 126.256 61.0414 123.935C61.0248 122.126 61.0211 120.312 61.0303 118.495C61.0303 118.4 60.9831 118.352 60.8886 118.352Z" fill="#06527B"/>
<path d="M108.908 116.614L110.392 116.645C110.437 116.645 110.479 116.663 110.51 116.695C110.541 116.726 110.559 116.768 110.559 116.812V118.127C110.559 118.241 110.502 118.297 110.387 118.295L109.036 118.278C108.966 118.278 108.898 118.304 108.848 118.353C108.797 118.401 108.768 118.467 108.767 118.537C108.731 120.277 108.738 122.026 108.786 123.784C108.817 124.898 109.428 124.689 110.256 124.661C110.458 124.654 110.559 124.75 110.559 124.95V126.187C110.559 126.228 110.545 126.267 110.519 126.298C110.494 126.33 110.458 126.352 110.417 126.361C108.667 126.743 106.833 126.416 106.744 124.26C106.666 122.346 106.644 120.425 106.677 118.498C106.679 118.403 106.632 118.354 106.535 118.353L105.215 118.35C105.162 118.35 105.111 118.329 105.073 118.293C105.035 118.257 105.012 118.207 105.01 118.154L104.954 116.799C104.953 116.777 104.957 116.756 104.965 116.736C104.973 116.716 104.984 116.698 104.999 116.682C105.014 116.667 105.032 116.655 105.052 116.646C105.072 116.638 105.094 116.634 105.115 116.634H106.357C106.407 116.634 106.456 116.624 106.502 116.605C106.547 116.585 106.589 116.557 106.623 116.522C106.657 116.486 106.684 116.444 106.701 116.398C106.719 116.352 106.727 116.303 106.724 116.254L106.649 114.535C106.644 114.402 106.709 114.333 106.844 114.329L108.58 114.282C108.708 114.279 108.771 114.34 108.769 114.467L108.744 116.447C108.744 116.557 108.799 116.613 108.908 116.614Z" fill="#06527B"/>
<path d="M52.7719 122.348C53.0331 125.013 56.0203 125.478 57.6069 123.528C57.6212 123.51 57.6387 123.495 57.6586 123.484C57.6785 123.474 57.7003 123.467 57.7228 123.464C57.7453 123.461 57.768 123.463 57.7896 123.47C57.8112 123.476 57.8313 123.486 57.8487 123.5L58.9185 124.353C59.0056 124.423 59.0167 124.503 58.9519 124.595C57.7625 126.228 56.1601 126.833 54.1446 126.407C48.412 125.197 50.1432 115.275 55.8202 116.485C58.5962 117.079 59.1964 119.59 59.0352 122.057C59.0297 122.135 58.9871 122.175 58.9074 122.175L52.8914 122.213C52.8025 122.215 52.7626 122.26 52.7719 122.348ZM52.9747 120.363L56.865 120.33C56.882 120.33 56.8982 120.323 56.9102 120.311C56.9222 120.299 56.9289 120.283 56.9289 120.266V120.228C56.9245 119.698 56.7091 119.191 56.3303 118.819C55.9514 118.447 55.4401 118.241 54.9088 118.245H54.8976C54.6345 118.247 54.3744 118.301 54.1322 118.403C53.8899 118.506 53.6703 118.655 53.4858 118.842C53.3013 119.029 53.1556 119.251 53.0569 119.494C52.9583 119.738 52.9086 119.998 52.9108 120.261V120.299C52.9108 120.316 52.9176 120.332 52.9296 120.344C52.9415 120.356 52.9578 120.363 52.9747 120.363Z" fill="#06527B"/>
<path d="M85.8974 126.581C84.6858 126.581 83.5238 126.043 82.6671 125.085C81.8104 124.127 81.3291 122.829 81.3291 121.474C81.3291 120.12 81.8104 118.821 82.6671 117.863C83.5238 116.905 84.6858 116.367 85.8974 116.367C87.109 116.367 88.2709 116.905 89.1276 117.863C89.9844 118.821 90.4657 120.12 90.4657 121.474C90.4657 122.829 89.9844 124.127 89.1276 125.085C88.2709 126.043 87.109 126.581 85.8974 126.581ZM85.886 124.758C86.2064 124.758 86.5238 124.674 86.8201 124.51C87.1164 124.345 87.3858 124.104 87.6129 123.8C87.84 123.495 88.0203 123.134 88.1436 122.736C88.267 122.338 88.3308 121.912 88.3316 121.481C88.3323 121.05 88.27 120.623 88.1481 120.225C88.0262 119.827 87.8471 119.465 87.6211 119.16C87.3951 118.855 87.1265 118.613 86.8308 118.447C86.5351 118.282 86.218 118.197 85.8976 118.196C85.5772 118.195 85.2598 118.28 84.9635 118.444C84.6672 118.608 84.3978 118.85 84.1707 119.154C83.9437 119.458 83.7633 119.82 83.64 120.217C83.5167 120.615 83.4528 121.042 83.4521 121.473C83.4513 121.903 83.5137 122.33 83.6356 122.728C83.7575 123.127 83.9366 123.489 84.1626 123.794C84.3886 124.099 84.6571 124.341 84.9528 124.506C85.2485 124.672 85.5656 124.757 85.886 124.758Z" fill="#06527B"/>
<path d="M94.2699 117.206C96.4234 115.647 99.6579 116.353 99.7357 119.406C99.7894 121.595 99.8089 123.856 99.794 126.188C99.794 126.327 99.7236 126.397 99.5828 126.397H97.8489C97.7544 126.397 97.7072 126.349 97.7072 126.254C97.7109 124.121 97.7072 121.993 97.6961 119.868C97.6822 117.42 94.3199 118.105 94.0781 119.686C93.7725 121.675 94.0364 124.205 94.017 126.254C94.0151 126.349 93.967 126.397 93.8725 126.397H92.1469C92.0079 126.397 91.9385 126.327 91.9385 126.188L91.944 116.785C91.944 116.703 91.9857 116.659 92.0691 116.656L93.7252 116.573C93.7708 116.571 93.8156 116.585 93.8521 116.611C93.8886 116.638 93.9144 116.676 93.9253 116.719L94.0309 117.121C94.0679 117.265 94.1476 117.294 94.2699 117.206Z" fill="#06527B"/>
<path d="M115.863 126.575C114.651 126.582 113.487 126.05 112.625 125.097C111.763 124.144 111.275 122.849 111.268 121.495C111.26 120.141 111.735 118.841 112.587 117.879C113.438 116.917 114.597 116.374 115.809 116.367C117.02 116.361 118.185 116.893 119.047 117.845C119.909 118.798 120.397 120.094 120.404 121.448C120.411 122.801 119.937 124.102 119.085 125.064C118.234 126.025 117.074 126.569 115.863 126.575ZM115.83 124.766C116.15 124.766 116.467 124.682 116.763 124.518C117.059 124.353 117.328 124.112 117.555 123.808C117.782 123.504 117.962 123.142 118.085 122.744C118.208 122.347 118.272 121.92 118.273 121.489C118.274 121.058 118.211 120.632 118.09 120.233C117.968 119.835 117.789 119.473 117.563 119.168C117.337 118.863 117.069 118.621 116.774 118.456C116.478 118.29 116.162 118.205 115.842 118.204C115.522 118.204 115.205 118.288 114.909 118.452C114.613 118.617 114.344 118.858 114.117 119.162C113.89 119.466 113.71 119.828 113.587 120.226C113.463 120.623 113.4 121.05 113.399 121.481C113.398 121.912 113.46 122.338 113.582 122.737C113.704 123.135 113.883 123.497 114.109 123.802C114.334 124.107 114.603 124.349 114.898 124.515C115.193 124.68 115.51 124.765 115.83 124.766Z" fill="#06527B"/>
<path d="M123.983 119.95C123.965 122.023 123.96 124.108 123.969 126.204C123.971 126.332 123.906 126.396 123.775 126.396H122.021C121.929 126.396 121.882 126.35 121.882 126.259V116.765C121.882 116.67 121.93 116.622 122.027 116.622H123.555C123.666 116.622 123.761 116.661 123.839 116.738L124.069 116.966C124.092 116.988 124.122 117.002 124.154 117.005C124.186 117.007 124.218 116.998 124.244 116.98C124.976 116.463 125.786 116.305 126.673 116.507C126.733 116.521 126.786 116.555 126.825 116.603C126.863 116.65 126.884 116.71 126.884 116.771V118.352C126.884 118.453 126.834 118.501 126.734 118.498C125.573 118.454 123.997 118.503 123.983 119.95Z" fill="#06527B"/>
<path d="M134.45 117.2C136.665 115.619 139.983 116.416 140.005 119.524C140.02 121.656 140.026 123.874 140.022 126.176C140.022 126.235 139.998 126.291 139.956 126.332C139.914 126.373 139.857 126.396 139.797 126.396H138.074C138.038 126.396 138.003 126.382 137.978 126.357C137.952 126.332 137.938 126.297 137.938 126.262C137.921 124.076 137.92 121.899 137.935 119.73C137.946 117.877 135.479 117.929 134.609 119.07C133.895 120.008 134.25 124.834 134.245 126.209C134.245 126.334 134.181 126.396 134.053 126.396H132.336C132.221 126.396 132.164 126.34 132.164 126.226V116.785C132.164 116.702 132.205 116.658 132.289 116.653L133.753 116.581C133.838 116.576 133.921 116.6 133.991 116.648C134.06 116.696 134.112 116.765 134.136 116.845L134.225 117.126C134.266 117.252 134.341 117.277 134.45 117.2Z" fill="#06527B"/>
<path d="M147.814 125.937C141.061 129.092 139.714 118.16 144.407 116.59C145.548 116.207 146.679 116.376 147.8 117.099C147.922 117.177 148.01 117.149 148.064 117.013L148.153 116.78C148.168 116.741 148.194 116.708 148.228 116.684C148.262 116.66 148.302 116.646 148.344 116.645L149.962 116.606C150.038 116.605 150.077 116.642 150.078 116.719C150.095 119.352 150.1 121.982 150.092 124.609C150.09 126.144 150.056 127.543 149.186 128.605C147.525 130.632 143.718 130.382 142.156 128.302C142.129 128.265 142.114 128.219 142.116 128.173C142.117 128.126 142.134 128.082 142.165 128.047L143.02 127.035C143.046 127.004 143.079 126.979 143.116 126.963C143.153 126.946 143.193 126.938 143.233 126.939C143.274 126.939 143.313 126.949 143.349 126.967C143.385 126.985 143.416 127.011 143.44 127.043C144.743 128.745 147.961 128.74 147.975 126.039C147.975 125.922 147.921 125.888 147.814 125.937ZM145.257 118.421C142.956 119.447 143.123 125.123 146.469 124.642C148.536 124.342 147.928 121.306 147.933 119.879C147.936 118.545 146.241 117.981 145.257 118.421Z" fill="#06527B"/>
<path d="M103.873 116.625H101.962C101.914 116.625 101.875 116.663 101.875 116.71V126.308C101.875 126.355 101.914 126.393 101.962 126.393H103.873C103.921 126.393 103.96 126.355 103.96 126.308V116.71C103.96 116.663 103.921 116.625 103.873 116.625Z" fill="#06527B"/>
<path d="M129.994 116.625H128.082C128.034 116.625 127.996 116.663 127.996 116.71V126.308C127.996 126.355 128.034 126.393 128.082 126.393H129.994C130.041 126.393 130.08 126.355 130.08 126.308V116.71C130.08 116.663 130.041 116.625 129.994 116.625Z" fill="#06527B"/>
</g>
<defs>
<clipPath id="clip0_267_26">
<rect width="111" height="71" fill="white" transform="translate(39.0957 59)"/>
</clipPath>
</defs>
</svg>
