<svg width="41" height="32" viewBox="0 0 41 32" fill="none" xmlns="http://www.w3.org/2000/svg">
<path fill-rule="evenodd" clip-rule="evenodd" d="M8.39338 4.92607C8.50731 4.92607 8.61621 4.88397 8.70269 4.81031C9.90469 3.78904 11.4595 3.17179 13.157 3.17179C14.6482 3.17179 16.0648 3.63896 17.2567 4.52388C17.8873 4.9915 18.7717 4.98784 19.34 4.44609C20.0703 3.75015 19.9792 2.60305 19.2087 2.02286C17.453 0.699606 15.3606 0 13.157 0C9.8054 0 6.8331 1.64767 5.00333 4.17476C4.77684 4.48773 5.00562 4.92653 5.39225 4.92653H8.39338V4.92607Z" fill="#82AD3A"/>
<path fill-rule="evenodd" clip-rule="evenodd" d="M26.984 6.67554C26.3502 6.07065 25.3464 6.09353 24.7415 6.72725C24.4239 7.05943 23.8245 7.80937 22.7923 9.10563C21.183 11.1258 18.4899 14.5067 17.437 15.354C16.4066 16.1836 15.1744 16.9518 13.1575 16.9518C11.1506 16.9518 9.34327 16.0884 8.0827 14.7144C7.71573 14.3346 7.32818 14.115 7.27419 13.0205C7.10581 9.5879 11.5771 9.3971 11.6915 11.7352C11.7198 12.3159 11.2929 12.6238 10.8372 12.5323C10.7342 11.7988 9.83972 11.5394 9.39863 12.1283C8.75576 12.9871 10.2154 14.4074 11.6969 13.9342C12.4409 13.6968 12.8166 13.1596 13.0179 12.6028C13.7779 10.4994 12.0241 8.13149 9.78435 7.96174C9.63611 7.95076 9.51485 7.94527 9.35791 7.9471C9.2664 7.94847 8.9786 7.98279 8.9246 7.97089C8.88525 7.74074 8.8697 7.56092 8.78871 7.31201C8.42083 6.18413 7.33825 5.38431 6.1939 5.36647C5.85713 5.36098 5.16668 5.44242 4.90587 5.63917C5.05092 5.71833 5.34192 5.97456 5.48056 6.1132C6.08912 6.72313 6.46386 7.4415 6.62171 8.25595C6.69767 8.64945 6.72421 9.22872 6.65283 9.62313C6.61027 9.85923 6.57275 10.0386 6.50046 10.2724C6.46797 10.3776 6.43228 10.4824 6.38836 10.5835C6.34626 10.6801 6.279 10.8027 6.25201 10.8814L5.96283 10.0551C5.58717 9.15414 5.05961 8.4376 4.21404 8.002C3.56111 7.6657 2.67711 7.51425 1.97796 7.66478C1.0935 7.85559 0.279959 8.56206 0.0772604 9.32252C-0.390364 11.2983 1.37352 11.9205 2.44558 12.0134C-0.172109 9.6547 3.45084 8.85123 3.93219 10.8485C3.97794 11.0832 3.99487 11.3047 4.00128 11.5183C4.00494 11.6428 3.99533 11.7288 3.99304 11.851C3.98389 12.4033 4.00448 12.9336 4.09645 13.5078C4.74984 17.5961 9.26548 20.1232 13.1579 20.1232C16.1828 20.1232 18.0973 18.8951 19.4265 17.8249C20.6527 16.8379 22.8001 14.1873 25.2736 11.0814C26.0249 10.1383 26.8019 9.16283 27.0366 8.91712C27.6415 8.28386 27.6181 7.27998 26.9849 6.67463L26.984 6.67554Z" fill="#0771BD"/>
<path fill-rule="evenodd" clip-rule="evenodd" d="M33.6466 15.1977C33.5326 15.1977 33.4237 15.2398 33.3373 15.3135C32.1353 16.3348 30.5805 16.9525 28.8834 16.9525C27.3922 16.9525 25.9756 16.4853 24.7837 15.6008C24.1532 15.1328 23.2687 15.1369 22.7004 15.6782C21.9702 16.3741 22.0612 17.5212 22.8317 18.1014C24.5874 19.4246 26.6798 20.1243 28.8834 20.1243C32.235 20.1243 35.2073 18.4766 37.0366 15.949C37.2631 15.6361 37.0343 15.1973 36.6482 15.1973H33.647L33.6466 15.1977Z" fill="#82AD3A"/>
<path fill-rule="evenodd" clip-rule="evenodd" d="M15.0563 13.4481C15.69 14.053 16.6939 14.0301 17.2988 13.3968C17.6159 13.0642 18.2157 12.3147 19.248 11.018C20.8572 8.99788 23.5504 5.61653 24.6032 4.76959C25.6337 3.94003 26.8659 3.17225 28.8828 3.17225C30.8896 3.17225 32.697 4.03566 33.9576 5.40971C35.0337 6.58335 36.2637 6.88671 35.7091 9.36621C35.4355 10.5902 34.459 11.6714 33.3714 12.0411C32.3964 12.3724 31.0498 12.058 30.455 10.743C30.2692 10.3326 30.1841 9.64715 30.3548 9.17541C30.584 8.54261 31.3541 8.3422 31.8244 8.68582C31.2086 9.6348 32.233 10.8263 33.2808 10.3124C34.0637 9.92901 34.3437 8.56778 33.9406 7.65586C33.1312 5.82471 30.2751 5.53691 28.8631 7.21752C28.0601 8.17336 28.007 9.21796 28.1786 10.0105C28.3799 10.9407 29.0201 11.9052 29.8258 12.5366C30.7336 13.2481 31.7897 13.5391 32.6622 13.5346C33.5412 13.53 34.341 13.358 35.2891 12.759C35.3124 12.8125 35.3243 12.8784 35.343 12.9407C35.8939 14.7878 39.2401 14.8052 40.5478 14.484C40.5565 14.4904 37.0754 13.9793 37.7082 11.4399C38.0637 10.0137 37.8015 9.08573 37.8235 8.89767C38.5418 9.40236 39.4327 9.50485 40.1858 9.24222C40.3382 9.18914 40.8031 8.99147 40.917 8.84002C40.4581 8.6149 40.1195 8.43234 39.7068 8.05989C37.8047 6.34358 37.785 4.55636 35.8194 2.78241C34.0134 1.0597 31.57 0 28.8828 0C25.8579 0 23.9434 1.22809 22.6142 2.29831C21.3875 3.28527 19.2402 5.9359 16.7671 9.04181C16.0158 9.98483 15.2389 10.9603 15.0041 11.2061C14.3997 11.8398 14.4226 12.8437 15.0558 13.4481H15.0563Z" fill="url(#paint0_linear_228_11)"/>
<path d="M0.649901 26.4377L2.13427 30.7188H2.19287L3.67724 26.4377H4.312L2.47607 31.5234H1.85107L0.0151367 26.4377H0.649901Z" fill="#0771BD"/>
<path d="M5.09081 31.5234V26.4377H8.10838V26.984H5.69628V28.7024H7.95213V29.2487H5.69628V30.9771H8.14744V31.5234H5.09081Z" fill="#0771BD"/>
<path d="M8.92625 26.984V26.4377H12.6762V26.984H11.104V31.5234H10.4985V26.984H8.92625Z" fill="#0771BD"/>
<path d="M15.219 29.9341H15.883L16.4397 30.6791L16.5861 30.8777L17.4162 32.0002H16.7522L16.2053 31.2552L16.0686 31.0665L15.219 29.9341ZM17.6213 28.9805C17.6213 29.5169 17.5261 29.9805 17.3357 30.3712C17.1452 30.7619 16.884 31.0632 16.552 31.2751C16.2199 31.487 15.8407 31.5929 15.4143 31.5929C14.9878 31.5929 14.6086 31.487 14.2766 31.2751C13.9446 31.0632 13.6833 30.7619 13.4929 30.3712C13.3025 29.9805 13.2072 29.5169 13.2072 28.9805C13.2072 28.4442 13.3025 27.9806 13.4929 27.5899C13.6833 27.1992 13.9446 26.8979 14.2766 26.686C14.6086 26.4741 14.9878 26.3682 15.4143 26.3682C15.8407 26.3682 16.2199 26.4741 16.552 26.686C16.884 26.8979 17.1452 27.1992 17.3357 27.5899C17.5261 27.9806 17.6213 28.4442 17.6213 28.9805ZM17.0354 28.9805C17.0354 28.5402 16.9629 28.1685 16.8181 27.8656C16.6749 27.5626 16.4804 27.3333 16.2346 27.1777C15.9904 27.0221 15.717 26.9443 15.4143 26.9443C15.1115 26.9443 14.8373 27.0221 14.5915 27.1777C14.3474 27.3333 14.1529 27.5626 14.008 27.8656C13.8648 28.1685 13.7932 28.5402 13.7932 28.9805C13.7932 29.4209 13.8648 29.7926 14.008 30.0955C14.1529 30.3985 14.3474 30.6278 14.5915 30.7834C14.8373 30.939 15.1115 31.0168 15.4143 31.0168C15.717 31.0168 15.9904 30.939 16.2346 30.7834C16.4804 30.6278 16.6749 30.3985 16.8181 30.0955C16.9629 29.7926 17.0354 29.4209 17.0354 28.9805Z" fill="#0771BD"/>
<path d="M17.9747 26.4377H18.6681L20.0548 28.8117H20.1134L21.5001 26.4377H22.1934L20.3868 29.4275V31.5234H19.7813V29.4275L17.9747 26.4377Z" fill="#0771BD"/>
<path d="M22.8105 31.5234V31.0764L25.5058 26.984H22.7812V26.4377H26.2285V26.8847L23.5332 30.9771H26.2578V31.5234H22.8105Z" fill="#0771BD"/>
<path d="M27.2734 26.4377H27.996L29.6953 30.6592H29.7538L31.4531 26.4377H32.1757V31.5234H31.6093V27.6595H31.5605L29.998 31.5234H29.4511L27.8886 27.6595H27.8398V31.5234H27.2734V26.4377Z" fill="#0771BD"/>
<path d="M33.3897 31.5234V26.4377H36.4073V26.984H33.9952V28.7024H36.251V29.2487H33.9952V30.9771H36.4463V31.5234H33.3897Z" fill="#0771BD"/>
<path d="M37.2251 26.984V26.4377H40.9751V26.984H39.4029V31.5234H38.7974V26.984H37.2251Z" fill="#0771BD"/>
<defs>
<linearGradient id="paint0_linear_228_11" x1="14.7296" y1="7.10816" x2="37.4304" y2="7.10816" gradientUnits="userSpaceOnUse">
<stop stop-color="#F4AB62"/>
<stop offset="1" stop-color="#B88151"/>
</linearGradient>
</defs>
</svg>
