<svg width="190" height="190" viewBox="0 0 190 190" fill="none" xmlns="http://www.w3.org/2000/svg">
<path d="M184.164 103.627L146.683 168.545C143.754 173.62 138.34 176.745 132.481 176.745L57.519 176.745C51.66 176.745 46.246 173.62 43.3165 168.545L5.83563 103.627C2.90611 98.5526 2.90612 92.3011 5.83563 87.2271L43.3165 22.3083C46.246 17.2343 51.66 14.1085 57.519 14.1085L132.481 14.1085C138.34 14.1085 143.754 17.2343 146.683 22.3083L184.164 87.2271C187.094 92.3012 187.094 98.5527 184.164 103.627Z" fill="white" fill-opacity="0.7" stroke="white"/>
<g clip-path="url(#clip0_228_50)">
<path fill-rule="evenodd" clip-rule="evenodd" d="M67.2554 70.2386C67.5168 70.2386 67.7666 70.1425 67.965 69.9745C70.7225 67.6447 74.2893 66.2366 78.1836 66.2366C81.6045 66.2366 84.8543 67.3024 87.5887 69.3211C89.0351 70.3878 91.0642 70.3795 92.3679 69.1436C94.0431 67.556 93.8343 64.9392 92.0666 63.6156C88.039 60.597 83.2388 59.001 78.1836 59.001C70.4947 59.001 63.676 62.7597 59.4784 68.5246C58.9588 69.2386 59.4836 70.2396 60.3706 70.2396H67.2554V70.2386Z" fill="#82AD3A"/>
<path fill-rule="evenodd" clip-rule="evenodd" d="M109.903 74.2291C108.45 72.8492 106.147 72.9014 104.759 74.3471C104.031 75.1049 102.655 76.8156 100.287 79.7727C96.5956 84.3811 90.4173 92.0938 88.0019 94.0269C85.6381 95.9194 82.8113 97.6719 78.1843 97.6719C73.5804 97.6719 69.4342 95.7022 66.5424 92.5677C65.7005 91.7013 64.8115 91.2003 64.6876 88.7035C64.3013 80.8729 74.5587 80.4377 74.8212 85.7715C74.8862 87.0961 73.9069 87.7986 72.8614 87.5898C72.6252 85.9166 70.5731 85.3247 69.5612 86.6681C68.0864 88.6273 71.4349 91.8673 74.8338 90.788C76.5405 90.2463 77.4023 89.0209 77.8642 87.7505C79.6077 82.9522 75.5843 77.5505 70.4461 77.1632C70.106 77.1382 69.8279 77.1257 69.4678 77.1298C69.2579 77.133 68.5976 77.2113 68.4738 77.1841C68.3835 76.6591 68.3478 76.2489 68.162 75.681C67.3181 73.1081 64.8345 71.2835 62.2093 71.2428C61.4367 71.2303 59.8528 71.4161 59.2545 71.8649C59.5872 72.0455 60.2548 72.63 60.5729 72.9463C61.9689 74.3377 62.8286 75.9764 63.1908 77.8344C63.365 78.7321 63.4259 80.0535 63.2621 80.9533C63.1645 81.4919 63.0784 81.9011 62.9126 82.4344C62.8381 82.6745 62.7562 82.9136 62.6554 83.1442C62.5589 83.3645 62.4045 83.6442 62.3426 83.8238L61.6792 81.9386C60.8174 79.8834 59.6072 78.2488 57.6674 77.2551C56.1695 76.4879 54.1415 76.1424 52.5376 76.4858C50.5086 76.9211 48.6422 78.5327 48.1772 80.2675C47.1045 84.7747 51.151 86.1942 53.6104 86.4061C47.6052 81.0253 55.9165 79.1924 57.0208 83.7486C57.1257 84.2841 57.1646 84.7893 57.1793 85.2767C57.1877 85.5606 57.1656 85.7569 57.1604 86.0356C57.1394 87.2954 57.1866 88.5052 57.3976 89.8152C58.8965 99.1416 69.2558 104.907 78.1854 104.907C85.1248 104.907 89.5166 102.105 92.5659 99.6635C95.3791 97.412 100.305 91.3652 105.98 84.2799C107.703 82.1286 109.486 79.9032 110.024 79.3427C111.412 77.8981 111.358 75.608 109.906 74.227L109.903 74.2291Z" fill="#0771BD"/>
<path fill-rule="evenodd" clip-rule="evenodd" d="M125.188 93.669C124.926 93.669 124.676 93.765 124.478 93.9331C121.721 96.2629 118.154 97.672 114.261 97.672C110.84 97.672 107.59 96.6063 104.855 94.5886C103.409 93.5208 101.38 93.5302 100.076 94.765C98.401 96.3526 98.6099 98.9695 100.378 100.293C104.405 103.312 109.205 104.908 114.261 104.908C121.949 104.908 128.768 101.149 132.965 95.3829C133.484 94.669 132.959 93.668 132.074 93.668H125.189L125.188 93.669Z" fill="#82AD3A"/>
<path fill-rule="evenodd" clip-rule="evenodd" d="M82.5401 89.6785C83.9939 91.0584 86.2969 91.0062 87.6846 89.5615C88.412 88.8027 89.7882 87.093 92.1562 84.1348C95.8479 79.5264 102.026 71.8127 104.442 69.8806C106.806 67.9882 109.632 66.2367 114.259 66.2367C118.863 66.2367 123.009 68.2064 125.901 71.3409C128.37 74.0183 131.192 74.7103 129.919 80.3667C129.292 83.1589 127.052 85.6254 124.557 86.4688C122.32 87.2245 119.231 86.5074 117.866 83.5075C117.44 82.5712 117.245 81.0076 117.636 79.9314C118.162 78.4878 119.929 78.0306 121.008 78.8145C119.595 80.9794 121.945 83.6975 124.349 82.5253C126.145 81.6506 126.787 78.5452 125.862 76.4649C124.005 72.2876 117.453 71.6311 114.214 75.465C112.372 77.6455 112.25 80.0285 112.644 81.8364C113.106 83.9584 114.574 86.1587 116.423 87.5992C118.505 89.2223 120.928 89.8862 122.93 89.8757C124.946 89.8653 126.781 89.4728 128.956 88.1065C129.009 88.2286 129.037 88.3789 129.08 88.5209C130.343 92.7347 138.02 92.7744 141.02 92.0416C141.04 92.0562 133.054 90.8903 134.505 85.0972C135.321 81.8437 134.72 79.7268 134.77 79.2978C136.418 80.4491 138.462 80.6829 140.189 80.0838C140.539 79.9627 141.605 79.5118 141.867 79.1663C140.814 78.6527 140.037 78.2363 139.09 77.3866C134.727 73.4713 134.682 69.3942 130.172 65.3474C126.029 61.4175 120.424 59 114.259 59C107.32 59 102.928 61.8016 99.8787 64.243C97.0645 66.4945 92.1384 72.5413 86.4649 79.6266C84.7413 81.7779 82.959 84.0033 82.4205 84.5638C81.0339 86.0095 81.0863 88.2996 82.5391 89.6785H82.5401Z" fill="url(#paint0_linear_228_50)"/>
<path d="M49.4904 119.311L52.8957 129.077H53.0301L56.4353 119.311H57.8915L53.6798 130.913H52.246L48.0342 119.311H49.4904Z" fill="#0771BD"/>
<path d="M59.6782 130.913V119.311H66.6008V120.557H61.0672V124.477H66.2423V125.724H61.0672V129.666H66.6904V130.913H59.6782Z" fill="#0771BD"/>
<path d="M68.477 120.557V119.311H77.0798V120.557H73.4729V130.913H72.0839V120.557H68.477Z" fill="#0771BD"/>
<path d="M82.913 127.287H84.4364L85.7134 128.987L86.0494 129.44L87.9537 132H86.4303L85.1757 130.301L84.8621 129.87L82.913 127.287ZM88.4242 125.112C88.4242 126.335 88.2057 127.393 87.7689 128.284C87.332 129.175 86.7327 129.863 85.971 130.346C85.2093 130.83 84.3393 131.071 83.3611 131.071C82.3828 131.071 81.5128 130.83 80.7511 130.346C79.9894 129.863 79.3901 129.175 78.9533 128.284C78.5164 127.393 78.298 126.335 78.298 125.112C78.298 123.888 78.5164 122.831 78.9533 121.939C79.3901 121.048 79.9894 120.361 80.7511 119.877C81.5128 119.394 82.3828 119.152 83.3611 119.152C84.3393 119.152 85.2093 119.394 85.971 119.877C86.7327 120.361 87.332 121.048 87.7689 121.939C88.2057 122.831 88.4242 123.888 88.4242 125.112ZM87.08 125.112C87.08 124.107 86.9138 123.259 86.5815 122.568C86.2529 121.877 85.8067 121.354 85.2429 120.999C84.6829 120.644 84.0556 120.467 83.3611 120.467C82.6666 120.467 82.0374 120.644 81.4736 120.999C80.9135 121.354 80.4673 121.877 80.135 122.568C79.8064 123.259 79.6422 124.107 79.6422 125.112C79.6422 126.116 79.8064 126.964 80.135 127.655C80.4673 128.346 80.9135 128.87 81.4736 129.225C82.0374 129.58 82.6666 129.757 83.3611 129.757C84.0556 129.757 84.6829 129.58 85.2429 129.225C85.8067 128.87 86.2529 128.346 86.5815 127.655C86.9138 126.964 87.08 126.116 87.08 125.112Z" fill="#0771BD"/>
<path d="M89.2349 119.311H90.8255L94.0068 124.727H94.1412L97.3224 119.311H98.913L94.7685 126.132V130.913H93.3795V126.132L89.2349 119.311Z" fill="#0771BD"/>
<path d="M100.329 130.913V129.893L106.512 120.557H100.261V119.311H108.17V120.331L101.986 129.666H108.237V130.913H100.329Z" fill="#0771BD"/>
<path d="M110.567 119.311H112.225L116.123 128.941H116.257L120.155 119.311H121.813V130.913H120.514V122.098H120.402L116.817 130.913H115.563L111.978 122.098H111.866V130.913H110.567V119.311Z" fill="#0771BD"/>
<path d="M124.598 130.913V119.311H131.521V120.557H125.987V124.477H131.162V125.724H125.987V129.666H131.61V130.913H124.598Z" fill="#0771BD"/>
<path d="M133.397 120.557V119.311H142V120.557H138.393V130.913H137.004V120.557H133.397Z" fill="#0771BD"/>
</g>
<defs>
<linearGradient id="paint0_linear_228_50" x1="81.7907" y1="75.2155" x2="133.868" y2="75.2155" gradientUnits="userSpaceOnUse">
<stop stop-color="#F4AB62"/>
<stop offset="1" stop-color="#B88151"/>
</linearGradient>
<clipPath id="clip0_228_50">
<rect width="94" height="73" fill="white" transform="translate(48 59)"/>
</clipPath>
</defs>
</svg>
